<svg xmlns="http://www.w3.org/2000/svg" xmlns:xlink="http://www.w3.org/1999/xlink" viewBox="0 0 62.0378 116.9578"><defs><style>.cls-1{isolation:isolate;}.cls-2{mix-blend-mode:multiply;fill:url(#Gradiente_sem_nome_13);}.cls-3{fill:#d4404a;}.cls-4{fill:#e34450;}.cls-5{fill:#c73c46;}.cls-6{fill:#b3363f;}.cls-7{fill:#d13f4a;}.cls-8{fill:#ba3841;}.cls-9{fill:#c7303b;}.cls-10{fill:#5db8f1;}.cls-11{fill:#54a5da;}.cls-12{fill:#4d96c6;}.cls-13{fill:#bd3942;}.cls-14{fill:#488ebc;}.cls-15{fill:#3e79a1;}.cls-16{fill:#b53740;}.cls-17{fill:#ad343d;}.cls-18{fill:#b83741;}.cls-19{fill:#7d614c;}.cls-20{fill:#8f6f57;}.cls-21{fill:#b58d6e;}.cls-22{fill:#9e7b60;}.cls-23{fill:#96755b;}.cls-24{fill:#204966;}</style><radialGradient id="Gradiente_sem_nome_13" cx="31.0189" cy="26025.4739" r="31.1651" gradientTransform="translate(0 -6372.2056) scale(1 0.2479)" gradientUnits="userSpaceOnUse"><stop offset="0" stop-color="#b6b1b3" stop-opacity="0.8695"/><stop offset="0.3977" stop-color="#bfbdbe" stop-opacity="0.4944"/><stop offset="0.8067" stop-color="#c8c8c8" stop-opacity="0.1395"/><stop offset="1" stop-color="#ccc" stop-opacity="0"/></radialGradient></defs><g class="cls-1"><g id="Camada_2" data-name="Camada 2"><g id="Camada_1-2" data-name="Camada 1"><path class="cls-2" d="M62.0378,79.51c0,4.5481-13.8868,8.2358-31.0189,8.2358S0,84.0585,0,79.51c0-4.55,13.8868-8.2378,31.0189-8.2378S62.0378,74.96,62.0378,79.51Z"/><polygon class="cls-3" points="20.271 0 19.713 10.759 21.807 10.759 20.271 0"/><polygon class="cls-4" points="21.458 24.649 19.713 10.759 21.807 10.759 21.458 24.649"/><polygon class="cls-5" points="21.458 24.649 19.713 10.759 18.598 26.142 21.458 24.649"/><polygon class="cls-6" points="21.458 24.649 20.271 33.498 18.598 26.142 21.458 24.649"/><polygon class="cls-7" points="16.643 37.108 20.271 33.498 18.598 26.142 16.643 37.108"/><polygon class="cls-8" points="16.643 37.108 20.271 33.498 18.598 40.068 16.643 37.108"/><polygon class="cls-5" points="16.643 37.108 15.108 42.221 18.598 40.068 16.643 37.108"/><polygon class="cls-5" points="16.643 45.502 15.108 42.221 18.598 40.068 16.643 45.502"/><polygon class="cls-8" points="16.643 45.502 15.108 42.221 12.316 45.502 16.643 45.502"/><polygon class="cls-9" points="20.271 0 22.645 0.698 21.807 10.759 20.271 0"/><polygon class="cls-10" points="25.296 0.837 22.645 0.698 21.807 10.759 25.296 0.837"/><polygon class="cls-11" points="25.296 0.837 24.457 17.704 21.807 10.759 25.296 0.837"/><polygon class="cls-3" points="25.296 0.837 24.457 17.704 27.483 0.837 25.296 0.837"/><polygon class="cls-4" points="26.46 28.137 24.457 17.704 27.483 0.837 26.46 28.137"/><polygon class="cls-12" points="26.46 28.137 29.867 0.837 27.483 0.837 26.46 28.137"/><polygon class="cls-10" points="26.46 28.137 29.867 0.837 29.094 28.683 26.46 28.137"/><polygon class="cls-5" points="32.224 0.837 29.867 0.837 29.094 28.683 32.224 0.837"/><polygon class="cls-3" points="32.224 0.837 32.996 28.683 29.094 28.683 32.224 0.837"/><polygon class="cls-13" points="29.094 38.699 32.996 28.683 29.094 28.683 29.094 38.699"/><polygon class="cls-5" points="29.094 38.699 32.996 28.683 32.996 38.699 29.094 38.699"/><polygon class="cls-5" points="29.094 38.699 27.564 45.624 32.996 38.699 29.094 38.699"/><polygon class="cls-6" points="34.528 45.624 27.564 45.624 32.996 38.699 34.528 45.624"/><polygon class="cls-11" points="26.46 28.137 26.031 36.344 29.094 28.683 26.46 28.137"/><polygon class="cls-12" points="29.094 38.699 26.031 36.344 29.094 28.683 29.094 38.699"/><polygon class="cls-14" points="29.094 38.699 26.031 36.344 24.728 43.176 29.094 38.699"/><polygon class="cls-12" points="29.094 38.699 27.564 45.624 24.728 43.176 29.094 38.699"/><polygon class="cls-15" points="23.759 45.624 27.564 45.624 24.728 43.176 23.759 45.624"/><polygon class="cls-6" points="26.46 28.137 24.457 17.704 22.999 35.809 26.46 28.137"/><polygon class="cls-5" points="26.46 28.137 25.971 37.499 22.999 35.809 26.46 28.137"/><polygon class="cls-7" points="21.807 41.587 25.971 37.499 22.999 35.809 21.807 41.587"/><polygon class="cls-8" points="21.807 41.587 25.971 37.499 24.728 43.176 21.807 41.587"/><polygon class="cls-5" points="21.807 41.587 21.458 43.176 24.728 43.176 21.807 41.587"/><polygon class="cls-16" points="23.759 45.624 21.458 43.176 24.728 43.176 23.759 45.624"/><polygon class="cls-17" points="23.759 45.624 21.458 43.176 20.271 45.502 23.759 45.624"/><polygon class="cls-12" points="21.458 24.649 24.457 17.704 21.807 10.759 21.458 24.649"/><polygon class="cls-10" points="21.458 24.649 24.457 17.704 23.552 28.38 21.458 24.649"/><polygon class="cls-14" points="21.458 24.649 20.551 31.626 23.552 28.38 21.458 24.649"/><polygon class="cls-11" points="22.958 36.344 20.551 31.626 23.552 28.38 22.958 36.344"/><polygon class="cls-12" points="22.958 36.344 20.551 31.626 19.352 37.108 22.958 36.344"/><polygon class="cls-14" points="22.958 36.344 21.458 43.176 19.352 37.108 22.958 36.344"/><polygon class="cls-12" points="16.643 45.502 21.458 43.176 19.352 37.108 16.643 45.502"/><polygon class="cls-15" points="16.643 45.502 21.458 43.176 20.271 45.502 16.643 45.502"/><polygon class="cls-5" points="41.819 0 42.422 10.759 40.282 10.759 41.819 0"/><polygon class="cls-4" points="40.632 24.649 42.422 10.759 40.282 10.759 40.632 24.649"/><polygon class="cls-3" points="40.632 24.649 42.422 10.759 43.493 26.142 40.632 24.649"/><polygon class="cls-5" points="40.632 24.649 41.819 33.498 43.493 26.142 40.632 24.649"/><polygon class="cls-7" points="45.448 37.108 41.819 33.498 43.493 26.142 45.448 37.108"/><polygon class="cls-5" points="45.448 37.108 41.819 33.498 43.493 40.068 45.448 37.108"/><polygon class="cls-13" points="45.448 37.108 46.984 42.221 43.493 40.068 45.448 37.108"/><polygon class="cls-18" points="45.448 45.502 46.984 42.221 43.493 40.068 45.448 45.502"/><polygon class="cls-6" points="45.448 45.502 46.984 42.221 49.774 45.502 45.448 45.502"/><polygon class="cls-4" points="41.819 0 39.446 0.698 40.282 10.759 41.819 0"/><polygon class="cls-10" points="36.794 0.837 39.446 0.698 40.282 10.759 36.794 0.837"/><polygon class="cls-12" points="36.794 0.837 37.631 17.704 40.282 10.759 36.794 0.837"/><polygon class="cls-4" points="36.794 0.837 37.631 17.704 34.608 0.837 36.794 0.837"/><polygon class="cls-5" points="35.631 28.137 37.631 17.704 34.608 0.837 35.631 28.137"/><polygon class="cls-12" points="35.631 28.137 32.224 0.837 34.608 0.837 35.631 28.137"/><polygon class="cls-10" points="35.631 28.137 32.224 0.837 32.996 28.683 35.631 28.137"/><polygon class="cls-11" points="35.631 28.137 36.058 36.344 32.996 28.683 35.631 28.137"/><polygon class="cls-12" points="32.996 38.699 36.058 36.344 32.996 28.683 32.996 38.699"/><polygon class="cls-14" points="32.996 38.699 36.058 36.344 37.36 43.176 32.996 38.699"/><polygon class="cls-12" points="32.996 38.699 34.528 45.624 37.36 43.176 32.996 38.699"/><polygon class="cls-15" points="38.332 45.624 34.528 45.624 37.36 43.176 38.332 45.624"/><polygon class="cls-5" points="35.631 28.137 37.631 17.704 39.092 35.809 35.631 28.137"/><polygon class="cls-3" points="35.631 28.137 36.12 37.499 39.092 35.809 35.631 28.137"/><polygon class="cls-5" points="40.282 41.587 36.12 37.499 39.092 35.809 40.282 41.587"/><polygon class="cls-13" points="40.282 41.587 36.12 37.499 37.36 43.176 40.282 41.587"/><polygon class="cls-5" points="40.282 41.587 40.632 43.176 37.36 43.176 40.282 41.587"/><polygon class="cls-18" points="38.332 45.624 40.632 43.176 37.36 43.176 38.332 45.624"/><polygon class="cls-6" points="38.332 45.624 40.632 43.176 41.819 45.502 38.332 45.624"/><polygon class="cls-10" points="40.632 24.649 37.631 17.704 40.282 10.759 40.632 24.649"/><polygon class="cls-11" points="40.632 24.649 37.631 17.704 38.539 28.38 40.632 24.649"/><polygon class="cls-10" points="40.632 24.649 41.54 31.626 38.539 28.38 40.632 24.649"/><polygon class="cls-11" points="39.132 36.344 41.54 31.626 38.539 28.38 39.132 36.344"/><polygon class="cls-12" points="39.132 36.344 41.54 31.626 42.739 37.108 39.132 36.344"/><polygon class="cls-14" points="39.132 36.344 40.632 43.176 42.739 37.108 39.132 36.344"/><polygon class="cls-12" points="45.448 45.502 40.632 43.176 42.739 37.108 45.448 45.502"/><polygon class="cls-15" points="45.448 45.502 40.632 43.176 41.819 45.502 45.448 45.502"/><polygon class="cls-19" points="53.351 45.502 53.351 48.013 43.04 45.502 53.351 45.502"/><polygon class="cls-20" points="33.926 48.013 53.351 48.013 43.04 45.502 33.926 48.013"/><polygon class="cls-21" points="33.926 48.013 28.163 45.624 43.04 45.502 33.926 48.013"/><polygon class="cls-22" points="33.926 48.013 28.163 45.624 17.759 48.013 33.926 48.013"/><polygon class="cls-20" points="12.316 45.502 28.163 45.624 17.759 48.013 12.316 45.502"/><polygon class="cls-22" points="12.316 45.502 8.687 48.013 17.759 48.013 12.316 45.502"/><polygon class="cls-21" points="12.316 45.502 8.687 48.013 8.687 45.502 12.316 45.502"/><polygon class="cls-19" points="15.945 48.013 20.271 48.013 14.479 54.714 15.945 48.013"/><polygon class="cls-20" points="17.376 59.98 20.271 48.013 14.479 54.714 17.376 59.98"/><polygon class="cls-22" points="17.376 59.98 12.876 65.182 14.479 54.714 17.376 59.98"/><polygon class="cls-20" points="17.376 59.98 12.876 65.182 15.945 69.648 17.376 59.98"/><polygon class="cls-19" points="12.316 69.648 12.876 65.182 15.945 69.648 12.316 69.648"/><polygon class="cls-19" points="46.094 48.013 41.767 48.013 47.558 54.714 46.094 48.013"/><polygon class="cls-20" points="44.663 59.98 41.767 48.013 47.558 54.714 44.663 59.98"/><polygon class="cls-22" points="44.663 59.98 49.163 65.182 47.558 54.714 44.663 59.98"/><polygon class="cls-20" points="44.663 59.98 49.163 65.182 46.094 69.648 44.663 59.98"/><polygon class="cls-19" points="49.723 69.648 49.163 65.182 46.094 69.648 49.723 69.648"/><polygon class="cls-21" points="16.852 61.843 16.274 65.741 31.045 61.843 16.852 61.843"/><polygon class="cls-20" points="40.282 65.741 16.274 65.741 31.045 61.843 40.282 65.741"/><polygon class="cls-22" points="40.282 65.741 45.239 61.843 31.045 61.843 40.282 65.741"/><polygon class="cls-19" points="40.282 65.741 45.239 61.843 45.763 65.741 40.282 65.741"/><polygon class="cls-22" points="53.351 45.502 49.774 45.624 46.635 41.24 53.351 45.502"/><polygon class="cls-21" points="53.351 45.502 45.448 37.108 46.635 41.24 53.351 45.502"/><polygon class="cls-19" points="47.854 39.665 45.448 37.108 43.493 26.142 46.635 32.819 47.854 39.665"/><polygon class="cls-20" points="44.663 16.815 43.493 26.142 46.635 32.819 44.663 16.815"/><polygon class="cls-22" points="44.663 16.815 43.493 26.142 42.523 12.787 44.663 16.815"/><polygon class="cls-23" points="44.663 16.815 44.27 3.261 42.523 12.787 44.663 16.815"/><polygon class="cls-22" points="41.988 3.261 44.27 3.261 42.523 12.787 41.988 3.261"/><polygon class="cls-20" points="8.687 45.502 12.264 45.624 15.404 41.24 8.687 45.502"/><polygon class="cls-21" points="8.687 45.502 16.59 37.108 15.404 41.24 8.687 45.502"/><polygon class="cls-22" points="14.183 39.665 16.59 37.108 18.545 26.142 15.404 32.819 14.183 39.665"/><polygon class="cls-20" points="17.376 16.815 18.545 26.142 15.404 32.819 17.376 16.815"/><polygon class="cls-22" points="17.376 16.815 18.545 26.142 19.515 12.787 17.376 16.815"/><polygon class="cls-23" points="17.376 16.815 17.765 3.261 19.515 12.787 17.376 16.815"/><polygon class="cls-22" points="20.05 3.261 17.765 3.261 19.515 12.787 20.05 3.261"/><path class="cls-24" d="M11.0884,115.3719l1.2036-.8213a1.5041,1.5041,0,0,0,.708.5947,1.5861,1.5861,0,0,0,.7081.07,2.1831,2.1831,0,0,0,1.09-.51,2.4727,2.4727,0,0,0,.708-1.0333,6.07,6.07,0,0,0,.0708-3.1435,14.2784,14.2784,0,0,0-1.4727-3.9365q-.5236-1.005-.9629-2.0108a18.6429,18.6429,0,0,1-.9345-2.5908q-.906-3.2856.269-4.8008a3.4084,3.4084,0,0,1,1.2744-1.0625,2.39,2.39,0,0,1,1.1045-.2119,2.669,2.669,0,0,1,2.209,1.3174l-1.2178.8066a1.6193,1.6193,0,0,0-.4248-.4531,1.203,1.203,0,0,0-.623-.2266,1.4762,1.4762,0,0,0-1.1753.7227q-.6372.82-.1558,2.9727a20.1543,20.1543,0,0,0,1.9258,4.8574,15.3931,15.3931,0,0,1,1.6426,4.5176,7.2311,7.2311,0,0,1-.1558,3.7236,3.7844,3.7844,0,0,1-1.1753,1.6709,3.4476,3.4476,0,0,1-1.8125.8213,3.4132,3.4132,0,0,1-.4106.0283A2.7661,2.7661,0,0,1,11.0884,115.3719Z"/><path class="cls-24" d="M25.6734,113.22v.1l-.0142.0987q-.014.4526-.0141.7509-.014.4527-.0142.835-.0139.9917-.0142,1.7275l-1.4443.0137v-.2832a2.6189,2.6189,0,0,1-.7788.3965,2.3125,2.3125,0,0,1-.68.1,3.1089,3.1089,0,0,1-2.6621-1.7842,8.5079,8.5079,0,0,1-.9346-3.8515,54.4082,54.4082,0,0,1,.3257-7.3067l1.4444.1416q-.7934,8.2691.4106,10.2656.7785,1.3038,1.6992,1.0342a1.417,1.417,0,0,0,.8071-.665,2.9351,2.9351,0,0,0,.3965-1.4727q.0139-.6093.0142-.8789v-1.8261q-.014-1.2891-.0142-2.3506,0-2.9883.0283-4.1768l1.4444.042q-.014,1.1045-.0142,3.9365v2.294q.014.4819.0142,1.0049V113.22Z"/><path class="cls-24" d="M28.2647,103.5623a1.1281,1.1281,0,0,1,0-1.5859,1.1026,1.1026,0,0,1,.8071-.34,1.1329,1.1329,0,0,1,0,2.2656A1.1025,1.1025,0,0,1,28.2647,103.5623Zm.0142,13.0986v-.3965c0-.1425.0048-.2832.0141-.4257v-.5664q.014-.7355.0142-1.458.014-.9068.0141-1.7706.0426-4.9687-.0141-7.0654l1.4585-.0283q.0425,2.1093.0141,7.0937-.0138.8643-.0141,1.7706-.0139.7368-.0142,1.4726c0,.1885-.0049.3779-.0142.5664v.8213Z"/><path class="cls-24" d="M37.1148,115.91a4.128,4.128,0,0,1-2.2515,1.0478,1.3762,1.3762,0,0,1-.6513-.1562,2.2859,2.2859,0,0,1-1.0479-1.6993,20.5648,20.5648,0,0,1-.2549-3.7382v-6.5977l-.5381.0137h-.7646l.0142-1.459q.5382.0147,1.2885,0V97.8133h1.4585v3.3554q-.0139,1.0914-.0141,2.0957c.2265,0,.4531-.0039.68-.0136.1792-.01.3633-.0186.5523-.0283a1.349,1.349,0,0,0,.1982-.0147h.17l.1416-.0137.0708,1.459h-.17c-.104.0088-.2358.0186-.3964.0274q-.5947.0293-1.2461.0429v3.4834q.0138,1.9116.0141,3.1436a25.297,25.297,0,0,0,.17,3.2148c.0757.5371.1792.85.3116.9336H34.92a.837.837,0,0,0,.2265-.07,5.289,5.289,0,0,0,1.1045-.68Z"/><path class="cls-24" d="M41.023,116.7742a2.606,2.606,0,0,1-.7788-.2978,2.9493,2.9493,0,0,1-.85-.7647,7.0742,7.0742,0,0,1-1.1895-3.7519,5.2177,5.2177,0,0,1-.0283-.5957v-.6231l.0142-.2969v-.2548q-.085-3.7662,1.2461-5.4659a2.915,2.915,0,0,1,1.09-.8779,2.1636,2.1636,0,0,1,.4673-.17,3.0042,3.0042,0,0,1,.3681-.0567,2.5057,2.5057,0,0,1,1.9541.708,3.2615,3.2615,0,0,1,1.0337,2.0254,3.6448,3.6448,0,0,1-2.8886,4.545,7.0664,7.0664,0,0,1-1.8267.17v.41c0,.1426.0049.2647.0142.3692a7.125,7.125,0,0,0,.5664,2.4355,1.6582,1.6582,0,0,0,1.09,1.0615,1.1216,1.1216,0,0,0,.85-.1982,1.85,1.85,0,0,0,.6939-.793l1.3027.6661a3.5555,3.5555,0,0,1-1.147,1.3164,2.6873,2.6873,0,0,1-1.5151.4814A2.9615,2.9615,0,0,1,41.023,116.7742Zm.0283-7.2646a2.6526,2.6526,0,0,0,1.3169-.6377,2.5642,2.5642,0,0,0,.5381-2.3223,1.8707,1.8707,0,0,0-.51-1.09,1.1,1.1,0,0,0-.92-.3965q-.7361.0572-1.2461,1.1611a8.6084,8.6084,0,0,0-.5947,3.3838A5.2255,5.2255,0,0,0,41.0513,109.51Z"/><path class="cls-24" d="M45.3843,115.5984l1.1895-.8359a1.2914,1.2914,0,0,0,1.6426.6377,1.911,1.911,0,0,0,.9628-.9629,2.4234,2.4234,0,0,0,.2266-1.6279,3.3718,3.3718,0,0,0-.6514-1.3741q-.34-.4672-1.1469-1.374a14.0753,14.0753,0,0,1-1.3028-1.6133,3.1882,3.1882,0,0,1-.58-1.6992,3.0621,3.0621,0,0,1,.6089-1.8984,2.4466,2.4466,0,0,1,1.26-.8633,2.61,2.61,0,0,1,1.6709.07,2.71,2.71,0,0,1,1.3169,1.0625l-1.2178.793a1.233,1.233,0,0,0-.5947-.4961,1.181,1.181,0,0,0-.7646-.0274q-.8211.24-.8213,1.3594a2.1151,2.1151,0,0,0,.4814,1.1035,6.5938,6.5938,0,0,0,.4815.6094l.269.3262.2832.3105.34.3828.34.3965q.3684.4527.6372.836a4.7491,4.7491,0,0,1,.8213,1.8261,3.9157,3.9157,0,0,1-.34,2.5352,3.3128,3.3128,0,0,1-1.7133,1.67,2.65,2.65,0,0,1-1.0337.2129A2.8062,2.8062,0,0,1,45.3843,115.5984Z"/></g></g></g></svg>