<svg xmlns="http://www.w3.org/2000/svg" xmlns:xlink="http://www.w3.org/1999/xlink" viewBox="0 0 77.61 123.66"><defs><style>.cls-1{isolation:isolate;}.cls-2{font-size:29px;fill:#204966;font-family:SUNNLine-Bold, SUNN Line;font-weight:700;}.cls-3{letter-spacing:-0.02em;}.cls-4{letter-spacing:0.01em;}.cls-5{mix-blend-mode:multiply;fill:url(#Gradiente_sem_nome_13);}.cls-6{fill:#54a5da;}.cls-7{fill:#4d99c9;}.cls-8{fill:#488ebc;}.cls-9{fill:#4384ad;}.cls-10{fill:#e86305;}.cls-11{fill:#ff9b43;}.cls-12{fill:#e55f06;}.cls-13{fill:#ff8629;}.cls-14{fill:#ffa31e;}.cls-15{fill:#f78851;}.cls-16{fill:#fe6c05;}.cls-17{fill:#ffce29;}.cls-18{fill:#5db8f1;}</style><radialGradient id="Gradiente_sem_nome_13" cx="38.81" cy="26025.47" r="31.17" gradientTransform="translate(0 -6372.21) scale(1 0.25)" gradientUnits="userSpaceOnUse"><stop offset="0" stop-color="#b6b1b3" stop-opacity="0.87"/><stop offset="0.4" stop-color="#bfbdbe" stop-opacity="0.49"/><stop offset="0.81" stop-color="#c8c8c8" stop-opacity="0.14"/><stop offset="1" stop-color="#ccc" stop-opacity="0"/></radialGradient></defs><g class="cls-1"><g id="Camada_2" data-name="Camada 2"><g id="Camada_1-2" data-name="Camada 1"><text class="cls-2" transform="translate(11.72 116.67)"><tspan class="cls-3">C</tspan><tspan x="8.78" y="0">ont</tspan><tspan class="cls-4" x="31.73" y="0">a</tspan><tspan x="40.13" y="0">to</tspan></text><path class="cls-5" d="M69.83,79.51c0,4.55-13.89,8.24-31,8.24s-31-3.69-31-8.24,13.89-8.24,31-8.24S69.83,75,69.83,79.51Z"/><polygon class="cls-6" points="35.03 2.5 35.03 15.07 42.49 10.87 35.03 2.5"/><polygon class="cls-7" points="42.49 29.9 35.03 15.07 42.49 10.87 42.49 29.9"/><polygon class="cls-6" points="42.49 29.9 35.03 15.07 35.03 38.92 42.49 29.9"/><polygon class="cls-8" points="42.49 29.9 42.49 49.34 35.03 38.92 42.49 29.9"/><polygon class="cls-6" points="35.03 56.5 42.49 49.34 35.03 38.92 35.03 56.5"/><polygon class="cls-9" points="35.03 56.5 42.49 49.34 42.49 64.27 35.03 56.5"/><polygon class="cls-6" points="35.03 56.5 35.03 72.2 42.49 64.27 35.03 56.5"/><polygon class="cls-9" points="42.49 72.2 35.03 72.2 42.49 64.27 42.49 72.2"/><polygon class="cls-8" points="35.03 2.5 42.49 2.5 42.49 10.87 35.03 2.5"/><polygon class="cls-10" points="33.79 13.47 24.69 13.47 33.79 27 33.79 13.47"/><polygon class="cls-11" points="23.29 19.46 24.69 13.47 33.79 27 23.29 19.46"/><polygon class="cls-12" points="23.29 19.46 20.02 27 33.79 27 23.29 19.46"/><polygon class="cls-13" points="23.29 19.46 20.02 27 15.12 13.64 23.29 19.46"/><polygon class="cls-14" points="7.19 27 20.02 27 15.12 13.64 7.19 27"/><polygon class="cls-15" points="7.19 27 7.19 19.46 15.12 13.64 7.19 27"/><polygon class="cls-11" points="7.19 13.64 7.19 19.46 15.12 13.64 7.19 13.64"/><polygon class="cls-16" points="23.29 19.46 24.69 13.47 15.12 13.64 23.29 19.46"/><polygon class="cls-17" points="7.19 26.99 0 20.32 7.19 13.64 7.19 26.99"/><polygon class="cls-10" points="43.83 30.02 52.92 30.02 43.83 43.55 43.83 30.02"/><polygon class="cls-11" points="54.33 36.01 52.92 30.02 43.83 43.55 54.33 36.01"/><polygon class="cls-12" points="54.33 36.01 57.59 43.55 43.83 43.55 54.33 36.01"/><polygon class="cls-13" points="54.33 36.01 57.59 43.55 62.49 30.19 54.33 36.01"/><polygon class="cls-14" points="70.42 43.55 57.59 43.55 62.49 30.19 70.42 43.55"/><polygon class="cls-15" points="70.42 43.55 70.42 36.01 62.49 30.19 70.42 43.55"/><polygon class="cls-11" points="70.42 30.19 70.42 36.01 62.49 30.19 70.42 30.19"/><polygon class="cls-16" points="54.33 36.01 52.92 30.02 62.49 30.19 54.33 36.01"/><polygon class="cls-17" points="70.42 43.54 77.61 36.87 70.42 30.19 70.42 43.54"/><polygon class="cls-18" points="35.03 2.5 38.75 0 42.47 2.5 35.03 2.5"/></g></g></g></svg>