<svg xmlns="http://www.w3.org/2000/svg" xmlns:xlink="http://www.w3.org/1999/xlink" viewBox="0 0 77.4334 122.0691"><defs><style>.cls-1{isolation:isolate;}.cls-2{mix-blend-mode:multiply;fill:url(#Gradiente_sem_nome_13);}.cls-3{fill:#f23b00;}.cls-4{fill:#e63203;}.cls-5{fill:#db2f03;}.cls-6{fill:#fc4f03;}.cls-7{fill:#fea24f;}.cls-8{fill:#fe7a02;}.cls-9{fill:#d12d03;}.cls-10{fill:#204966;}</style><radialGradient id="Gradiente_sem_nome_13" cx="38.4082" cy="26025.4751" r="31.1646" gradientTransform="translate(0 -6372.2056) scale(1 0.2479)" gradientUnits="userSpaceOnUse"><stop offset="0" stop-color="#b6b1b3" stop-opacity="0.8695"/><stop offset="0.3977" stop-color="#bfbdbe" stop-opacity="0.4944"/><stop offset="0.8067" stop-color="#c8c8c8" stop-opacity="0.1395"/><stop offset="1" stop-color="#ccc" stop-opacity="0"/></radialGradient></defs><g class="cls-1"><g id="Camada_2" data-name="Camada 2"><g id="Camada_1-2" data-name="Camada 1"><path class="cls-2" d="M69.4276,79.5094c0,4.5491-13.8878,8.2368-31.02,8.2368S7.3888,84.0585,7.3888,79.5094s13.8878-8.2362,31.0189-8.2362S69.4276,74.96,69.4276,79.5094Z"/><polygon class="cls-3" points="34.306 34.563 28.242 29.474 17.928 35.428 17.934 35.463 30.313 45.849 34.419 34.563 34.306 34.563"/><polygon class="cls-3" points="50.221 21.208 50.164 21.531 61.671 19.502 53.606 5.531 53.581 5.523 46.226 14.287 50.221 21.208"/><polygon class="cls-4" points="34.419 34.563 30.313 45.849 30.323 45.858 46.494 45.858 46.506 45.85 42.398 34.563 34.419 34.563"/><polygon class="cls-4" points="61.671 19.502 50.164 21.531 48.797 29.289 48.576 29.474 58.889 35.429 61.69 19.537 61.671 19.502"/><polygon class="cls-5" points="42.512 34.563 42.398 34.563 46.506 45.85 58.884 35.463 58.889 35.429 48.576 29.474 42.512 34.563"/><polygon class="cls-6" points="46.12 14.102 46.226 14.287 53.581 5.523 38.409 0 38.409 11.296 46.12 14.102"/><polygon class="cls-7" points="30.698 14.102 38.409 11.296 38.409 0 23.236 5.523 30.592 14.288 30.698 14.102"/><polygon class="cls-6" points="28.02 29.289 26.652 21.531 15.146 19.502 15.126 19.537 17.928 35.428 28.242 29.474 28.02 29.289"/><polygon class="cls-8" points="26.596 21.208 30.592 14.288 23.236 5.523 23.211 5.531 15.146 19.502 26.652 21.531 26.596 21.208"/><polygon class="cls-8" points="17.928 35.428 30.313 59.448 30.313 45.849 17.928 35.428"/><polygon class="cls-6" points="38.409 45.858 30.313 59.448 30.313 45.849 38.409 45.858"/><polygon class="cls-6" points="38.409 45.858 30.313 59.448 38.409 71.297 38.409 45.858"/><polygon class="cls-9" points="58.89 35.428 46.506 59.448 46.506 45.849 58.89 35.428"/><polygon class="cls-3" points="38.409 45.858 46.506 59.448 46.506 45.849 38.409 45.858"/><polygon class="cls-3" points="38.409 45.858 46.506 59.448 38.409 71.297 38.409 45.858"/><path class="cls-10" d="M1.0535,116.6883a2.5671,2.5671,0,0,1-.3965-.1133c-.0376-.0186-.0757-.0371-.1133-.0566l-.0566-.042q-.3259-.24-.4106-1.2881Q-.051,113.574.034,108.2635q.0564-3.6109.0425-7.8448Q.0626,96.6951.034,95.9012l1.4443-.07q.0425.85.0567,4.5312.0138,4.248-.0567,7.916-.0849,5.4083.0567,7.0235a28.0818,28.0818,0,0,0,3.5542.0136l.0566,1.459q-1.0335.0411-1.9541.042A12.7014,12.7014,0,0,1,1.0535,116.6883Z"/><path class="cls-10" d="M8.0486,116.8016a4.2133,4.2133,0,0,1-1.7275-2.4922,14.8209,14.8209,0,0,1-.6089-4.5733,7.8665,7.8665,0,0,1,.9629-4.0635A2.7537,2.7537,0,0,1,9.054,104.03a1.5667,1.5667,0,0,1,.354.042,2.0293,2.0293,0,0,1,.4673.1416,2.6822,2.6822,0,0,1,1.062.8632q1.3308,1.7139,1.3311,5.82a11.1481,11.1481,0,0,1-.5664,3.7666,3.8562,3.8562,0,0,1-1.5718,2.1377,1.9726,1.9726,0,0,1-1.0337.2978A2.0458,2.0458,0,0,1,8.0486,116.8016Zm-.2265-10.2227a6.9506,6.9506,0,0,0-.6656,3.1572,13.1433,13.1433,0,0,0,.5381,4.0928,3.0065,3.0065,0,0,0,1.09,1.7266.6139.6139,0,0,0,.623,0,2.6031,2.6031,0,0,0,.9629-1.4864,9.4972,9.4972,0,0,0,.439-3.1718,11.5073,11.5073,0,0,0-.6089-4.1914q-.4959-1.2174-1.147-1.2178T7.8221,106.5789Z"/><path class="cls-10" d="M17.451,116.9012a2.2024,2.2024,0,0,1-.7222-.2832,3.1248,3.1248,0,0,1-.8638-.7647,7.0354,7.0354,0,0,1-1.1753-3.9648,13.5461,13.5461,0,0,1,.7647-6.2725,3.6542,3.6542,0,0,1,.92-1.2607,2.3546,2.3546,0,0,1,.9346-.4952,2.2433,2.2433,0,0,1,1.6284.1973,2.8124,2.8124,0,0,1,1.2319,1.2891l-1.3169.6367a1.3916,1.3916,0,0,0-.4814-.58.864.864,0,0,0-.6939-.1416q-.7506.1979-1.1753,1.6846a15.2282,15.2282,0,0,0-.3681,4.8711,6.8576,6.8576,0,0,0,.6089,2.7051,1.6133,1.6133,0,0,0,1.02.9628,1.1128,1.1128,0,0,0,.8213-.17,1.8693,1.8693,0,0,0,.6655-.7363l1.2886.666a3.2921,3.2921,0,0,1-1.1187,1.26,2.6508,2.6508,0,0,1-1.4726.4531A2.1388,2.1388,0,0,1,17.451,116.9012Z"/><path class="cls-10" d="M28.85,116.59a1.7975,1.7975,0,0,1-.8213.2266,1.2436,1.2436,0,0,1-.68-.1982,1.5255,1.5255,0,0,1-.6089-.7647,2.5826,2.5826,0,0,1-2.0107.9483,2.5555,2.5555,0,0,1-2.0391-1.1465,6.4386,6.4386,0,0,1-1.0761-3.8233,17.1508,17.1508,0,0,1,.538-5.3242,3.8584,3.8584,0,0,1,1.8975-2.6055,1.9547,1.9547,0,0,1,.9771-.1552,2.8638,2.8638,0,0,1,1.416.5517V104.1l1.4585.0137q0,1.0341.0141,2.6621v.5664c.0093.1513.0142.3027.0142.4531v.4111h-.0142q.0426,1.2466-.0141,2.917l-.0142.27v.2832l-.0141.623q-.014.7208-.0142,1.2461a4.6541,4.6541,0,0,0,.2407,1.7978c.0191-.01.0474-.0234.085-.0419Zm-2.4072-5.5087.0141-.3672.0142-.3828q.0139-.44.0142-.8067.0138-.9213-.0142-1.6006a3.7919,3.7919,0,0,0-.4956-2.1943,2.7889,2.7889,0,0,0-.4956-.3828,1.146,1.146,0,0,0-.5664-.17.75.75,0,0,0-.2832.0566q-.68.2973-1.1187,1.7988a16.21,16.21,0,0,0-.4531,4.7578,5.8884,5.8884,0,0,0,.5806,2.6758q.4812.8643,1.1186.8779a1.2583,1.2583,0,0,0,1.0479-.665,3.8625,3.8625,0,0,0,.6089-1.9687q0-.3252.0141-.7793v-.4239Z"/><path class="cls-10" d="M31.8377,116.7879a2.4592,2.4592,0,0,1-1.147-1.6563,15.8451,15.8451,0,0,1-.354-3.7812q-.014-3.0015.2832-8.5664.0988-1.7432.2124-3.541c.0283-.377.0518-.7364.0708-1.0762a1.0481,1.0481,0,0,0,.0142-.17.6739.6739,0,0,1,.0141-.127v-.1133l1.4585.1v.07l-.0141.0429v.127a1.0472,1.0472,0,0,0-.0142.17q-.0285.51-.0708,1.0762-.1135,1.7841-.2124,3.5117-.2973,5.5224-.2832,8.4961a16.0972,16.0972,0,0,0,.2691,3.3135,2.2767,2.2767,0,0,0,.2265.6084.5254.5254,0,0,0,.1841.2128l.0425.0137h.0708a1.0434,1.0434,0,0,0,.269-.042,4.4677,4.4677,0,0,0,1.19-.708l.8779,1.1612a6.5785,6.5785,0,0,1-1.1186.7216,2.7969,2.7969,0,0,1-1.2178.3262A1.6539,1.6539,0,0,1,31.8377,116.7879Z"/><path class="cls-10" d="M35.7317,103.5623a1.1284,1.1284,0,0,1,0-1.5859,1.1026,1.1026,0,0,1,.8072-.34,1.1329,1.1329,0,0,1,0,2.2656A1.1026,1.1026,0,0,1,35.7317,103.5623Zm.0142,13.0986v-.3965c0-.1425.0049-.2832.0142-.4257v-.5664q.0138-.7355.0141-1.458.0139-.9068.0142-1.7706.0424-4.9687-.0142-7.0654l1.4585-.0283q.0425,2.1093.0142,7.0937-.0139.8643-.0142,1.7706-.014.7368-.0141,1.4726c0,.1885-.0049.3779-.0142.5664v.8213Z"/><path class="cls-10" d="M40.5745,116.76q-.4388-.0572-.8071-.1416a.7641.7641,0,0,1-.5239-.4248,1.9172,1.9172,0,0,1,.1982-1.3174q.4248-1.02,2.3931-4.8711.4386-.8628.6655-1.3028.3684-.7206.6372-1.26.6657-1.3448,1.0054-2.0957-1.6-.0279-4.05.1133l-.085-1.4444a37.7752,37.7752,0,0,1,4.73-.0986,1.3689,1.3689,0,0,1,.977.3965.7162.7162,0,0,1,.1275.707q-.34.9916-2.7188,5.65l-.1416.2969-.17.3125-.3115.6367q-.3824.75-.6514,1.2891-.7221,1.4442-1.0053,2.1093a23.7143,23.7143,0,0,0,4.2338-.1269l.1416,1.43q-1.9541.1977-3.2993.1982Q41.1551,116.8162,40.5745,116.76Z"/><path class="cls-10" d="M54.2815,116.59a1.7971,1.7971,0,0,1-.8212.2266,1.2434,1.2434,0,0,1-.68-.1982,1.525,1.525,0,0,1-.6089-.7647,2.5828,2.5828,0,0,1-2.0108.9483,2.5552,2.5552,0,0,1-2.039-1.1465,6.4385,6.4385,0,0,1-1.0762-3.8233,17.1534,17.1534,0,0,1,.5381-5.3242,3.858,3.858,0,0,1,1.8974-2.6055,1.9547,1.9547,0,0,1,.9771-.1552,2.8634,2.8634,0,0,1,1.416.5517V104.1l1.4585.0137q0,1.0341.0142,2.6621v.5664c.0092.1513.0141.3027.0141.4531v.4111H53.347q.0425,1.2466-.0142,2.917l-.0141.27v.2832l-.0142.623q-.0139.7208-.0142,1.2461a4.6555,4.6555,0,0,0,.2408,1.7978c.019-.01.0473-.0234.0849-.0419Zm-2.4072-5.5087.0142-.3672.0141-.3828q.014-.44.0142-.8067.0139-.9213-.0142-1.6006a3.7911,3.7911,0,0,0-.4956-2.1943,2.7853,2.7853,0,0,0-.4956-.3828,1.1457,1.1457,0,0,0-.5664-.17.7513.7513,0,0,0-.2832.0566q-.68.2973-1.1186,1.7988A16.21,16.21,0,0,0,48.49,111.79a5.89,5.89,0,0,0,.5806,2.6758q.4812.8643,1.1187.8779a1.2581,1.2581,0,0,0,1.0478-.665,3.8616,3.8616,0,0,0,.6089-1.9687q0-.3252.0142-.7793v-.4239Z"/><path class="cls-10" d="M58.6712,116.9012a2.2032,2.2032,0,0,1-.7222-.2832,3.123,3.123,0,0,1-.8637-.7647,7.0338,7.0338,0,0,1-1.1753-3.9648,13.5463,13.5463,0,0,1,.7646-6.2725,3.6542,3.6542,0,0,1,.92-1.2607,2.3546,2.3546,0,0,1,.9346-.4952,2.2433,2.2433,0,0,1,1.6284.1973,2.8124,2.8124,0,0,1,1.2319,1.2891l-1.3169.6367a1.3916,1.3916,0,0,0-.4814-.58.8637.8637,0,0,0-.6938-.1416q-.7507.1979-1.1753,1.6846a15.2248,15.2248,0,0,0-.3682,4.8711,6.8576,6.8576,0,0,0,.6089,2.7051,1.6133,1.6133,0,0,0,1.02.9628,1.1128,1.1128,0,0,0,.8213-.17,1.8693,1.8693,0,0,0,.6655-.7363l1.2886.666a3.2926,3.2926,0,0,1-1.1186,1.26,2.6511,2.6511,0,0,1-1.4727.4531A2.1388,2.1388,0,0,1,58.6712,116.9012Zm-1.2319,4.8144.269-1.0195a5.7527,5.7527,0,0,0,1.3027.24l.1275-.042.0991-.1133a.342.342,0,0,0,.0283-.1982.6076.6076,0,0,0-.3115-.24l-.1558-.0567-.0849-.0293-.0708-.0273-.2266-.0859-.2407-.0987a.7475.7475,0,0,1-.4673-.6513v-.043l-.0142-.0567a.7219.7219,0,0,1,.0142-.1406,1.1383,1.1383,0,0,1,.1274-.4258,5.11,5.11,0,0,1,1.2178-1.3447l.708.793a9.3172,9.3172,0,0,0-.8921.9912,3.9668,3.9668,0,0,1,.6656.27,4.2154,4.2154,0,0,1,.5239.3819,1.0065,1.0065,0,0,1,.4248.9775l-.0142.084-.0141.1133a1.237,1.237,0,0,1-.085.2832,1.0447,1.0447,0,0,1-.439.5527,1.5275,1.5275,0,0,1-.8779.24A6.1622,6.1622,0,0,1,57.4393,121.7156Z"/><path class="cls-10" d="M69.8719,116.59a1.7975,1.7975,0,0,1-.8213.2266,1.2436,1.2436,0,0,1-.68-.1982,1.525,1.525,0,0,1-.6089-.7647,2.5827,2.5827,0,0,1-2.0107.9483,2.5552,2.5552,0,0,1-2.0391-1.1465,6.4385,6.4385,0,0,1-1.0762-3.8233,17.1534,17.1534,0,0,1,.5381-5.3242,3.8578,3.8578,0,0,1,1.8975-2.6055,1.9543,1.9543,0,0,1,.977-.1552,2.8631,2.8631,0,0,1,1.416.5517V104.1l1.4585.0137q0,1.0341.0142,2.6621v.5664c.0093.1513.0142.3027.0142.4531v.4111h-.0142q.0425,1.2466-.0142,2.917l-.0141.27v.2832l-.0142.623q-.014.7208-.0141,1.2461a4.6541,4.6541,0,0,0,.2407,1.7978c.019-.01.0473-.0234.0849-.0419ZM67.3372,102.868a1.8318,1.8318,0,0,0,1.5859-.835,1.6755,1.6755,0,0,0,.3116-1.1475,2.0414,2.0414,0,0,0-.7788-1.3593l-.9629,1.0908a.7808.7808,0,0,1,.2832.3965.236.236,0,0,1,0,.1133l-.0283.0419-.0142.0293a.48.48,0,0,1-.2549.1836.3059.3059,0,0,1-.2124.0284,1.8622,1.8622,0,0,1-.2407-.212q-.1275-.1288-.2974-.3261l-.1982-.1983-.1983-.2119a3.7585,3.7585,0,0,0-.4389-.3828,1.9542,1.9542,0,0,0-1.0762-.44,1.8059,1.8059,0,0,0-1.2886.5391,1.6579,1.6579,0,0,0-.4389,1.6,2.6778,2.6778,0,0,0,.2124.68,1.8264,1.8264,0,0,0,.0991.24l.0425.0713.0141.0283.0142.0137,1.26-.707a1.8475,1.8475,0,0,1-.1982-.5391c-.0474-.1787-.0518-.2871-.0142-.3252.1133-.1035.1934-.1513.2408-.1416a.9343.9343,0,0,1,.4248.2832q.1134.1.2548.24c.0567.0664.1275.1425.2124.2265a4.3777,4.3777,0,0,0,.9063.8223A1.5693,1.5693,0,0,0,67.3372,102.868Zm.1274,8.2129.0142-.3672.0142-.3828q.0138-.44.0141-.8067.014-.9213-.0141-1.6006a3.7928,3.7928,0,0,0-.4956-2.1943,2.7925,2.7925,0,0,0-.4956-.3828,1.146,1.146,0,0,0-.5664-.17.7514.7514,0,0,0-.2833.0566q-.68.2973-1.1186,1.7988A16.21,16.21,0,0,0,64.08,111.79a5.89,5.89,0,0,0,.5805,2.6758q.4812.8643,1.1187.8779a1.2581,1.2581,0,0,0,1.0478-.665,3.8606,3.8606,0,0,0,.6089-1.9687q0-.3252.0142-.7793v-.4239Z"/><path class="cls-10" d="M73.2137,116.8016a4.2134,4.2134,0,0,1-1.7276-2.4922,14.8239,14.8239,0,0,1-.6089-4.5733,7.8665,7.8665,0,0,1,.9629-4.0635A2.7538,2.7538,0,0,1,74.219,104.03a1.5661,1.5661,0,0,1,.354.042,2.0279,2.0279,0,0,1,.4673.1416,2.6822,2.6822,0,0,1,1.062.8632q1.3309,1.7139,1.3311,5.82a11.1481,11.1481,0,0,1-.5664,3.7666,3.8557,3.8557,0,0,1-1.5718,2.1377,1.9726,1.9726,0,0,1-1.0337.2978A2.0451,2.0451,0,0,1,73.2137,116.8016Zm-.2266-10.2227a6.9506,6.9506,0,0,0-.6655,3.1572,13.1433,13.1433,0,0,0,.5381,4.0928,3.006,3.006,0,0,0,1.09,1.7266.6139.6139,0,0,0,.623,0,2.6021,2.6021,0,0,0,.9629-1.4864,9.492,9.492,0,0,0,.439-3.1718,11.5051,11.5051,0,0,0-.6089-4.1914q-.4959-1.2174-1.147-1.2178T72.9871,106.5789Z"/></g></g></g></svg>