<svg xmlns="http://www.w3.org/2000/svg" xmlns:xlink="http://www.w3.org/1999/xlink" viewBox="0 0 87.58 123.66"><defs><style>.cls-1{isolation:isolate;}.cls-2{font-size:29px;fill:#204966;font-family:SUNNLine-Bold, SUNN Line;font-weight:700;}.cls-3{letter-spacing:0.03em;}.cls-4{letter-spacing:-0.02em;}.cls-5{letter-spacing:-0.01em;}.cls-6{mix-blend-mode:multiply;fill:url(#Gradiente_sem_nome_13);}.cls-7{fill:#ff9b43;}.cls-8{fill:#ffce29;}.cls-9{fill:#ff750a;}.cls-10{fill:#fff51f;}.cls-11{fill:#fffe85;}.cls-12{fill:#ffe41f;}.cls-13{fill:#ff8629;}.cls-14{fill:#ffa31e;}.cls-15{fill:#ed6902;}.cls-16{fill:#f78851;}.cls-17{fill:#fe6c05;}.cls-18{fill:#e55f06;}</style><radialGradient id="Gradiente_sem_nome_13" cx="43.79" cy="26025.47" r="31.17" gradientTransform="translate(0 -6372.21) scale(1 0.25)" gradientUnits="userSpaceOnUse"><stop offset="0" stop-color="#b6b1b3" stop-opacity="0.87"/><stop offset="0.4" stop-color="#bfbdbe" stop-opacity="0.49"/><stop offset="0.81" stop-color="#c8c8c8" stop-opacity="0.14"/><stop offset="1" stop-color="#ccc" stop-opacity="0"/></radialGradient></defs><g class="cls-1"><g id="Camada_2" data-name="Camada 2"><g id="Camada_1-2" data-name="Camada 1"><text class="cls-2" transform="translate(0 116.68)"><tspan class="cls-3">Q</tspan><tspan x="9.7" y="0">u</tspan><tspan class="cls-4" x="18.22" y="0">e</tspan><tspan x="25.52" y="0">m som</tspan><tspan class="cls-5" x="72.7" y="0">o</tspan><tspan x="80.46" y="0">s</tspan></text><path class="cls-6" d="M74.81,79.51c0,4.55-13.89,8.24-31,8.24s-31-3.69-31-8.24,13.89-8.24,31-8.24S74.81,75,74.81,79.51Z"/><polygon class="cls-7" points="77.26 33.47 77.26 33.47 65.93 33.47 65.93 37.65 77.26 33.47"/><polygon class="cls-8" points="65.93 29.3 65.93 33.47 77.26 33.47 65.93 29.3"/><polygon class="cls-7" points="72.78 16.74 72.78 16.74 62.97 22.4 65.05 26.02 72.78 16.74"/><polygon class="cls-8" points="60.88 18.79 62.97 22.4 72.78 16.74 60.88 18.79"/><polygon class="cls-7" points="60.53 4.49 60.53 4.49 54.86 14.3 58.48 16.38 60.53 4.49"/><polygon class="cls-8" points="51.25 12.21 54.86 14.3 60.53 4.49 51.25 12.21"/><polygon class="cls-7" points="43.79 0 43.79 0 43.79 11.33 47.96 11.33 43.79 0"/><polygon class="cls-8" points="39.62 11.33 43.79 11.33 43.79 0 39.62 11.33"/><polygon class="cls-7" points="27.05 4.49 27.05 4.49 32.72 14.3 36.33 12.21 27.05 4.49"/><polygon class="cls-8" points="29.1 16.38 32.72 14.3 27.05 4.49 29.1 16.38"/><polygon class="cls-7" points="14.8 16.74 14.8 16.74 24.61 22.4 26.7 18.79 14.8 16.74"/><polygon class="cls-8" points="22.53 26.02 24.61 22.4 14.8 16.74 22.53 26.02"/><polygon class="cls-7" points="10.32 33.47 10.32 33.47 21.65 33.48 21.65 29.3 10.32 33.47"/><polygon class="cls-8" points="21.65 37.65 21.65 33.48 10.32 33.47 21.65 37.65"/><polygon class="cls-7" points="14.8 50.21 14.8 50.21 24.61 44.55 22.53 40.93 14.8 50.21"/><polygon class="cls-8" points="26.7 48.16 24.61 44.55 14.8 50.21 26.7 48.16"/><polygon class="cls-7" points="27.05 62.46 27.05 62.46 32.72 52.65 29.11 50.56 27.05 62.46"/><polygon class="cls-8" points="36.33 54.74 32.72 52.65 27.05 62.46 36.33 54.74"/><polygon class="cls-7" points="43.79 66.95 43.79 66.95 43.79 55.62 39.62 55.62 43.79 66.95"/><polygon class="cls-8" points="47.97 55.62 43.79 55.62 43.79 66.95 47.97 55.62"/><polygon class="cls-7" points="60.53 62.46 60.53 62.46 54.86 52.65 51.25 54.74 60.53 62.46"/><polygon class="cls-8" points="58.48 50.56 54.86 52.65 60.53 62.46 58.48 50.56"/><polygon class="cls-7" points="72.78 50.21 72.78 50.21 62.97 44.54 60.88 48.16 72.78 50.21"/><polygon class="cls-8" points="65.06 40.93 62.97 44.54 72.78 50.21 65.06 40.93"/><polygon class="cls-9" points="43.79 36.3 37.43 53.49 43.79 53.49 43.79 36.3"/><polygon class="cls-10" points="43.79 13.45 37.43 13.45 43.79 30.65 43.79 13.45"/><polygon class="cls-11" points="43.79 30.65 37.43 13.45 37.29 13.45 26.89 21.01 43.79 32.75 43.79 30.65"/><polygon class="cls-12" points="43.79 32.75 26.89 21.01 26.76 21.1 22.74 33.47 43.79 33.47 43.79 32.75"/><polygon class="cls-13" points="43.79 34.19 26.75 45.82 26.76 45.85 37.29 53.49 37.43 53.49 43.79 36.3 43.79 34.19"/><polygon class="cls-14" points="43.79 33.47 22.74 33.47 26.75 45.82 43.79 34.19 43.79 33.47"/><polygon class="cls-15" points="43.79 36.3 50.15 53.49 43.79 53.49 43.79 36.3"/><polygon class="cls-8" points="43.79 13.45 50.15 13.45 43.79 30.65 43.79 13.45"/><polygon class="cls-7" points="43.79 30.65 50.15 13.45 50.3 13.45 60.7 21.01 43.79 32.75 43.79 30.65"/><polygon class="cls-16" points="43.79 32.75 60.7 21.01 60.82 21.1 64.84 33.47 43.79 33.47 43.79 32.75"/><polygon class="cls-17" points="43.79 34.19 60.83 45.82 60.82 45.85 50.3 53.49 50.15 53.49 43.79 36.3 43.79 34.19"/><polygon class="cls-18" points="43.79 33.47 64.84 33.47 60.83 45.82 43.79 34.19 43.79 33.47"/></g></g></g></svg>