<svg xmlns="http://www.w3.org/2000/svg" xmlns:xlink="http://www.w3.org/1999/xlink" viewBox="0 0 79.47 123.66"><defs><style>.cls-1{isolation:isolate;}.cls-2{mix-blend-mode:multiply;fill:url(#Gradiente_sem_nome_13);}.cls-3{fill:#f23b00;}.cls-4{fill:#e63203;}.cls-5{fill:#db2f03;}.cls-6{fill:#fc4f03;}.cls-7{fill:#fea24f;}.cls-8{fill:#fe7a02;}.cls-9{fill:#d12d03;}.cls-10{font-size:29px;fill:#204966;font-family:SUNNLine-Bold, SUNN Line;font-weight:700;}.cls-11{letter-spacing:0em;}.cls-12{letter-spacing:0.03em;}.cls-13{letter-spacing:0.01em;}.cls-14{letter-spacing:-0.02em;}.cls-15{letter-spacing:0.01em;}.cls-16{letter-spacing:-0.01em;}.cls-17{letter-spacing:0.01em;}</style><radialGradient id="Gradiente_sem_nome_13" cx="39.73" cy="26025.48" r="31.16" gradientTransform="translate(0 -6372.21) scale(1 0.25)" gradientUnits="userSpaceOnUse"><stop offset="0" stop-color="#b6b1b3" stop-opacity="0.87"/><stop offset="0.4" stop-color="#bfbdbe" stop-opacity="0.49"/><stop offset="0.81" stop-color="#c8c8c8" stop-opacity="0.14"/><stop offset="1" stop-color="#ccc" stop-opacity="0"/></radialGradient></defs><g class="cls-1"><g id="Camada_2" data-name="Camada 2"><g id="Camada_1-2" data-name="Camada 1"><path class="cls-2" d="M70.75,79.51c0,4.55-13.88,8.24-31,8.24s-31-3.69-31-8.24,13.89-8.24,31-8.24S70.75,75,70.75,79.51Z"/><polygon class="cls-3" points="35.63 34.56 29.57 29.47 19.25 35.43 19.26 35.46 31.64 45.85 35.74 34.56 35.63 34.56"/><polygon class="cls-3" points="51.55 21.21 51.49 21.53 63 19.5 54.93 5.53 54.91 5.52 47.55 14.29 51.55 21.21"/><polygon class="cls-4" points="35.74 34.56 31.64 45.85 31.65 45.86 47.82 45.86 47.83 45.85 43.72 34.56 35.74 34.56"/><polygon class="cls-4" points="63 19.5 51.49 21.53 50.12 29.29 49.9 29.47 60.21 35.43 63.02 19.54 63 19.5"/><polygon class="cls-5" points="43.84 34.56 43.72 34.56 47.83 45.85 60.21 35.46 60.21 35.43 49.9 29.47 43.84 34.56"/><polygon class="cls-6" points="47.45 14.1 47.55 14.29 54.91 5.52 39.73 0 39.73 11.3 47.45 14.1"/><polygon class="cls-7" points="32.02 14.1 39.73 11.3 39.73 0 24.56 5.52 31.92 14.29 32.02 14.1"/><polygon class="cls-6" points="29.35 29.29 27.98 21.53 16.47 19.5 16.45 19.54 19.25 35.43 29.57 29.47 29.35 29.29"/><polygon class="cls-8" points="27.92 21.21 31.92 14.29 24.56 5.52 24.54 5.53 16.47 19.5 27.98 21.53 27.92 21.21"/><polygon class="cls-8" points="19.25 35.43 31.64 59.45 31.64 45.85 19.25 35.43"/><polygon class="cls-6" points="39.73 45.86 31.64 59.45 31.64 45.85 39.73 45.86"/><polygon class="cls-6" points="39.73 45.86 31.64 59.45 39.73 71.3 39.73 45.86"/><polygon class="cls-9" points="60.22 35.43 47.83 59.45 47.83 45.85 60.22 35.43"/><polygon class="cls-3" points="39.73 45.86 47.83 59.45 47.83 45.85 39.73 45.86"/><polygon class="cls-3" points="39.73 45.86 47.83 59.45 39.73 71.3 39.73 45.86"/><text class="cls-10" transform="translate(0 116.67)"><tspan class="cls-11">L</tspan><tspan class="cls-12" x="6.33" y="0">o</tspan><tspan x="15.08" y="0">c</tspan><tspan class="cls-13" x="22.15" y="0">a</tspan><tspan class="cls-14" x="30.52" y="0">l</tspan><tspan x="35.6" y="0">iz</tspan><tspan class="cls-15" x="47.58" y="0">a</tspan><tspan class="cls-16" x="56.09" y="0">รง</tspan><tspan class="cls-17" x="62.96" y="0">รฃ</tspan><tspan x="71.49" y="0">o</tspan></text></g></g></g></svg>