<svg xmlns="http://www.w3.org/2000/svg" xmlns:xlink="http://www.w3.org/1999/xlink" viewBox="0 0 117.7433 117.0994"><defs><style>.cls-1{isolation:isolate;}.cls-2{mix-blend-mode:multiply;fill:url(#Gradiente_sem_nome_13);}.cls-3{fill:#e63203;}.cls-4{fill:#fe7a02;}.cls-5{fill:#fc4f03;}.cls-6{fill:#d12d03;}.cls-7{fill:#fea24f;}.cls-8{fill:#f23b00;}.cls-9{fill:#262626;}.cls-10{fill:#545454;}.cls-11{fill:#5db8f1;}.cls-12{fill:#488ebc;}.cls-13{fill:#3b7599;}.cls-14{fill:#4385b0;}.cls-15{fill:#407fa8;}.cls-16{fill:#346787;}.cls-17{fill:#204966;}</style><radialGradient id="Gradiente_sem_nome_13" cx="1112.9411" cy="26020.864" r="36.6009" gradientTransform="translate(-1796.0673 -6372.2056) scale(1.6667 0.2479)" gradientUnits="userSpaceOnUse"><stop offset="0" stop-color="#b6b1b3" stop-opacity="0.8695"/><stop offset="0.3977" stop-color="#bfbdbe" stop-opacity="0.4944"/><stop offset="0.8067" stop-color="#c8c8c8" stop-opacity="0.1395"/><stop offset="1" stop-color="#ccc" stop-opacity="0"/></radialGradient></defs><g class="cls-1"><g id="Camada_2" data-name="Camada 2"><g id="Camada_1-2" data-name="Camada 1"><path class="cls-2" d="M117.7433,78.3677c0,5.1791-26.3569,9.3785-58.8716,9.3785S0,83.5468,0,78.3677c0-5.1815,26.3569-9.3807,58.8717-9.3807S117.7433,73.1862,117.7433,78.3677Z"/><polygon class="cls-3" points="34.732 56.512 34.245 54.432 33.705 56.24 34.732 56.512"/><polygon class="cls-4" points="34.732 56.512 34.245 54.432 35.279 54.478 34.732 56.512"/><polygon class="cls-3" points="34.245 54.432 37.081 47.044 47.864 55.032 34.245 54.432"/><polygon class="cls-5" points="41.698 38.476 37.081 47.044 47.864 55.032 41.698 38.476"/><polygon class="cls-4" points="41.698 38.476 46.277 29.973 47.864 55.032 41.698 38.476"/><polygon class="cls-5" points="54.769 49.108 46.277 29.973 47.864 55.032 54.769 49.108"/><polygon class="cls-6" points="54.769 49.108 69.022 59.756 47.864 55.032 54.769 49.108"/><polygon class="cls-4" points="54.769 49.108 69.022 59.756 46.277 29.973 54.769 49.108"/><polygon class="cls-7" points="53.492 19.313 69.022 59.756 46.277 29.973 53.492 19.313"/><polygon class="cls-8" points="53.492 19.313 69.022 59.756 46.277 29.973 53.492 19.313"/><polygon class="cls-4" points="53.492 19.313 69.022 59.756 59.351 12.094 53.492 19.313"/><polygon class="cls-6" points="72.51 59.405 74.945 41.7 90.209 56.512 72.51 59.405"/><polygon class="cls-8" points="78.929 37.374 74.945 41.7 90.209 56.512 78.929 37.374"/><polygon class="cls-5" points="78.929 37.374 74.945 41.7 72.788 23.245 78.929 37.374"/><polygon class="cls-4" points="78.929 37.374 72.51 5.733 72.788 23.245 78.929 37.374"/><polygon class="cls-7" points="78.929 37.374 72.51 5.733 80.154 21.554 78.929 37.374"/><polygon class="cls-5" points="78.929 37.374 86.052 38.387 80.154 21.554 78.929 37.374"/><polygon class="cls-3" points="78.929 37.374 88.075 47.472 90.209 56.512 78.929 37.374"/><polygon class="cls-8" points="78.929 37.374 88.075 47.472 86.052 38.387 78.929 37.374"/><polygon class="cls-8" points="69.022 59.756 66.477 29.725 61.879 26.974 69.022 59.756"/><polygon class="cls-7" points="70.44 1.358 59.351 12.094 61.879 26.974 66.477 29.725 66.479 29.681 70.44 1.358"/><polygon class="cls-9" points="72.51 59.405 68.371 59.405 72.51 0 72.51 59.405"/><polygon class="cls-10" points="70.44 1.358 68.371 59.405 72.51 0 70.44 1.358"/><polygon class="cls-11" points="22.604 51.178 29.8 65.19 31.846 56.011 22.604 51.178"/><polygon class="cls-12" points="40.258 68.538 29.8 65.19 31.846 56.011 40.258 68.538"/><polygon class="cls-13" points="40.258 68.538 55.274 68.538 31.846 56.011 40.258 68.538"/><polygon class="cls-12" points="56.448 58.669 55.274 68.538 31.846 56.011 56.448 58.669"/><polygon class="cls-13" points="56.448 58.669 55.274 68.538 74.945 68.538 56.448 58.669"/><polygon class="cls-14" points="56.448 58.669 84.867 58.492 74.945 68.538 56.448 58.669"/><polygon class="cls-15" points="88.075 67.11 84.867 58.492 74.945 68.538 88.075 67.11"/><polygon class="cls-16" points="88.075 67.11 84.867 58.492 95.139 56.394 88.075 67.11"/><path class="cls-17" d="M15.0035,116.6746q-.4533-.27-.5806-1.6426-.156-1.5292-.1982-4.7578-.0287-2.704.0142-5.6924.0709-5.07.269-6.8535a5.6875,5.6875,0,0,1,.1841-.9912.9852.9852,0,0,1,.0991-.1982l.0566-.0567.0425-.042a2.2227,2.2227,0,0,1,2.7046-.4394,4.5486,4.5486,0,0,1,1.9541,2.2373,6.0342,6.0342,0,0,1,.5947,3.2285,4.6037,4.6037,0,0,1-2.45,3.7529,5.4893,5.4893,0,0,1,1.3736,1.09q2.2653,2.5064,1.3877,7.83a3.5626,3.5626,0,0,1-.7647,1.7706,3.0774,3.0774,0,0,1-1.1186.8349,4.0271,4.0271,0,0,1-1.7134.3545A3.4815,3.4815,0,0,1,15.0035,116.6746Zm1.8267-1.0332a2.51,2.51,0,0,0,1.1328-.2129,1.87,1.87,0,0,0,1.062-1.5293q.7508-4.6156-1.0337-6.6269a3.7014,3.7014,0,0,0-1.2178-.8926,4.4324,4.4324,0,0,0-1.1045-.34,65.1334,65.1334,0,0,0,.2691,9.4737A2.908,2.908,0,0,0,16.83,115.6414Zm-1.1329-11.2148a5.0476,5.0476,0,0,0,.878-.27,3.8308,3.8308,0,0,0,.92-.5527,3.2072,3.2072,0,0,0,1.2036-2.293,4.73,4.73,0,0,0-.4248-2.3652,3.1006,3.1006,0,0,0-1.3311-1.6426.8342.8342,0,0,0-.9345.1A63.8332,63.8332,0,0,0,15.6973,104.4266Z"/><path class="cls-17" d="M30.2115,116.59a1.7975,1.7975,0,0,1-.8213.2266,1.2439,1.2439,0,0,1-.68-.1982,1.5255,1.5255,0,0,1-.6089-.7647,2.5825,2.5825,0,0,1-2.0107.9483,2.5555,2.5555,0,0,1-2.0391-1.1465,6.4393,6.4393,0,0,1-1.0761-3.8233,17.1474,17.1474,0,0,1,.5381-5.3242,3.858,3.858,0,0,1,1.8974-2.6055,1.9547,1.9547,0,0,1,.9771-.1552,2.8638,2.8638,0,0,1,1.416.5517V104.1l1.4585.0137q0,1.0341.0141,2.6621v.5664c.0093.1513.0142.3027.0142.4531v.4111h-.0142q.0426,1.2466-.0141,2.917l-.0142.27v.2832l-.0141.623q-.0139.7208-.0142,1.2461a4.6541,4.6541,0,0,0,.2407,1.7978c.0191-.01.0474-.0234.085-.0419Zm-2.4072-5.5087.0141-.3672.0142-.3828q.014-.44.0142-.8067.0138-.9213-.0142-1.6006a3.7919,3.7919,0,0,0-.4956-2.1943,2.7889,2.7889,0,0,0-.4956-.3828,1.146,1.146,0,0,0-.5664-.17.75.75,0,0,0-.2832.0566q-.68.2973-1.1187,1.7988A16.21,16.21,0,0,0,24.42,111.79a5.8884,5.8884,0,0,0,.5806,2.6758q.4812.8643,1.1186.8779a1.2582,1.2582,0,0,0,1.0479-.665,3.8625,3.8625,0,0,0,.6089-1.9687q0-.3252.0141-.7793v-.4239Z"/><path class="cls-17" d="M34.2047,104.5535a2.8759,2.8759,0,0,1,1.6709-.0137,2.2081,2.2081,0,0,1,1.2036.9063l-1.2178.793a.7678.7678,0,0,0-.5664-.34,1.8314,1.8314,0,0,0-.708.0567,2.1946,2.1946,0,0,0-1.062.6933,2.4848,2.4848,0,0,0-.5664,1.5293l-.0142.1416v.9483q0,.4541.0142.9209v2.3076q.014,3.0585-.0283,4.3193l-1.4444-.042q.0286-1.204.0283-4.206-.0138-1.0475-.0141-2.2657v-.9209c-.0093-.2265-.0142-.457-.0142-.6933v-.4395l.0142-.042v-.3545c.0093-.1318.0141-.2539.0141-.3672q.0139-.4541.0142-.8359.0139-1.0767.0142-1.8408l1.4443-.0147v.4112A3.8494,3.8494,0,0,1,34.2047,104.5535Z"/><path class="cls-17" d="M40.2794,104.5535A2.8759,2.8759,0,0,1,41.95,104.54a2.2081,2.2081,0,0,1,1.2036.9063l-1.2178.793a.7678.7678,0,0,0-.5664-.34,1.8314,1.8314,0,0,0-.708.0567,2.1946,2.1946,0,0,0-1.062.6933,2.4848,2.4848,0,0,0-.5664,1.5293l-.0142.1416v.9483q0,.4541.0142.9209v2.3076q.014,3.0585-.0283,4.3193l-1.4444-.042q.0287-1.204.0284-4.206-.0139-1.0475-.0142-2.2657v-.9209c-.0093-.2265-.0142-.457-.0142-.6933v-.4395l.0142-.042v-.3545c.0093-.1318.0142-.2539.0142-.3672q.0138-.4541.0141-.8359.014-1.0767.0142-1.8408l1.4443-.0147v.4112A3.8494,3.8494,0,0,1,40.2794,104.5535Z"/><path class="cls-17" d="M50.857,116.59a1.7975,1.7975,0,0,1-.8213.2266,1.2439,1.2439,0,0,1-.68-.1982,1.5253,1.5253,0,0,1-.6088-.7647,2.5828,2.5828,0,0,1-2.0108.9483,2.5555,2.5555,0,0,1-2.0391-1.1465,6.4393,6.4393,0,0,1-1.0761-3.8233,17.1474,17.1474,0,0,1,.5381-5.3242,3.858,3.858,0,0,1,1.8974-2.6055,1.9547,1.9547,0,0,1,.9771-.1552,2.8638,2.8638,0,0,1,1.416.5517V104.1l1.4585.0137q0,1.0341.0141,2.6621v.5664c.0093.1513.0142.3027.0142.4531v.4111h-.0142q.0426,1.2466-.0141,2.917l-.0142.27v.2832l-.0141.623q-.014.7208-.0142,1.2461a4.6541,4.6541,0,0,0,.2407,1.7978c.0191-.01.0474-.0234.085-.0419ZM48.45,111.0809l.0142-.3672.0141-.3828q.014-.44.0142-.8067.0138-.9213-.0142-1.6006a3.7919,3.7919,0,0,0-.4956-2.1943,2.7889,2.7889,0,0,0-.4956-.3828,1.1457,1.1457,0,0,0-.5664-.17.7509.7509,0,0,0-.2832.0566q-.68.2973-1.1187,1.7988a16.21,16.21,0,0,0-.4531,4.7578,5.8884,5.8884,0,0,0,.5806,2.6758q.4812.8643,1.1186.8779a1.2582,1.2582,0,0,0,1.0479-.665,3.8625,3.8625,0,0,0,.6089-1.9687q0-.3252.0141-.7793v-.4239Z"/><path class="cls-17" d="M62.44,116.76v-.5948a2.1154,2.1154,0,0,1-.8921.4248,6.0262,6.0262,0,0,1-1.5434.2266,3.1139,3.1139,0,0,1-2.0249-.665,5.1224,5.1224,0,0,1-1.5718-3.3848,38.7549,38.7549,0,0,1-.1841-6.3438,30.897,30.897,0,0,1,.9346-7.3916q.7785-2.5488,2.3081-3.1718a2.3788,2.3788,0,0,1,1.8267-.085,3.94,3.94,0,0,1,1.9682,2.082l-1.3027.6651A2.894,2.894,0,0,0,60.9107,97.19a1.053,1.053,0,0,0-.8921,0q-.8634.3676-1.43,2.1807a28.4705,28.4705,0,0,0-.9063,7.1084,39.36,39.36,0,0,0,.0991,5.5791q.255,2.2939,1.09,2.96a2.6768,2.6768,0,0,0,2.3364.17q.5523-.129.8638-1.1328a7.9307,7.9307,0,0,0,.2832-2.0957c-.0093-.2178-.0142-.378-.0142-.4825q-.5236.1-.977.17-.5523.0849-.8355.1425l-.2266-1.4453q.7362-.1128,2.62-.4238l.7646-.1279.085.7646a2.0716,2.0716,0,0,0,.0141.2129c0,.1133.0049.23.0142.3535q.014.51,0,1.0059l.0142.2832v.3105l.0141.6231q.014.7515.0283,1.3027.0287,1.5015.0425,2.11Z"/><path class="cls-17" d="M68.8829,104.5535a2.8759,2.8759,0,0,1,1.6709-.0137,2.2081,2.2081,0,0,1,1.2036.9063l-1.2178.793a.7678.7678,0,0,0-.5664-.34,1.8314,1.8314,0,0,0-.708.0567,2.1946,2.1946,0,0,0-1.062.6933,2.4848,2.4848,0,0,0-.5664,1.5293l-.0142.1416v.9483q0,.4541.0142.9209v2.3076q.014,3.0585-.0283,4.3193l-1.4444-.042q.0286-1.204.0284-4.206-.0139-1.0475-.0142-2.2657v-.9209c-.0093-.2265-.0142-.457-.0142-.6933v-.4395l.0142-.042v-.3545c.0093-.1318.0142-.2539.0142-.3672q.0138-.4541.0141-.8359.014-1.0767.0142-1.8408l1.4443-.0147v.4112A3.8494,3.8494,0,0,1,68.8829,104.5535Z"/><path class="cls-17" d="M79.4605,116.59a1.7971,1.7971,0,0,1-.8213.2266,1.2433,1.2433,0,0,1-.68-.1982,1.525,1.525,0,0,1-.6089-.7647,2.5828,2.5828,0,0,1-2.0108.9483,2.5552,2.5552,0,0,1-2.039-1.1465,6.4385,6.4385,0,0,1-1.0762-3.8233,17.1534,17.1534,0,0,1,.5381-5.3242,3.858,3.858,0,0,1,1.8974-2.6055,1.9547,1.9547,0,0,1,.9771-.1552,2.8634,2.8634,0,0,1,1.416.5517V104.1l1.4585.0137q0,1.0341.0142,2.6621v.5664c.0092.1513.0141.3027.0141.4531v.4111H78.526q.0425,1.2466-.0142,2.917l-.0142.27v.2832l-.0141.623q-.014.7208-.0142,1.2461a4.6562,4.6562,0,0,0,.2407,1.7978c.0191-.01.0474-.0234.085-.0419Zm-2.4072-5.5087.0142-.3672.0141-.3828q.014-.44.0142-.8067.0139-.9213-.0142-1.6006a3.7919,3.7919,0,0,0-.4956-2.1943,2.7853,2.7853,0,0,0-.4956-.3828,1.1457,1.1457,0,0,0-.5664-.17.7509.7509,0,0,0-.2832.0566q-.68.2973-1.1186,1.7988a16.21,16.21,0,0,0-.4532,4.7578,5.8884,5.8884,0,0,0,.5806,2.6758q.4812.8643,1.1186.8779a1.2581,1.2581,0,0,0,1.0479-.665,3.8625,3.8625,0,0,0,.6089-1.9687q0-.3252.0141-.7793v-.4239Z"/><path class="cls-17" d="M85.9459,111.6336a.9237.9237,0,0,0,0-.2266v-.3261a11.6983,11.6983,0,0,0-.2974-2.379,5.7075,5.7075,0,0,0-.6513-1.67,2.8245,2.8245,0,0,0-.3257-.4394,2.765,2.765,0,0,0-.2691-.24,1.3116,1.3116,0,0,0-.7929-.2832,1.234,1.234,0,0,0-.3257.042,1.9134,1.9134,0,0,0-.2407.0987,1.4568,1.4568,0,0,0-.8355,1.3027q0,.5815-.0142.8643v.3681c0,.1514.0049.2969.0142.4395V112.54q.0139,3.0015-.0142,4.1778l-1.4585-.043q.0287-1.1191.0284-3.9365,0-1.0767-.0142-2.28,0-1.0049-.0142-1.8545v-1.02l.0142-.042.0142-.0293q0-.4527.0141-.7637v-.8359q.0139-.9771.0142-1.6426l1.4585-.0137v.3819l-.0142.4111.0567-.043.0283-.0283a.19.19,0,0,1,.0849-.0713,2.8617,2.8617,0,0,1,.7364-.2539,3.4124,3.4124,0,0,1,.4389-.0566c.1226,0,.2408.0039.354.0136a2.8215,2.8215,0,0,1,1.3311.5665,4.0268,4.0268,0,0,1,.9487,1.0625,6.9515,6.9515,0,0,1,.8213,2.0664,12.5245,12.5245,0,0,1,.3115,2.0254q.0286.4525.0425.9492v.7217a31.32,31.32,0,0,1-.4531,4.8144l-1.4443-.2412a33.09,33.09,0,0,0,.4389-4.0352c.0093-.16.0142-.3164.0142-.4668Z"/><path class="cls-17" d="M95.2491,108.5467q-.0285,1.812-.0283,4.1631.0139,2.4917.0425,3.9082l-1.4444.0429-.0141-.2695a2.2008,2.2008,0,0,1-1.4585.5664h-.0142a2.4674,2.4674,0,0,1-1.9966-1.1191,7.0708,7.0708,0,0,1-1.2177-3.8653,13.1488,13.1488,0,0,1,.4106-4.8281,4.92,4.92,0,0,1,1.9116-2.8467,2.1592,2.1592,0,0,1,2.3506-.1279l-.0141-1.0195v-1.0049q-.0139-1.3023-.0142-1.9258V97.5867l1.4443.0137q0,.8789.0142,4.5312.0139,1.374.0283,2.9746,0,1.2876.0142,2.3926v1.0479Zm-1.4726,4.3759q-.0139-3.2577.0283-5.1406v-.34a3.4379,3.4379,0,0,0-.2124-1.3594,1.2057,1.2057,0,0,0-.4815-.6514.7.7,0,0,0-.34-.0849,1.0187,1.0187,0,0,0-.5523.1836,3.4872,3.4872,0,0,0-1.2744,1.9824,11.6682,11.6682,0,0,0-.3823,4.3476,6.3458,6.3458,0,0,0,.7363,2.8184q.4812.82,1.0337.82h.0142q.4812,0,.8921-.665a4.252,4.252,0,0,0,.5239-1.9112Z"/><path class="cls-17" d="M100.46,116.7742a2.606,2.606,0,0,1-.7788-.2978,2.9493,2.9493,0,0,1-.85-.7647,7.0751,7.0751,0,0,1-1.1894-3.7519,5.1948,5.1948,0,0,1-.0283-.5957v-.6231l.0141-.2969v-.2548q-.0849-3.7662,1.2461-5.4659a2.915,2.915,0,0,1,1.09-.8779,2.1655,2.1655,0,0,1,.4673-.17,3.0027,3.0027,0,0,1,.3682-.0567,2.5059,2.5059,0,0,1,1.9541.708,3.2615,3.2615,0,0,1,1.0337,2.0254,3.6449,3.6449,0,0,1-2.8887,4.545,7.0655,7.0655,0,0,1-1.8267.17v.41c0,.1426.0049.2647.0142.3692a7.1273,7.1273,0,0,0,.5664,2.4355,1.6586,1.6586,0,0,0,1.09,1.0615,1.1217,1.1217,0,0,0,.85-.1982,1.85,1.85,0,0,0,.6938-.793l1.3027.6661a3.5553,3.5553,0,0,1-1.1469,1.3164,2.6878,2.6878,0,0,1-1.5152.4814A2.9625,2.9625,0,0,1,100.46,116.7742Zm.0284-7.2646a2.653,2.653,0,0,0,1.3169-.6377,2.5645,2.5645,0,0,0,.538-2.3223,1.8706,1.8706,0,0,0-.51-1.09,1.1,1.1,0,0,0-.92-.3965q-.7362.0572-1.2461,1.1611a8.6082,8.6082,0,0,0-.5948,3.3838A5.2263,5.2263,0,0,0,100.4884,109.51Z"/></g></g></g></svg>