<svg xmlns="http://www.w3.org/2000/svg" xmlns:xlink="http://www.w3.org/1999/xlink" viewBox="0 0 122.9668 116.9579"><defs><style>.cls-1{isolation:isolate;}.cls-2{mix-blend-mode:multiply;fill:url(#Gradiente_sem_nome_13);}.cls-3{fill:#d2de76;}.cls-4{fill:#828f20;}.cls-5{fill:#b4cb21;}.cls-6{fill:#feb902;}.cls-7{fill:#fae683;}.cls-8{fill:#fc9a03;}.cls-9{fill:#e67803;}.cls-10{fill:#db7203;}.cls-11{fill:#f28600;}.cls-12{fill:#bdcad0;}.cls-13{fill:#98a9b3;}.cls-14{fill:#848d91;}.cls-15{fill:#a0abb0;}.cls-16{fill:#b0bcc2;}.cls-17{fill:#dee8e4;}.cls-18{fill:#cc3e48;}.cls-19{fill:#ff4d5a;}.cls-20{fill:#8a2027;}.cls-21{fill:#204966;}</style><radialGradient id="Gradiente_sem_nome_13" cx="57.1024" cy="21309.0404" r="31.1649" gradientTransform="translate(0 -5203.0015) scale(1 0.2479)" gradientUnits="userSpaceOnUse"><stop offset="0" stop-color="#b6b1b3" stop-opacity="0.8695"/><stop offset="0.3977" stop-color="#bfbdbe" stop-opacity="0.4944"/><stop offset="0.8067" stop-color="#c8c8c8" stop-opacity="0.1395"/><stop offset="1" stop-color="#ccc" stop-opacity="0"/></radialGradient></defs><g class="cls-1"><g id="Camada_2" data-name="Camada 2"><g id="Camada_1-2" data-name="Camada 1"><path class="cls-2" d="M88.1218,79.5094c0,4.5491-13.8878,8.2368-31.019,8.2368s-31.02-3.6877-31.02-8.2368,13.8878-8.2363,31.02-8.2363S88.1218,74.96,88.1218,79.5094Z"/><polygon class="cls-3" points="32.152 29.667 27.618 25.862 26.59 20.034 29.55 14.91 35.11 12.886 40.671 14.91 43.63 20.034 42.602 25.862 38.069 29.667 32.152 29.667"/><polygon class="cls-4" points="35.11 13.712 35.11 21.538 30.081 15.543 35.11 13.712"/><polygon class="cls-5" points="30.081 15.543 35.11 21.538 27.404 20.178 30.081 15.543"/><polygon class="cls-4" points="27.404 20.178 35.11 21.538 28.334 25.449 27.404 20.178"/><polygon class="cls-5" points="40.14 15.543 35.11 21.538 35.11 13.712 40.14 15.543"/><polygon class="cls-5" points="28.334 25.449 30.696 27.432 32.434 28.89 32.869 27.695 35.11 21.538 28.334 25.449"/><polygon class="cls-4" points="36.879 26.399 35.11 21.538 32.869 27.695 32.434 28.89 37.786 28.89 36.879 26.399"/><polygon class="cls-5" points="39.582 24.119 35.11 21.538 36.879 26.399 37.786 28.89 41.887 25.449 39.582 24.119"/><polygon class="cls-5" points="41.492 20.412 35.11 21.538 39.582 24.119 41.887 25.449 42.816 20.178 41.492 20.412"/><polygon class="cls-4" points="42.18 19.078 40.14 15.543 35.11 21.538 41.492 20.412 42.816 20.178 42.18 19.078"/><polygon class="cls-4" points="36.534 21.089 36.123 20.377 35.11 20.008 34.098 20.377 33.557 21.311 33.744 22.373 34.221 22.772 34.571 23.066 35.649 23.066 36.475 22.373 36.663 21.311 36.534 21.089"/><polygon class="cls-6" points="34.224 21.301 52.453 49.156 47.947 28.674 34.224 21.301"/><polygon class="cls-7" points="34.224 21.301 53.477 21.301 47.947 28.674 34.224 21.301"/><polygon class="cls-6" points="59.416 33.59 53.477 21.301 47.947 28.674 59.416 33.59"/><polygon class="cls-8" points="59.416 33.59 53.477 21.301 73.958 21.301 59.416 33.59"/><polygon class="cls-9" points="59.416 33.59 55.611 49.156 73.958 21.301 59.416 33.59"/><polygon class="cls-10" points="59.416 33.59 55.611 49.156 52.453 49.156 59.416 33.59"/><polygon class="cls-11" points="59.416 33.59 52.453 49.156 47.947 28.674 59.416 33.59"/><polygon class="cls-12" points="52.453 49.156 52.453 69.639 55.611 49.156 52.453 49.156"/><polygon class="cls-13" points="55.503 69.639 52.453 69.639 55.611 49.156 55.503 69.639"/><polygon class="cls-14" points="55.503 69.639 52.453 69.639 64.785 72.813 55.503 69.639"/><polygon class="cls-15" points="59.136 73.25 52.453 69.639 64.785 72.813 59.136 73.25"/><polygon class="cls-16" points="59.136 73.25 52.453 69.639 52.29 73.25 59.136 73.25"/><polygon class="cls-12" points="47.454 73.096 52.453 69.639 52.29 73.25 47.454 73.096"/><polygon class="cls-17" points="47.454 73.096 52.453 69.639 43.974 72.813 47.454 73.096"/><polygon class="cls-18" points="63.818 21.301 71.931 0 71.931 7.681 63.818 21.301"/><polygon class="cls-19" points="74.635 0 71.931 0 71.931 7.681 74.635 0"/><polygon class="cls-20" points="63.818 21.301 67.098 21.301 71.931 7.681 63.818 21.301"/><path class="cls-21" d="M.269,116.618q.0711-2.0815.0142-4.956-.0285-1.7988-.1416-5.4375l-.0283-.835q-.17-5.7495-.085-7.4629.0851-1.5145.51-1.8554a1.901,1.901,0,0,1,1.1186-.34,3.081,3.081,0,0,1,1.3453.3125,3.6049,3.6049,0,0,1,.6938.4531,4.0244,4.0244,0,0,1,.7222.82,5.6686,5.6686,0,0,1,.7929,3.1446,5.6115,5.6115,0,0,1-3.625,5.5508l.0142.17q.0988,3.6664.1416,5.48.0424,2.9032-.0283,5.0127Zm1.3736-15.7461q0,3.0734-.0283,3.2149c.019.0185.0708.0039.1557-.043a4.0472,4.0472,0,0,0,.8355-.4668,3.4292,3.4292,0,0,0,1.1611-2.45A5.378,5.378,0,0,0,3.356,98.536,2.1535,2.1535,0,0,0,2.124,97.36q-.34-.1274-.4248-.0137Q1.6428,97.4315,1.6426,100.8719Z"/><path class="cls-21" d="M6.5845,103.5624a1.1282,1.1282,0,0,1,0-1.586,1.1027,1.1027,0,0,1,.8071-.34,1.1329,1.1329,0,0,1,0,2.2656A1.1027,1.1027,0,0,1,6.5845,103.5624Zm.0141,13.0986v-.3965c0-.1426.0049-.2832.0142-.4258v-.5664q.0139-.7353.0142-1.458.0138-.9068.0141-1.77.0425-4.9687-.0141-7.0654l1.4584-.0283q.0426,2.1093.0142,7.0937-.014.8643-.0142,1.77-.0138.7368-.0141,1.4727c0,.1885-.0049.3779-.0142.5664v.8213Z"/><path class="cls-21" d="M9.8838,115.5985l1.1894-.8359a1.2917,1.2917,0,0,0,1.6426.6377,1.9116,1.9116,0,0,0,.9629-.9629,2.4236,2.4236,0,0,0,.2266-1.628,3.3721,3.3721,0,0,0-.6514-1.374q-.34-.4672-1.147-1.374a14.0716,14.0716,0,0,1-1.3027-1.6133,3.1884,3.1884,0,0,1-.5806-1.6992,3.0626,3.0626,0,0,1,.6089-1.8984,2.4461,2.4461,0,0,1,1.26-.8633,2.61,2.61,0,0,1,1.6709.07,2.71,2.71,0,0,1,1.3169,1.0625l-1.2178.793a1.233,1.233,0,0,0-.5947-.4961,1.1806,1.1806,0,0,0-.7647-.0274q-.8209.24-.8213,1.3594a2.1154,2.1154,0,0,0,.4815,1.1035,6.5909,6.5909,0,0,0,.4814.6094l.2691.3262.2832.3105.34.3828.34.3965q.3684.4527.6372.8359a4.7485,4.7485,0,0,1,.8212,1.8262,3.9151,3.9151,0,0,1-.34,2.5352,3.3141,3.3141,0,0,1-1.7134,1.67,2.6488,2.6488,0,0,1-1.0337.2129A2.8064,2.8064,0,0,1,9.8838,115.5985Z"/><path class="cls-21" d="M20.1924,116.9012a2.201,2.201,0,0,1-.7222-.2832,3.1227,3.1227,0,0,1-.8638-.7646,7.0347,7.0347,0,0,1-1.1752-3.9649,13.546,13.546,0,0,1,.7646-6.2724,3.6556,3.6556,0,0,1,.92-1.2608,2.3556,2.3556,0,0,1,.9346-.4951,2.2423,2.2423,0,0,1,1.6284.1973,2.8127,2.8127,0,0,1,1.2319,1.289l-1.3169.6368a1.3909,1.3909,0,0,0-.4814-.58.8631.8631,0,0,0-.6939-.1416q-.7506.1977-1.1752,1.6846a15.2242,15.2242,0,0,0-.3682,4.871,6.8572,6.8572,0,0,0,.6089,2.7051,1.6133,1.6133,0,0,0,1.02.9629,1.1128,1.1128,0,0,0,.8213-.17,1.8693,1.8693,0,0,0,.6655-.7363l1.2886.666a3.2918,3.2918,0,0,1-1.1187,1.26,2.65,2.65,0,0,1-1.4726.4532A2.1389,2.1389,0,0,1,20.1924,116.9012Z"/><path class="cls-21" d="M24.6528,103.5624a1.1282,1.1282,0,0,1,0-1.586,1.1029,1.1029,0,0,1,.8072-.34,1.1329,1.1329,0,0,1,0,2.2656A1.1029,1.1029,0,0,1,24.6528,103.5624Zm.0142,13.0986v-.3965c0-.1426.0049-.2832.0142-.4258v-.5664q.0138-.7353.0141-1.458.0139-.9068.0142-1.77.0425-4.9687-.0142-7.0654l1.4585-.0283q.0424,2.1093.0142,7.0937-.014.8643-.0142,1.77-.0139.7368-.0142,1.4727c0,.1885-.0048.3779-.0141.5664v.8213Z"/><path class="cls-21" d="M33.73,111.6337a.9237.9237,0,0,0,0-.2266v-.3262a11.69,11.69,0,0,0-.2974-2.3789,5.7075,5.7075,0,0,0-.6513-1.67,2.824,2.824,0,0,0-.3257-.4395,2.7631,2.7631,0,0,0-.2691-.24,1.3114,1.3114,0,0,0-.7929-.2832,1.234,1.234,0,0,0-.3257.042,1.9283,1.9283,0,0,0-.2407.0986,1.4569,1.4569,0,0,0-.8355,1.3028q0,.5815-.0141.8642v.3682c0,.1513.0048.2969.0141.4394V112.54q.014,3.0015-.0141,4.1777l-1.4585-.0429q.0285-1.1191.0283-3.9366,0-1.0766-.0142-2.28,0-1.0049-.0141-1.8545v-1.02l.0141-.0419.0142-.0293q0-.4527.0141-.7637v-.8359q.014-.9771.0142-1.6426l1.4585-.0137v.3818l-.0142.4112.0567-.043.0283-.0283a.19.19,0,0,1,.085-.0713,2.856,2.856,0,0,1,.7363-.2539,3.4131,3.4131,0,0,1,.4389-.0567c.1226,0,.2408.004.3541.0137a2.8214,2.8214,0,0,1,1.331.5664,4.03,4.03,0,0,1,.9487,1.0625,6.951,6.951,0,0,1,.8213,2.0664,12.528,12.528,0,0,1,.3115,2.0254q.0286.4527.0425.9492v.7217a31.3073,31.3073,0,0,1-.4531,4.8145l-1.4443-.2412a33.0938,33.0938,0,0,0,.4389-4.0352c.0093-.16.0142-.3164.0142-.4668Z"/><path class="cls-21" d="M44.01,116.59a1.7975,1.7975,0,0,1-.8213.2266,1.2429,1.2429,0,0,1-.68-.1983,1.5243,1.5243,0,0,1-.6089-.7646,2.5823,2.5823,0,0,1-2.0107.9482,2.5549,2.5549,0,0,1-2.0391-1.1465,6.4384,6.4384,0,0,1-1.0762-3.8232,17.1534,17.1534,0,0,1,.5381-5.3242,3.8576,3.8576,0,0,1,1.8975-2.6055,1.9543,1.9543,0,0,1,.977-.1553,2.8633,2.8633,0,0,1,1.416.5518v-.1982l1.4585.0136q0,1.0343.0142,2.6621v.5664c.0093.1514.0142.3028.0142.4532v.4111h-.0142q.0424,1.2466-.0142,2.917l-.0141.2695v.2832l-.0142.6231c-.0093.48-.0141.8965-.0141,1.2461a4.6541,4.6541,0,0,0,.2407,1.7978c.019-.01.0473-.0234.0849-.042Zm-2.4073-5.5088.0142-.3672.0142-.3828q.0138-.4394.0141-.8066.0139-.9215-.0141-1.6006a3.7925,3.7925,0,0,0-.4956-2.1943,2.79,2.79,0,0,0-.4957-.3829,1.1468,1.1468,0,0,0-.5664-.17.7514.7514,0,0,0-.2832.0567q-.68.2973-1.1186,1.7988a16.21,16.21,0,0,0-.4531,4.7578,5.8888,5.8888,0,0,0,.5805,2.6758q.4812.8643,1.1187.8779a1.2581,1.2581,0,0,0,1.0478-.665,3.861,3.861,0,0,0,.6089-1.9688q0-.3252.0142-.7793v-.4238Z"/><path class="cls-21" d="M52.0244,116.7743a2.6089,2.6089,0,0,1-.7788-.2979,2.9475,2.9475,0,0,1-.85-.7646,7.0746,7.0746,0,0,1-1.19-3.752,5.2153,5.2153,0,0,1-.0283-.5957v-.623l.0142-.2969v-.2549q-.0851-3.7661,1.2461-5.4658a2.914,2.914,0,0,1,1.09-.8779,2.1639,2.1639,0,0,1,.4673-.17,3.0013,3.0013,0,0,1,.3682-.0566,2.5059,2.5059,0,0,1,1.9541.708,3.2615,3.2615,0,0,1,1.0337,2.0254,3.6447,3.6447,0,0,1-2.8887,4.5449,7.0572,7.0572,0,0,1-1.8267.17v.41c0,.1426.0049.2647.0142.3691a7.1256,7.1256,0,0,0,.5664,2.4356,1.6586,1.6586,0,0,0,1.09,1.0615,1.122,1.122,0,0,0,.85-.1982,1.8493,1.8493,0,0,0,.6939-.793l1.3027.666a3.5547,3.5547,0,0,1-1.147,1.3164,2.6866,2.6866,0,0,1-1.5151.4815A2.9734,2.9734,0,0,1,52.0244,116.7743Zm.0283-7.2647a2.6509,2.6509,0,0,0,1.3169-.6377,2.5639,2.5639,0,0,0,.5381-2.3222,1.8707,1.8707,0,0,0-.51-1.09,1.1005,1.1005,0,0,0-.92-.3965q-.736.0572-1.2461,1.1612a8.61,8.61,0,0,0-.5947,3.3838A5.2211,5.2211,0,0,0,52.0527,109.51Z"/><path class="cls-21" d="M63.9756,116.3631a5.9855,5.9855,0,0,1-1.5718-3.6816,56.3972,56.3972,0,0,1-.3965-6.415,30.0076,30.0076,0,0,1,.4815-7.25q.6936-2.7744,2.6338-3.1993a2.97,2.97,0,0,1,2.478.4952A3.5251,3.5251,0,0,1,68.96,99.0165l-1.4444.1132a2.1722,2.1722,0,0,0-.7788-1.6425,1.5337,1.5337,0,0,0-1.3027-.24q-1.1331.24-1.6,2.3653a30.682,30.682,0,0,0-.3682,6.6123q.085,3.88.3115,5.7207.326,2.6337,1.1329,3.3135a1.3934,1.3934,0,0,0,.1416.1,1.5114,1.5114,0,0,0,.2124.0986,1.4724,1.4724,0,0,0,.6513.0283,2.3418,2.3418,0,0,0,1.3169-.5381,1.5618,1.5618,0,0,0,.3965-.9629l1.4443.17q-.2688,2.351-2.9453,2.7607a2.84,2.84,0,0,1-.51.043A2.4425,2.4425,0,0,1,63.9756,116.3631Z"/><path class="cls-21" d="M77.4419,116.59a1.7975,1.7975,0,0,1-.8213.2266,1.2429,1.2429,0,0,1-.68-.1983,1.5248,1.5248,0,0,1-.6089-.7646,2.5823,2.5823,0,0,1-2.0107.9482,2.5551,2.5551,0,0,1-2.0391-1.1465,6.4384,6.4384,0,0,1-1.0761-3.8232,17.1508,17.1508,0,0,1,.538-5.3242,3.8579,3.8579,0,0,1,1.8975-2.6055,1.9547,1.9547,0,0,1,.9771-.1553,2.864,2.864,0,0,1,1.416.5518v-.1982l1.4585.0136q0,1.0343.0141,2.6621v.5664c.0093.1514.0142.3028.0142.4532v.4111h-.0142q.0425,1.2466-.0141,2.917l-.0142.2695v.2832l-.0142.6231c-.0092.48-.0141.8965-.0141,1.2461a4.6541,4.6541,0,0,0,.2407,1.7978c.019-.01.0474-.0234.085-.042Zm-2.4072-5.5088.0141-.3672.0142-.3828q.0139-.4394.0141-.8066.0139-.9215-.0141-1.6006a3.7925,3.7925,0,0,0-.4956-2.1943,2.79,2.79,0,0,0-.4956-.3829,1.1471,1.1471,0,0,0-.5664-.17.7506.7506,0,0,0-.2832.0567q-.68.2973-1.1187,1.7988A16.21,16.21,0,0,0,71.65,111.79a5.8887,5.8887,0,0,0,.5806,2.6758q.4812.8643,1.1186.8779a1.2583,1.2583,0,0,0,1.0479-.665,3.8619,3.8619,0,0,0,.6088-1.9688q0-.3252.0142-.7793v-.4238Z"/><path class="cls-21" d="M83.729,105.1766h-.0142l-.0424.0137-.1416.0293a4.5146,4.5146,0,0,1-.5664.1133,18.9219,18.9219,0,0,1-2.1807.24q-.0139,1.43.0142,2.5625.0425,2.7056.2548,5.877.0564,1.0048.1275,1.9257c.019.1983.0376.378.0566.5381a.7988.7988,0,0,0,.0142.1553v.043l-1.4444.1416-.0141-.0567a1.1748,1.1748,0,0,0-.0142-.1552c-.0093-.1612-.0234-.3448-.0425-.5528q-.0709-.9345-.1416-1.9541-.2124-3.2284-.2548-5.9619-.0286-1.09,0-2.5195h-.7505l.0283-1.459a2.6639,2.6639,0,0,0,.3965,0h.3681a18.8564,18.8564,0,0,1,.6372-4.7578,2.5161,2.5161,0,0,1,1.0337-1.501,2.385,2.385,0,0,1,1.1895-.3115,1.8776,1.8776,0,0,1,.85.1982,3.0917,3.0917,0,0,1,1.3735,1.6992,5.97,5.97,0,0,1,.2832.878c.0284.1133.0518.2168.0708.3115.0093.0381.0191.0752.0284.1133v.042l.0141.0293-1.4443.2265a3.1749,3.1749,0,0,0-.1133-.51,5.5,5.5,0,0,0-.1982-.5957,1.675,1.675,0,0,0-.6656-.8916l-.0283-.0147-.0566-.0137a.2852.2852,0,0,0-.1275-.0283.9876.9876,0,0,0-.4814.1553l-.0142.0146-.0283.0147c-.0283.0371-.0615.08-.0991.1269a3.8092,3.8092,0,0,0-.2549.6661,18.8023,18.8023,0,0,0-.5239,4.12q.5808-.0425,1.09-.0987c.2642-.0293.5147-.0664.7505-.1132a2.46,2.46,0,0,0,.269-.043,1.6013,1.6013,0,0,1,.1983-.043l.0566-.0137.0567-.0136.0424-.0147Z"/><path class="cls-21" d="M87,116.7743a2.6089,2.6089,0,0,1-.7788-.2979,2.9475,2.9475,0,0,1-.85-.7646,7.0746,7.0746,0,0,1-1.1895-3.752,5.2153,5.2153,0,0,1-.0283-.5957v-.623l.0142-.2969v-.2549q-.0851-3.7661,1.2461-5.4658a2.914,2.914,0,0,1,1.09-.8779,2.1639,2.1639,0,0,1,.4673-.17,3.0028,3.0028,0,0,1,.3681-.0566,2.5057,2.5057,0,0,1,1.9541.708,3.2605,3.2605,0,0,1,1.0337,2.0254,3.6446,3.6446,0,0,1-2.8886,4.5449,7.0576,7.0576,0,0,1-1.8267.17v.41c0,.1426.0049.2647.0142.3691a7.1256,7.1256,0,0,0,.5664,2.4356,1.6586,1.6586,0,0,0,1.09,1.0615,1.122,1.122,0,0,0,.85-.1982,1.85,1.85,0,0,0,.6939-.793l1.3027.666a3.5547,3.5547,0,0,1-1.147,1.3164,2.6866,2.6866,0,0,1-1.5151.4815A2.9734,2.9734,0,0,1,87,116.7743Zm.0283-7.2647a2.6509,2.6509,0,0,0,1.3169-.6377,2.5639,2.5639,0,0,0,.5381-2.3222,1.8713,1.8713,0,0,0-.51-1.09,1.1005,1.1005,0,0,0-.92-.3965q-.7361.0572-1.2461,1.1612a8.608,8.608,0,0,0-.5947,3.3838A5.2214,5.2214,0,0,0,87.0283,109.51Z"/><path class="cls-21" d="M96.6572,115.91a4.1276,4.1276,0,0,1-2.2514,1.0479,1.3752,1.3752,0,0,1-.6514-.1563,2.2855,2.2855,0,0,1-1.0479-1.6992,20.5584,20.5584,0,0,1-.2548-3.7383v-6.5976l-.5381.0136h-.7647l.0142-1.4589q.5384.0145,1.2886,0V97.8133H93.91v3.3555q-.014,1.0912-.0142,2.0957c.2266,0,.4531-.0039.68-.0137.1792-.01.3633-.0185.5522-.0283a1.3641,1.3641,0,0,0,.1983-.0146h.17l.1416-.0137.0708,1.459h-.17c-.104.0088-.2359.0185-.3965.0273-.3965.02-.812.0332-1.2461.043v3.4834q.0139,1.9116.0142,3.1436a25.2793,25.2793,0,0,0,.17,3.2148c.0757.5371.1792.85.3115.9336h.0708a.8386.8386,0,0,0,.2266-.07,5.296,5.296,0,0,0,1.1045-.68Z"/><path class="cls-21" d="M100.5654,116.7743a2.6089,2.6089,0,0,1-.7788-.2979,2.9475,2.9475,0,0,1-.85-.7646,7.0746,7.0746,0,0,1-1.1894-3.752,5.19,5.19,0,0,1-.0284-.5957v-.623l.0142-.2969v-.2549q-.0849-3.7661,1.2461-5.4658a2.914,2.914,0,0,1,1.09-.8779,2.1659,2.1659,0,0,1,.4673-.17,3.0013,3.0013,0,0,1,.3682-.0566,2.5059,2.5059,0,0,1,1.9541.708,3.261,3.261,0,0,1,1.0337,2.0254,3.6447,3.6447,0,0,1-2.8887,4.5449,7.0568,7.0568,0,0,1-1.8267.17v.41c0,.1426.0049.2647.0142.3691a7.1279,7.1279,0,0,0,.5664,2.4356,1.6588,1.6588,0,0,0,1.09,1.0615,1.1218,1.1218,0,0,0,.85-.1982,1.8493,1.8493,0,0,0,.6939-.793l1.3027.666a3.5554,3.5554,0,0,1-1.1469,1.3164,2.6872,2.6872,0,0,1-1.5152.4815A2.9745,2.9745,0,0,1,100.5654,116.7743Zm.0284-7.2647a2.6505,2.6505,0,0,0,1.3168-.6377,2.5639,2.5639,0,0,0,.5381-2.3222,1.8712,1.8712,0,0,0-.51-1.09,1.1007,1.1007,0,0,0-.92-.3965q-.7362.0572-1.2461,1.1612a8.6078,8.6078,0,0,0-.5948,3.3838A5.2221,5.2221,0,0,0,100.5938,109.51Z"/><path class="cls-21" d="M108.1978,104.5536a2.8759,2.8759,0,0,1,1.6709-.0137,2.2076,2.2076,0,0,1,1.2036.9063l-1.2178.7929a.7682.7682,0,0,0-.5664-.34,1.8332,1.8332,0,0,0-.708.0566,2.1943,2.1943,0,0,0-1.062.6934,2.484,2.484,0,0,0-.5664,1.5293l-.0142.1416v.9482q0,.4542.0142.9209v2.3076q.0138,3.0587-.0284,4.3194l-1.4443-.042q.0285-1.2042.0283-4.2061-.0139-1.0473-.0141-2.2656v-.9209c-.0093-.2266-.0142-.457-.0142-.6934v-.4394l.0142-.042v-.3545c.0092-.1318.0141-.2539.0141-.3672q.0139-.4541.0142-.8359.0139-1.0767.0141-1.8408l1.4444-.0147v.4111A3.85,3.85,0,0,1,108.1978,104.5536Z"/><path class="cls-21" d="M111.8794,103.5624a1.1282,1.1282,0,0,1,0-1.586,1.1029,1.1029,0,0,1,.8071-.34,1.1329,1.1329,0,0,1,0,2.2656A1.1029,1.1029,0,0,1,111.8794,103.5624Zm.0142,13.0986v-.3965c0-.1426.0048-.2832.0141-.4258v-.5664q.0139-.7353.0142-1.458.014-.9068.0141-1.77.0426-4.9687-.0141-7.0654l1.4585-.0283q.0425,2.1093.0141,7.0937-.0138.8643-.0141,1.77-.0139.7368-.0142,1.4727c0,.1885-.0049.3779-.0141.5664v.8213Z"/><path class="cls-21" d="M122.9668,116.59a1.7975,1.7975,0,0,1-.8213.2266,1.2429,1.2429,0,0,1-.68-.1983,1.5248,1.5248,0,0,1-.6089-.7646,2.5823,2.5823,0,0,1-2.0107.9482,2.5551,2.5551,0,0,1-2.0391-1.1465,6.4384,6.4384,0,0,1-1.0761-3.8232,17.1508,17.1508,0,0,1,.538-5.3242,3.8579,3.8579,0,0,1,1.8975-2.6055,1.9547,1.9547,0,0,1,.9771-.1553,2.864,2.864,0,0,1,1.416.5518v-.1982l1.4585.0136q0,1.0343.0141,2.6621v.5664c.0093.1514.0142.3028.0142.4532v.4111h-.0142q.0425,1.2466-.0141,2.917l-.0142.2695v.2832l-.0142.6231c-.0092.48-.0141.8965-.0141,1.2461a4.6541,4.6541,0,0,0,.2407,1.7978c.0191-.01.0474-.0234.085-.042Zm-2.4072-5.5088.0141-.3672.0142-.3828q.0139-.4394.0142-.8066.0138-.9215-.0142-1.6006a3.7925,3.7925,0,0,0-.4956-2.1943,2.79,2.79,0,0,0-.4956-.3829,1.1471,1.1471,0,0,0-.5664-.17.7506.7506,0,0,0-.2832.0567q-.68.2973-1.1187,1.7988a16.21,16.21,0,0,0-.4531,4.7578,5.8887,5.8887,0,0,0,.5806,2.6758q.4812.8643,1.1186.8779a1.2583,1.2583,0,0,0,1.0479-.665,3.8619,3.8619,0,0,0,.6088-1.9688q0-.3252.0142-.7793v-.4238Z"/></g></g></g></svg>