<svg xmlns="http://www.w3.org/2000/svg" xmlns:xlink="http://www.w3.org/1999/xlink" viewBox="0 0 86.41 123.66"><defs><style>.cls-1{isolation:isolate;}.cls-2{mix-blend-mode:multiply;fill:url(#Gradiente_sem_nome_13);}.cls-3{fill:#d2de76;}.cls-4{fill:#828f20;}.cls-5{fill:#b4cb21;}.cls-6{fill:#feb902;}.cls-7{fill:#fae683;}.cls-8{fill:#fc9a03;}.cls-9{fill:#e67803;}.cls-10{fill:#db7203;}.cls-11{fill:#f28600;}.cls-12{fill:#bdcad0;}.cls-13{fill:#98a9b3;}.cls-14{fill:#848d91;}.cls-15{fill:#a0abb0;}.cls-16{fill:#b0bcc2;}.cls-17{fill:#dee8e4;}.cls-18{fill:#cc3e48;}.cls-19{fill:#ff4d5a;}.cls-20{fill:#8a2027;}.cls-21{font-size:29px;fill:#204966;font-family:SUNNLine-Bold, SUNN Line;font-weight:700;}.cls-22{letter-spacing:-0.02em;}.cls-23{letter-spacing:-0.02em;}.cls-24{letter-spacing:0.01em;}.cls-25{letter-spacing:-0.01em;}.cls-26{letter-spacing:-0.01em;}.cls-27{letter-spacing:-0.01em;}</style><radialGradient id="Gradiente_sem_nome_13" cx="50.43" cy="26025.47" r="31.16" gradientTransform="translate(0 -6372.21) scale(1 0.25)" gradientUnits="userSpaceOnUse"><stop offset="0" stop-color="#b6b1b3" stop-opacity="0.87"/><stop offset="0.4" stop-color="#bfbdbe" stop-opacity="0.49"/><stop offset="0.81" stop-color="#c8c8c8" stop-opacity="0.14"/><stop offset="1" stop-color="#ccc" stop-opacity="0"/></radialGradient></defs><g class="cls-1"><g id="Camada_2" data-name="Camada 2"><g id="Camada_1-2" data-name="Camada 1"><path class="cls-2" d="M81.45,79.51c0,4.55-13.88,8.24-31,8.24s-31-3.69-31-8.24,13.89-8.24,31-8.24S81.45,75,81.45,79.51Z"/><polygon class="cls-3" points="25.48 29.67 20.95 25.86 19.92 20.03 22.88 14.91 28.44 12.89 34 14.91 36.96 20.03 35.93 25.86 31.4 29.67 25.48 29.67"/><polygon class="cls-4" points="28.44 13.71 28.44 21.54 23.41 15.54 28.44 13.71"/><polygon class="cls-5" points="23.41 15.54 28.44 21.54 20.73 20.18 23.41 15.54"/><polygon class="cls-4" points="20.73 20.18 28.44 21.54 21.66 25.45 20.73 20.18"/><polygon class="cls-5" points="33.47 15.54 28.44 21.54 28.44 13.71 33.47 15.54"/><polygon class="cls-5" points="21.66 25.45 24.03 27.43 25.77 28.89 26.2 27.7 28.44 21.54 21.66 25.45"/><polygon class="cls-4" points="30.21 26.4 28.44 21.54 26.2 27.7 25.77 28.89 31.12 28.89 30.21 26.4"/><polygon class="cls-5" points="32.91 24.12 28.44 21.54 30.21 26.4 31.12 28.89 35.22 25.45 32.91 24.12"/><polygon class="cls-5" points="34.82 20.41 28.44 21.54 32.91 24.12 35.22 25.45 36.15 20.18 34.82 20.41"/><polygon class="cls-4" points="35.51 19.08 33.47 15.54 28.44 21.54 34.82 20.41 36.15 20.18 35.51 19.08"/><polygon class="cls-4" points="29.86 21.09 29.45 20.38 28.44 20.01 27.43 20.38 26.89 21.31 27.08 22.37 27.55 22.77 27.9 23.07 28.98 23.07 29.81 22.37 29.99 21.31 29.86 21.09"/><polygon class="cls-6" points="27.55 21.3 45.78 49.16 41.28 28.67 27.55 21.3"/><polygon class="cls-7" points="27.55 21.3 46.81 21.3 41.28 28.67 27.55 21.3"/><polygon class="cls-6" points="52.75 33.59 46.81 21.3 41.28 28.67 52.75 33.59"/><polygon class="cls-8" points="52.75 33.59 46.81 21.3 67.29 21.3 52.75 33.59"/><polygon class="cls-9" points="52.75 33.59 48.94 49.16 67.29 21.3 52.75 33.59"/><polygon class="cls-10" points="52.75 33.59 48.94 49.16 45.78 49.16 52.75 33.59"/><polygon class="cls-11" points="52.75 33.59 45.78 49.16 41.28 28.67 52.75 33.59"/><polygon class="cls-12" points="45.78 49.16 45.78 69.64 48.94 49.16 45.78 49.16"/><polygon class="cls-13" points="48.84 69.64 45.78 69.64 48.94 49.16 48.84 69.64"/><polygon class="cls-14" points="48.84 69.64 45.78 69.64 58.12 72.81 48.84 69.64"/><polygon class="cls-15" points="52.47 73.25 45.78 69.64 58.12 72.81 52.47 73.25"/><polygon class="cls-16" points="52.47 73.25 45.78 69.64 45.62 73.25 52.47 73.25"/><polygon class="cls-12" points="40.78 73.1 45.78 69.64 45.62 73.25 40.78 73.1"/><polygon class="cls-17" points="40.78 73.1 45.78 69.64 37.3 72.81 40.78 73.1"/><polygon class="cls-18" points="57.15 21.3 65.26 0 65.26 7.68 57.15 21.3"/><polygon class="cls-19" points="67.97 0 65.26 0 65.26 7.68 67.97 0"/><polygon class="cls-20" points="57.15 21.3 60.43 21.3 65.26 7.68 57.15 21.3"/><text class="cls-21" transform="translate(0 116.67)"><tspan class="cls-22">P</tspan><tspan class="cls-23" x="6.46" y="0">i</tspan><tspan class="cls-24" x="10.51" y="0">s</tspan><tspan class="cls-25" x="17.83" y="0">c</tspan><tspan class="cls-26" x="24.53" y="0">i</tspan><tspan class="cls-27" x="28.72" y="0">n</tspan><tspan x="37.31" y="0">a e Bar</tspan></text></g></g></g></svg>