<svg xmlns="http://www.w3.org/2000/svg" xmlns:xlink="http://www.w3.org/1999/xlink" viewBox="0 0 62.04 123.66"><defs><style>.cls-1{isolation:isolate;}.cls-2{mix-blend-mode:multiply;fill:url(#Gradiente_sem_nome_13);}.cls-3{fill:#d4404a;}.cls-4{fill:#e34450;}.cls-5{fill:#c73c46;}.cls-6{fill:#b3363f;}.cls-7{fill:#d13f4a;}.cls-8{fill:#ba3841;}.cls-9{fill:#c7303b;}.cls-10{fill:#5db8f1;}.cls-11{fill:#54a5da;}.cls-12{fill:#4d96c6;}.cls-13{fill:#bd3942;}.cls-14{fill:#488ebc;}.cls-15{fill:#3e79a1;}.cls-16{fill:#b53740;}.cls-17{fill:#ad343d;}.cls-18{fill:#b83741;}.cls-19{fill:#7d614c;}.cls-20{fill:#8f6f57;}.cls-21{fill:#b58d6e;}.cls-22{fill:#9e7b60;}.cls-23{fill:#96755b;}.cls-24{font-size:29px;fill:#204966;font-family:SUNNLine-Bold, SUNN Line;font-weight:700;}.cls-25{letter-spacing:-0.02em;}</style><radialGradient id="Gradiente_sem_nome_13" cx="31.02" cy="26025.47" r="31.17" gradientTransform="translate(0 -6372.21) scale(1 0.25)" gradientUnits="userSpaceOnUse"><stop offset="0" stop-color="#b6b1b3" stop-opacity="0.87"/><stop offset="0.4" stop-color="#bfbdbe" stop-opacity="0.49"/><stop offset="0.81" stop-color="#c8c8c8" stop-opacity="0.14"/><stop offset="1" stop-color="#ccc" stop-opacity="0"/></radialGradient></defs><g class="cls-1"><g id="Camada_2" data-name="Camada 2"><g id="Camada_1-2" data-name="Camada 1"><path class="cls-2" d="M62,79.51c0,4.55-13.89,8.24-31,8.24S0,84.06,0,79.51s13.89-8.24,31-8.24S62,75,62,79.51Z"/><polygon class="cls-3" points="20.27 0 19.71 10.76 21.81 10.76 20.27 0"/><polygon class="cls-4" points="21.46 24.65 19.71 10.76 21.81 10.76 21.46 24.65"/><polygon class="cls-5" points="21.46 24.65 19.71 10.76 18.6 26.14 21.46 24.65"/><polygon class="cls-6" points="21.46 24.65 20.27 33.5 18.6 26.14 21.46 24.65"/><polygon class="cls-7" points="16.64 37.11 20.27 33.5 18.6 26.14 16.64 37.11"/><polygon class="cls-8" points="16.64 37.11 20.27 33.5 18.6 40.07 16.64 37.11"/><polygon class="cls-5" points="16.64 37.11 15.11 42.22 18.6 40.07 16.64 37.11"/><polygon class="cls-5" points="16.64 45.5 15.11 42.22 18.6 40.07 16.64 45.5"/><polygon class="cls-8" points="16.64 45.5 15.11 42.22 12.32 45.5 16.64 45.5"/><polygon class="cls-9" points="20.27 0 22.64 0.7 21.81 10.76 20.27 0"/><polygon class="cls-10" points="25.3 0.84 22.64 0.7 21.81 10.76 25.3 0.84"/><polygon class="cls-11" points="25.3 0.84 24.46 17.7 21.81 10.76 25.3 0.84"/><polygon class="cls-3" points="25.3 0.84 24.46 17.7 27.48 0.84 25.3 0.84"/><polygon class="cls-4" points="26.46 28.14 24.46 17.7 27.48 0.84 26.46 28.14"/><polygon class="cls-12" points="26.46 28.14 29.87 0.84 27.48 0.84 26.46 28.14"/><polygon class="cls-10" points="26.46 28.14 29.87 0.84 29.09 28.68 26.46 28.14"/><polygon class="cls-5" points="32.22 0.84 29.87 0.84 29.09 28.68 32.22 0.84"/><polygon class="cls-3" points="32.22 0.84 33 28.68 29.09 28.68 32.22 0.84"/><polygon class="cls-13" points="29.09 38.7 33 28.68 29.09 28.68 29.09 38.7"/><polygon class="cls-5" points="29.09 38.7 33 28.68 33 38.7 29.09 38.7"/><polygon class="cls-5" points="29.09 38.7 27.56 45.62 33 38.7 29.09 38.7"/><polygon class="cls-6" points="34.53 45.62 27.56 45.62 33 38.7 34.53 45.62"/><polygon class="cls-11" points="26.46 28.14 26.03 36.34 29.09 28.68 26.46 28.14"/><polygon class="cls-12" points="29.09 38.7 26.03 36.34 29.09 28.68 29.09 38.7"/><polygon class="cls-14" points="29.09 38.7 26.03 36.34 24.73 43.18 29.09 38.7"/><polygon class="cls-12" points="29.09 38.7 27.56 45.62 24.73 43.18 29.09 38.7"/><polygon class="cls-15" points="23.76 45.62 27.56 45.62 24.73 43.18 23.76 45.62"/><polygon class="cls-6" points="26.46 28.14 24.46 17.7 23 35.81 26.46 28.14"/><polygon class="cls-5" points="26.46 28.14 25.97 37.5 23 35.81 26.46 28.14"/><polygon class="cls-7" points="21.81 41.59 25.97 37.5 23 35.81 21.81 41.59"/><polygon class="cls-8" points="21.81 41.59 25.97 37.5 24.73 43.18 21.81 41.59"/><polygon class="cls-5" points="21.81 41.59 21.46 43.18 24.73 43.18 21.81 41.59"/><polygon class="cls-16" points="23.76 45.62 21.46 43.18 24.73 43.18 23.76 45.62"/><polygon class="cls-17" points="23.76 45.62 21.46 43.18 20.27 45.5 23.76 45.62"/><polygon class="cls-12" points="21.46 24.65 24.46 17.7 21.81 10.76 21.46 24.65"/><polygon class="cls-10" points="21.46 24.65 24.46 17.7 23.55 28.38 21.46 24.65"/><polygon class="cls-14" points="21.46 24.65 20.55 31.63 23.55 28.38 21.46 24.65"/><polygon class="cls-11" points="22.96 36.34 20.55 31.63 23.55 28.38 22.96 36.34"/><polygon class="cls-12" points="22.96 36.34 20.55 31.63 19.35 37.11 22.96 36.34"/><polygon class="cls-14" points="22.96 36.34 21.46 43.18 19.35 37.11 22.96 36.34"/><polygon class="cls-12" points="16.64 45.5 21.46 43.18 19.35 37.11 16.64 45.5"/><polygon class="cls-15" points="16.64 45.5 21.46 43.18 20.27 45.5 16.64 45.5"/><polygon class="cls-5" points="41.82 0 42.42 10.76 40.28 10.76 41.82 0"/><polygon class="cls-4" points="40.63 24.65 42.42 10.76 40.28 10.76 40.63 24.65"/><polygon class="cls-3" points="40.63 24.65 42.42 10.76 43.49 26.14 40.63 24.65"/><polygon class="cls-5" points="40.63 24.65 41.82 33.5 43.49 26.14 40.63 24.65"/><polygon class="cls-7" points="45.45 37.11 41.82 33.5 43.49 26.14 45.45 37.11"/><polygon class="cls-5" points="45.45 37.11 41.82 33.5 43.49 40.07 45.45 37.11"/><polygon class="cls-13" points="45.45 37.11 46.98 42.22 43.49 40.07 45.45 37.11"/><polygon class="cls-18" points="45.45 45.5 46.98 42.22 43.49 40.07 45.45 45.5"/><polygon class="cls-6" points="45.45 45.5 46.98 42.22 49.77 45.5 45.45 45.5"/><polygon class="cls-4" points="41.82 0 39.45 0.7 40.28 10.76 41.82 0"/><polygon class="cls-10" points="36.79 0.84 39.45 0.7 40.28 10.76 36.79 0.84"/><polygon class="cls-12" points="36.79 0.84 37.63 17.7 40.28 10.76 36.79 0.84"/><polygon class="cls-4" points="36.79 0.84 37.63 17.7 34.61 0.84 36.79 0.84"/><polygon class="cls-5" points="35.63 28.14 37.63 17.7 34.61 0.84 35.63 28.14"/><polygon class="cls-12" points="35.63 28.14 32.22 0.84 34.61 0.84 35.63 28.14"/><polygon class="cls-10" points="35.63 28.14 32.22 0.84 33 28.68 35.63 28.14"/><polygon class="cls-11" points="35.63 28.14 36.06 36.34 33 28.68 35.63 28.14"/><polygon class="cls-12" points="33 38.7 36.06 36.34 33 28.68 33 38.7"/><polygon class="cls-14" points="33 38.7 36.06 36.34 37.36 43.18 33 38.7"/><polygon class="cls-12" points="33 38.7 34.53 45.62 37.36 43.18 33 38.7"/><polygon class="cls-15" points="38.33 45.62 34.53 45.62 37.36 43.18 38.33 45.62"/><polygon class="cls-5" points="35.63 28.14 37.63 17.7 39.09 35.81 35.63 28.14"/><polygon class="cls-3" points="35.63 28.14 36.12 37.5 39.09 35.81 35.63 28.14"/><polygon class="cls-5" points="40.28 41.59 36.12 37.5 39.09 35.81 40.28 41.59"/><polygon class="cls-13" points="40.28 41.59 36.12 37.5 37.36 43.18 40.28 41.59"/><polygon class="cls-5" points="40.28 41.59 40.63 43.18 37.36 43.18 40.28 41.59"/><polygon class="cls-18" points="38.33 45.62 40.63 43.18 37.36 43.18 38.33 45.62"/><polygon class="cls-6" points="38.33 45.62 40.63 43.18 41.82 45.5 38.33 45.62"/><polygon class="cls-10" points="40.63 24.65 37.63 17.7 40.28 10.76 40.63 24.65"/><polygon class="cls-11" points="40.63 24.65 37.63 17.7 38.54 28.38 40.63 24.65"/><polygon class="cls-10" points="40.63 24.65 41.54 31.63 38.54 28.38 40.63 24.65"/><polygon class="cls-11" points="39.13 36.34 41.54 31.63 38.54 28.38 39.13 36.34"/><polygon class="cls-12" points="39.13 36.34 41.54 31.63 42.74 37.11 39.13 36.34"/><polygon class="cls-14" points="39.13 36.34 40.63 43.18 42.74 37.11 39.13 36.34"/><polygon class="cls-12" points="45.45 45.5 40.63 43.18 42.74 37.11 45.45 45.5"/><polygon class="cls-15" points="45.45 45.5 40.63 43.18 41.82 45.5 45.45 45.5"/><polygon class="cls-19" points="53.35 45.5 53.35 48.01 43.04 45.5 53.35 45.5"/><polygon class="cls-20" points="33.93 48.01 53.35 48.01 43.04 45.5 33.93 48.01"/><polygon class="cls-21" points="33.93 48.01 28.16 45.62 43.04 45.5 33.93 48.01"/><polygon class="cls-22" points="33.93 48.01 28.16 45.62 17.76 48.01 33.93 48.01"/><polygon class="cls-20" points="12.32 45.5 28.16 45.62 17.76 48.01 12.32 45.5"/><polygon class="cls-22" points="12.32 45.5 8.69 48.01 17.76 48.01 12.32 45.5"/><polygon class="cls-21" points="12.32 45.5 8.69 48.01 8.69 45.5 12.32 45.5"/><polygon class="cls-19" points="15.95 48.01 20.27 48.01 14.48 54.71 15.95 48.01"/><polygon class="cls-20" points="17.38 59.98 20.27 48.01 14.48 54.71 17.38 59.98"/><polygon class="cls-22" points="17.38 59.98 12.88 65.18 14.48 54.71 17.38 59.98"/><polygon class="cls-20" points="17.38 59.98 12.88 65.18 15.95 69.65 17.38 59.98"/><polygon class="cls-19" points="12.32 69.65 12.88 65.18 15.95 69.65 12.32 69.65"/><polygon class="cls-19" points="46.09 48.01 41.77 48.01 47.56 54.71 46.09 48.01"/><polygon class="cls-20" points="44.66 59.98 41.77 48.01 47.56 54.71 44.66 59.98"/><polygon class="cls-22" points="44.66 59.98 49.16 65.18 47.56 54.71 44.66 59.98"/><polygon class="cls-20" points="44.66 59.98 49.16 65.18 46.09 69.65 44.66 59.98"/><polygon class="cls-19" points="49.72 69.65 49.16 65.18 46.09 69.65 49.72 69.65"/><polygon class="cls-21" points="16.85 61.84 16.27 65.74 31.05 61.84 16.85 61.84"/><polygon class="cls-20" points="40.28 65.74 16.27 65.74 31.05 61.84 40.28 65.74"/><polygon class="cls-22" points="40.28 65.74 45.24 61.84 31.05 61.84 40.28 65.74"/><polygon class="cls-19" points="40.28 65.74 45.24 61.84 45.76 65.74 40.28 65.74"/><polygon class="cls-22" points="53.35 45.5 49.77 45.62 46.63 41.24 53.35 45.5"/><polygon class="cls-21" points="53.35 45.5 45.45 37.11 46.63 41.24 53.35 45.5"/><polygon class="cls-19" points="47.85 39.66 45.45 37.11 43.49 26.14 46.63 32.82 47.85 39.66"/><polygon class="cls-20" points="44.66 16.82 43.49 26.14 46.63 32.82 44.66 16.82"/><polygon class="cls-22" points="44.66 16.82 43.49 26.14 42.52 12.79 44.66 16.82"/><polygon class="cls-23" points="44.66 16.82 44.27 3.26 42.52 12.79 44.66 16.82"/><polygon class="cls-22" points="41.99 3.26 44.27 3.26 42.52 12.79 41.99 3.26"/><polygon class="cls-20" points="8.69 45.5 12.26 45.62 15.4 41.24 8.69 45.5"/><polygon class="cls-21" points="8.69 45.5 16.59 37.11 15.4 41.24 8.69 45.5"/><polygon class="cls-22" points="14.18 39.66 16.59 37.11 18.55 26.14 15.4 32.82 14.18 39.66"/><polygon class="cls-20" points="17.38 16.82 18.55 26.14 15.4 32.82 17.38 16.82"/><polygon class="cls-22" points="17.38 16.82 18.55 26.14 19.52 12.79 17.38 16.82"/><polygon class="cls-23" points="17.38 16.82 17.77 3.26 19.52 12.79 17.38 16.82"/><polygon class="cls-22" points="20.05 3.26 17.77 3.26 19.52 12.79 20.05 3.26"/><text class="cls-24" transform="translate(10.24 116.67)">Suit<tspan class="cls-25" x="27.16" y="0">e</tspan><tspan x="34.44" y="0">s</tspan></text></g></g></g></svg>