<svg xmlns="http://www.w3.org/2000/svg" xmlns:xlink="http://www.w3.org/1999/xlink" viewBox="0 0 77.6135 117.0994"><defs><style>.cls-1{isolation:isolate;}.cls-2{fill:#204966;}.cls-3{mix-blend-mode:multiply;fill:url(#Gradiente_sem_nome_13);}.cls-4{fill:#54a5da;}.cls-5{fill:#4d99c9;}.cls-6{fill:#488ebc;}.cls-7{fill:#4384ad;}.cls-8{fill:#e86305;}.cls-9{fill:#ff9b43;}.cls-10{fill:#e55f06;}.cls-11{fill:#ff8629;}.cls-12{fill:#ffa31e;}.cls-13{fill:#f78851;}.cls-14{fill:#fe6c05;}.cls-15{fill:#ffce29;}.cls-16{fill:#5db8f1;}</style><radialGradient id="Gradiente_sem_nome_13" cx="38.8067" cy="26025.4739" r="31.1655" gradientTransform="translate(0 -6372.2056) scale(1 0.2479)" gradientUnits="userSpaceOnUse"><stop offset="0" stop-color="#b6b1b3" stop-opacity="0.8695"/><stop offset="0.3977" stop-color="#bfbdbe" stop-opacity="0.4944"/><stop offset="0.8067" stop-color="#c8c8c8" stop-opacity="0.1395"/><stop offset="1" stop-color="#ccc" stop-opacity="0"/></radialGradient></defs><g class="cls-1"><g id="Camada_2" data-name="Camada 2"><g id="Camada_1-2" data-name="Camada 1"><path class="cls-2" d="M15.06,116.3631a5.9858,5.9858,0,0,1-1.5718-3.6817,56.3733,56.3733,0,0,1-.3965-6.415,30.0024,30.0024,0,0,1,.4815-7.25q.6936-2.7744,2.6337-3.1992a2.97,2.97,0,0,1,2.4781.4951,3.5249,3.5249,0,0,1,1.3593,2.7041L18.6,99.13a2.1723,2.1723,0,0,0-.7788-1.6426,1.5337,1.5337,0,0,0-1.3027-.24q-1.1331.24-1.6,2.3652a30.6754,30.6754,0,0,0-.3682,6.6123q.0849,3.88.3115,5.7207.326,2.6338,1.1328,3.3135a1.4,1.4,0,0,0,.1416.1,1.522,1.522,0,0,0,.2124.0986,1.4714,1.4714,0,0,0,.6514.0283,2.3428,2.3428,0,0,0,1.3169-.538,1.5618,1.5618,0,0,0,.3965-.9629l1.4443.17q-.2688,2.3511-2.9453,2.7607a2.8407,2.8407,0,0,1-.51.043A2.4424,2.4424,0,0,1,15.06,116.3631Z"/><path class="cls-2" d="M23.5423,116.8016a4.2129,4.2129,0,0,1-1.7275-2.4922,14.8209,14.8209,0,0,1-.6089-4.5733,7.8665,7.8665,0,0,1,.9629-4.0635,2.7537,2.7537,0,0,1,2.3789-1.6425,1.5667,1.5667,0,0,1,.354.042,2.0308,2.0308,0,0,1,.4673.1416,2.6836,2.6836,0,0,1,1.062.8632q1.3308,1.7139,1.331,5.82a11.1456,11.1456,0,0,1-.5664,3.7666,3.8553,3.8553,0,0,1-1.5718,2.1377,1.9723,1.9723,0,0,1-1.0336.2978A2.0455,2.0455,0,0,1,23.5423,116.8016Zm-.2266-10.2227a6.9519,6.9519,0,0,0-.6655,3.1572,13.1433,13.1433,0,0,0,.5381,4.0928,3.0065,3.0065,0,0,0,1.09,1.7266.6141.6141,0,0,0,.6231,0,2.6031,2.6031,0,0,0,.9629-1.4864,9.4948,9.4948,0,0,0,.4389-3.1718,11.5051,11.5051,0,0,0-.6089-4.1914q-.4958-1.2174-1.1469-1.2178T23.3157,106.5789Z"/><path class="cls-2" d="M34.8138,111.6336a.9237.9237,0,0,0,0-.2266v-.3261a11.6983,11.6983,0,0,0-.2974-2.379,5.7075,5.7075,0,0,0-.6513-1.67,2.8181,2.8181,0,0,0-.3257-.4394,2.765,2.765,0,0,0-.2691-.24,1.3116,1.3116,0,0,0-.7929-.2832,1.234,1.234,0,0,0-.3257.042,1.9134,1.9134,0,0,0-.2407.0987,1.4568,1.4568,0,0,0-.8355,1.3027q0,.5815-.0142.8643v.3681c0,.1514.0049.2969.0142.4395V112.54q.0139,3.0015-.0142,4.1778l-1.4585-.043q.0287-1.1191.0284-3.9365,0-1.0767-.0142-2.28,0-1.0049-.0142-1.8545v-1.02l.0142-.042.0142-.0293q0-.4527.0141-.7637v-.8359q.014-.9771.0142-1.6426l1.4585-.0137v.3819l-.0142.4111.0567-.043.0283-.0283a.19.19,0,0,1,.0849-.0713,2.8617,2.8617,0,0,1,.7364-.2539,3.4124,3.4124,0,0,1,.4389-.0566c.1226,0,.2408.0039.354.0136a2.8215,2.8215,0,0,1,1.3311.5665,4.0268,4.0268,0,0,1,.9487,1.0625,6.9515,6.9515,0,0,1,.8213,2.0664,12.5245,12.5245,0,0,1,.3115,2.0254q.0286.4525.0425.9492v.7217a31.32,31.32,0,0,1-.4531,4.8144l-1.4443-.2412A33.09,33.09,0,0,0,34.8,112.54c.0093-.16.0142-.3164.0142-.4668Z"/><path class="cls-2" d="M43.1683,115.91a4.128,4.128,0,0,1-2.2515,1.0478,1.3769,1.3769,0,0,1-.6514-.1562,2.2861,2.2861,0,0,1-1.0478-1.6993,20.5555,20.5555,0,0,1-.2549-3.7382v-6.5977l-.5381.0137H37.66l.0141-1.459q.5384.0147,1.2886,0V97.8133h1.4585v3.3554q-.0139,1.0914-.0142,2.0957c.2266,0,.4532-.0039.68-.0136.1792-.01.3633-.0186.5523-.0283a1.349,1.349,0,0,0,.1982-.0147h.17l.1416-.0137.0708,1.459h-.17c-.104.0088-.2358.0186-.3965.0274q-.5946.0293-1.2461.0429v3.4834q.014,1.9116.0142,3.1436a25.297,25.297,0,0,0,.17,3.2148c.0757.5371.1792.85.3116.9336h.0708a.837.837,0,0,0,.2265-.07,5.289,5.289,0,0,0,1.1045-.68Z"/><path class="cls-2" d="M51.48,116.59a1.7975,1.7975,0,0,1-.8213.2266,1.2436,1.2436,0,0,1-.68-.1982,1.5255,1.5255,0,0,1-.6089-.7647,2.5827,2.5827,0,0,1-2.0107.9483,2.5553,2.5553,0,0,1-2.0391-1.1465,6.4385,6.4385,0,0,1-1.0762-3.8233,17.1534,17.1534,0,0,1,.5381-5.3242,3.8581,3.8581,0,0,1,1.8975-2.6055,1.9545,1.9545,0,0,1,.977-.1552,2.8637,2.8637,0,0,1,1.4161.5517V104.1l1.4585.0137q0,1.0341.0141,2.6621v.5664c.0093.1513.0142.3027.0142.4531v.4111h-.0142q.0425,1.2466-.0141,2.917l-.0142.27v.2832l-.0142.623q-.0138.7208-.0141,1.2461a4.6541,4.6541,0,0,0,.2407,1.7978c.019-.01.0474-.0234.085-.0419Zm-2.4072-5.5087.0141-.3672.0142-.3828q.014-.44.0141-.8067.014-.9213-.0141-1.6006a3.7928,3.7928,0,0,0-.4956-2.1943,2.7889,2.7889,0,0,0-.4956-.3828,1.146,1.146,0,0,0-.5664-.17.75.75,0,0,0-.2832.0566q-.68.2973-1.1187,1.7988a16.21,16.21,0,0,0-.4531,4.7578,5.8884,5.8884,0,0,0,.5806,2.6758q.4812.8643,1.1186.8779a1.2583,1.2583,0,0,0,1.0479-.665,3.8616,3.8616,0,0,0,.6088-1.9687q0-.3252.0142-.7793v-.4239Z"/><path class="cls-2" d="M57.64,115.91a4.1286,4.1286,0,0,1-2.2515,1.0478,1.3769,1.3769,0,0,1-.6514-.1562,2.2859,2.2859,0,0,1-1.0478-1.6993,20.5555,20.5555,0,0,1-.2549-3.7382v-6.5977l-.5381.0137h-.7646l.0141-1.459q.5384.0147,1.2886,0V97.8133h1.4585v3.3554q-.0139,1.0914-.0142,2.0957c.2266,0,.4532-.0039.68-.0136.1792-.01.3633-.0186.5523-.0283a1.349,1.349,0,0,0,.1982-.0147h.17l.1416-.0137.0708,1.459h-.17c-.104.0088-.2358.0186-.3965.0274q-.5948.0293-1.2461.0429v3.4834q.0139,1.9116.0142,3.1436a25.297,25.297,0,0,0,.17,3.2148c.0757.5371.1792.85.3115.9336h.0708a.8376.8376,0,0,0,.2266-.07,5.289,5.289,0,0,0,1.1045-.68Z"/><path class="cls-2" d="M60.9676,116.8016a4.2129,4.2129,0,0,1-1.7275-2.4922,14.8209,14.8209,0,0,1-.6089-4.5733,7.8665,7.8665,0,0,1,.9629-4.0635A2.7537,2.7537,0,0,1,61.973,104.03a1.5674,1.5674,0,0,1,.354.042,2.0308,2.0308,0,0,1,.4673.1416,2.6836,2.6836,0,0,1,1.062.8632q1.3308,1.7139,1.331,5.82a11.1456,11.1456,0,0,1-.5664,3.7666,3.8557,3.8557,0,0,1-1.5718,2.1377,1.9724,1.9724,0,0,1-1.0337.2978A2.0454,2.0454,0,0,1,60.9676,116.8016Zm-.2266-10.2227a6.9506,6.9506,0,0,0-.6655,3.1572,13.1433,13.1433,0,0,0,.5381,4.0928,3.0065,3.0065,0,0,0,1.09,1.7266.6141.6141,0,0,0,.6231,0,2.6031,2.6031,0,0,0,.9629-1.4864,9.4948,9.4948,0,0,0,.4389-3.1718,11.5051,11.5051,0,0,0-.6089-4.1914q-.4958-1.2174-1.1469-1.2178T60.741,106.5789Z"/><path class="cls-3" d="M69.8261,79.5094c0,4.5482-13.8877,8.2368-31.0189,8.2368s-31.02-3.6886-31.02-8.2368c0-4.55,13.8877-8.2368,31.02-8.2368S69.8261,74.9592,69.8261,79.5094Z"/><polygon class="cls-4" points="35.028 2.5 35.028 15.072 42.494 10.87 35.028 2.5"/><polygon class="cls-5" points="42.494 29.901 35.028 15.072 42.494 10.87 42.494 29.901"/><polygon class="cls-4" points="42.494 29.901 35.028 15.072 35.028 38.921 42.494 29.901"/><polygon class="cls-6" points="42.494 29.901 42.494 49.342 35.028 38.921 42.494 29.901"/><polygon class="cls-4" points="35.028 56.495 42.494 49.342 35.028 38.921 35.028 56.495"/><polygon class="cls-7" points="35.028 56.495 42.494 49.342 42.494 64.271 35.028 56.495"/><polygon class="cls-4" points="35.028 56.495 35.028 72.204 42.494 64.271 35.028 56.495"/><polygon class="cls-7" points="42.494 72.204 35.028 72.204 42.494 64.271 42.494 72.204"/><polygon class="cls-6" points="35.028 2.5 42.494 2.5 42.494 10.87 35.028 2.5"/><polygon class="cls-8" points="33.786 13.466 24.687 13.466 33.786 26.997 33.786 13.466"/><polygon class="cls-9" points="23.288 19.456 24.687 13.466 33.786 26.997 23.288 19.456"/><polygon class="cls-10" points="23.288 19.456 20.022 26.997 33.786 26.997 23.288 19.456"/><polygon class="cls-11" points="23.288 19.456 20.022 26.997 15.123 13.639 23.288 19.456"/><polygon class="cls-12" points="7.192 26.997 20.022 26.997 15.123 13.639 7.192 26.997"/><polygon class="cls-13" points="7.192 26.997 7.192 19.456 15.123 13.639 7.192 26.997"/><polygon class="cls-9" points="7.192 13.639 7.192 19.456 15.123 13.639 7.192 13.639"/><polygon class="cls-14" points="23.288 19.456 24.687 13.466 15.123 13.639 23.288 19.456"/><polygon class="cls-15" points="7.192 26.993 0 20.315 7.192 13.639 7.192 26.993"/><polygon class="cls-8" points="43.827 30.016 52.925 30.016 43.827 43.548 43.827 30.016"/><polygon class="cls-9" points="54.325 36.007 52.925 30.016 43.827 43.548 54.325 36.007"/><polygon class="cls-10" points="54.325 36.007 57.591 43.548 43.827 43.548 54.325 36.007"/><polygon class="cls-11" points="54.325 36.007 57.591 43.548 62.49 30.189 54.325 36.007"/><polygon class="cls-12" points="70.421 43.548 57.591 43.548 62.49 30.189 70.421 43.548"/><polygon class="cls-13" points="70.421 43.548 70.421 36.007 62.49 30.189 70.421 43.548"/><polygon class="cls-9" points="70.421 30.189 70.421 36.007 62.49 30.189 70.421 30.189"/><polygon class="cls-14" points="54.325 36.007 52.925 30.016 62.49 30.189 54.325 36.007"/><polygon class="cls-15" points="70.421 43.543 77.613 36.866 70.421 30.189 70.421 43.543"/><polygon class="cls-16" points="35.028 2.5 38.748 0 42.467 2.5 35.028 2.5"/></g></g></g></svg>