<svg xmlns="http://www.w3.org/2000/svg" xmlns:xlink="http://www.w3.org/1999/xlink" viewBox="0 0 84.791 117.0994"><defs><style>.cls-1{isolation:isolate;}.cls-2{mix-blend-mode:multiply;fill:url(#Gradiente_sem_nome_13);}.cls-3{fill:#d2de76;}.cls-4{fill:#828f20;}.cls-5{fill:#b4cb21;}.cls-6{fill:#feb902;}.cls-7{fill:#fae683;}.cls-8{fill:#fc9a03;}.cls-9{fill:#e67803;}.cls-10{fill:#db7203;}.cls-11{fill:#f28600;}.cls-12{fill:#bdcad0;}.cls-13{fill:#98a9b3;}.cls-14{fill:#848d91;}.cls-15{fill:#a0abb0;}.cls-16{fill:#b0bcc2;}.cls-17{fill:#dee8e4;}.cls-18{fill:#cc3e48;}.cls-19{fill:#ff4d5a;}.cls-20{fill:#8a2027;}.cls-21{fill:#204966;}</style><radialGradient id="Gradiente_sem_nome_13" cx="49.1027" cy="26025.4749" r="31.1649" gradientTransform="translate(0 -6372.2056) scale(1 0.2479)" gradientUnits="userSpaceOnUse"><stop offset="0" stop-color="#b6b1b3" stop-opacity="0.8695"/><stop offset="0.3977" stop-color="#bfbdbe" stop-opacity="0.4944"/><stop offset="0.8067" stop-color="#c8c8c8" stop-opacity="0.1395"/><stop offset="1" stop-color="#ccc" stop-opacity="0"/></radialGradient></defs><g class="cls-1"><g id="Camada_2" data-name="Camada 2"><g id="Camada_1-2" data-name="Camada 1"><path class="cls-2" d="M80.1221,79.5094c0,4.5491-13.8878,8.2368-31.019,8.2368s-31.02-3.6877-31.02-8.2368,13.8878-8.2363,31.02-8.2363S80.1221,74.96,80.1221,79.5094Z"/><polygon class="cls-3" points="24.152 29.667 19.619 25.862 18.59 20.034 21.55 14.91 27.11 12.886 32.671 14.91 35.63 20.034 34.603 25.862 30.069 29.667 24.152 29.667"/><polygon class="cls-4" points="27.111 13.712 27.111 21.538 22.081 15.543 27.111 13.712"/><polygon class="cls-5" points="22.081 15.543 27.111 21.538 19.404 20.178 22.081 15.543"/><polygon class="cls-4" points="19.404 20.178 27.111 21.538 20.334 25.449 19.404 20.178"/><polygon class="cls-5" points="32.14 15.543 27.111 21.538 27.111 13.712 32.14 15.543"/><polygon class="cls-5" points="20.334 25.449 22.696 27.432 24.435 28.89 24.87 27.695 27.111 21.538 20.334 25.449"/><polygon class="cls-4" points="28.879 26.399 27.111 21.538 24.87 27.695 24.435 28.89 29.786 28.89 28.879 26.399"/><polygon class="cls-5" points="31.582 24.119 27.111 21.538 28.879 26.399 29.786 28.89 33.887 25.449 31.582 24.119"/><polygon class="cls-5" points="33.493 20.412 27.111 21.538 31.582 24.119 33.887 25.449 34.816 20.178 33.493 20.412"/><polygon class="cls-4" points="34.18 19.078 32.14 15.543 27.111 21.538 33.493 20.412 34.816 20.178 34.18 19.078"/><polygon class="cls-4" points="28.534 21.089 28.123 20.377 27.111 20.008 26.098 20.377 25.557 21.311 25.745 22.373 26.221 22.772 26.571 23.066 27.649 23.066 28.475 22.373 28.663 21.311 28.534 21.089"/><polygon class="cls-6" points="26.224 21.301 44.453 49.156 39.947 28.674 26.224 21.301"/><polygon class="cls-7" points="26.224 21.301 45.477 21.301 39.947 28.674 26.224 21.301"/><polygon class="cls-6" points="51.416 33.59 45.477 21.301 39.947 28.674 51.416 33.59"/><polygon class="cls-8" points="51.416 33.59 45.477 21.301 65.958 21.301 51.416 33.59"/><polygon class="cls-9" points="51.416 33.59 47.611 49.156 65.958 21.301 51.416 33.59"/><polygon class="cls-10" points="51.416 33.59 47.611 49.156 44.453 49.156 51.416 33.59"/><polygon class="cls-11" points="51.416 33.59 44.453 49.156 39.947 28.674 51.416 33.59"/><polygon class="cls-12" points="44.453 49.156 44.453 69.639 47.611 49.156 44.453 49.156"/><polygon class="cls-13" points="47.504 69.639 44.453 69.639 47.611 49.156 47.504 69.639"/><polygon class="cls-14" points="47.504 69.639 44.453 69.639 56.785 72.813 47.504 69.639"/><polygon class="cls-15" points="51.136 73.25 44.453 69.639 56.785 72.813 51.136 73.25"/><polygon class="cls-16" points="51.136 73.25 44.453 69.639 44.29 73.25 51.136 73.25"/><polygon class="cls-12" points="39.454 73.096 44.453 69.639 44.29 73.25 39.454 73.096"/><polygon class="cls-17" points="39.454 73.096 44.453 69.639 35.974 72.813 39.454 73.096"/><polygon class="cls-18" points="55.818 21.301 63.932 0 63.932 7.681 55.818 21.301"/><polygon class="cls-19" points="66.635 0 63.932 0 63.932 7.681 66.635 0"/><polygon class="cls-20" points="55.818 21.301 59.099 21.301 63.932 7.681 55.818 21.301"/><path class="cls-21" d="M.27,116.618q.07-2.0815.0137-4.9561-.0279-1.7988-.1416-5.4375l-.0283-.835q-.17-5.7495-.085-7.4628.0851-1.5147.51-1.8555a1.9038,1.9038,0,0,1,1.1191-.34,3.0788,3.0788,0,0,1,1.3448.3125,3.612,3.612,0,0,1,.6943.4532,4.0168,4.0168,0,0,1,.7217.82,5.6641,5.6641,0,0,1,.7929,3.1445,5.6108,5.6108,0,0,1-3.625,5.5508l.0147.17q.0981,3.6666.1416,5.48.0425,2.9034-.0283,5.0127Zm1.3731-15.7461q0,3.0732-.0283,3.2148c.0195.0186.0712.0039.1562-.043a4.051,4.051,0,0,0,.835-.4668,3.4273,3.4273,0,0,0,1.1611-2.45,5.3768,5.3768,0,0,0-.41-2.5909A2.1539,2.1539,0,0,0,2.124,97.36q-.34-.1274-.4248-.0136Q1.6436,97.4314,1.6426,100.8719Z"/><path class="cls-21" d="M6.585,103.5623a1.1269,1.1269,0,0,1,0-1.5859,1.1013,1.1013,0,0,1,.8066-.34,1.1329,1.1329,0,0,1,0,2.2656A1.1012,1.1012,0,0,1,6.585,103.5623Zm.0136,13.0986v-.3965c0-.1425.0049-.2832.0147-.4257v-.5664q.0132-.7355.0137-1.458.0146-.9068.0146-1.7706.0424-4.9687-.0146-7.0654l1.4589-.0283q.0426,2.1093.0137,7.0937-.0132.8643-.0137,1.7706-.0146.7368-.0146,1.4726c0,.1885-.0049.3779-.0137.5664v.8213Z"/><path class="cls-21" d="M9.8838,115.5984l1.1894-.8359a1.2916,1.2916,0,0,0,1.6426.6377,1.9071,1.9071,0,0,0,.9629-.9629,2.42,2.42,0,0,0,.2266-1.6279,3.3666,3.3666,0,0,0-.6514-1.3741q-.34-.4672-1.1465-1.374a14.0043,14.0043,0,0,1-1.3027-1.6133,3.1852,3.1852,0,0,1-.5811-1.6992,3.0661,3.0661,0,0,1,.6094-1.8984,2.4439,2.4439,0,0,1,1.26-.8633,2.61,2.61,0,0,1,1.6709.07,2.7114,2.7114,0,0,1,1.3174,1.0625l-1.2178.793a1.2335,1.2335,0,0,0-.5947-.4961,1.1813,1.1813,0,0,0-.7647-.0274q-.8217.24-.8213,1.3594a2.1112,2.1112,0,0,0,.4815,1.1035,6.5066,6.5066,0,0,0,.4814.6094l.2686.3262.2832.3105.34.3828.34.3965q.369.4527.6376.836a4.7627,4.7627,0,0,1,.8213,1.8261,3.915,3.915,0,0,1-.34,2.5352,3.3124,3.3124,0,0,1-1.7139,1.67,2.6482,2.6482,0,0,1-1.0332.2129A2.807,2.807,0,0,1,9.8838,115.5984Z"/><path class="cls-21" d="M20.1924,116.9012a2.2008,2.2008,0,0,1-.7217-.2832,3.12,3.12,0,0,1-.8643-.7647,7.0355,7.0355,0,0,1-1.1748-3.9648,13.5341,13.5341,0,0,1,.7647-6.2725,3.66,3.66,0,0,1,.92-1.2607,2.3613,2.3613,0,0,1,.9346-.4952,2.2444,2.2444,0,0,1,1.6289.1973,2.8114,2.8114,0,0,1,1.2314,1.2891l-1.3164.6367a1.396,1.396,0,0,0-.4814-.58.8654.8654,0,0,0-.6944-.1416q-.75.1979-1.1748,1.6846a15.1993,15.1993,0,0,0-.3681,4.8711,6.85,6.85,0,0,0,.6084,2.7051,1.6133,1.6133,0,0,0,1.02.9628,1.1124,1.1124,0,0,0,.8213-.17,1.8667,1.8667,0,0,0,.666-.7363l1.2881.666a3.2909,3.2909,0,0,1-1.1182,1.26,2.6532,2.6532,0,0,1-1.4726.4531A2.1462,2.1462,0,0,1,20.1924,116.9012Z"/><path class="cls-21" d="M24.6533,103.5623a1.1269,1.1269,0,0,1,0-1.5859,1.1015,1.1015,0,0,1,.8067-.34,1.1329,1.1329,0,0,1,0,2.2656A1.1014,1.1014,0,0,1,24.6533,103.5623Zm.0137,13.0986v-.3965c0-.1425.0049-.2832.0146-.4257v-.5664q.0132-.7355.0137-1.458.0147-.9068.0147-1.7706.0424-4.9687-.0147-7.0654l1.459-.0283q.0425,2.1093.0137,7.0937-.0132.8643-.0137,1.7706-.0147.7368-.0147,1.4726c0,.1885-.0048.3779-.0136.5664v.8213Z"/><path class="cls-21" d="M33.73,111.6336a.8769.8769,0,0,0,0-.2266v-.3261a11.7,11.7,0,0,0-.2969-2.379,5.7326,5.7326,0,0,0-.6514-1.67,2.8447,2.8447,0,0,0-.3261-.4394,2.7063,2.7063,0,0,0-.2686-.24,1.3127,1.3127,0,0,0-.7929-.2832,1.24,1.24,0,0,0-.3262.042,1.8832,1.8832,0,0,0-.24.0987,1.4582,1.4582,0,0,0-.8359,1.3027q0,.5815-.0137.8643v.3681c0,.1514.0049.2969.0137.4395V112.54q.0147,3.0015-.0137,4.1778l-1.4589-.043q.0293-1.1191.0283-3.9365,0-1.0767-.0137-2.28,0-1.0049-.0146-1.8545v-1.02l.0146-.042.0137-.0293q0-.4527.0146-.7637v-.8359q.0132-.9771.0137-1.6426l1.459-.0137v.3819l-.0147.4111.0567-.043.0283-.0283a.19.19,0,0,1,.085-.0713,2.8714,2.8714,0,0,1,.7363-.2539,3.4288,3.4288,0,0,1,.4394-.0566c.1221,0,.24.0039.3535.0136a2.8194,2.8194,0,0,1,1.3311.5665,4.0194,4.0194,0,0,1,.9492,1.0625,6.9622,6.9622,0,0,1,.8213,2.0664,12.58,12.58,0,0,1,.3115,2.0254c.0186.3017.0332.6181.042.9492v.7217a31.195,31.195,0,0,1-.4531,4.8144l-1.4443-.2412a33.0981,33.0981,0,0,0,.4394-4.0352c.0088-.16.0137-.3164.0137-.4668Z"/><path class="cls-21" d="M44.01,116.59a1.7959,1.7959,0,0,1-.8213.2266,1.2461,1.2461,0,0,1-.68-.1982,1.5268,1.5268,0,0,1-.6084-.7647,2.5835,2.5835,0,0,1-2.0108.9483,2.5538,2.5538,0,0,1-2.039-1.1465,6.435,6.435,0,0,1-1.0762-3.8233,17.1382,17.1382,0,0,1,.5381-5.3242,3.8564,3.8564,0,0,1,1.8975-2.6055,1.9524,1.9524,0,0,1,.9765-.1552,2.86,2.86,0,0,1,1.416.5517V104.1l1.459.0137q0,1.0341.0137,2.6621v.5664c.01.1513.0146.3027.0146.4531v.4111h-.0146q.0424,1.2466-.0137,2.917l-.0146.27v.2832l-.0137.623q-.0147.7208-.0146,1.2461a4.6609,4.6609,0,0,0,.2412,1.7978c.0185-.01.0468-.0234.0849-.0419Zm-2.4073-5.5087.0147-.3672.0137-.3828q.0145-.44.0146-.8067c.0088-.6142.0049-1.1474-.0146-1.6006a3.797,3.797,0,0,0-.4952-2.1943,2.77,2.77,0,0,0-.4961-.3828,1.1443,1.1443,0,0,0-.5664-.17.7551.7551,0,0,0-.2832.0566q-.68.2973-1.1181,1.7988a16.1793,16.1793,0,0,0-.4532,4.7578,5.8967,5.8967,0,0,0,.58,2.6758q.4819.8643,1.1192.8779a1.2587,1.2587,0,0,0,1.0478-.665,3.8653,3.8653,0,0,0,.6084-1.9687q0-.3252.0147-.7793v-.4239Z"/><path class="cls-21" d="M52.0244,116.7742a2.6031,2.6031,0,0,1-.7783-.2978,2.9365,2.9365,0,0,1-.85-.7647,7.0742,7.0742,0,0,1-1.19-3.7519,5.1049,5.1049,0,0,1-.0283-.5957v-.6231l.0137-.2969v-.2548q-.0851-3.7662,1.2461-5.4659a2.9126,2.9126,0,0,1,1.0908-.8779,2.16,2.16,0,0,1,.4668-.17,3.0173,3.0173,0,0,1,.3682-.0567,2.5046,2.5046,0,0,1,1.9541.708,3.26,3.26,0,0,1,1.0341,2.0254,3.6455,3.6455,0,0,1-2.8886,4.545,7.07,7.07,0,0,1-1.8272.17v.41c0,.1426.0049.2647.0147.3692a7.1133,7.1133,0,0,0,.5664,2.4355,1.6578,1.6578,0,0,0,1.09,1.0615,1.1207,1.1207,0,0,0,.85-.1982,1.8477,1.8477,0,0,0,.6944-.793l1.3027.6661a3.5567,3.5567,0,0,1-1.1475,1.3164,2.6869,2.6869,0,0,1-1.5146.4814A2.9675,2.9675,0,0,1,52.0244,116.7742Zm.0283-7.2646a2.6544,2.6544,0,0,0,1.3174-.6377,2.5656,2.5656,0,0,0,.5381-2.3223,1.8707,1.8707,0,0,0-.51-1.09,1.1017,1.1017,0,0,0-.9209-.3965q-.7353.0572-1.2461,1.1611a8.6266,8.6266,0,0,0-.5947,3.3838A5.224,5.224,0,0,0,52.0527,109.51Z"/><path class="cls-21" d="M62.7158,116.6746q-.4541-.27-.581-1.6426-.1554-1.5292-.1983-4.7578-.0278-2.704.0147-5.6924.07-5.07.2685-6.8535a5.638,5.638,0,0,1,.1846-.9912,1.0118,1.0118,0,0,1,.0986-.1982l.0567-.0567.0429-.042a2.2219,2.2219,0,0,1,2.7041-.4394,4.5482,4.5482,0,0,1,1.9541,2.2373,6.0352,6.0352,0,0,1,.5948,3.2285,4.6046,4.6046,0,0,1-2.4493,3.7529,5.4958,5.4958,0,0,1,1.3731,1.09q2.2661,2.5064,1.3877,7.83a3.5626,3.5626,0,0,1-.7647,1.7706,3.0756,3.0756,0,0,1-1.1181.8349,4.0278,4.0278,0,0,1-1.7139.3545A3.4808,3.4808,0,0,1,62.7158,116.6746Zm1.8262-1.0332a2.5067,2.5067,0,0,0,1.1328-.2129,1.8706,1.8706,0,0,0,1.0625-1.5293q.75-4.6156-1.0342-6.6269a3.6969,3.6969,0,0,0-1.2177-.8926,4.4209,4.4209,0,0,0-1.1045-.34,65.0271,65.0271,0,0,0,.27,9.4737A2.9052,2.9052,0,0,0,64.542,115.6414Zm-1.1328-11.2148a5.0359,5.0359,0,0,0,.8779-.27,3.8322,3.8322,0,0,0,.9209-.5527,3.2049,3.2049,0,0,0,1.2031-2.293,4.7187,4.7187,0,0,0-.4248-2.3652,3.0965,3.0965,0,0,0-1.331-1.6426.8345.8345,0,0,0-.9346.1A63.9557,63.9557,0,0,0,63.4092,104.4266Z"/><path class="cls-21" d="M77.9238,116.59a1.7988,1.7988,0,0,1-.8213.2266,1.2409,1.2409,0,0,1-.68-.1982,1.5231,1.5231,0,0,1-.6094-.7647,2.4872,2.4872,0,0,1-4.05-.1982,6.4421,6.4421,0,0,1-1.0762-3.8233,17.1656,17.1656,0,0,1,.5381-5.3242,3.86,3.86,0,0,1,1.8974-2.6055,1.9567,1.9567,0,0,1,.9776-.1552,2.867,2.867,0,0,1,1.416.5517V104.1l1.458.0137q0,1.0341.0147,2.6621v.5664c.0087.1513.0136.3027.0136.4531v.4111h-.0136q.0425,1.2466-.0147,2.917l-.0137.27v.2832l-.0146.623q-.0132.7208-.0137,1.2461a4.6467,4.6467,0,0,0,.24,1.7978l.0849-.0419Zm-2.4072-5.5087.0137-.3672.0146-.3828q.0132-.44.0137-.8067.0147-.9213-.0137-1.6006a3.7867,3.7867,0,0,0-.4961-2.1943,2.8012,2.8012,0,0,0-.4951-.3828,1.1472,1.1472,0,0,0-.5664-.17.7475.7475,0,0,0-.2832.0566q-.68.2973-1.1191,1.7988a16.2442,16.2442,0,0,0-.4532,4.7578,5.8827,5.8827,0,0,0,.5811,2.6758q.48.8643,1.1182.8779a1.2576,1.2576,0,0,0,1.0478-.665,3.8578,3.8578,0,0,0,.6094-1.9687q0-.3252.0137-.7793v-.4239Z"/><path class="cls-21" d="M81.917,104.5535a2.8759,2.8759,0,0,1,1.6709-.0137,2.2087,2.2087,0,0,1,1.2031.9063l-1.2178.793a.7669.7669,0,0,0-.5664-.34,1.8321,1.8321,0,0,0-.708.0567,2.1932,2.1932,0,0,0-1.0615.6933,2.4818,2.4818,0,0,0-.5664,1.5293l-.0147.1416v.9483q0,.4541.0147.9209v2.3076q.0132,3.0585-.0283,4.3193l-1.4444-.042q.0279-1.204.0284-4.206-.0147-1.0475-.0147-2.2657v-.9209c-.0088-.2265-.0137-.457-.0137-.6933v-.4395l.0137-.042v-.3545c.01-.1318.0147-.2539.0147-.3672q.0132-.4541.0136-.8359.0147-1.0767.0147-1.8408l1.4443-.0147v.4112A3.8442,3.8442,0,0,1,81.917,104.5535Z"/></g></g></g></svg>