<svg xmlns="http://www.w3.org/2000/svg" xmlns:xlink="http://www.w3.org/1999/xlink" viewBox="0 0 117.74 123.66"><defs><style>.cls-1{isolation:isolate;}.cls-2{mix-blend-mode:multiply;fill:url(#Gradiente_sem_nome_13);}.cls-3{fill:#e63203;}.cls-4{fill:#fe7a02;}.cls-5{fill:#fc4f03;}.cls-6{fill:#d12d03;}.cls-7{fill:#fea24f;}.cls-8{fill:#f23b00;}.cls-9{fill:#262626;}.cls-10{fill:#545454;}.cls-11{fill:#5db8f1;}.cls-12{fill:#488ebc;}.cls-13{fill:#3b7599;}.cls-14{fill:#4385b0;}.cls-15{fill:#407fa8;}.cls-16{fill:#346787;}.cls-17{font-size:29px;fill:#204966;font-family:SUNNLine-Bold, SUNN Line;font-weight:700;}.cls-18{letter-spacing:-0.03em;}.cls-19{letter-spacing:-0.02em;}.cls-20{letter-spacing:0.01em;}.cls-21{letter-spacing:-0.01em;}.cls-22{letter-spacing:0.02em;}</style><radialGradient id="Gradiente_sem_nome_13" cx="1112.94" cy="26020.86" r="36.6" gradientTransform="translate(-1796.07 -6372.21) scale(1.67 0.25)" gradientUnits="userSpaceOnUse"><stop offset="0" stop-color="#b6b1b3" stop-opacity="0.87"/><stop offset="0.4" stop-color="#bfbdbe" stop-opacity="0.49"/><stop offset="0.81" stop-color="#c8c8c8" stop-opacity="0.14"/><stop offset="1" stop-color="#ccc" stop-opacity="0"/></radialGradient></defs><g class="cls-1"><g id="Camada_2" data-name="Camada 2"><g id="Camada_1-2" data-name="Camada 1"><path class="cls-2" d="M117.74,78.37c0,5.18-26.35,9.38-58.87,9.38S0,83.55,0,78.37,26.36,69,58.87,69,117.74,73.19,117.74,78.37Z"/><polygon class="cls-3" points="34.73 56.51 34.24 54.43 33.7 56.24 34.73 56.51"/><polygon class="cls-4" points="34.73 56.51 34.24 54.43 35.28 54.48 34.73 56.51"/><polygon class="cls-3" points="34.24 54.43 37.08 47.04 47.86 55.03 34.24 54.43"/><polygon class="cls-5" points="41.7 38.48 37.08 47.04 47.86 55.03 41.7 38.48"/><polygon class="cls-4" points="41.7 38.48 46.28 29.97 47.86 55.03 41.7 38.48"/><polygon class="cls-5" points="54.77 49.11 46.28 29.97 47.86 55.03 54.77 49.11"/><polygon class="cls-6" points="54.77 49.11 69.02 59.76 47.86 55.03 54.77 49.11"/><polygon class="cls-4" points="54.77 49.11 69.02 59.76 46.28 29.97 54.77 49.11"/><polygon class="cls-7" points="53.49 19.31 69.02 59.76 46.28 29.97 53.49 19.31"/><polygon class="cls-8" points="53.49 19.31 69.02 59.76 46.28 29.97 53.49 19.31"/><polygon class="cls-4" points="53.49 19.31 69.02 59.76 59.35 12.09 53.49 19.31"/><polygon class="cls-6" points="72.51 59.41 74.94 41.7 90.21 56.51 72.51 59.41"/><polygon class="cls-8" points="78.93 37.37 74.94 41.7 90.21 56.51 78.93 37.37"/><polygon class="cls-5" points="78.93 37.37 74.94 41.7 72.79 23.25 78.93 37.37"/><polygon class="cls-4" points="78.93 37.37 72.51 5.73 72.79 23.25 78.93 37.37"/><polygon class="cls-7" points="78.93 37.37 72.51 5.73 80.15 21.55 78.93 37.37"/><polygon class="cls-5" points="78.93 37.37 86.05 38.39 80.15 21.55 78.93 37.37"/><polygon class="cls-3" points="78.93 37.37 88.08 47.47 90.21 56.51 78.93 37.37"/><polygon class="cls-8" points="78.93 37.37 88.08 47.47 86.05 38.39 78.93 37.37"/><polygon class="cls-8" points="69.02 59.76 66.48 29.73 61.88 26.97 69.02 59.76"/><polygon class="cls-7" points="70.44 1.36 59.35 12.09 61.88 26.97 66.48 29.73 66.48 29.68 70.44 1.36"/><polygon class="cls-9" points="72.51 59.41 68.37 59.41 72.51 0 72.51 59.41"/><polygon class="cls-10" points="70.44 1.36 68.37 59.41 72.51 0 70.44 1.36"/><polygon class="cls-11" points="22.6 51.18 29.8 65.19 31.85 56.01 22.6 51.18"/><polygon class="cls-12" points="40.26 68.54 29.8 65.19 31.85 56.01 40.26 68.54"/><polygon class="cls-13" points="40.26 68.54 55.27 68.54 31.85 56.01 40.26 68.54"/><polygon class="cls-12" points="56.45 58.67 55.27 68.54 31.85 56.01 56.45 58.67"/><polygon class="cls-13" points="56.45 58.67 55.27 68.54 74.94 68.54 56.45 58.67"/><polygon class="cls-14" points="56.45 58.67 84.87 58.49 74.94 68.54 56.45 58.67"/><polygon class="cls-15" points="88.08 67.11 84.87 58.49 74.94 68.54 88.08 67.11"/><polygon class="cls-16" points="88.08 67.11 84.87 58.49 95.14 56.39 88.08 67.11"/><text class="cls-17" transform="translate(12.92 116.67)">Ba<tspan class="cls-18" x="17.43" y="0">r</tspan><tspan class="cls-19" x="23.51" y="0">r</tspan><tspan x="29.91" y="0">a </tspan><tspan class="cls-20" x="42.32" y="0">G</tspan><tspan class="cls-19" x="52.11" y="0">r</tspan><tspan x="58.51" y="0">a</tspan><tspan class="cls-21" x="66.68" y="0">n</tspan><tspan class="cls-22" x="75.28" y="0">d</tspan><tspan x="83.91" y="0">e</tspan></text></g></g></g></svg>