<svg xmlns="http://www.w3.org/2000/svg" xmlns:xlink="http://www.w3.org/1999/xlink" viewBox="0 0 2201.7193 2646.5401"><defs><style>.cls-1{fill:#204a66;}.cls-2{fill:#278fa0;}.cls-3{fill:url(#Gradiente_sem_nome_18);}</style><radialGradient id="Gradiente_sem_nome_18" cx="325.5998" cy="434.0805" r="622.6027" gradientUnits="userSpaceOnUse"><stop offset="0.005" stop-color="#f9d232"/><stop offset="0.2776" stop-color="#f9cf31"/><stop offset="0.4822" stop-color="#f8c530"/><stop offset="0.6641" stop-color="#f6b52d"/><stop offset="0.7097" stop-color="#f5b02c"/><stop offset="0.8611" stop-color="#f2a227"/><stop offset="0.9767" stop-color="#f09423"/></radialGradient></defs><g id="Camada_2" data-name="Camada 2"><g id="Camada_1-2" data-name="Camada 1"><path class="cls-1" d="M1065.8392,2369.2429c1.1164-30.013,3.2161-55.4965,6.8835-80.8383.64-4.4241,1.5913-8.8021,2.32-13.2145,1.25-7.57,2.5236-15.1373,3.6325-22.7287,1.9406-13.2907,4.0579-26.5368,7.2652-39.6024,1.98-8.0669,3.8789-16.1756,4.6306-24.4875a98.4908,98.4908,0,0,1,3.04-15.0223,58.0717,58.0717,0,0,0,.9582-7.5663c.2844-2.5049-2.6515-5.2037-4.8411-4.4966-3.65,1.1787-7.2673,2.4681-10.9439,3.5571-3.6683,1.0868-7.42,1.8911-11.0865,2.984-8.3207,2.48-16.5062,1.4117-24.5542-1.0533a39.431,39.431,0,0,1-14.9123-8.3873c-7.8993-7.0613-12.5917-15.9777-15.81-25.85a73.8273,73.8273,0,0,1-3.2912-18.8466,155.6084,155.6084,0,0,1,.6425-28.7381c1.0632-8.2226,2.7089-16.39,4.5162-24.4889,1.3881-6.2212,3.5564-12.2641,5.1513-18.4444,3.0518-11.8258,7.94-22.9562,12.85-34.061,3.1062-7.0271,7.3641-13.4595,11.7885-19.7336a47.4506,47.4506,0,0,1,5.151-5.6665,27.5531,27.5531,0,0,1,16.9281-8.1491,31.498,31.498,0,0,1,18.5007,3.6849,16.287,16.287,0,0,1,6.68,6.6882,6.8062,6.8062,0,0,1,.8175,5.5428c-3.8274,10.1991-6.08,20.8364-9.0789,31.2648-4.0768,14.1793-6.5937,28.6415-8.6825,43.2055-.7259,5.06-1.2911,10.1548-2.2887,15.1621-2.527,12.6838-2.0861,25.447-1.36,38.2282a14.3278,14.3278,0,0,0,2.7124,7.0767,7.2978,7.2978,0,0,0,6.7419,2.6084,30.9672,30.9672,0,0,0,8.8243-3.6362c6.6351-3.8528,13.2977-7.6644,19.8293-11.6873a199.7364,199.7364,0,0,1,22.1372-11.4489,40.0267,40.0267,0,0,1,29.9118-1.486c3.6866,1.207,6.352,4.1763,8.357,7.5825a26.4007,26.4007,0,0,1,3.5119,12.8105,113.0132,113.0132,0,0,1-1.6975,21.0052c-1.0861,6.9468-2.3269,13.8692-3.4589,20.809-.7205,4.4169-1.4246,8.8377-2.0327,13.271a201.0812,201.0812,0,0,1-3.8766,20.7012,209.2859,209.2859,0,0,0-4.4661,24.513c-1.24,10.1433-3.0017,20.248-5.066,30.26-2.8438,13.7928-5.2033,27.6438-6.7319,41.6395-.2082,1.907-.0953,3.9139-.6636,5.7058-2.9337,9.25-2.6306,18.9812-4.4111,28.3994-1.671,8.8391-1.6452,17.8066-1.6567,26.77-.0084,6.5313,1.7242,12.63,4.0309,18.63,1.4265,3.7109,6.902,6.5472,11.0994,5.919a32.8059,32.8059,0,0,0,15.6937-6.691,130.8751,130.8751,0,0,0,20.2392-20.3726c6.8965-8.4315,12.8418-17.5351,18.7576-26.6572,7.3137-11.2779,13.7348-23.0779,19.9883-34.9545,5.9533-11.3072,11.4918-22.833,17.2176-34.26a56.6134,56.6134,0,0,0,5.47-16.3041c2.6752-16.4319,6.9889-32.4974,11.4213-48.4993a268.7429,268.7429,0,0,1,10.184-28.9065c5.2761-13.0332,10.9293-25.9227,17.9472-38.1593,10.8823-18.9752,23.6283-36.4763,40.1055-51.0454,10.2123-9.03,21.5417-15.9728,35.14-18.6451,2.5088-.4933,5.0172-1.025,7.4818-1.6994a34.2441,34.2441,0,0,1,18.932.0145c1.8392.5322,3.74.8533,5.6176,1.25,1.2513.2647,2.5215.4462,3.7646.7435,10.85,2.5985,20.4837,7.03,26.9095,16.8408,1.924,2.9373,5.2548,3.33,8.6059,2.4238,1.2333-.3335,2.4562-.7069,3.6716-1.1a11.3006,11.3006,0,0,0,1.7706-.73c4.105-2.1606,8.5484-2.2505,13.0534-2.4536,7.4474-.3352,13.7828,2.2943,19.5149,6.6774a15.7225,15.7225,0,0,1,3.7829,4.2738c1.6977,2.8016,2.5447,6.0347,1.4543,9.1818-1.6721,4.8251-3.725,9.5247-5.7457,14.2217a151.7275,151.7275,0,0,0-8.0738,23.5562c-1.226,4.958-2.975,9.7847-4.2719,14.7275-2.1082,8.0347-4.44,16.01-5.699,24.2617a168.4421,168.4421,0,0,1-3.7364,18.7953c-3.03,11.1472-4.639,22.54-6.5954,33.8785-1.3044,7.5607-2.5711,15.1279-3.8547,22.6921-3.2126,18.9274-5.1883,38.0136-7.3135,57.08-.2832,2.5416-.3584,5.1123-.7568,7.634-3.3105,20.9563-3.0034,42.0681-2.8043,63.1773a70.3554,70.3554,0,0,0,2.6492,18.9422c.53,1.8361,1.2651,3.616,1.9568,5.4022,1.9444,5.021,7.1291,7.32,12.5819,5.8106a28.913,28.913,0,0,0,11.7226-6.294,98.2832,98.2832,0,0,0,9.293-9.654,188.9976,188.9976,0,0,0,21.4476-31.7348c11.9708-21.8818,23.2482-44.0973,31.6136-67.6678,5.1222-11.0336,8.4729-22.754,13.1585-33.9541a109.0018,109.0018,0,0,0,5.6565-18.3c3.22-14.3449,6.02-28.8079,9.8807-42.98,7.2348-26.5558,15.8462-52.6464,29.27-76.888a58.7686,58.7686,0,0,1,15.9933-18.8737,31.3757,31.3757,0,0,1,10.1526-5.2781,80.0154,80.0154,0,0,1,16.8807-3.4287,54.4506,54.4506,0,0,1,24.4278,3.7664,27.7888,27.7888,0,0,1,3.3758,1.7942c3.7833,2.1741,6.1748,7.3354,5.1674,11.5091a36.4976,36.4976,0,0,1-2.3154,7.2757,170.5483,170.5483,0,0,0-8.3748,21.4118c-2.7611,8.5061-6.1121,16.832-8.6027,25.4114q-3.4784,11.9822-7.6112,23.7234a66.42,66.42,0,0,0-2.5854,9.2322,157.45,157.45,0,0,1-5.6224,20.2808,130.4979,130.4979,0,0,0-4.1281,16.7441q-2.5772,13.16-5.4312,26.2742c-3.2532,14.9945-5.8045,30.1587-5.2665,45.6263a70.9961,70.9961,0,0,0,.7233,9.546,33.1363,33.1363,0,0,0,2.3827,7.2359c1.3972,3.2747,5.8919,5.6765,9.3836,5.443a31.14,31.14,0,0,0,16.0825-5.6489,80.5293,80.5293,0,0,0,14.2051-12.8241c11.4524-13.018,21.07-27.3243,29.8329-42.2335,13.31-22.6474,24.4338-46.3692,34.635-70.5469a27.5484,27.5484,0,0,0,2.2833-11.1746c-.0378-3.1975-.03-6.397-.14-9.5924-.4685-13.5319,1.7916-26.7682,4.3-39.9755,2.1681-11.4142,6.6339-22.0834,11.6248-32.426,9.2309-19.1286,21.14-36.4377,36.7-51.1333a123.86,123.86,0,0,1,33.3485-22.2633,60.0359,60.0359,0,0,1,31.7593-5.5231,18.6146,18.6146,0,0,1,10.4,4.4965,55.0372,55.0372,0,0,1,17.2377,27.1317c.4633,1.6087-.8437,4.27-2.3627,4.5895-5.0039,1.0534-9.9933,2.1859-15.0186,3.1258a56.8387,56.8387,0,0,0-12.6242,4.4349c-15.9738,7.1157-27.1355,18.9089-33.7,34.9888a179.6267,179.6267,0,0,0-8.2755,23.4991c-3.3312,13.0908-3.9381,26.5391-5.7506,39.8274a24.7022,24.7022,0,0,0,.0463,5.7457c1.8575,18.4615,3.6391,36.9424,10.6246,54.4038,3.4625,12.3645,9.352,23.7654,14.1491,35.6.2362.5814.7034,1.0644,1,1.6263,1.5033,2.8435,5.5789,4.2117,8.2293,2.7133a69.35,69.35,0,0,0,6.6065-3.8634,440.0783,440.0783,0,0,0,58.3092-49.7316c8.4938-8.7356,16.1717-18.1273,23.77-27.5995a58.1346,58.1346,0,0,0,6.16-9.6927c3.2266-6.2438,6.14-12.6495,9.1665-18.9965a190.1707,190.1707,0,0,1,18.2853-31.4568,45.7529,45.7529,0,0,1,12.3911-11.85c2.1571-1.3607,4.3055-2.7541,6.3307-4.2993a11.383,11.383,0,0,0,4.045-6.3685c.9324-3.7106,1.6094-7.4984,2.1786-11.2859,1.9015-12.6519,3.8465-25.3082,7.239-37.6542,3.5816-13.0347,8.9315-25.3039,17.2944-36.0866a62.1533,62.1533,0,0,1,17.0255-15.2947,51.1707,51.1707,0,0,1,19.7407-6.9353,97.9948,97.9948,0,0,1,26.7619.2372,45.84,45.84,0,0,1,22.6019,9.7859,64.7693,64.7693,0,0,1,20.9536,29.2609,164.124,164.124,0,0,1,4.65,16.6076c.9222,3.7172,1.2988,7.5686,2.2065,11.29a72.5807,72.5807,0,0,1,2.03,17.1065q.0372,17.2668-.1412,34.5334a71.7671,71.7671,0,0,1-.7152,9.5584c-1.4738,10.1192-3.0853,20.2187-4.6736,30.3211-.6948,4.4208-1.4837,8.8274-2.1887,13.2468-1.8116,11.3522-3.3872,22.7261-6.7874,33.789-1.8706,6.0853-2.8321,12.4575-4.0749,18.7258-1.0525,5.3083,2.5023,8.3158,8.0384,6.943,1.2407-.3078,2.5119-.5163,3.7243-.9091,1.8226-.59,3.6444-1.2147,5.3991-1.98a90.3305,90.3305,0,0,0,22.8527-13.9064c14.2115-12.15,26.4167-25.9993,35.1566-42.6823q4.4475-8.4888,8.9766-16.9345a6.4443,6.4443,0,0,1,6.2756-3.5812,15.1466,15.1466,0,0,1,11.3954,6.2217,12.02,12.02,0,0,1,2.3768,9.0445,52.3149,52.3149,0,0,1-2.0008,9.3488c-10.0393,30.3885-26.3469,56.7407-50.8177,77.66a124.3154,124.3154,0,0,1-39.4707,23.2061c-7.8363,2.7672-15.7276,5.3777-23.5623,8.15a9.6926,9.6926,0,0,0-5.3164,5.24,10.6055,10.6055,0,0,0-.8022,1.7408c-3.3215,11.689-8.4083,22.7886-11.4531,34.5786a101.4079,101.4079,0,0,1-4.3041,12.7065c-5.2861,13.0281-10.3852,26.1334-16.4408,38.8434-6.0571,12.7128-12.4554,25.2109-20.6739,36.697a153.4489,153.4489,0,0,1-25.7163,28.3373c-9.4136,7.9432-19.7974,14.0236-31.741,17.2852-1.85.5057-3.7295.9517-5.5139,1.6378a37.5549,37.5549,0,0,1-13.1847,2.1249c-3.1968.0422-6.3953-.0246-9.5921.0131-5.1949.0616-10.0191-1.3147-14.9184-3.0087-11.4324-3.954-19.744-11.5252-26.2915-21.3441-4.2818-6.4212-7.7339-13.2237-9.3977-20.8572-2.0413-9.3659-4.3462-18.6756-6.2908-28.0605a50.3638,50.3638,0,0,1-.7193-9.5477c-.1108-8.9527-.0832-17.9073-.101-26.8612a151.7117,151.7117,0,0,1,2.2-24.785c1.8493-11.3475,3.4046-22.7547,5.223-34.1153,1.5143-9.4605,3.1813-18.8974,4.5961-28.372.1932-1.2955-1.1419-2.2312-2.4609-2.436a3.05,3.05,0,0,0-1.8071.063,40.4677,40.4677,0,0,0-6.4318,4.0831c-11.5611,10.0869-23.2807,19.9735-35.3414,29.4647a92.3682,92.3682,0,0,0-9.679,9.2488,6.3622,6.3622,0,0,0-1.475,5.3781,36.8658,36.8658,0,0,0,1.7118,7.4464c5.5856,14.3356,9.3837,29.1883,13.3078,44.0279,3.138,11.8666,3.4238,24.0013,4.4785,36.08q-1.3682,12.3874-2.7361,24.775c-4.1087,13.5513-9.0608,26.7483-18.9591,37.2715a88.5626,88.5626,0,0,1-31.3229,21.6477,142.4583,142.4583,0,0,1-29.4436,8.5005c-11.4353,1.98-22.9279,2.0267-34.1316-1.7722-4.2366-1.4368-8.5469-2.7255-12.6383-4.5066a53.751,53.751,0,0,1-24.3153-21.0022,42.9274,42.9274,0,0,1-5.7966-16.1492,79.0043,79.0043,0,0,1,.542-28.6231,105.0155,105.0155,0,0,1,8.5517-25.3785,195.6847,195.6847,0,0,1,28.8222-42.8542c7.5432-8.6826,15.0359-17.4367,23.4114-25.3657a24.05,24.05,0,0,0,5.7432-7.6059,5.67,5.67,0,0,0,.5926-3.64c-1.8617-5.44-3.829-10.855-6.0547-16.1549-5.445-12.9674-11.0317-25.8753-16.618-38.7825-.7572-1.7495-1.85-3.353-2.7707-5.0331-.6767-1.2354-4.1359-1.8488-5.12-.8761a15.722,15.722,0,0,0-2.621,2.744c-1.6465,2.7333-3.1493,5.5581-4.6058,8.3993-11.4008,22.2387-24.2907,43.5692-39.6719,63.2825a188.8493,188.8493,0,0,1-41.3651,39.656,102.8831,102.8831,0,0,1-27.4508,13.4787c-10.3906,3.3052-21.193,4.8875-32.1809,3.1235-11.3957-1.83-20.0481-7.8179-26.3895-17.3963-2.8133-4.25-4.4443-9.23-8.1344-12.9383-1.0426-1.048-4.3151-1.1562-5.2054,0a29.0891,29.0891,0,0,0-2.3852,2.9825c-1.9142,3.3225-3.8735,6.6373-5.504,10.1018-3.8218,8.1187-8.4111,15.8105-12.96,23.5141a263.607,263.607,0,0,1-20.6231,30.0147,168.0758,168.0758,0,0,1-25.7029,25.7319,79.9211,79.9211,0,0,1-19.7583,11.6281c-10.5935,4.4516-13.1534,4.96-24.1661,4.9444-.64-.0009-1.2813-.0422-1.9186-.0049-8.4978.497-16.465-1.8294-24.2516-4.7907-12.3866-4.71-21.9058-12.9822-28.9293-24.1489a86.6017,86.6017,0,0,1-12.3935-35.9858c-1.4914-12.06-2.6583-24.1531-2.3817-36.3431a26.514,26.514,0,0,0-.9662-5.6128c-.2493-1.2461-3.9621-2.3231-4.9939-1.4888-1.4881,1.2035-3.0108,2.3657-4.4734,3.5992-3.4177,2.8812-6.7553,5.86-10.2205,8.6822-8.6182,7.0187-18.6844,11.0287-29.3441,13.6019a37.88,37.88,0,0,1-22.631-1.4323,43.3941,43.3941,0,0,1-23.8993-21.0378c-2.0828-3.94-4.2918-7.8125-6.4259-11.7251-.6934-1.27-4.1713-1.5667-5.1131-.4829a22.1042,22.1042,0,0,0-2.4822,2.8512q-9.8673,16.45-19.63,32.9627a380.8676,380.8676,0,0,1-31.8764,45.5253,218.6108,218.6108,0,0,1-24.0176,24.7771,128.4873,128.4873,0,0,1-23.395,16.6565,72.6581,72.6581,0,0,1-38.638,9.3022,32.041,32.041,0,0,1-26.0681-13.9643,66.9048,66.9048,0,0,1-11.5831-26.1037A272.9775,272.9775,0,0,1,1065.8392,2369.2429Zm228.1138-91.4594c.0581,7.0182-.0855,14.0453,1.1271,21.0038a30.3571,30.3571,0,0,0,3.8609,10.7364,15.89,15.89,0,0,0,12.4486,7.8486c6.0983.6762,11.372-1.5019,15.8855-5.314a56.004,56.004,0,0,0,11.3385-12.9037,238.365,238.365,0,0,0,12.2205-21.6515,356.9727,356.9727,0,0,0,18.3212-46.2149c4.9747-15.1078,10.6317-30.0915,13.1736-45.9327a37.7418,37.7418,0,0,1,1.7284-5.4638c2.9537-9.1141,5.007-18.4517,7.14-27.7815,1.4188-6.2066,2.4051-12.4922,4.2008-18.6517,1.9535-6.7006,2.8763-13.7268,3.91-20.6619a27.1444,27.1444,0,0,0-2.1322-14.975,15.4821,15.4821,0,0,0-17.0967-9.3408,29.6256,29.6256,0,0,0-16.715,8.6962,133.2733,133.2733,0,0,0-18.3847,21.9789c-11.1814,17.2094-19.9452,35.62-27.2971,54.7044a482.7724,482.7724,0,0,0-15.9539,49.1221C1296.9428,2240.9218,1293.8106,2259.1285,1293.953,2277.7835Zm641.9649,72.9822c0,6.57-.2272,12.3165.0736,18.0352a103.85,103.85,0,0,0,1.7769,13.24,19.3843,19.3843,0,0,0,3.9089,8.6283,10.4279,10.4279,0,0,0,6.3556,3.8969,16.6679,16.6679,0,0,0,11.132-1.6591,39.0062,39.0062,0,0,0,11.9794-9.3654,189.3044,189.3044,0,0,0,12.7128-16.7285c6.5906-10.2014,11.8321-21.1024,16.962-32.0534,7.5751-16.1705,13.4539-33.01,19.1962-49.8967,1.6483-4.8469,3.1275-9.7358,3.2188-14.8785a6.5547,6.5547,0,0,0-2.615-4.8959,12.15,12.15,0,0,0-3.3095-1.8677c-6.5526-2.6536-12.3867-6.5369-18.135-10.5539a71.6886,71.6886,0,0,1-18.8675-18.7583c-1.419-2.1165-2.7694-4.28-4.2216-6.3734-.7191-1.0362-1.6242-1.9413-2.4-2.9407-1.5358-1.9793-5.1915-1.9573-6.6039-.0471a53.7171,53.7171,0,0,0-7.6672,15.2933c-5.1876,15.7166-11.3116,31.164-13.8605,47.6512a31.3137,31.3137,0,0,1-.8906,3.7158C1939.07,2310.9518,1936.883,2331.19,1935.9179,2350.7657Zm125.86-254.1366c-.271-11.52-.3434-23.0088-1.2506-34.4865a90.7735,90.7735,0,0,0-5.5237-24.1976,34.8574,34.8574,0,0,0-4.5846-8.3545c-4.9075-6.7336-12.4793-6.68-17.5418.1413a21.0492,21.0492,0,0,0-3.6,6.6833,136.3151,136.3151,0,0,0-3.6522,16.8329c-1.1555,8.2235-2.72,16.3764-3.9187,24.5788-1.29,8.8282-3.1446,17.6314-3.1671,26.6031-.0129,5.1229-.4019,10.1916-.8779,15.2826a205.7142,205.7142,0,0,0,.2963,40.1718,93.9528,93.9528,0,0,0,11.1537,36.3695,31.9978,31.9978,0,0,0,4.7173,5.98c2.16,2.3292,6.8119,1.694,8.2649-.9552a37,37,0,0,0,1.9116-3.3014,127.1372,127.1372,0,0,0,7.6742-23.642c2.176-10.6317,4.3307-21.2694,6.3259-31.936a120.1977,120.1977,0,0,0,1.74-13.2757C2060.5384,2118.3005,2061.1146,2107.4616,2061.7782,2096.6291ZM1772.99,2390.1767l-.0569-.0005c0-7.6425.0689-15.2861-.0494-22.9266a32.3676,32.3676,0,0,0-1.0337-5.5784c-.3284-1.67-2.9277-2.72-4.5793-2.0688a9.8316,9.8316,0,0,0-4.3014,3.5931c-4.5392,6.1874-7.7822,13.13-11.4109,19.8451-6.1766,11.4293-7.8593,24.099-9.9632,36.6417a23.0536,23.0536,0,0,0-.1311,3.8142,35.106,35.106,0,0,0,5.2559,18.1074,8.2123,8.2123,0,0,0,4.4666,3.3778,11.2114,11.2114,0,0,0,12.109-3.3375,29.8616,29.8616,0,0,0,5.6783-9.866c2.2327-7.3286,4.0093-14.7588,4.0154-22.4933Q1772.9964,2399.7308,1772.99,2390.1767Z"/><path class="cls-1" d="M1685.9647,1813.0516a221.5,221.5,0,0,0,1.2136,34.9164,55.5376,55.5376,0,0,0,3.54,14.8792,38.87,38.87,0,0,0,2.5641,5.1352,16.7466,16.7466,0,0,0,18.0114,8.0564,34.9451,34.9451,0,0,0,10.6933-4.0953,61.9639,61.9639,0,0,0,12.0714-9.4057,156.164,156.164,0,0,0,26.0824-33.0238c9.178-15.5229,8.5723-11.8286,12.4793-31.7946.7341-3.7514,1.7558-7.45,2.7286-11.15,1.7874-6.798,3.8515-13.5307,5.4161-20.3784,3.128-13.6914,15.4517-45.7022,22.1368-59.169,1.7038-3.4322,3.7069-6.7146,5.5333-10.0871,4.6347-8.5559,10.44-16.0611,18.8042-21.3427a11.1461,11.1461,0,0,0,2.7567-2.63,8.9656,8.9656,0,0,0,1.8092-3.3245c.8149-3.74,1.4584-7.5227,2.0374-11.3088a266.4655,266.4655,0,0,1,6.2309-28.0684c2.6969-10.1595,8.1239-18.6974,14.6349-26.6727a24.0682,24.0682,0,0,1,5.5721-5.2278c12.9344-8.1315,26.5174-12.298,41.8686-7.16,8.7922,2.9424,16.08,7.7024,21.716,15.0094a32.3887,32.3887,0,0,1,3.1718,4.7884c4.14,7.9877,7.4371,16.3,8.7589,25.2534.6526,4.4211,1.1393,8.8839,1.3827,13.3453a315.7333,315.7333,0,0,1-.5643,40.2516,210.0112,210.0112,0,0,1-4.3071,28.424c-2.5273,11.8782-4.8512,23.8-7.2085,35.7141-.2436,1.2305-.05,2.541-.1724,3.8032-.22,2.2742,2.8331,5.0835,4.9779,4.6038a31.1712,31.1712,0,0,0,3.7311-.8378,68.8182,68.8182,0,0,0,22.8334-13.7762,115.5771,115.5771,0,0,0,25.6394-33.2028c1.1782-2.2678,2.1711-4.6314,3.3264-6.9119a7.63,7.63,0,0,1,9.9057-3.13c4.3511,2.0247,6.8586,5.8827,6.0667,10.8294a62.8771,62.8771,0,0,1-4.5144,14.6194c-8.1307,19.063-19.369,36-35.5166,49.3274-7.4231,6.1267-15.3166,11.5456-24.3465,15.0806-4.7564,1.8619-9.5762,3.561-14.3567,5.3611a67.0436,67.0436,0,0,0-7.11,2.8449,9.5461,9.5461,0,0,0-4.9906,5.5838c-3.744,12.22-8.2621,24.1667-12.5519,36.1964a289.6564,289.6564,0,0,1-19.7789,43.5956,118.8972,118.8972,0,0,1-15.6313,21.7737,122.5266,122.5266,0,0,1-11.0947,10.5675c-13.9423,12.0289-30.2764,15.8433-48.2711,13.7-.6343-.0757-1.2614-.2172-1.8966-.2844-7.3318-.776-13.28-4.2674-18.4377-9.34a42.6884,42.6884,0,0,1-10.2761-16.0053,103.2634,103.2634,0,0,1-3.8267-12.84c-1.5232-6.8576-2.6049-13.8123-4.0281-20.6938a7.4094,7.4094,0,0,0-1.95-3.0506c-.777-.8666-3.8707-.1035-5.3136,1.1473-.966.8374-1.97,1.633-2.9106,2.4978-2.3524,2.1629-4.6465,4.39-7.0212,6.5278a82.8393,82.8393,0,0,1-22.2676,14.7977,74.5956,74.5956,0,0,0-6.7352,3.6207c-3.1544,1.7813-3.2816,7.7869-.1906,9.8838,1.5832,1.0739,3.2558,2.0183,4.9015,2.9981,7.75,4.6136,11.3988,11.8368,12.8065,20.3962a16.6236,16.6236,0,0,1-.06,5.711c-2.1168,11.05-7.1355,20.45-16.1136,27.5051a29.2021,29.2021,0,0,1-3.0263,2.35c-10.6541,6.2867-21.9524,10.3805-34.55,9.7725a18.6148,18.6148,0,0,1-9.1164-2.5423,7.9848,7.9848,0,0,1-3.63-8.1627,2.9473,2.9473,0,0,1,2.2311-2.7752,72.69,72.69,0,0,1,7.4856-1.2341,45.7993,45.7993,0,0,0,22.8109-9.2558,17.554,17.554,0,0,0,7.1263-14.9933c-.0782-4.0238-1.67-7.6347-5.1555-9.77-3.7953-2.3247-7.9342-4.0838-11.89-6.1528a7.24,7.24,0,0,1-4-6.1119c-.2127-3.1717.1557-6.3774.0841-9.5641-.08-3.5626-2.1149-5.8867-5.2572-7.278-1.7492-.7743-3.5826-1.3569-5.3576-2.0762-2.9574-1.1985-5.8992-2.4355-8.8458-3.66a39.126,39.126,0,0,1-13.9393-9.9548c-3.0106-3.2968-5.8268-6.7709-8.7505-10.1478-1.5265-1.763-5.2391-1.35-6.6939.7669-3.254,4.7366-6.7649,9.328-9.6378,14.2875-5.1789,8.9408-11.843,16.6622-18.9778,23.9908a134.054,134.054,0,0,1-11.5238,10.0908c-10.5169,8.5777-22.7858,11.0439-35.9991,10.0126-1.274-.0995-2.538-.3476-3.8127-.42-8.63-.4926-16.0546-3.8812-22.6148-9.36a27.7551,27.7551,0,0,1-2.87-2.5355c-6.5419-7.2225-11.5786-15.3287-13.45-25.005-2.3072-11.9258-4.3916-23.9017-4.4153-36.1151a4.6,4.6,0,0,0-1.3264-3.498c-.8737-.8428-2.326-1.5846-3.3559-.9144-4.8041,3.1258-9.45,6.4959-14.1248,9.8189a41.3186,41.3186,0,0,1-19.56,7.2918c-9.2173,1.0645-17.84-.36-25.3291-6.34-1.4883-1.1882-3.1467-2.1668-4.7469-3.21-.8927-.5823-4.6365.3174-5.3474,1.26a46.12,46.12,0,0,0-3.3973,4.6094c-3.8159,6.6537-7.41,13.4361-11.2847,20.0543a222.0949,222.0949,0,0,1-34.8066,45.5822,99.6448,99.6448,0,0,1-11.7253,9.85,66.06,66.06,0,0,1-26.1585,11.3067,41.08,41.08,0,0,1-22.5953-1.9659,26.09,26.09,0,0,1-9.6614-6.1007,51.2873,51.2873,0,0,1-13.6027-22.7964c-3.4556-12.3617-5.9331-24.86-5.6778-37.7946.1515-7.6666.0438-15.339.0005-23.0084a2.88,2.88,0,0,0-1.9411-2.8836,3.0922,3.0922,0,0,0-3.462.7559,45.0259,45.0259,0,0,0-3.4889,4.5522c-2.5677,3.6657-5.0339,7.4029-7.637,11.0428-1.8572,2.5978-3.8332,5.113-5.8179,7.616-7.7072,9.72-17.593,16.6354-28.5884,22.1084a10.446,10.446,0,0,1-1.7675.7379c-7.4292,2.1127-14.8872,3.3253-22.6942,2.1607-7.4084-1.1051-13.0892-4.8588-17.824-10.318a44.5435,44.5435,0,0,1-7.7571-13.1572c-.9264-2.3781-1.6949-4.8176-2.6237-7.1948-.8479-2.17-4.78-3.4329-6.5028-2.1327a73.1718,73.1718,0,0,0-6.0142,4.6832,128.2172,128.2172,0,0,1-14.9021,12.04,70.6071,70.6071,0,0,1-24.42,10.753c-3.7379.8573-7.51,1.5731-11.2823,2.272a33.5143,33.5143,0,0,1-13.3431-.0564c-6.8523-1.4975-13.8767-2.1828-20.4463-5.017a45.4594,45.4594,0,0,1-12.8826-8.1425,58.9686,58.9686,0,0,1-18.3522-32.9507,170.2408,170.2408,0,0,1-2.8328-42.01c.4458-8.299,1.1384-16.5851,1.5567-24.885a128.0889,128.0889,0,0,1,3.8012-24.6032c2.0125-8.0648,4.14-16.1,6.1613-24.1634,3.2781-13.0747,8.2443-25.5479,13.8521-37.7445,3.9972-8.6936,8.0822-17.3578,13.619-25.29a182.48,182.48,0,0,1,13.0117-16.5783,74.8461,74.8461,0,0,1,21.2159-16.2132,32.073,32.073,0,0,1,7.0507-2.9716c10.6567-2.6986,21.3956-3.74,32.2441-.9463a22.47,22.47,0,0,1,12.5641,8.2748,48.1932,48.1932,0,0,1,10.21,28.3807,82.2006,82.2006,0,0,1-2.039,22.8493c-.9355,3.7184-1.6152,7.5-2.4849,11.236-4.692,20.1559-13.3247,38.62-24.3882,55.9837A90.9976,90.9976,0,0,1,1156.37,1794.95c-.9873.8123-1.8549,1.7909-2.9083,2.4978-5.9528,3.9931-12.2377,6.9327-19.7095,6.0773a16.0847,16.0847,0,0,0-5.7109-.07c-1.3841.3308-3.691,2.19-3.9616,3.6915-1.8144,10.0684-3.4128,20.1964-3.48,30.4266a85.59,85.59,0,0,0,5.9219,31.8571c3.3835,8.6708,12.86,12.9862,22.1014,10.2434a44.3442,44.3442,0,0,0,18.187-10.2776,146.344,146.344,0,0,0,26.7992-34.828,29.3647,29.3647,0,0,0,3.2989-10.9484q1.9275-15.22,3.811-30.4461a146.1532,146.1532,0,0,1,5.092-24.3812,72.4146,72.4146,0,0,0,2.0634-7.3869c2.8583-15.1691,8.3476-29.55,13.7413-43.8833a214.7669,214.7669,0,0,1,29.0424-53.8347c2.3023-3.0618,4.7624-6.01,7.2368-8.9365,5.47-6.469,12.3608-11.0721,19.9291-14.6682a28.6182,28.6182,0,0,1,7.2929-2.2523,45.02,45.02,0,0,1,24.5106,2.4779c7.7693,3.0482,15.098,6.925,21.0394,13.0388a27.5406,27.5406,0,0,0,4.6572,3.2132c1.155.7713,4.3238-.3075,4.9517-1.6647a20.97,20.97,0,0,0,1.5926-3.4626c3.9047-15.4891,8.2225-30.8916,9.8476-46.8649a52.8438,52.8438,0,0,1,1.4064-7.5326,310.8494,310.8494,0,0,0,7.056-37.6575c.9477-7.6108,1.6743-15.2973,3.36-22.7554,1.6954-7.5008,2.9914-15.0308,4.0394-22.6261.96-6.9627,1.9481-13.9217,2.8846-20.8875.7664-5.7011,1.4688-11.4109,2.2123-17.1153a88.8969,88.8969,0,0,0,1.2213-9.5011c.2286-10.9132,2.749-21.5515,3.6622-32.3764a5.9814,5.9814,0,0,1,.5863-1.8209c.7814-1.7787,1.798-3.4656,3.7958-3.9662,4.95-1.2407,9.8888-2.6587,14.9209-3.4076a41.9149,41.9149,0,0,1,18.9293,1.7287,24.6933,24.6933,0,0,1,13.4469,10.211,32.9235,32.9235,0,0,1,5.6108,16.1274,86.5983,86.5983,0,0,1-.9376,21.0209c-1.9125,11.3487-3.6166,22.7327-5.3827,34.1057-.7849,5.0533-1.6572,10.1-2.2252,15.1788a161.9252,161.9252,0,0,1-4.9156,26.3506,78.4406,78.4406,0,0,0-2.1079,9.3528c-2.8445,18.3287-6.7972,36.4337-10.5686,54.5839-2.2077,10.6244-3.5512,21.4428-6.1009,32.0049-3,12.4319-5.8914,24.8716-7.4835,37.5784a21.1362,21.1362,0,0,1-.6678,3.7722c-5.4419,17.1353-7.0635,35.0506-10.82,52.5218-4.57,21.2563-7.3454,42.8279-11.748,64.0836-3.2594,15.7334-4.576,31.61-6.0521,47.5071a141.1868,141.1868,0,0,0-.112,24.91,30.6916,30.6916,0,0,0,3.8672,12.7381,9.05,9.05,0,0,0,11.6444,3.4547,24.2409,24.2409,0,0,0,7.5065-5.8743c6.8368-8.436,13.82-16.7811,19.4861-26.0866q10.9765-18.0235,20.7215-36.7483a65.9592,65.9592,0,0,0,7.33-23.6337c1.2134-11.4368,3.0446-22.8091,4.6952-34.1969a138.9377,138.9377,0,0,1,4.9471-20.4824,304.3377,304.3377,0,0,1,13.8254-37.7836,192.7521,192.7521,0,0,1,20.164-34.761,118.6206,118.6206,0,0,1,19.7269-20.8259,59.9059,59.9059,0,0,1,25.6251-12.5074,51.3761,51.3761,0,0,1,31.9169,3.2048,37.1579,37.1579,0,0,1,12.2718,9.008c2.3554,2.4781,5.5082,3.05,8.828,2.3048,1.87-.4193,3.7-1.0116,5.5616-1.471a31.9921,31.9921,0,0,1,3.7529-.7518,21.7588,21.7588,0,0,1,17.7062,5.5423,11.1681,11.1681,0,0,1,2.2629,3.0511c.9274,1.6977,1.57,3.5961.8887,5.4969q-2.2578,6.3045-4.8128,12.5017a131.6233,131.6233,0,0,0-6.574,20.0157,184.914,184.914,0,0,1-4.8737,18.5181,78.7532,78.7532,0,0,0-3.2621,13.0136c-2.7076,16.3916-5.7613,32.7223-8.5243,49.1027-2.659,15.7641-4.5821,31.6472-6.0987,47.55-1.2728,13.3481-1.7158,26.7828-2.2636,40.19a78.7152,78.7152,0,0,0,1.9846,20.9528,23.4526,23.4526,0,0,0,2.0742,5.3194,7.3831,7.3831,0,0,0,6.1968,3.887,13.8452,13.8452,0,0,0,9.0576-2.4943,35.2539,35.2539,0,0,0,8.4144-7.7877c3.9175-5.0418,7.7487-10.1688,11.309-15.4661,6.79-10.1033,12.1945-20.9924,17.4881-31.9276,3.6679-7.5767,5.9353-15.4976,5.7268-24.0126-.0468-1.9153.0911-3.8352.138-5.7529.2654-10.8764,1.0091-21.6575,3.4362-32.3525,2.1179-9.3333,3.2532-18.888,4.8983-28.3317.4371-2.51,1.1123-4.9816,1.7474-7.4532,2.0675-8.0462,4.03-16.1222,6.28-24.1176,7.1153-25.2952,15.9316-49.9092,29.1217-72.7953a152.93,152.93,0,0,1,16.674-23.3855,82.7244,82.7244,0,0,1,23.85-19.045,47.7369,47.7369,0,0,1,14.4325-4.993,72.697,72.697,0,0,1,26.7092,0c11.4046,2.2332,19.9759,8.4553,24.9077,19.023a73.6022,73.6022,0,0,1,6.4653,42.9806,38.82,38.82,0,0,1-2.88,9.0994,13.0628,13.0628,0,0,1-3.4065,4.5642c-5.4127,4.7036-11.5365,8.02-18.88,8.3983a4.6456,4.6456,0,0,1-4.5034-5.053c.1729-1.2644.3207-2.5321.5-3.7955,1.5361-10.8,1.5911-21.662,1.4213-32.5368a46.6031,46.6031,0,0,0-4.3917-18.517c-2.0294-4.52-8.2061-7.2019-12.9606-5.2348a29.706,29.706,0,0,0-6.6447,3.7118,45.42,45.42,0,0,0-11.2032,13.0136,132.8368,132.8368,0,0,0-7.3008,13.486c-6.0545,13.4012-11.67,26.9877-15.5351,41.2206-.67,2.4665-1.036,5.0238-1.8216,7.4485-7.321,22.5938-10.8757,46.0039-15.0882,69.2706C1687.2916,1780.2637,1686.5379,1796.8746,1685.9647,1813.0516Zm-382.2524-115.12c.2593-11.619-1.04-19.73-4.1365-27.5539-1.6914-4.2735-7.3835-6.2719-11.1275-3.8575a35.2928,35.2928,0,0,0-10.87,10.5818,184.101,184.101,0,0,0-10.259,18.332c-8.1356,16.6731-13.6115,34.3034-19.291,51.875a18.8883,18.8883,0,0,0,.1523,13.0693c1.674,4.341,1.247,8.7436.145,13.1565a143.19,143.19,0,0,1-7.6171,23.6092c-4.6994,10.5855-7.182,21.7423-8.5387,33.1811a59.2534,59.2534,0,0,0,3.6435,28.1486,17.7667,17.7667,0,0,0,.8863,1.6923,9.968,9.968,0,0,0,9.5678,5.0287,18.0943,18.0943,0,0,0,8.8376-3.2568,40.62,40.62,0,0,0,8.2963-7.8712,114.9179,114.9179,0,0,0,14.1913-22.621c4.0251-8.66,8.045-17.4,11.0359-26.4455,4.5926-13.8888,9.9439-27.5664,12.869-41.9854a109.4514,109.4514,0,0,1,3.5428-12.8981c2.85-8.5191,4.0759-17.3407,5.297-26.1742a5.8263,5.8263,0,0,0-.0677-1.8949,3.5,3.5,0,0,0-.6774-1.7654c-1.3366-1.3175-2.7961-2.5112-4.2162-3.7432-2.0172-1.75-3.2217-3.8126-2.9052-6.6228C1303.0406,1704.8558,1303.5226,1699.785,1303.7123,1697.9318Zm165.0251,114.4541a31.2008,31.2008,0,0,0,5.5663,18.85,12.6381,12.6381,0,0,0,13.4692,4.88,19.1978,19.1978,0,0,0,6.7-3.5491,47.5154,47.5154,0,0,0,7.699-8.4618c7.6653-10.3548,13.03-21.9573,17.4055-33.92,5.0257-13.7411,10.5264-27.3613,13.7464-41.7156.6966-3.1066,1.5406-6.1865,2.4569-9.2369,5.3232-17.719,8.8716-35.8561,12.677-53.9292a19.2838,19.2838,0,0,0-2.07-12.9614c-3.1961-6.2743-9.9673-8.78-16.0982-5.9023a34.6589,34.6589,0,0,0-12.1918,9.0548c-4.0586,4.8926-7.78,10.0764-11.474,15.2575-6.71,9.4125-11.1675,20.0009-15.5889,30.59a12.4768,12.4768,0,0,0-.7524,7.5016c1.1049,5.1414.2558,10.03-1.1039,15.0559-4.8351,17.871-11.3381,35.1681-17.7256,52.5027A44.0406,44.0406,0,0,0,1468.7374,1812.3859Zm341.9445,50.1908c0,4.9666-.1562,7.5351.04,10.077a68.2867,68.2867,0,0,0,1.2459,9.4891,17.4726,17.4726,0,0,0,5.4447,9.9018,8.1452,8.1452,0,0,0,7.0818,1.9415,19.4954,19.4954,0,0,0,8.483-4.2205c7.1831-5.6326,12.3924-12.9553,16.7613-20.7619a278.6887,278.6887,0,0,0,26.6284-65.4838c.5-1.9027-1.062-5.7855-2.7337-6.7573a34.8038,34.8038,0,0,0-3.3393-1.8724c-10.819-4.7818-19.1582-12.5665-26.3674-21.7178-1.1831-1.5019-2.1992-3.1345-3.3669-4.6495-1.3962-1.811-5.5869-1.6663-6.7967.2542-1.3565,2.1537-2.9992,4.2386-3.8258,6.5956-3.1717,9.0444-6.1442,18.1615-9.0255,27.3035a100.8107,100.8107,0,0,0-2.7543,11.1554c-1.8207,9.4121-3.4613,18.859-5.2178,28.2837A144.5224,144.5224,0,0,0,1810.6819,1862.5767Zm93.7787-189.533a277.1971,277.1971,0,0,0-1.76-34.4247,46.2276,46.2276,0,0,0-3.6536-12.8618,12.124,12.124,0,0,0-5.102-5.5341,7.1268,7.1268,0,0,0-7.2578-.0652,13.15,13.15,0,0,0-5.9694,7.2335,41.0448,41.0448,0,0,0-1.8985,7.4c-1.8246,10.7061-2.5913,21.5826-4.4532,32.252a231.1138,231.1138,0,0,0-2.7893,30.4458,125.49,125.49,0,0,0,.6044,21.039c.8074,6.2809,2.9522,12.3957,4.5977,18.56a42.1052,42.1052,0,0,0,1.9678,5.3987,12.6616,12.6616,0,0,0,1.839,3.335,30.7763,30.7763,0,0,0,4.082,3.9318c1.8033,1.4569,5.5366.3553,6.56-1.7615a114.29,114.29,0,0,0,8.6758-27.2982C1903.0877,1704.9708,1903.555,1688.9856,1904.4606,1673.0437Zm-727.3011,18.09c-.0542-5.1392-.922-8.7808-3.2634-12.0214a7.8211,7.8211,0,0,0-10.1988-2.2814,14.4408,14.4408,0,0,0-4.341,3.6,95.3563,95.3563,0,0,0-11.651,21.8948c-4.5156,11.9188-8.978,23.88-12.1148,36.2648a133.5087,133.5087,0,0,1-3.7562,12.8183c-1.7265,4.7663-2.6353,9.8336-3.8248,14.7878-.69,2.8766.35,5.5648,2.4578,6.509,1.9643.88,3.7785.174,5.3827-.92a49.72,49.72,0,0,0,12.1973-12.0317c13.6717-18.8218,23.3945-39.4405,28.2207-62.2655C1176.7929,1695.0055,1176.98,1692.451,1177.16,1691.1335Z"/><path class="cls-1" d="M434.9538,2521.349a188.5652,188.5652,0,0,0,.3535,38.2808,18.9324,18.9324,0,0,1,.0133,3.8226,9.25,9.25,0,0,1-3.3549,6.6322,81.22,81.22,0,0,1-19.7244,11.6471,122.1679,122.1679,0,0,1-33.12,9.264,44.9177,44.9177,0,0,1-31.0663-7.1208,21.9433,21.9433,0,0,1-9.6-13.7781,37.2371,37.2371,0,0,1-1.2041-9.4689,167.21,167.21,0,0,1,1.3152-21.0184c2.0073-13.2543,3.4677-26.5951,6.3779-39.7242a173.9442,173.9442,0,0,0,3.396-22.7357c1.1472-13.3918,4.5082-26.4478,5.6152-39.8286a444.4459,444.4459,0,0,0,7.2269-51.19,37.1435,37.1435,0,0,1,.9531-5.6576,271.4733,271.4733,0,0,0,6.5811-41.586c.57-7.0337,2.02-13.9008,3.0563-20.8467.9406-6.3059.94-12.762,3.189-18.8461,1.4625-10.7629,3.326-21.49,4.286-32.2974,1.189-13.3865,4.1628-26.5062,5.35-39.8746,3.4327-16.296,4.1512-32.9514,6.4862-49.3948.6279-4.4208.7834-8.8911,2.1477-13.2019a24.6214,24.6214,0,0,0,1.1348-5.6262c.9947-14.0324,3.8766-27.8276,4.9886-41.8638,1.0581-13.3546,2.7734-26.6769,5.1491-39.8881.452-2.514,1.03-5.025,1.2276-7.5624,1.2426-15.9311,4.2095-31.6793,4.9787-47.6629.1838-3.8184.91-7.6089,1.3436-11.4173.6509-5.7117,1.269-11.4273,1.89-17.1425.1381-1.2705.1547-2.5576.3536-3.8173,3.1917-20.2243,3.94-40.695,6.17-61.0161.07-.6352.1979-1.2681.2159-1.9045.5082-17.9015,2.7777-35.6725,3.9277-53.524.4924-7.6453.4164-15.33.51-22.9976.1094-8.9691-.3652-17.8853-2.5562-26.6474a25.0676,25.0676,0,0,1-.6575-5.6782,6.552,6.552,0,0,1,2.2052-5.1179,26.6348,26.6348,0,0,1,6.4863-4.0236c5.2888-2.2444,10.72-4.1512,16.0786-6.2321,8.5575-3.3226,17.4256-3.7992,26.4063-2.7091,8.8329,1.072,15.3042,6.0681,20.3129,13.0969a44.0619,44.0619,0,0,1,6.4714,13.8465c2.3682,8.5981,4.7076,17.2718,4.6489,26.3354-.0454,7.03.2,14.07-.0963,21.0879-.296,7.0041-1.17,13.9821-1.6443,20.9816-.1111,1.6379.9352,2.3938,2.23,2.0225a3.2384,3.2384,0,0,0,1.5483-.9294,15.8043,15.8043,0,0,0,2.1624-3.1291c3.5859-7.4864,6.934-15.0914,10.6733-22.4993a266.88,266.88,0,0,1,27.2615-43.8961c4.3318-5.5721,9.0474-10.7413,13.8582-15.862,8.4152-8.9569,18.3794-15.84,29.2056-21.473a84.8379,84.8379,0,0,1,12.4085-5.0259c20.7923-6.9142,21.9177-7.1184,46.9951-7.2025,14.5662-.049,27.6169,4.7965,40.0115,11.6873,11.4454,6.3629,19.7244,16.1012,26.6284,27.0437,7.5784,12.0111,12.334,25.2113,15.8695,38.8669,1.9193,7.4134,3.7251,14.8574,4.1289,22.5875.3331,6.3769,1.1323,12.73,1.7315,19.0927a218.9566,218.9566,0,0,1-.0143,40.2039c-.6286,7.0013-1.19,14.0123-1.5956,21.0293a246.4821,246.4821,0,0,1-6.5962,43.5094c-.7462,3.1026-1.2925,6.2565-1.8448,9.4022-2.1,11.9649-5.3206,23.6511-8.3742,35.3981-6.4432,24.7862-15.1933,48.7793-24.2183,72.681-3.6079,9.5549-7.62,18.9869-12.0009,28.2123-5.4781,11.536-10.822,23.1386-16.8294,34.4322a551.217,551.217,0,0,1-38.3076,61.8888c-17.9405,25.0844-38.6478,47.6081-62.8738,66.7686a162.61,162.61,0,0,1-59.4462,30.0017,99.1363,99.1363,0,0,1-26.5622,3.1675c-5.11-.0412-10.2176-.3623-15.3274-.5244-1.2741-.0406-2.5523.0576-3.8288.0756-3.1689.0455-6.4241,2.55-6.9981,5.49-2.0809,10.6579-4.0426,21.3177-5.1738,32.1485-2.9207,27.9616-6.197,55.8855-9.265,83.8319-1.3253,12.0731-2.2726,24.1772-2.5474,36.33C435.5253,2507.3,435.2033,2514.3242,434.9538,2521.349ZM674.5546,1896.6c.3888-16.11-2.3633-31.8372-5.5313-47.5249a54.4724,54.4724,0,0,0-9.4333-20.8036,34.3432,34.3432,0,0,0-14.611-12.0345,23.0322,23.0322,0,0,0-5.4312-1.81,54.3143,54.3143,0,0,0-20.9677.4265,56.2076,56.2076,0,0,0-22.2268,10.8751c-9.9935,8.03-19.15,16.9819-26.3453,27.6969a224.1977,224.1977,0,0,0-12.2588,19.4519,451.5467,451.5467,0,0,0-23.5868,52.4027c-5.1971,13.7556-9.5779,27.7736-14.4623,41.6257-1.2726,3.609-2.19,7.345-3.23,11.0341-2.08,7.38-4.19,14.7517-6.1786,22.1562-1.6576,6.1724-3.2727,12.36-4.7057,18.5873-2.8647,12.4493-5.6764,24.9122-8.3524,37.403-2.6737,12.48-4.5518,25.1176-7.8145,37.49-1.6241,6.1579-2.3674,12.55-3.4681,18.8436-.77,4.4035-1.4575,8.8213-2.2039,13.2288-2.6658,15.7423-6.2963,31.3287-7.9171,47.238-1.36,13.3511-4.4581,26.4745-5.1068,39.9144a22.2323,22.2323,0,0,1-.5416,3.7933c-2.3946,10.63-3.1493,21.4976-4.72,32.2464-1.6613,11.3676-2.2526,22.891-5.1491,34.0865a10.6749,10.6749,0,0,0,1.7711,9.127c3.0143,4.1271,5.9688,8.3114,9.2211,12.2462a15.7034,15.7034,0,0,0,8.1744,4.7525,21.0685,21.0685,0,0,0,9.5064.61c7.5225-1.4272,15.0663-2.8628,22.4531-4.8474,6.1975-1.6649,11.6636-5.2365,17.1715-8.4269a116.5879,116.5879,0,0,0,21.2752-16.2736c16.4815-15.5071,29.1919-33.8536,40.0717-53.5163a496.9931,496.9931,0,0,0,22.3043-46.68,413.61,413.61,0,0,0,17.5236-48.6406c1.0457-3.6863,2.091-7.3911,3.4573-10.9648,2.9745-7.7806,4.99-15.83,7.2143-23.8342,4.6221-16.6289,9.0309-33.299,12.0013-50.32.3277-1.8774,1.0981-3.6737,1.5118-5.541,1.934-8.73,3.9592-17.4426,5.6773-26.2152,1.9645-10.0309,3.6349-20.1191,5.4426-30.1807.5648-3.1436,1.34-6.2607,1.7118-9.4259,2.3879-20.313,4.7783-40.6271,6.9648-60.9624C674.3794,1908.1273,674.31,1902.3467,674.5546,1896.6Z"/><path class="cls-2" d="M797.226,998.5255c9.5893,0,19.1786-.0455,28.7677.0133,8.951.0549,17.8788.2922,26.7485,1.8664a107.0181,107.0181,0,0,0,13.36,1.1355c6.384.3176,12.7763.5456,19.1673.6369,10.887.1558,21.7123.7708,32.3219,3.4614,17.1281,2.0983,34.1757,4.8139,51.12,7.9874,23.8443,4.4659,47.8071,8.4925,71.0866,15.6036,4.88,1.4909,9.924,2.4417,14.8736,3.7139a95.0929,95.0929,0,0,1,9.1925,2.631,106.5888,106.5888,0,0,0,20.29,5.62,29.3317,29.3317,0,0,1,7.3034,2.2465c7.5861,3.3857,15.8393,5.0652,23.1451,9.1755a19.4347,19.4347,0,0,0,5.3808,1.9687c11.3257,2.4395,21.8214,7.2027,32.5163,11.42,4.7531,1.8742,9.557,3.6191,14.34,5.4168,1.7909.6732,3.6645,1.1746,5.37,2.0185,12.602,6.2348,25.6488,11.4931,38.3461,17.509,6.9219,3.28,13.5783,7.1148,20.4189,10.5722,17.1129,8.6488,33.9219,17.85,50.5773,27.3474,5.565,3.1735,10.87,6.6989,16.1868,10.25,6.3711,4.255,12.8648,8.3476,19.483,12.2057,6.6314,3.8656,13.081,7.9905,19.321,12.4394,8.8459,6.3067,17.6031,12.7372,26.4078,19.1016,5.6975,4.1183,11.48,8.11,16.531,13.0668a51.0189,51.0189,0,0,0,7.3976,6.0845c17.096,11.3669,32.5329,24.7436,47.42,38.8015.9292.8776,1.8631,1.7585,2.8637,2.5505,18.6064,14.7275,34.7062,32.1108,51.4968,48.7521a169.0858,169.0858,0,0,1,12.4729,14.5347c2.3775,2.9631,5.5954,5.2364,7.2285,8.7788.1492.3237-.2657,1.1532-.6468,1.412a2.4139,2.4139,0,0,1-1.7516.3415c-9.2681-2.3945-18.521-4.8473-27.7789-7.282-1.2363-.3252-2.4662-.708-3.7236-.9147-13.8793-2.2807-27.5529-5.5371-41.29-8.5056a92.3886,92.3886,0,0,0-15.2289-1.6045,134.2712,134.2712,0,0,1-22.7577-2.8358c-9.9636-2.1839-20.1689-3.27-30.2775-4.783a19.99,19.99,0,0,1-8.8365-3.4421c-3.119-2.2295-6.36-4.3287-9.2541-6.8259-21.3368-18.4129-44.3636-34.5238-67.7195-50.2169-15.9222-10.6984-32.12-20.9259-48.8829-30.2528-.5586-.3107-1.1421-.5793-1.6865-.9121-5.4468-3.33-10.6054-7.2994-16.3832-9.8867-17.5036-7.8374-34.1063-17.52-51.8235-24.9048-8.2527-3.44-16.2846-7.4077-24.5188-10.8951-11.1645-4.7285-22.29-9.5668-33.7861-13.4758-4.2324-1.439-8.4573-2.9323-12.5805-4.6529-7.6821-3.2056-15.5863-5.752-23.5245-8.1982-4.8826-1.5047-9.7722-2.94-14.5649-4.751a71.0689,71.0689,0,0,0-12.8641-3.7256,81.8833,81.8833,0,0,1-14.7139-4.1589,90.0541,90.0541,0,0,0-16.6266-4.46c-6.9134-1.1636-13.7289-2.9694-20.5343-4.7033a412.0549,412.0549,0,0,0-54.5368-10.4717c-8.8672-1.0228-17.6683-2.7517-26.4328-4.4939a138.8724,138.8724,0,0,0-24.7707-2.4388c-6.392-.1111-12.7887-.1741-19.1711-.5a140.1458,140.1458,0,0,1-15.25-1.4149,135.4052,135.4052,0,0,0-20.9993-1.7287q-24.931-.1295-49.8629-.0927c-9.5907.0248-19.1524.3321-28.6367,2.1979a89,89,0,0,1-13.3567,1.0969c-6.3859.2719-12.782.2973-19.1713.501a206.7008,206.7008,0,0,0-20.9588,2.0823c-12.6629,1.7023-25.1044,4.8024-37.8794,5.7636a79.6691,79.6691,0,0,0-9.43,1.6943c-14.4075,2.8624-28.8031,5.7727-43.1006,9.1629-6.2068,1.4718-12.2783,3.61-18.7224,4.0257a20.8016,20.8016,0,0,0-3.7514.7673c-7.419,1.898-14.21,5.7785-21.94,6.755-7.0352.8885-13.4086,4.1638-20.1526,6.0311-16.6647,4.614-32.6186,11.2047-48.8753,16.9365-10.22,3.6034-20.23,7.8488-30.1724,12.178-13.4678,5.8638-26.6239,12.4195-40.1339,18.2133-7.6189,3.2674-14.9083,7.3056-22.332,11.0249-1.7133.8586-3.3714,1.8286-5.05,2.7562-11.7208,6.4764-24.4655,10.886-35.4949,18.854-10.8624,7.8471-22.5088,14.6052-33.7628,21.9158-4.82,3.1312-9.49,6.4917-14.2914,9.6529a12.8727,12.8727,0,0,1-3.5387,1.3867,3.4009,3.4009,0,0,1-1.8477-.12,2.6284,2.6284,0,0,1-2.07-2.747c1.5068-10.7489,3.0326-21.4866,3.5744-32.3479.1254-2.5127,1.0693-4.9812,1.6-7.4779,2.39-11.25,4.79-22.4741,5.811-33.9871.7888-8.8929,2.4913-17.7047,3.7827-26.5532a12.59,12.59,0,0,1,6.0222-9.3438c7.6532-4.6307,15.252-9.4021,23.191-13.5,18.74-9.6731,37.53-19.2713,56.5673-28.3387,11.506-5.48,23.2593-10.4821,35.1353-15.19,11.2861-4.4743,22.6042-8.807,34.165-12.5055a13.9687,13.9687,0,0,0,1.8369-.5433c8.0823-3.9,16.7531-6.1639,25.1432-9.2037,7.242-2.6239,14.4123-5.1855,22.1031-6.05a15.7834,15.7834,0,0,0,3.7385-.83c10.1944-3.8115,20.934-5.7473,31.2628-8.9792a380.6634,380.6634,0,0,1,42.7316-10.5861c13.1744-2.5034,26.2443-5.5556,39.5208-7.5221q5.6865-.8419,11.3687-1.7135c11.9887-1.8525,24.0219-3.467,35.9437-5.6813a111.1776,111.1776,0,0,1,17.1052-1.93c7.0292-.2069,14.0567-.4677,21.0856-.6849a196.2594,196.2594,0,0,0,24.8286-1.9948,107.1106,107.1106,0,0,1,15.2751-1.1359c11.5047-.16,23.0133-.05,34.52-.05Z"/><path class="cls-2" d="M796.8789,1170.9077c5.5862.48,11.3545.6751,17.0222,1.5335a198.8991,198.8991,0,0,0,24.8438,1.688c13.4162.3412,26.8293.8178,40.2436,1.2381a66.75,66.75,0,0,1,13.28,1.7537c11.8363,2.7926,23.762,4.9307,35.9726,5.2983a50.7892,50.7892,0,0,1,15.0666,2.619,108.2164,108.2164,0,0,0,28.1369,5.5411,38.8916,38.8916,0,0,1,12.9524,3.21,48.3234,48.3234,0,0,0,14.7,4.19c5.8036.532,11.2673,2.2679,16.7355,4.0379,14.5857,4.721,29.2385,9.2346,43.5019,14.9185,9.4841,3.78,19.4941,6.1723,28.698,10.72,12.2437,3.8245,23.5628,9.8672,35.2449,14.9944,23.9982,10.532,46.9386,23.2072,69.76,36.0694a47.0938,47.0938,0,0,1,10.8425,7.8045c2.1078,2.15,1.3222,6.8019-1.4972,8.2047a32.6014,32.6014,0,0,1-10.8685,3.5561,53.2683,53.2683,0,0,1-5.7422.2944,183.142,183.142,0,0,0-45.4847,6.0879c-4.3094,1.117-8.79,1.5692-13.1859,2.3586-8.1738,1.4681-16.361,2.87-24.5086,4.4708-6.2634,1.2311-12.5308,2.5162-18.69,4.1733-4.6184,1.2425-8.7359.4873-13.0114-1.3022-4.1122-1.7213-8.461-2.8681-12.665-4.3812-4.8056-1.7294-9.6664-3.3605-14.3208-5.4414-5.8512-2.6156-11.6461-5.2691-18.07-6.1575a6.3858,6.3858,0,0,1-1.864-.4291c-11.608-5.5427-24.3163-7.6681-36.4046-11.7218a218.354,218.354,0,0,0-25.8632-6.9721c-8.7305-1.7794-17.4454-3.8017-26.0287-6.31-9.8472-2.8771-19.8689-4.8237-30.1969-4.7733-4.5046.0219-8.8124-1.1795-13.2068-2.0074-15.0521-2.8357-30.11-5.74-45.5477-5.6995-32.5955.0849-65.1914,0-97.7871.0761a115.0483,115.0483,0,0,0-24.75,2.4476c-8.0827,1.79-16.5161,1.6329-24.5055,4.2575a25.5952,25.5952,0,0,1-7.5934.7885c-9.0132.0993-17.778,1.7555-26.4979,3.8483q-19.5458,4.6908-39.1582,9.0972a156.12,156.12,0,0,0-20.27,5.7239c-5.3642,1.99-11.0586,3.078-16.5767,4.67-3.0608.883-6.0851,1.9106-9.08,2.9994-3.0012,1.0913-5.8513,2.8035-8.933,3.428a114.0446,114.0446,0,0,0-21.7582,7.2463c-7.0482,2.98-14.3826,5.2655-21.2777,8.6754a92.0079,92.0079,0,0,1-10.64,4.3493,201.53,201.53,0,0,0-27.9639,12.5471c-16.3756,8.65-32.94,17.0087-48.7757,26.5991-23.5071,14.2365-46.4811,29.3307-67.809,46.7579-13.3565,10.9134-27.0882,21.3882-39.4776,33.4447-11.331,8.4285-20.9956,18.6636-31.0309,28.5073-21.9569,21.537-41.521,45.115-59.9015,69.7194-3.8191,5.1123-7.7244,10.1607-11.6473,15.194a2.0454,2.0454,0,0,1-1.6341.6488,1.9374,1.9374,0,0,1-1.5486-2.7447c2.7579-7.8359,5.4119-15.6929,6.7148-23.9347a11.549,11.549,0,0,1,.3743-1.8792c4.9-14.5612,7.82-29.6448,11.7242-44.4683,2.1148-8.0294,4.2291-16.0658,6.038-24.1676,5.29-23.6918,11.1519-47.2443,17.0038-70.8a40.6963,40.6963,0,0,1,2.5891-7.1946,15.2154,15.2154,0,0,1,3.156-4.7458c5.6057-5.2308,11.1816-10.5258,17.1329-15.3476,14.8916-12.0658,29.8545-24.0521,45.3058-35.4035,6.1778-4.5384,12.4545-8.9451,18.7537-13.3146q7.0839-4.9142,14.3477-9.567c5.3834-3.4418,10.9206-6.6437,16.2911-10.1047,9.1394-5.89,18.5578-11.286,28.1826-16.3322,1.1322-.5936,2.3236-1.0863,3.41-1.7518,21.8641-13.3879,45.1733-23.8693,68.6281-34.0412,10.5493-4.575,21.2106-8.8916,31.821-13.3253,8.7615-2.0157,16.873-5.8889,25.3126-8.8236q15.3846-5.35,30.9086-10.2963c6.6843-2.1314,13.315-4.509,20.3768-5.2755a47.7648,47.7648,0,0,0,12.85-3.75,48.7389,48.7389,0,0,1,16.7417-3.7386,87.2662,87.2662,0,0,0,24.407-4.63,76.29,76.29,0,0,1,20.7008-3.6682,161.9365,161.9365,0,0,0,22.8-2.8437,284.5547,284.5547,0,0,1,55.2738-5.128,180.03,180.03,0,0,0,30.57-2.0239C785.163,1171.2629,790.9687,1171.314,796.8789,1170.9077Z"/><path class="cls-2" d="M798.4049,1339.3538c20.0521.3642,39.8619.726,59.6715,1.0824a75.7237,75.7237,0,0,1,13.3091,1.4352c11.8993,2.34,23.7673,4.8209,35.8073,6.47,8.8372,1.21,17.5608,3.2826,26.3007,5.1328,1.1091.2347,2.1123,1.3531,2.9781,2.2434.8254.8489-1.1529,2.9853-3.6089,3.78-15.1989,4.9174-29.9624,11-44.7768,16.9226-7.6922,3.0755-15.73,5.1631-23.1729,9.0172-6.7811,3.5113-14.1065,5.9592-21.13,9.0176-8.7822,3.824-17.4191,7.9921-26.2665,11.6543-14.76,6.11-29.1661,12.9838-43.6286,19.7413a31.3286,31.3286,0,0,1-12.96,3.0481c-4.4731.062-8.9453.2138-13.4169.3593-7.6693.2494-15.3308.5488-22.8335,2.43a28.1059,28.1059,0,0,1-5.6657.9313c-10.3162.4081-20.21,2.9527-30.0367,5.822a50.7247,50.7247,0,0,1-11.2611,2.1847,66.4735,66.4735,0,0,0-16.8178,3.5654c-6.0607,1.9823-12.1085,4.0909-18.4539,5.1231a32.8219,32.8219,0,0,0-5.5112,1.6206c-16.8675,5.9277-33.9738,11.2328-50.4008,18.3276-8.7824,3.7928-17.3083,8.2083-25.8148,12.6036-7.94,4.1028-15.65,8.6487-23.5544,12.8236-11.3292,5.9834-21.9341,13.1227-32.5292,20.2607-15.372,10.3564-30.526,21.026-44.2542,33.5615-22.1315,17.512-41.5171,37.8721-60.7329,58.42a343.1537,343.1537,0,0,0-26.456,32.7968c-1.88,2.5831-3.6973,5.2126-5.5858,7.7893-7.1695,9.7831-14.3372,19.5535-20.0814,30.2953a48.2994,48.2994,0,0,1-16.5125,18.2626c-6.4295,4.1567-12.478,8.9075-18.6465,13.4612q-8.4825,6.2616-16.8569,12.6695c-2.5421,1.934-4.8856,4.1465-7.5159,5.9452-21.6566,14.81-41.3443,32.1658-62.2091,47.9976-5.5936,4.244-11.1494,8.5379-16.7636,12.7545a2.412,2.412,0,0,1-3.3619-.1461,3.45,3.45,0,0,1-.5089-3.551q5.3242-16.4081,10.6586-32.8127c6.133-18.8777,14.0229-37.0228,22.7006-54.8521,4.1927-8.6145,7.93-17.4525,12.1931-26.03,4.2611-8.5738,8.7207-17.0634,13.4437-25.391,14.5327-25.6242,31.6772-49.49,49.6233-72.7936,3.1144-4.0442,6.6212-7.7879,9.9848-11.637,2.5223-2.8862,5.4162-5.5011,7.6008-8.618,5.5426-7.9081,12.3381-14.6616,19.1016-21.444q16.2452-16.2907,32.73-32.3417c3.6558-3.5582,7.6563-6.7636,11.5205-10.1056.9652-.8348,2.0826-1.5,3.0124-2.369,14.9783-13.9987,31.6472-25.8648,48.0391-38.0773,3.582-2.6686,7.2254-5.2833,11.0191-7.6347,13.0273-8.0748,25.7831-16.624,39.7057-23.1679a13.16,13.16,0,0,0,1.6589-.9594c17.6772-11.7255,37.34-19.4157,56.5288-28.1218,13.4009-6.08,27.5281-10.264,40.8408-16.4987,11.0188-3.2743,22.0241-6.5954,33.0615-9.8062,7.361-2.1416,14.7845-4.067,22.15-6.1935,13.5384-3.9084,27.4688-5.9047,41.3221-8.1059,10.1127-1.6068,20.1075-3.6885,30.0953-5.8249a78.3486,78.3486,0,0,1,15.1595-1.9718C757.745,1340.11,778.1934,1339.72,798.4049,1339.3538Z"/><path class="cls-1" d="M887.3727,1981.6948a213.0268,213.0268,0,0,0-.5378,34.7032c.3183,4.25-1.8734,7.1923-5.0815,9.6868a52.8749,52.8749,0,0,1-17.04,8.5845c-6.7,2.073-13.54,3.7461-20.3992,5.218a17.6685,17.6685,0,0,1-7.585-.2551,70.5972,70.5972,0,0,1-10.866-3.6978,17.0321,17.0321,0,0,1-9.0731-9.4373,28.0738,28.0738,0,0,1-2.1666-15.0057q1.6962-12.3491,3.4961-24.6836c2.8907-19.6015,5.6144-39.2267,9.1487-58.7317,1.3651-7.5361,1.9683-15.2071,3.0839-22.7924,2.6033-17.7049,5.3061-35.3951,7.9691-53.0914.3807-2.5285.8953-5.0443,1.1232-7.5864,1.5977-17.8364,4.8514-35.4247,7.6423-53.0905,2.1929-13.8807,3.5822-27.8923,5.1564-41.8653.5725-5.0837,1.3312-10.1126,2.1817-15.1581,2.23-13.2286,4.1719-26.51,5.3839-39.8854.6916-7.6326,1.1943-15.2713,2.7672-22.8261,1.036-4.9755.6914-10.2389,1.7286-15.2141,2.7513-13.1958,3.2175-26.6413,4.8433-39.9556.9292-7.61,1.5923-15.26,2.116-22.91a103.8576,103.8576,0,0,1,2.1623-17.0955,30.6892,30.6892,0,0,0,.9247-5.6718c.8636-19.1581,4.4572-38.0792,4.7-57.3055.2021-15.981.8189-31.9472-.5648-47.9107a6.93,6.93,0,0,1,3.403-6.4287,8.9223,8.9223,0,0,1,1.6218-1.0177c5.972-2.2678,11.8825-4.7377,17.9641-6.6648a27.7857,27.7857,0,0,1,15.175-.2906,22.8847,22.8847,0,0,1,11.35,6.8259,29.4882,29.4882,0,0,1,7.2739,13.315,100.7621,100.7621,0,0,1,3.022,24.6836c-.0817,5.7484-.1953,11.4976-.1592,17.2456a3.1028,3.1028,0,0,0,2.1729,2.77,2.7772,2.7772,0,0,0,3.4046-.8529,17.6334,17.6334,0,0,0,2.33-3.0211c1.2131-2.2453,2.254-4.5845,3.3434-6.8952a198.4429,198.4429,0,0,1,22.23-35.7669,90.4489,90.4489,0,0,1,35.5522-28.4462,64.3158,64.3158,0,0,1,18.32-5.37,129.7334,129.7334,0,0,1,28.7054-.5176,49.0275,49.0275,0,0,1,26.2395,10.7263,69.7175,69.7175,0,0,1,18.3318,21.8878,102.7368,102.7368,0,0,1,9.2052,25.089,175.1715,175.1715,0,0,1,4.4181,38.0028c.2052,17.2684.1194,34.5266-3.4456,51.5568-.6533,3.12-.84,6.3352-1.3239,9.494a273.0228,273.0228,0,0,1-6.9792,33.7159c-3.8543,13.5193-7.63,27.0311-12.2371,40.3285a480.9117,480.9117,0,0,1-41.78,90.3145c-15.5533,25.9318-34.1444,49.3739-57.0117,69.3181a128.3026,128.3026,0,0,1-25.3209,17.15c-3.967,2.0619-8.1064,3.7889-12.138,5.729a39.0753,39.0753,0,0,1-10.9483,3.3816c-3.157.4975-6.3058,1.055-9.4478,1.6417a63.5676,63.5676,0,0,1-20.9822.7191,24.9279,24.9279,0,0,0-5.6832.3392c-1.4586.1323-3.7534,2.1942-4.1771,3.5631a78.696,78.696,0,0,0-3.6,18.7667c-.9411,16.6092-4.2761,32.9587-5.151,49.5667a12.215,12.215,0,0,1-.2078,1.9055c-3.0883,14.4653-3.22,29.1953-3.9648,43.8719C887.7971,1976.1834,887.4863,1980.0074,887.3727,1981.6948Zm178.4757-457.4464c.4715-13.5694-2.0887-26.7117-5.4162-39.738a37.8374,37.8374,0,0,0-8.1544-15.0293,19.8585,19.8585,0,0,0-7.632-5.6215,28.91,28.91,0,0,0-11.15-2.4587,42.1,42.1,0,0,0-23.57,6.7826,73.1586,73.1586,0,0,0-18.0128,17.0271,180.4838,180.4838,0,0,0-15.6831,24.0272c-5.4548,10.152-9.57,20.8577-14.0116,31.4521a334.1525,334.1525,0,0,0-13.8673,39.7429c-4.6074,16.59-9.0091,33.2663-12.3753,50.1858-1.6183,8.1346-3.5262,16.2188-5.5642,24.26a180.0939,180.0939,0,0,0-3.75,18.76c-1.2662,8.8428-2.6916,17.6771-4.4706,26.429-2.8007,13.7805-4.8657,27.656-6.2844,41.6358-.967,9.5244-1.8493,19.04-3.8918,28.4387-1.4884,6.847-2.3536,13.84-3.2774,20.7963s-1.7158,13.939-2.27,20.9333a11.521,11.521,0,0,0,2.1426,7.23,39.5252,39.5252,0,0,0,7.509,8.6253,10.3663,10.3663,0,0,0,5.204,2.2156,34.6185,34.6185,0,0,0,13.327-.3731c9.36-2.25,18.32-5.4433,26.1742-11.3054a143.5586,143.5586,0,0,0,11.8648-9.64c10.4141-9.6472,18.6966-20.9654,25.9981-32.9863,7.9576-13.1012,14.4267-27.0018,20.5249-41.0574,7.6311-17.5888,12.851-36.0311,19.0367-54.1314,4.5607-19.8906,11.2291-39.2874,13.7371-59.6665a131.1852,131.1852,0,0,1,3.4209-16.8837c2.7413-10.546,4.1219-21.3084,5.498-32.0693,1.2948-10.1265,2.2983-20.2864,3.7374-30.4C1065.449,1535.76,1065.4722,1529.9789,1065.8484,1524.2484Z"/><path class="cls-1" d="M878.9792,2451.3729c-11.2.5012-21.4652-2.7508-31.4651-7.3117a42.8746,42.8746,0,0,1-11.1163-7.3979,83.81,83.81,0,0,1-12.4518-14.5272,54.1259,54.1259,0,0,1-6.1283-11.8993,125.6451,125.6451,0,0,1-8.2106-41.1771c-.1923-7.6551-.5022-15.3076-.8519-22.9571a3.258,3.258,0,0,0-2.2634-2.78,4.0838,4.0838,0,0,0-3.6631-.0138,8.1991,8.1991,0,0,0-1.6174.9852c-1.4729,1.2233-2.8872,2.5165-4.3523,3.749-2.9322,2.4674-5.831,4.9779-8.836,7.3537-9.2382,7.3044-19.9668,11.3194-31.3325,13.716a34.4815,34.4815,0,0,1-17.0728-.8334,47.25,47.25,0,0,1-12.2059-5.4749,26.8546,26.8546,0,0,1-4.563-3.4682,59.3072,59.3072,0,0,1-13.6795-20.5677,124.23,124.23,0,0,1-8.4826-41.1087c-.821-23.7214.2485-47.2832,5.6175-70.5223,2.156-9.3324,3.6233-18.837,6.08-28.0832,2.2935-8.6321,5.3044-17.09,8.31-25.5137,9.9262-27.8173,22.3535-54.3431,40.5562-77.8736a201.0235,201.0235,0,0,1,16.4607-18.6871,104.0839,104.0839,0,0,1,19.6019-15.2977,63.4761,63.4761,0,0,1,21.2475-8.4965c3.7656-.7254,7.5159-1.53,11.27-2.3111a28.0536,28.0536,0,0,1,11.4135.0911c4.3846.8875,8.8051,1.6045,13.1712,2.5707a62.2746,62.2746,0,0,1,7.32,2.2057c7.3891,2.6208,13.8338,6.5687,18.2952,13.2625a12.1282,12.1282,0,0,0,2.4846,2.9038,6.9333,6.9333,0,0,0,5.4185,1.2231,17.8549,17.8549,0,0,0,5.5438-1.4445c6.5447-3.4591,13.498-3.5694,20.5772-2.9241a12.5559,12.5559,0,0,1,3.72.8322c4.115,1.7446,8.2232,3.5446,11.5517,6.658a14.4434,14.4434,0,0,1,4.6755,8.1489,15.3507,15.3507,0,0,1,.0246,3.7945,4.74,4.74,0,0,1-.7011,1.7661c-8.0866,14.7035-12.308,30.8171-16.884,46.7763-2.463,8.59-4.3333,17.35-6.4583,26.0365-.7587,3.1007-1.6326,6.1837-2.188,9.3219-1.5595,8.8089-2.5864,17.7319-4.5713,26.44-1.8464,8.1-3.8353,16.1749-5.24,24.3552-1.6223,9.4432-2.8113,18.9613-4.13,28.4554-2.2849,16.4522-4.8215,32.8774-6.6813,49.3781-1.2866,11.4178-1.8919,22.9346-2.2908,34.4247-.3989,11.493-.2209,23.0079-.1808,34.5131a67.7507,67.7507,0,0,0,1.909,17.1111,53.2474,53.2474,0,0,0,2.62,7.1693,9.5742,9.5742,0,0,0,9.3907,5.31,23.5767,23.5767,0,0,0,5.5668-1.322,37.0015,37.0015,0,0,0,11.1-7.3846c9.0248-8.3313,16.048-18.2268,22.3461-28.632a441.0782,441.0782,0,0,0,31.2025-61.4892c5.0648-12.3943,10.6051-24.6421,14.4281-37.5283,5.39-11.6262,8.7971-23.99,13.2859-35.9519a123.2779,123.2779,0,0,0,4.6913-16.5848,92.9569,92.9569,0,0,1,4.7659-14.5473,6.4654,6.4654,0,0,1,3.86-3.9782c3.02-1.0337,6.0177-2.17,9.1-2.9724,5.4891-1.4271,10.0374.7058,13.9608,4.3508a6.49,6.49,0,0,1,1.7031,3.3633c.4837,2.4862,1.1,5.0868.8311,7.55a84.2186,84.2186,0,0,1-2.6211,15.0624c-4.4094,14.6719-7.4367,29.7717-13.4389,43.9592a40.0388,40.0388,0,0,0-1.7193,5.4869c-3.73,14.2533-9.1693,27.9239-14.7351,41.5015-7.9968,19.508-16.6257,38.7685-27.0381,57.1384-8.5113,15.016-17.3724,29.8273-28.6386,43.0348-8.7357,10.2412-18.0884,19.8036-28.9618,27.8267-7.8585,5.799-16.9683,8.7817-25.9833,12.0216Q885.6529,2450.7648,878.9792,2451.3729ZM745.863,2280.5085c.1261,2.47.3772,8.8443.7986,15.2074a30.8083,30.8083,0,0,0,5.0421,14.3252,15.6473,15.6473,0,0,0,12.6326,7.5815c5.3666.3982,10.0651-1.4719,14.3124-4.504a41.9983,41.9983,0,0,0,9.3794-9.5094,180.5279,180.5279,0,0,0,21.16-38.4975c2.1782-5.311,4.3865-10.6193,6.2925-16.03,4.4528-12.6418,9.2712-25.19,12.9627-38.0569,6.8628-23.9195,12.8243-48.0941,18.4192-72.3444,2.0067-8.6965,3.4285-17.5445,4.7327-26.38a25.8114,25.8114,0,0,0-3.4266-16.5875,15.17,15.17,0,0,0-16.3362-7.1627,36.3379,36.3379,0,0,0-16.5448,9.1268c-10.8235,10.2187-18.8369,22.4743-25.9519,35.3733-13.9351,25.264-23.9567,52.13-32.2868,79.6725a31.63,31.63,0,0,0-1.4354,5.5545c-.7754,7.0234-2.9079,13.6994-4.88,20.429C747.11,2251.0731,746.2392,2263.8014,745.863,2280.5085Z"/><path class="cls-1" d="M2033.2441,1901.0676c0-5.0933.0389-10.1873-.0244-15.28a2.9669,2.9669,0,0,0-2.1046-2.8107,3.326,3.326,0,0,0-3.5779.3473c-1.9886,1.5872-3.8632,3.3184-5.86,4.8947a38.5825,38.5825,0,0,1-4.6868,3.2849,18.2247,18.2247,0,0,1-11.0472,2.3741,11.1845,11.1845,0,0,1-6.8192-3.1309,21.9944,21.9944,0,0,1-6.7392-13.3949c-1.0559-8.9223-.4787-17.8509.4643-26.75a30.675,30.675,0,0,1,1.2644-5.5915c1.8493-6.1068,3.85-12.168,5.6682-18.2833,2.7665-9.3052,7.4749-17.5817,13.1752-25.349a22.8063,22.8063,0,0,1,2.444-2.9438c3.7709-3.6472,8.0431-5.9822,13.5183-6.3141,6.0392-.3663,11.1591,2.0935,16.4706,4.1838a4.45,4.45,0,0,0,4.95-1.9029c.3045-.5514.8686-1.0133,1.0136-1.5913,3.5678-14.2175,7.8775-28.2629,9.8624-42.8479.9465-6.9545,1.9146-13.9109,3.12-20.8235a95.9607,95.9607,0,0,1,2.7991-11.1106c1.1639-3.8672,7.1743-5.9492,11.3524-4.2787a11.8864,11.8864,0,0,1,7.4753,12.1907c-.9062,7.5919-2.3152,15.1256-3.57,22.6741-1.151,6.9239-2.357,13.8388-3.5753,20.7514-1.66,9.4214-3.3142,18.83-5.5677,28.1518-2.3965,9.9121-4.8152,19.8376-6.2616,29.9788a172.302,172.302,0,0,1-4.0274,18.7084c-4.0145,15.524-5.9347,31.3375-6.9014,47.2926a25.1214,25.1214,0,0,0,.4677,5.6981,5.7614,5.7614,0,0,0,3.2313,4.39,6.1828,6.1828,0,0,0,6.88-1.6839,24.1513,24.1513,0,0,0,2.4639-2.9187c3.6336-6,7.3427-11.9643,10.7145-18.1116a57.3064,57.3064,0,0,0,5.0278-14.4262c2.2255-9.3123,4.3687-18.6562,7.0055-27.8553,3.1863-11.1158,7.7524-21.6377,15.7032-30.3224a17.1457,17.1457,0,0,0,4.0078-8.4995c.7741-3.7416,1.7432-7.4513,2.8138-11.12a24.2245,24.2245,0,0,1,5.9388-9.7072c6.1791-6.5849,17.2543-7.33,24.4692-1.6787a16.1959,16.1959,0,0,1,5.3663,7.7725c2.4117,7.3276,3.6983,14.9,2.8195,22.6277-.8648,7.604-2.1133,15.1636-3.14,22.75-.2553,1.8841-.3057,3.7957-.45,5.6948a4.7157,4.7157,0,0,0,6.5452,4.4958c3.6-1.533,6.2556-4.2859,9.092-6.866,3.7964-3.4534,5.44-8.6222,9.63-11.689a2.2348,2.2348,0,0,1,1.8514-.1988,2.5608,2.5608,0,0,1,1.1958,1.4278,7.8222,7.8222,0,0,1-.2373,5.5494,50.6593,50.6593,0,0,1-15.5447,21.4484c-2.443,1.9781-5.4527,3.2764-8.2621,4.7755s-5.83,2.65-8.4928,4.3642a10.4134,10.4134,0,0,0-3.7028,4.2632,74.7466,74.7466,0,0,0-3.8475,10.8076,76.7831,76.7831,0,0,1-11.6855,23.9689,69.1885,69.1885,0,0,1-6.2245,7.2164c-3.6433,3.9081-8.3881,5.7864-13.5057,6.6439-5.93.9936-11.435-.0059-15.996-4.3335-1.3787-1.3079-2.8209-2.554-4.2909-3.7589-1.2522-1.0262-4.187-.5455-5.1979.7819q-6.3643,8.3587-12.7212,16.7237a42.7374,42.7374,0,0,1-8.3584,7.8191,19.8574,19.8574,0,0,1-12.5453,3.9,13.2744,13.2744,0,0,1-13.2937-11.37c-.3987-3.1617-.7334-6.3432-.855-9.525-.1464-3.8229-.0347-7.6553-.0347-11.4838Zm-27.5845-39.054c.1,7.441-.1752,11.2435,1.0475,14.9785.6835,2.0884,3.7535,3.7,6.1795,3.0705a12.3336,12.3336,0,0,0,7.3838-5.64,87.9293,87.9293,0,0,0,12.1218-27.9025c.9821-4.3427,2.24-8.63,3.5343-12.8935a45.2186,45.2186,0,0,0,1.0363-20.8077,12.5218,12.5218,0,0,0-3.5131-6.6163c-1.6443-1.7483-5.12-2.2243-6.94-.7231-1.4581,1.2028-3.1408,2.3674-4.0736,3.9358a123.4519,123.4519,0,0,0-12.9186,31.7486C2007.3985,1849.1642,2005.5008,1857.2613,2005.66,1862.0136Zm95.8786,22.47c.1358,1.4026.2967,3.3071.5174,5.2042.0726.6244.3211,1.2261.4535,1.8459.601,2.81,5.11,4.5118,7.8016,3.0363a18.3269,18.3269,0,0,0,6.7316-6.65,92.6765,92.6765,0,0,0,10.6612-24.5012c.7008-2.5629.3476-5.2273-1.8048-7.0034-3.4313-2.8319-7.0244-5.4829-10.6942-7.9987a4.6353,4.6353,0,0,0-3.6229-.6,5.6721,5.6721,0,0,0-2.5028,2.7365,27.1692,27.1692,0,0,0-2.117,5.3152c-1.0348,3.6849-1.659,7.4967-2.8632,11.12C2102.2561,1872.5323,2101.8263,1878.2265,2101.5382,1884.4841Zm39.407-77.9687c-.213-3.7732-.2537-7.5665-.6924-11.3132a12.2612,12.2612,0,0,0-4.0912-8.2283,2.4291,2.4291,0,0,0-3.3825-.1569,7.2445,7.2445,0,0,0-3.28,4.3693c-2.1749,9.9023-2.4257,19.9969-2.7089,30.0591-.0864,3.0757,1.0273,6.19,1.648,9.2755a12.0923,12.0923,0,0,0,.7592,1.7256c.6662,1.7609,3.1188,3.1633,4.4659,2.4027,1.0416-.5879,2.4562-1.2248,2.8277-2.1807A67.9267,67.9267,0,0,0,2140.9452,1806.5154Z"/><path class="cls-1" d="M1611.0453,2059.6649c-8.0241.4418-13.442-3.6245-17.0908-10.1143-1.6151-2.8721-.9288-6.2321.91-9.055a22.0433,22.0433,0,0,1,3.59-4.41c8.0386-7.2138,15.88-14.69,24.3324-21.39,10.9469-8.6763,22.2555-16.92,33.9831-24.5416a11.6144,11.6144,0,0,1,10.9614-.8563,40.2882,40.2882,0,0,1,15.5939,10.6576,15.8653,15.8653,0,0,1,2.91,4.8493,7.2492,7.2492,0,0,1-.8765,7.2218c-5.412,7.18-12.2631,12.8866-19.473,18.0989a305.7909,305.7909,0,0,1-47.5312,28.0424A15.6239,15.6239,0,0,1,1611.0453,2059.6649Z"/><path class="cls-3" d="M494.97,444.4849c0-125.1355-101.4731-226.5731-226.5693-226.5731a225.88,225.88,0,0,0-87.7876,17.6389c4.1209,7.8217,23.0125,38.4642,27.1238,46.8037,23.2748-9.5166,64.7552-14.463,96.3821-7.7339,13.11,2.7894,116.414,30.2811,130.5479,143.7454,12.0146,96.4507-35.3148,161.4482-130.21,191.0332.9877,9.0228,3.7617,48.9975,4.5751,58.0126C414.7505,648.2617,494.97,555.7416,494.97,444.4849Z"/><path class="cls-3" d="M1628.7466,1218.7982s-91.7517-655.6253-530.1253-955.3494C576.6825-93.4123,0,15.7169,0,15.7169S61.6073,48.8347,133.8644,156.7284c15.3507.8967,34.8644,6.0158,54.6805,21.9a154.69,154.69,0,0,1,29.6389,31.1664,44.7432,44.7432,0,0,1,5.8-21.131c18.5567-32.7063,34.1733-91.4052,0-116.6764,0,0,51.2753,1.4959,80.9717,57.2175,15.0157,28.1355,22.7982,60.1154,18.4457,85.2784,24.0653-22.1532,48.9785-60.1288,31.0209-89.0691,0,0,41.3931,17.9,47.4434,73.037a156.3,156.3,0,0,1-1.0584,42.9962,44.8122,44.8122,0,0,1,19.0409-10.845c36.25-10.0162,88.7906-40.4811,82.48-82.5049,0,0,35.228,37.3038,16.8244,97.7129-9.3,30.4821-26.3755,58.609-47.2692,73.3242,32.7187,1.3618,77.1321-7.8763,84.8974-41.0362,0,0,16.6158,41.9167-18.0628,85.2238a155.2692,155.2692,0,0,1-31.1741,29.6218,44.685,44.685,0,0,1,21.1349,5.7833c32.7187,18.5566,91.4224,34.1733,116.6763,0,0,0-1.4776,51.2849-57.2012,80.9813-28.1345,14.9936-60.1163,22.7953-85.2783,18.4227,22.1646,24.0959,60.1412,48.9756,89.0567,31.0544,0,0-17.8868,41.351-73.0113,47.4549a155.1146,155.1146,0,0,1-43.0009-1.0786,44.8011,44.8011,0,0,1,10.82,19.016c10.0066,36.2616,40.4839,88.8117,82.5049,82.504,0,0-37.3028,35.2107-97.71,16.8129-30.51-9.2888-58.6425-26.3908-73.3366-47.2692-1.3532,32.6948,7.9069,77.157,41.041,84.9338,0,0-41.9329,16.5919-85.1942-18.0829A155.6394,155.6394,0,0,1,324.4037,682.31a44.6262,44.6262,0,0,1-5.8,21.11c-2.0576,3.629-4.075,7.5911-5.9967,11.7781,2.1475,35.6825,3.1256,70.4435,3.361,102.7736.85.7283,1.7169,1.4442,2.6357,2.1246,0,0-.9494-.0316-2.62-.2134.6756,105.2925-6.4676,184.3119-6.4676,184.3119S661.9129,829.8423,1015.9116,896.87c.134-22.9982.2125-118.6879-6.8044-201.2483-8.1615-96.019-45.9753-168.5766-45.9753-168.5766s-40.7213,47.4759-48.5345,105.0418c-7.882,58.0826,24.27,141.4373,24.27,141.4373s-69.91-21.7827-85.5367-75.6478c-15.2817-52.6841,10.1884-108.2536,10.1884-108.2536s-5.8512,1.492-17.0215,13.1447c-12.3686,12.9055-14.96,17.8064-14.96,17.8064s8.9941-33.5054,17.9327-44.9992c8.9405-11.4938,34.4815-35.7582,34.4815-35.7582s-16.9833,2.56-37.611,16.2015c-25.4932,16.8579-46.6759,46.75-46.6759,46.75L762.628,629.2131s2.318-8.5146,5.9987-18.0963c3.7017-9.6353,16.989-26.6023,16.989-26.6023s-40.8667,34.4815-52.3606,57.4691-24.2643,47.2521-24.2643,47.2521-7.838-82.5987,30.65-145.588c39.6781-64.933,89.1523-66.4135,116.9806-70.278,29.6046-4.1123,68.6683,3.7008,68.6683,3.7008s-27.5508-52.2208-97.8632-47.2864c-18.7806,1.3178-73.7366,10.42-73.7366,10.42s10.887-21.9866,24.9151-36.17c8.6629-8.76,20.8611-22.77,20.8611-22.77s-15.44-1.7648-43.2229,7.8562c-29.5567,10.2363-45.181,40.2523-45.181,40.2523s6.1421-36.8664,18.9146-51.8093c12.77-14.943,37.6033-34.8816,59.209-37.0062,25.0836-2.4672,81.9958,7.6964,116.4773,35.7917s45.9753,66.41,45.9753,66.41,5.3268-79.8539,34.4815-112.3841c14.8262-16.545,42.3425-28.5757,69.9258-28.0579,20.5894.3866,45.0126,14.01,45.0126,14.01S1071.6371,330.9753,1047,347.9577c-42.3521,29.1949-58.3267,105.0169-58.3267,105.0169s29.3729-39.59,81.7335-48.53,89.4624-5.56,112.6951,2.7237c53.042,18.9146,56.3323,72.78,56.3323,72.78s-53.4536-27.96-78.5371-30.4276l-41.9406,2.0557s19.3166,2.0413,29.3538,6.5068a24.1941,24.1941,0,0,1,14.9334,22.56s-47.7554-5.7909-79.2376-3.5726c-33.0728,2.3294-71.1355,19.7367-71.1355,19.7367s64.9244,11.334,90.8731,29.6055c22.9,16.1248,53.8651,42.7626,58.6138,100.2461,4.209,50.9261,1.2786,51.083,1.2786,51.083l-16.6024-37.0348s5.1219,19.5539-3.8166,37.4329c-8.94,17.8791-17.8944,26.4215-17.8944,26.4215s-.2852-32.6651-1.2767-56.1925c-.5666-13.4041-9.04-35.9113-12.08-44.6537-.8517-2.4509-1.69,5.1928-2.4691,10.3033a29.0855,29.0855,0,0,1-4.1094,11.0785l-9.4382,13.0557s-15.6435-41.0161-31.27-65.2766c-23.7437-36.8664-83.6686-57.3237-83.6686-57.3237s59.41,114.5766,79.18,199.2252c16.6407,71.2542,21.9139,171.5319,23.0509,197.7505C1433.7246,1006.612,1628.7466,1218.7982,1628.7466,1218.7982Z"/><path class="cls-1" d="M525.5452,2553.8242c4.61,0,7.5445.909,10.06,2.6141a9.1055,9.1055,0,0,1,3.7722,7.5015v28.9831a8.9709,8.9709,0,0,1-3.7722,6.9328c-.1411.1139-.28.2274-.42.3413.1394.1135.2788.2269.42.3408a8.7485,8.7485,0,0,1,3.7722,7.3877v26.71a8.8961,8.8961,0,0,1-3.7722,7.3876c-2.5159,1.8189-5.45,2.728-10.06,2.728H513.11v-90.9267Zm-5.4483,43.9856h5.4483a8.4509,8.4509,0,0,0,5.03-1.5911,4.9041,4.9041,0,0,0,1.5368-2.955c0-.1139.1394-.6821.1394-.7956V2563.94a5.0173,5.0173,0,0,0-1.6762-3.7506,8.4545,8.4545,0,0,0-5.03-1.5916h-5.4483Zm5.4483,42.0537a7.7137,7.7137,0,0,0,5.03-1.4777,5.42,5.42,0,0,0,1.6762-3.7505V2608.721a4.9594,4.9594,0,0,0-1.6762-3.637,7.5882,7.5882,0,0,0-4.75-1.5912h-5.7288v36.3707Z"/><path class="cls-1" d="M525.5452,2645.4037h-13.088v-92.2323h13.088c4.4879,0,7.6074.8155,10.4259,2.7263a9.821,9.821,0,0,1,4.06,8.0421v28.9831a9.5629,9.5629,0,0,1-3.7943,7.269,9.3564,9.3564,0,0,1,3.7943,7.7336v26.71a9.5742,9.5742,0,0,1-4.0289,7.9061C533.224,2644.5507,530.0994,2645.4037,525.5452,2645.4037Zm-11.7824-1.3056h11.7824c4.2584,0,7.1535-.779,9.6779-2.6043a8.2187,8.2187,0,0,0,3.5019-6.8585v-26.71a8.129,8.129,0,0,0-3.5-6.8573l-1.0727-.87,1.0438-.85a8.3533,8.3533,0,0,0,3.5291-6.4556V2563.94a8.4375,8.4375,0,0,0-3.5155-6.983c-2.5584-1.7319-5.4569-2.48-9.6643-2.48H513.7628Zm11.7824-3.5818h-6.1011V2602.84h6.3816a8.12,8.12,0,0,1,5.19,1.762,5.6249,5.6249,0,0,1,1.8887,4.119v25.9143a6.0227,6.0227,0,0,1-1.8564,4.2014A8.2415,8.2415,0,0,1,525.5452,2640.5163Zm-4.7956-1.3056h4.7956a7.0981,7.0981,0,0,0,4.59-1.3064,4.7347,4.7347,0,0,0,1.4637-3.269V2608.721a4.3108,4.3108,0,0,0-1.4688-3.1589,6.8766,6.8766,0,0,0-4.3417-1.4178l-5.0387.0013Zm-.6527-40.7481h-.6528v-40.5177h6.1011c1.7459.1007,4.0765.487,5.4705,1.7628a5.6636,5.6636,0,0,1,1.8887,4.2321v28.5283a2.7637,2.7637,0,0,1-.0833.5279c-.0238.1211-.051.2422-.0578.306a5.5389,5.5389,0,0,1-1.7391,3.39c-1.4042,1.2843-3.7331,1.67-5.4416,1.7692Zm.6527-1.3056h4.7956a7.721,7.721,0,0,0,4.59-1.42,4.226,4.226,0,0,0,1.3294-2.553,2.7272,2.7272,0,0,1,.0782-.45c.0238-.1211.051-.2414.0578-.3047l-.0017-28.49a4.333,4.333,0,0,0-1.4688-3.2725,7.7633,7.7633,0,0,0-4.6222-1.4181l-4.7582.0012Z"/><path class="cls-1" d="M598.4821,2644.7509,596.806,2629.18h-9.2223l-1.6762,15.5712h-6.9851l9.78-91.04h6.9852l9.78,91.04Zm-10.2-21.2542h7.9643l-4.0527-36.9389Z"/><path class="cls-1" d="M606.1932,2645.4037h-8.2976l-1.6761-15.5713H588.17l-1.6762,15.5713h-8.2975l.0765-.7225,9.8428-91.6233h8.1581Zm-7.1246-1.3056h5.6728l-9.64-89.7346h-5.8122l-9.64,89.7346h5.6728l1.6762-15.5712h10.3953Zm-2.0943-19.9486h-9.4178l4.6256-43.6823Zm-7.9661-1.3056h6.5109l-3.3132-30.1956Z"/><path class="cls-1" d="M671.2762,2592.4681a8.7482,8.7482,0,0,1-3.7722,7.3876c-.1394.1139-.2805.2274-.42.3413.1394.1135.28.2269.42.3408a8.7485,8.7485,0,0,1,3.7722,7.3877v36.8254H664.15v-36.03a4.9594,4.9594,0,0,0-1.6762-3.637,7.5882,7.5882,0,0,0-4.75-1.5912h-5.7289v41.2581H645.01v-90.9267h12.4335c4.61,0,7.5445.909,10.06,2.728a8.7482,8.7482,0,0,1,3.7722,7.3876Zm-19.281-33.87V2597.81h5.4484a8.4509,8.4509,0,0,0,5.03-1.5911,5.0173,5.0173,0,0,0,1.6762-3.7506V2563.94a5.0173,5.0173,0,0,0-1.6762-3.7506,8.4545,8.4545,0,0,0-5.03-1.5916Z"/><path class="cls-1" d="M671.929,2645.4037h-8.4318V2608.721a4.3108,4.3108,0,0,0-1.4688-3.1589,6.8768,6.8768,0,0,0-4.3417-1.4178l-5.0387.0013v41.2581h-8.2907v-92.2323h13.0863c4.5542,0,7.6788.8529,10.4429,2.8517a9.3883,9.3883,0,0,1,4.0425,7.9167v28.5283a9.7766,9.7766,0,0,0,0,15.4574Zm-7.1262-1.3056h5.8206v-36.1726a8.129,8.129,0,0,0-3.5-6.8573l-1.0727-.87,1.04-.8475a8.1544,8.1544,0,0,0,3.5325-6.8823V2563.94a8.1287,8.1287,0,0,0-3.5-6.8572c-2.5261-1.8267-5.4212-2.6057-9.68-2.6057H645.6629v89.6212h5.68V2602.84h6.3816a8.12,8.12,0,0,1,5.19,1.762,5.6249,5.6249,0,0,1,1.8887,4.119Zm-12.8076-45.6355h-.6527v-40.5177h6.1011c1.7459.1007,4.0765.487,5.4705,1.7628a5.6636,5.6636,0,0,1,1.8887,4.2321v28.5283a5.6642,5.6642,0,0,1-1.8836,4.2287c-1.4008,1.28-3.73,1.6655-5.4382,1.7645Zm.6528-1.3056h4.7956a7.7212,7.7212,0,0,0,4.59-1.42,4.3334,4.3334,0,0,0,1.4637-3.2691V2563.94a4.333,4.333,0,0,0-1.4688-3.2725,7.7636,7.7636,0,0,0-4.6222-1.4181l-4.7582.0012Z"/><path class="cls-1" d="M737.0869,2592.4681a8.7485,8.7485,0,0,1-3.7722,7.3876c-.1411.1139-.28.2274-.42.3413.1394.1135.2788.2269.42.3408a8.7488,8.7488,0,0,1,3.7722,7.3877v36.8254h-7.1263v-36.03a4.96,4.96,0,0,0-1.6761-3.637,7.5885,7.5885,0,0,0-4.75-1.5912h-5.7289v41.2581H710.819v-90.9267h12.4353c4.61,0,7.5444.909,10.06,2.728a8.7485,8.7485,0,0,1,3.7722,7.3876Zm-19.281-33.87V2597.81h5.4484a8.4511,8.4511,0,0,0,5.03-1.5911,5.0176,5.0176,0,0,0,1.6761-3.7506V2563.94a5.0176,5.0176,0,0,0-1.6761-3.7506,8.4547,8.4547,0,0,0-5.03-1.5916Z"/><path class="cls-1" d="M737.74,2645.4037h-8.4319V2608.721a4.3107,4.3107,0,0,0-1.4687-3.1589,6.877,6.877,0,0,0-4.3417-1.4178l-5.0387.0013v41.2581h-8.2924v-92.2323h13.088c4.5542,0,7.6787.8529,10.4428,2.8517a9.3882,9.3882,0,0,1,4.0426,7.9167v28.5283a9.7764,9.7764,0,0,0,0,15.4574Zm-7.1263-1.3056h5.8207v-36.1726a8.1292,8.1292,0,0,0-3.5-6.8573l-1.0727-.87,1.0438-.85a8.1523,8.1523,0,0,0,3.5291-6.88V2563.94a8.1289,8.1289,0,0,0-3.5-6.8572c-2.5262-1.8267-5.4212-2.6057-9.68-2.6057H711.4718v89.6212h5.6813V2602.84h6.3817a8.12,8.12,0,0,1,5.19,1.762,5.6252,5.6252,0,0,1,1.8886,4.119Zm-12.8075-45.6355h-.6528v-40.5177h6.1012c1.7458.1007,4.0765.487,5.4705,1.7628a5.6639,5.6639,0,0,1,1.8886,4.2321v28.5283a5.6645,5.6645,0,0,1-1.8835,4.2287c-1.4008,1.28-3.73,1.6655-5.4382,1.7645Zm.6528-1.3056h4.7956a7.7215,7.7215,0,0,0,4.59-1.42,4.3333,4.3333,0,0,0,1.4636-3.2691V2563.94a4.3329,4.3329,0,0,0-1.4687-3.2725,7.7638,7.7638,0,0,0-4.6222-1.4181l-4.7582.0012Z"/><path class="cls-1" d="M796.19,2644.7509l-1.6779-15.5712H785.291l-1.6762,15.5712H776.628l9.7816-91.04h6.9851l9.78,91.04Zm-10.2-21.2542h7.9643l-4.0527-36.9389Z"/><path class="cls-1" d="M803.9005,2645.4037H795.603l-1.6779-15.5713h-8.0476l-1.6762,15.5713h-8.2992l.0765-.7225,9.8445-91.6233h8.1581Zm-7.1245-1.3056h5.6727l-9.64-89.7346h-5.8121l-9.6422,89.7346h5.6745l1.6761-15.5712h10.3936Zm-2.0944-19.9486h-9.4178l4.6256-43.6823Zm-7.966-1.3056h6.5108l-3.3132-30.1956Z"/><path class="cls-1" d="M901.4,2588.9445v-25.8a4.3853,4.3853,0,0,0-1.5367-3.6371,6.3578,6.3578,0,0,0-4.61-1.5911,5.4647,5.4647,0,0,0-4.3315,1.5911,4.2911,4.2911,0,0,0-1.3974,3.6371v71.4911a4.6551,4.6551,0,0,0,1.3974,3.7505c.9775,1.023,2.2354,1.4777,4.3315,1.4777a6.3235,6.3235,0,0,0,4.61-1.4777,4.7607,4.7607,0,0,0,1.5367-3.7505v-27.3915h-4.4709v-5.7969h11.5972v33.3018a8.7952,8.7952,0,0,1-4.0527,7.2742c-2.5143,1.8189-4.61,2.728-9.0812,2.728a23.3155,23.3155,0,0,1-5.8683-.6821,12.319,12.319,0,0,1-4.19-2.0459,7.7763,7.7763,0,0,1-2.5159-3.0685c-.6987-1.25-.5576-2.6141-.5576-4.2057v-71.6045c0-1.5912-.1411-3.0689.5576-4.2053a7.3586,7.3586,0,0,1,2.5159-3.1827,14.6912,14.6912,0,0,1,4.19-1.932,23.1127,23.1127,0,0,1,5.8683-.7956c4.4709,0,6.5669.909,9.0812,2.7276,2.3748,1.8185,4.0527,4.2057,4.0527,7.388v25.8Z"/><path class="cls-1" d="M895.3925,2645.4037a23.8671,23.8671,0,0,1-6.0264-.7017,12.8738,12.8738,0,0,1-4.4148-2.15,8.4046,8.4046,0,0,1-2.72-3.309,7.266,7.266,0,0,1-.6307-3.8164l.0068-.6775-.0051-72.2841a6.9755,6.9755,0,0,1,.66-3.8674,7.8123,7.8123,0,0,1,2.6893-3.37,15.4582,15.4582,0,0,1,4.4012-2.0327,23.7194,23.7194,0,0,1,6.04-.8185c4.6681,0,6.8491.96,9.4637,2.8512,2.8729,2.2,4.323,4.86,4.323,7.9172v26.4531h-8.4318v-26.4531a3.7178,3.7178,0,0,0-1.2954-3.1305,5.758,5.758,0,0,0-4.1989-1.445,4.8585,4.8585,0,0,0-3.8589,1.3893,3.6389,3.6389,0,0,0-1.2172,3.1862v71.4911a3.979,3.979,0,0,0,1.1849,3.269c.8975.9367,2.0161,1.3064,3.8912,1.3064a5.6953,5.6953,0,0,0,4.17-1.3064,4.1269,4.1269,0,0,0,1.3243-3.269v-26.7387h-4.4709v-7.1025h12.9027v33.9546a9.4523,9.4523,0,0,1-4.3247,7.8046C902.2416,2644.4432,900.0606,2645.4037,895.3925,2645.4037Zm0-91.7223a22.49,22.49,0,0,0-5.71.776,14.1844,14.1844,0,0,0-4,1.85,6.627,6.627,0,0,0-2.2678,2.8976,6.01,6.01,0,0,0-.5082,3.2422l.0068.6966-.0068,72.2994a6.1328,6.1328,0,0,0,.481,3.1925,7.23,7.23,0,0,0,2.329,2.8577,11.6367,11.6367,0,0,0,3.9779,1.9447,22.61,22.61,0,0,0,5.6983.66c4.3111,0,6.3119-.8772,8.6987-2.6039a8.0966,8.0966,0,0,0,3.7824-6.7455V2602.1H897.582v4.4913h4.4709v28.0443a5.4159,5.4159,0,0,1-1.7492,4.2324,6.9623,6.9623,0,0,1-5.0506,1.6486c-2.2423,0-3.6787-.5024-4.8041-1.68a5.3471,5.3471,0,0,1-1.5776-4.2014v-71.4911a4.9791,4.9791,0,0,1,1.6388-4.1432,6.06,6.06,0,0,1,4.7429-1.7378,7.0314,7.0314,0,0,1,5.0506,1.7624,4.97,4.97,0,0,1,1.7492,4.1186v25.1475h5.8207v-25.1475c0-2.6664-1.2427-4.9133-3.796-6.87C901.7027,2554.5581,899.7019,2553.6814,895.3925,2553.6814Z"/><path class="cls-1" d="M974.337,2592.4681a8.7482,8.7482,0,0,1-3.7722,7.3876c-.1411.1139-.28.2274-.42.3413.1394.1135.2788.2269.42.3408a8.7485,8.7485,0,0,1,3.7722,7.3877v36.8254h-7.1262v-36.03a4.9594,4.9594,0,0,0-1.6762-3.637,7.588,7.588,0,0,0-4.75-1.5912h-5.7288v41.2581h-6.9869v-90.9267h12.4352c4.61,0,7.5445.909,10.06,2.728a8.7482,8.7482,0,0,1,3.7722,7.3876Zm-19.2809-33.87V2597.81h5.4483a8.4507,8.4507,0,0,0,5.03-1.5911,5.0173,5.0173,0,0,0,1.6762-3.7506V2563.94a5.0173,5.0173,0,0,0-1.6762-3.7506,8.4542,8.4542,0,0,0-5.03-1.5916Z"/><path class="cls-1" d="M974.99,2645.4037H966.558V2608.721a4.3108,4.3108,0,0,0-1.4688-3.1589,6.8766,6.8766,0,0,0-4.3417-1.4178l-5.0387.0013v41.2581h-8.2924v-92.2323h13.088c4.5542,0,7.6788.8529,10.4429,2.8517a9.3881,9.3881,0,0,1,4.0425,7.9167v28.5283a9.7766,9.7766,0,0,0,0,15.4574Zm-7.1262-1.3056h5.8207v-36.1726a8.1291,8.1291,0,0,0-3.5-6.8573l-1.0726-.87,1.0437-.85a8.1522,8.1522,0,0,0,3.5292-6.88V2563.94a8.1288,8.1288,0,0,0-3.5-6.8572c-2.5261-1.8267-5.4212-2.6057-9.68-2.6057H948.722v89.6212h5.6813V2602.84h6.3816a8.12,8.12,0,0,1,5.19,1.762,5.6249,5.6249,0,0,1,1.8887,4.119Zm-12.8075-45.6355h-.6528v-40.5177h6.1011c1.7459.1007,4.0766.487,5.4705,1.7628a5.6636,5.6636,0,0,1,1.8887,4.2321v28.5283a5.6642,5.6642,0,0,1-1.8836,4.2287c-1.4007,1.28-3.73,1.6655-5.4382,1.7645Zm.6527-1.3056h4.7956a7.721,7.721,0,0,0,4.59-1.42,4.3334,4.3334,0,0,0,1.4637-3.2691V2563.94a4.333,4.333,0,0,0-1.4688-3.2725,7.7633,7.7633,0,0,0-4.6222-1.4181l-4.7582.0012Z"/><path class="cls-1" d="M1033.44,2644.7509l-1.6778-15.5712h-9.2206l-1.6762,15.5712h-6.9868l9.7816-91.04h6.9851l9.78,91.04Zm-10.2-21.2542h7.9643l-4.0527-36.9389Z"/><path class="cls-1" d="M1041.1507,2645.4037h-8.2976l-1.6778-15.5713h-8.0476l-1.6762,15.5713h-8.2992l.0765-.7225,9.8445-91.6233h8.1581Zm-7.1246-1.3056h5.6728l-9.6405-89.7346h-5.8122l-9.6422,89.7346h5.6745l1.6762-15.5712h10.3936Zm-2.0943-19.9486h-9.4178l4.6256-43.6823Zm-7.9661-1.3056h6.5109l-3.3132-30.1956Z"/><path class="cls-1" d="M1099.2486,2553.7107h6.9868v91.04h-6.9868l-12.2941-57.6249v57.6249h-6.9852v-91.04h6.9852l12.2941,57.6245Z"/><path class="cls-1" d="M1106.8882,2645.4037H1098.72l-11.1127-52.0894v52.0894h-8.2907v-92.3458h8.1666l11.1127,52.089v-52.089h8.2924Zm-7.1109-1.3056h5.8053v-89.7346h-5.6812v63.16l-13.4756-63.16h-5.8037v89.7346h5.68v-63.16Z"/><path class="cls-1" d="M1158.2135,2553.8242c4.61,0,7.5444.909,10.06,2.728a8.7485,8.7485,0,0,1,3.7722,7.3876v70.6955a8.8964,8.8964,0,0,1-3.7722,7.3876c-2.516,1.8189-5.45,2.728-10.06,2.728h-12.4352v-90.9267Zm0,86.0393a7.7138,7.7138,0,0,0,5.03-1.4777,5.42,5.42,0,0,0,1.6761-3.7505V2563.94a5.0172,5.0172,0,0,0-1.6761-3.7506,8.4547,8.4547,0,0,0-5.03-1.5916h-5.4484v81.2659Z"/><path class="cls-1" d="M1158.2135,2645.4037h-13.088v-92.2323h13.088c4.5542,0,7.6787.8529,10.4429,2.8517a9.3883,9.3883,0,0,1,4.0425,7.9167v70.6955a9.5742,9.5742,0,0,1-4.0289,7.9061C1165.8922,2644.5507,1162.7677,2645.4037,1158.2135,2645.4037Zm-11.7825-1.3056h11.7825c4.2584,0,7.1534-.779,9.6779-2.6043a8.219,8.219,0,0,0,3.5019-6.8585V2563.94a8.1289,8.1289,0,0,0-3.5-6.8572c-2.5262-1.8267-5.4212-2.6057-9.68-2.6057H1146.431Zm11.7825-3.5818h-6.1012v-82.5714h6.1012c1.7458.1007,4.0765.487,5.47,1.7628a5.6639,5.6639,0,0,1,1.8886,4.2321v70.6955a6.023,6.023,0,0,1-1.8563,4.2014A8.2417,8.2417,0,0,1,1158.2135,2640.5163Zm-4.7956-1.3056h4.7956a7.0985,7.0985,0,0,0,4.59-1.3064,4.7345,4.7345,0,0,0,1.4636-3.269V2563.94a4.3329,4.3329,0,0,0-1.4687-3.2725,7.7638,7.7638,0,0,0-4.6222-1.4181l-4.7582.0012Z"/><path class="cls-1" d="M1218.5741,2559.5071V2597.81h10.0586v5.683h-10.0586v35.5751h15.3676v5.683h-22.3545v-91.04h22.3545v5.7964Z"/><path class="cls-1" d="M1234.5945,2645.4037h-23.66v-92.3458h23.66v7.102h-15.3677v36.9971h10.0587v6.9886h-10.0587v34.27h15.3677Zm-22.3545-1.3056h21.0489v-4.3774h-15.3676V2602.84H1227.98v-4.3774h-10.0586v-39.6083h15.3676v-4.4908H1212.24Z"/><path class="cls-1" d="M1323.086,2605.6591c0,2.2733-2.2354,4.0918-5.03,4.0918s-5.0285-1.8185-5.0285-4.0918,2.2337-4.0914,5.0285-4.0914S1323.086,2603.3858,1323.086,2605.6591Z"/><path class="cls-1" d="M1318.0559,2613.2324c-4.7718,0-8.51-3.3264-8.51-7.5733s3.7383-7.5729,8.51-7.5729c4.7735,0,8.5117,3.3264,8.5117,7.5729S1322.8294,2613.2324,1318.0559,2613.2324Zm0-8.1832a1.7506,1.7506,0,0,0-1.5487.6235,1.8443,1.8443,0,0,0,1.5487.5967.893.893,0,1,0,0-1.22Z"/><path class="cls-1" d="M1414.6035,2553.8242c4.61,0,7.5445.909,10.06,2.728a8.7482,8.7482,0,0,1,3.7722,7.3876v29.4374a8.8969,8.8969,0,0,1-3.7722,7.388c-2.5159,1.8185-5.45,2.7276-10.06,2.7276h-5.4484v41.2581H1402.17v-90.9267Zm6.7064,10.1156a5.0173,5.0173,0,0,0-1.6762-3.7506,8.4545,8.4545,0,0,0-5.03-1.5916h-5.4484V2597.81h5.4484a8.4509,8.4509,0,0,0,5.03-1.5911,5.0173,5.0173,0,0,0,1.6762-3.7506Z"/><path class="cls-1" d="M1409.8079,2645.4037h-8.2907v-92.2323h13.0863c4.5542,0,7.6788.8529,10.4429,2.8517a9.3883,9.3883,0,0,1,4.0425,7.9167v29.4374a9.576,9.576,0,0,1-4.0289,7.9065c-2.7794,2.0094-5.9023,2.8619-10.4565,2.8619h-4.7956Zm-6.9851-1.3056h5.68V2602.84h6.1011c4.2584,0,7.1535-.7786,9.6779-2.6039a8.22,8.22,0,0,0,3.5019-6.8589V2563.94a8.1287,8.1287,0,0,0-3.5-6.8572c-2.5261-1.8267-5.4212-2.6057-9.68-2.6057h-11.7807Zm6.3323-45.6355h-.6527v-40.5177h6.1011c1.7459.1007,4.0765.487,5.4705,1.7628a5.6636,5.6636,0,0,1,1.8887,4.2321v28.5283a5.6642,5.6642,0,0,1-1.8836,4.2287c-1.4008,1.28-3.73,1.6655-5.4382,1.7645Zm.6528-1.3056h4.7956a7.7212,7.7212,0,0,0,4.59-1.42,4.3334,4.3334,0,0,0,1.4637-3.2691V2563.94a4.333,4.333,0,0,0-1.4688-3.2725,7.7636,7.7636,0,0,0-4.6222-1.4181l-4.7582.0012Z"/><path class="cls-1" d="M1467.979,2644.7509v-91.04h6.9851v91.04Z"/><path class="cls-1" d="M1475.6169,2645.4037h-8.2907v-92.3458h8.2907Zm-6.9852-1.3056h5.68v-89.7346h-5.68Z"/><path class="cls-1" d="M1534.0667,2644.7509l-1.6762-15.5712h-9.2223l-1.6761,15.5712h-6.9852l9.78-91.04h6.9852l9.78,91.04Zm-10.2-21.2542h7.9643l-4.0527-36.9389Z"/><path class="cls-1" d="M1541.7777,2645.4037H1533.48l-1.6762-15.5713h-8.0493l-1.6761,15.5713h-8.2976l.0765-.7225,9.8428-91.6233h8.1581Zm-7.1245-1.3056h5.6728l-9.64-89.7346h-5.8122l-9.64,89.7346h5.6728l1.6761-15.5712h10.3953Zm-2.0944-19.9486h-9.4178l4.6256-43.6823Zm-7.966-1.3056h6.5109l-3.3133-30.1956Z"/><path class="cls-1" d="M1599.7362,2553.5968h7.1263v81.3793a8.7911,8.7911,0,0,1-4.0527,7.2742c-2.5143,1.8185-4.61,2.728-9.0812,2.728a23.3155,23.3155,0,0,1-5.8683-.6821,12.3227,12.3227,0,0,1-4.19-2.0459,7.777,7.777,0,0,1-2.5159-3.0685c-.6987-1.25-.5593-2.6141-.5593-4.2057v-81.3793h7.2656v81.2658a4.6559,4.6559,0,0,0,1.3974,3.7506c.9775,1.0229,2.2354,1.4777,4.3315,1.4777a6.324,6.324,0,0,0,4.61-1.4777,4.7616,4.7616,0,0,0,1.5367-3.7506Z"/><path class="cls-1" d="M1593.7286,2645.6311a23.8716,23.8716,0,0,1-6.0264-.7017,12.8723,12.8723,0,0,1-4.4148-2.1505,8.4044,8.4044,0,0,1-2.72-3.3089,7.2515,7.2515,0,0,1-.6307-3.822l.0051-.6719V2552.944h8.5712v81.9186a3.98,3.98,0,0,0,1.1849,3.2691c.8975.9366,2.0161,1.3064,3.8912,1.3064a5.6957,5.6957,0,0,0,4.17-1.3064,4.1281,4.1281,0,0,0,1.3243-3.2691V2552.944h8.4318v82.0321a9.4475,9.4475,0,0,1-4.3247,7.8045C1600.5777,2644.6706,1598.395,2645.6311,1593.7286,2645.6311Zm-12.4811-91.3815-.0051,81.4154a6.1377,6.1377,0,0,0,.481,3.1985,7.2293,7.2293,0,0,0,2.329,2.8576,11.6388,11.6388,0,0,0,3.9779,1.9448,22.61,22.61,0,0,0,5.6983.66c4.3094,0,6.31-.8772,8.6987-2.6044a8.092,8.092,0,0,0,3.7824-6.745V2554.25h-5.8207v80.613a5.4159,5.4159,0,0,1-1.7492,4.2321,6.9611,6.9611,0,0,1-5.0506,1.649c-2.2423,0-3.6787-.5024-4.8041-1.68a5.3483,5.3483,0,0,1-1.5776-4.2015V2554.25Z"/><path class="cls-1" d="M1646.407,2644.7509v-91.04h6.9852v91.04Zm15.927-107.8618-9.0812,10.6839h-6.7064l8.9418-10.6839Z"/><path class="cls-1" d="M1654.0449,2645.4037h-8.2907v-92.3458h8.2907Zm-6.9851-1.3056h5.68v-89.7346h-5.68Zm6.4956-95.8724h-8.4064l10.0349-11.9894h8.561Zm-5.6116-1.3055h5.0064l7.9728-9.3783h-5.13Z"/><path class="cls-1" d="M1742.5331,2605.6591c0,2.2733-2.2355,4.0918-5.03,4.0918-2.793,0-5.03-1.8185-5.03-4.0918s2.2372-4.0914,5.03-4.0914C1740.2976,2601.5677,1742.5331,2603.3858,1742.5331,2605.6591Z"/><path class="cls-1" d="M1737.5029,2613.2324c-4.7735,0-8.5117-3.3264-8.5117-7.5733s3.7382-7.5729,8.5117-7.5729,8.5117,3.3264,8.5117,7.5729S1742.2764,2613.2324,1737.5029,2613.2324Zm0-8.1832a1.7533,1.7533,0,0,0-1.55.6248,1.8584,1.8584,0,0,0,1.55.5954.8931.8931,0,1,0,0-1.22Z"/><path class="cls-1" d="M1834.0506,2553.8242c4.61,0,7.5444.909,10.06,2.6141a9.1058,9.1058,0,0,1,3.7722,7.5015v28.9831a8.9712,8.9712,0,0,1-3.7722,6.9328c-.1411.1139-.2805.2274-.42.3413.1394.1135.2788.2269.42.3408a8.7488,8.7488,0,0,1,3.7722,7.3877v26.71a8.8964,8.8964,0,0,1-3.7722,7.3876c-2.516,1.8189-5.45,2.728-10.06,2.728h-12.4352v-90.9267Zm-5.4484,43.9856h5.4484a8.4511,8.4511,0,0,0,5.03-1.5911,4.9045,4.9045,0,0,0,1.5367-2.955c0-.1139.1394-.6821.1394-.7956V2563.94a5.0176,5.0176,0,0,0-1.6761-3.7506,8.4547,8.4547,0,0,0-5.03-1.5916h-5.4484Zm5.4484,42.0537a7.7138,7.7138,0,0,0,5.03-1.4777,5.42,5.42,0,0,0,1.6761-3.7505V2608.721a4.96,4.96,0,0,0-1.6761-3.637,7.5885,7.5885,0,0,0-4.75-1.5912h-5.7289v36.3707Z"/><path class="cls-1" d="M1834.0506,2645.4037h-13.088v-92.2323h13.088c4.4879,0,7.6073.8155,10.4258,2.7263a9.8208,9.8208,0,0,1,4.06,8.0421v28.9831a9.5627,9.5627,0,0,1-3.7944,7.269,9.3563,9.3563,0,0,1,3.7944,7.7336v26.71a9.5741,9.5741,0,0,1-4.029,7.9061C1841.7293,2644.5507,1838.6048,2645.4037,1834.0506,2645.4037Zm-11.7825-1.3056h11.7825c4.2584,0,7.1534-.779,9.6779-2.6043a8.219,8.219,0,0,0,3.5019-6.8585v-26.71a8.1292,8.1292,0,0,0-3.5-6.8573l-1.0727-.87,1.0438-.85a8.3536,8.3536,0,0,0,3.5291-6.4556V2563.94a8.4377,8.4377,0,0,0-3.5155-6.983c-2.5585-1.7319-5.4569-2.48-9.6643-2.48h-11.7825Zm11.7825-3.5818h-6.1012V2602.84h6.3817a8.12,8.12,0,0,1,5.19,1.762,5.6252,5.6252,0,0,1,1.8886,4.119v25.9143a6.023,6.023,0,0,1-1.8563,4.2014A8.2417,8.2417,0,0,1,1834.0506,2640.5163Zm-4.7956-1.3056h4.7956a7.0985,7.0985,0,0,0,4.59-1.3064,4.7345,4.7345,0,0,0,1.4636-3.269V2608.721a4.3107,4.3107,0,0,0-1.4687-3.1589,6.877,6.877,0,0,0-4.3417-1.4178l-5.0387.0013Zm-.6528-40.7481h-.6528v-40.5177h6.1012c1.7458.1007,4.0765.487,5.47,1.7628a5.6639,5.6639,0,0,1,1.8886,4.2321v28.5283a2.7637,2.7637,0,0,1-.0833.5279c-.0238.1211-.051.2422-.0578.306a5.5393,5.5393,0,0,1-1.739,3.39c-1.4042,1.2843-3.7332,1.67-5.4416,1.7692Zm.6528-1.3056h4.7956a7.7215,7.7215,0,0,0,4.59-1.42,4.2254,4.2254,0,0,0,1.3293-2.553,2.7272,2.7272,0,0,1,.0782-.45c.0238-.1211.051-.2414.0578-.3047l-.0017-28.49a4.3329,4.3329,0,0,0-1.4687-3.2725,7.7638,7.7638,0,0,0-4.6222-1.4181l-4.7582.0012Z"/><path class="cls-1" d="M1913.6921,2592.4681a8.7482,8.7482,0,0,1-3.7722,7.3876c-.1411.1139-.2805.2274-.42.3413.1394.1135.2788.2269.42.3408a8.7485,8.7485,0,0,1,3.7722,7.3877v36.8254h-7.1262v-36.03a4.9594,4.9594,0,0,0-1.6762-3.637,7.5882,7.5882,0,0,0-4.75-1.5912h-5.7289v41.2581h-6.9868v-90.9267H1899.86c4.61,0,7.5445.909,10.06,2.728a8.7482,8.7482,0,0,1,3.7722,7.3876Zm-19.281-33.87V2597.81h5.4484a8.4509,8.4509,0,0,0,5.03-1.5911,5.0173,5.0173,0,0,0,1.6762-3.7506V2563.94a5.0173,5.0173,0,0,0-1.6762-3.7506,8.4545,8.4545,0,0,0-5.03-1.5916Z"/><path class="cls-1" d="M1914.3449,2645.4037h-8.4318V2608.721a4.3108,4.3108,0,0,0-1.4688-3.1589,6.8768,6.8768,0,0,0-4.3417-1.4178l-5.0387.0013v41.2581h-8.2924v-92.2323h13.088c4.5542,0,7.6788.8529,10.4429,2.8517a9.3883,9.3883,0,0,1,4.0425,7.9167v28.5283a9.7766,9.7766,0,0,0,0,15.4574Zm-7.1262-1.3056h5.8206v-36.1726a8.129,8.129,0,0,0-3.5-6.8573l-1.0727-.87,1.0438-.85a8.1521,8.1521,0,0,0,3.5291-6.88V2563.94a8.1287,8.1287,0,0,0-3.5-6.8572c-2.5261-1.8267-5.4212-2.6057-9.68-2.6057h-11.7824v89.6212h5.6813V2602.84h6.3816a8.12,8.12,0,0,1,5.19,1.762,5.6249,5.6249,0,0,1,1.8887,4.119Zm-12.8076-45.6355h-.6527v-40.5177h6.1011c1.7459.1007,4.0765.487,5.47,1.7628a5.6636,5.6636,0,0,1,1.8887,4.2321v28.5283a5.6642,5.6642,0,0,1-1.8836,4.2287c-1.4008,1.28-3.73,1.6655-5.4382,1.7645Zm.6528-1.3056h4.7956a7.7212,7.7212,0,0,0,4.59-1.42,4.3334,4.3334,0,0,0,1.4637-3.2691V2563.94a4.333,4.333,0,0,0-1.4688-3.2725,7.7636,7.7636,0,0,0-4.6222-1.4181l-4.7582.0012Z"/><path class="cls-1" d="M1972.7964,2644.7509,1971.12,2629.18h-9.2223l-1.6762,15.5712h-6.9851l9.78-91.04h6.9852l9.78,91.04Zm-10.2-21.2542h7.9644l-4.0527-36.9389Z"/><path class="cls-1" d="M1980.5074,2645.4037H1972.21l-1.6761-15.5713h-8.0494l-1.6761,15.5713h-8.2975l.0765-.7225,9.8427-91.6233h8.1582Zm-7.1245-1.3056h5.6728l-9.64-89.7346h-5.8122l-9.64,89.7346h5.6728l1.6762-15.5712h10.3952Zm-2.0943-19.9486h-9.4178l4.6256-43.6823Zm-7.9661-1.3056h6.5109l-3.3132-30.1956Z"/><path class="cls-1" d="M2049.7809,2582.466h-7.1245v-18.0715a5.019,5.019,0,0,0-1.6762-3.751,8.3067,8.3067,0,0,0-5.3107-1.5911c-2.0943,0-4.19.5682-5.17,1.5911a4.4765,4.4765,0,0,0-1.5367,3.751,61.6182,61.6182,0,0,0,1.5367,15.1165,66.4388,66.4388,0,0,0,3.774,11.82,92.1783,92.1783,0,0,0,5.0285,10.0021c.6986,1.7047,1.3973,3.1824,2.2354,4.7735a46.4633,46.4633,0,0,1,3.2146,8.1836,60.9176,60.9176,0,0,1,2.3749,9.6609c.5593,3.41.4182,7.3876.4182,11.82a8.3352,8.3352,0,0,1-.9775,4.2057,11.1712,11.1712,0,0,1-2.7947,3.1823,21.1166,21.1166,0,0,1-4.4709,2.0459,25.6565,25.6565,0,0,1-6.1471.6817c-4.4709,0-7.5444-.909-10.0587-2.7276a8.8928,8.8928,0,0,1-3.7722-7.388v-18.1854h7.2639v18.1854a5.2876,5.2876,0,0,0,1.5368,3.751c1.1186,1.0229,3.2146,1.4777,5.309,1.4777,2.096,0,4.1921-.4548,5.17-1.4777a4.7627,4.7627,0,0,0,1.5367-3.751,61.8936,61.8936,0,0,0-1.5367-15.23,66.3144,66.3144,0,0,0-3.7722-11.8207c-1.2563-2.6141-2.2355-5.0008-3.4918-7.3876,0,0-2.5159-4.8874-3.7722-7.388a48.7929,48.7929,0,0,1-3.2146-8.07,64.1573,64.1573,0,0,1-2.3749-9.6609,79.3338,79.3338,0,0,1-.42-11.82,8.7742,8.7742,0,0,1,.9792-4.3192,10.7373,10.7373,0,0,1,2.7948-3.0688,13.7875,13.7875,0,0,1,4.4709-2.0459,26.3933,26.3933,0,0,1,6.147-.7956c4.4709,0,7.5445.91,10.0587,2.728a9.1051,9.1051,0,0,1,3.7722,7.5015Z"/><path class="cls-1" d="M2033.1553,2646.54c-4.4947,0-7.7144-.8793-10.4412-2.8513a9.5826,9.5826,0,0,1-4.0425-7.9171v-18.8381h8.57v18.8381a4.6449,4.6449,0,0,0,1.3566,3.3c.8619.7876,2.6825,1.2759,4.8364,1.2759,2.1453,0,3.9456-.4888,4.697-1.2759a4.1531,4.1531,0,0,0,1.3565-3.3,61.1128,61.1128,0,0,0-1.5163-15.0663,65.9054,65.9054,0,0,0-3.7382-11.7234c-.476-.9894-.9214-1.9669-1.3566-2.9235-.6936-1.5274-1.3515-2.97-2.1148-4.4212-.0017-.0051-2.521-4.8963-3.7773-7.3987a49.2286,49.2286,0,0,1-3.2571-8.1781,65.0994,65.0994,0,0,1-2.3936-9.74,61.9624,61.9624,0,0,1-.4368-9.7735l.0085-2.1526a9.4156,9.4156,0,0,1,1.0624-4.6375,11.3668,11.3668,0,0,1,2.9852-3.2826,14.3561,14.3561,0,0,1,4.68-2.1441,26.8306,26.8306,0,0,1,6.317-.8181c4.4947,0,7.7145.88,10.4412,2.8517a9.8141,9.8141,0,0,1,4.0425,8.0306v18.7243h-8.43v-18.7243a4.3341,4.3341,0,0,0-1.4688-3.2728,7.717,7.717,0,0,0-4.8653-1.4165c-2.0144,0-3.9031.5584-4.6987,1.39a3.8574,3.8574,0,0,0-1.3548,3.3,60.6187,60.6187,0,0,0,1.5163,14.9529,65.8456,65.8456,0,0,0,3.74,11.7229,91.8405,91.8405,0,0,0,4.9911,9.9308c.7106,1.7148,1.3923,3.17,2.2525,4.8015a47.2221,47.2221,0,0,1,3.2639,8.3094,61.3447,61.3447,0,0,1,2.3919,9.737,60.4671,60.4671,0,0,1,.4352,9.6953l-.0085,2.2274a8.9231,8.9231,0,0,1-1.0608,4.524,11.7761,11.7761,0,0,1-2.9529,3.3706,21.4682,21.4682,0,0,1-4.6732,2.1577A26.1072,26.1072,0,0,1,2033.1553,2646.54Zm-13.1781-28.301v17.5326a8.2277,8.2277,0,0,0,3.5155,6.87c2.4768,1.79,5.46,2.5933,9.6626,2.5933a24.85,24.85,0,0,0,5.989-.6621,20.3274,20.3274,0,0,0,4.2805-1.9643,10.5085,10.5085,0,0,0,2.5737-2.949,7.6864,7.6864,0,0,0,.8942-3.8874l.0085-2.2346a59.5291,59.5291,0,0,0-.4182-9.48,60.1935,60.1935,0,0,0-2.3511-9.5619,46.0558,46.0558,0,0,0-3.1772-8.0952c-.8738-1.6592-1.5724-3.1488-2.2558-4.819a91.287,91.287,0,0,1-5.0234-9.989,67.0864,67.0864,0,0,1-3.8113-11.9367,61.8149,61.8149,0,0,1-1.5538-15.261,5.1237,5.1237,0,0,1,1.7782-4.2571c1.2052-1.2669,3.6838-1.7378,5.5809-1.7378a8.9,8.9,0,0,1,5.751,1.7624,5.6661,5.6661,0,0,1,1.8887,4.2325v17.4187h5.8189v-17.4187a8.4376,8.4376,0,0,0-3.5155-6.983c-2.4768-1.7905-5.46-2.5937-9.6626-2.5937a25.87,25.87,0,0,0-5.9889.776,13.0515,13.0515,0,0,0-4.2465,1.9414,10.0508,10.0508,0,0,0-2.6214,2.8818,8.1427,8.1427,0,0,0-.8823,3.9775l-.0085,2.16a61.2,61.2,0,0,0,.42,9.5581,63.8677,63.8677,0,0,0,2.3511,9.5584,47.9552,47.9552,0,0,0,3.1772,7.9813c1.2563,2.499,3.7688,7.3821,3.7688,7.3826.7786,1.4785,1.4433,2.9379,2.1454,4.4832.4318.9486.8737,1.9175,1.3548,2.9205a67.01,67.01,0,0,1,3.8216,11.9593,62.4054,62.4054,0,0,1,1.552,15.374,5.4168,5.4168,0,0,1-1.7492,4.2325c-1.4161,1.4853-4.3961,1.6489-5.61,1.6489-2.5075,0-4.6035-.6009-5.7493-1.6489a5.9368,5.9368,0,0,1-1.7493-4.2325v-17.5326Z"/><path class="cls-1" d="M2089.3254,2644.7509v-91.04h6.9869v91.04Z"/><path class="cls-1" d="M2096.9651,2645.4037h-8.2924v-92.3458h8.2924Zm-6.9869-1.3056h5.6813v-89.7346h-5.6813Z"/><path class="cls-1" d="M2142.84,2639.0679h15.0888v5.683h-22.0757v-91.04h6.9869Z"/><path class="cls-1" d="M2158.5819,2645.4037h-23.3813v-92.3458h8.2925v85.3572h15.0888Zm-22.0757-1.3056h20.77v-4.3774h-15.0889v-85.3572h-5.6813Z"/><path class="cls-1" d="M1535.66,1434.9915c7.4209,0,12.1412,1.1862,16.1894,3.5588,3.8213,2.2245,6.07,5.4863,6.07,9.6383v38.406c0,4.1519-2.2484,7.2657-6.07,9.6383-4.0482,2.3725-8.7685,3.5588-16.1894,3.5588h-8.7686v53.8276H1515.65V1434.9915Zm10.7935,13.1971a6.0953,6.0953,0,0,0-2.6988-4.8932c-1.7981-1.3343-4.9473-1.9275-8.0947-2.076h-8.7686v51.1585h8.7686c3.1474-.1485,6.2966-.7416,8.0947-2.0764a6.0947,6.0947,0,0,0,2.6988-4.8932Z"/><path class="cls-1" d="M1527.5726,1554.3h-12.604v-119.99H1535.66c7.22,0,12.166,1.0923,16.5334,3.6524,4.19,2.4395,6.4066,5.9757,6.4066,10.2257v38.406c0,4.1462-2.1509,7.5836-6.3906,10.2168-4.3834,2.5689-9.3289,3.6612-16.5494,3.6612h-8.0876Zm-11.2422-1.3618h9.88v-53.8276h9.4495c6.9616,0,11.7014-1.0365,15.8454-3.4653,3.8532-2.3925,5.7328-5.356,5.7328-9.0509v-38.406c0-3.7379-1.9825-6.8672-5.731-9.05-4.1458-2.43-8.8856-3.4662-15.8472-3.4662h-19.33Zm10.5612-59.88h-.6809v-52.52h9.4495c2.7077.1268,6.3481.6126,8.5008,2.21a6.7415,6.7415,0,0,1,2.9736,5.44v37.22a6.7384,6.7384,0,0,1-2.97,5.4371c-2.1562,1.6008-5.7966,2.0866-8.4724,2.2125Zm.681-1.3618h8.0876c3.4826-.1649,6.2239-.8551,7.6886-1.9421a5.3616,5.3616,0,0,0,2.424-4.3466v-37.22a5.3648,5.3648,0,0,0-2.4275-4.3493c-1.4612-1.0838-4.2025-1.7741-7.717-1.94l-8.0557.0009Z"/><path class="cls-1" d="M1621.5457,1447.5954c0-2.0755-.2234-4.0034.9008-5.4863a10.2166,10.2166,0,0,1,4.0464-4.152,26.5145,26.5145,0,0,1,6.7453-2.5206,37.17,37.17,0,0,1,9.4424-1.0382c7.1957,0,10.5683,1.1863,14.6148,3.5588,3.8231,2.3726,6.52,5.4864,6.52,9.6383v93.42c0,4.152-2.697,7.2658-6.52,9.49-4.0465,2.3725-7.4191,3.5588-14.6148,3.5588a45.8737,45.8737,0,0,1-9.4424-.89,22.0361,22.0361,0,0,1-6.7453-2.6686,10.91,10.91,0,0,1-4.0464-4.004c-1.1242-1.6313-.9008-3.4107-.9008-5.4863Zm30.8042,0a5.2884,5.2884,0,0,0-2.4736-4.7451c-1.8-1.3343-4.0483-2.0755-7.4209-2.0755-3.3709,0-5.3959.7412-6.9687,2.0755a5.0918,5.0918,0,0,0-2.2485,4.7451v93.2714a5.4831,5.4831,0,0,0,2.2485,4.8936c1.5728,1.3344,3.5978,1.9275,6.9687,1.9275,3.3726,0,5.6211-.5931,7.4209-1.9275a5.697,5.697,0,0,0,2.4736-4.8936Z"/><path class="cls-1" d="M1642.6806,1554.7453a46.383,46.383,0,0,1-9.5771-.9039,22.6109,22.6109,0,0,1-6.9546-2.7485,11.526,11.526,0,0,1-4.284-4.2384c-1.064-1.5409-1.0374-3.2042-1.009-4.9654l.0089-.8738-.0089-94.2963c-.0284-1.8335-.0567-3.565,1.048-5.0213a10.7045,10.7045,0,0,1,4.245-4.3279,27.34,27.34,0,0,1,6.9439-2.5982,37.7789,37.7789,0,0,1,9.5878-1.0542c7.38,0,10.8272,1.23,14.9588,3.6524,4.5554,2.8265,6.857,6.2638,6.857,10.2256v93.42c0,3.9827-2.3708,7.4679-6.8588,10.079C1653.5078,1553.5151,1650.0607,1554.7453,1642.6806,1554.7453Zm0-119.6661a36.5567,36.5567,0,0,0-9.2757,1.0174,26.1116,26.1116,0,0,0-6.6016,2.4665,9.57,9.57,0,0,0-3.761,3.8745c-.8742,1.165-.8512,2.5991-.8246,4.26l.0089.8981-.0089,94.3154c-.0266,1.67-.0478,2.9892.7891,4.2043a10.3083,10.3083,0,0,0,3.83,3.8031,21.3255,21.3255,0,0,0,6.5466,2.5911,45.1025,45.1025,0,0,0,9.297.8742c7.068,0,10.35-1.1668,14.2708-3.4653,4.1032-2.3881,6.1832-5.383,6.1832-8.9029v-93.42c0-3.5078-2.0268-6.4713-6.1974-9.06C1653.0308,1436.246,1649.7486,1435.0792,1642.6806,1435.0792Zm-.2252,113.29c-3.4666,0-5.6831-.6246-7.4085-2.0892a6.1887,6.1887,0,0,1-2.49-5.4128v-93.2714a5.8,5.8,0,0,1,2.5552-5.3138c1.7573-1.498,4.043-2.1877,7.3429-2.1877a12.5446,12.5446,0,0,1,7.827,2.2094,5.91,5.91,0,0,1,2.7484,5.2921v93.2714a6.3885,6.3885,0,0,1-2.7484,5.44C1648.3584,1547.7331,1645.9451,1548.3688,1642.4554,1548.3688Zm0-106.9131c-2.995,0-4.9473.5723-6.529,1.9137-1.4451.9589-2.0072,2.1687-2.0072,4.226v93.2714a4.79,4.79,0,0,0,1.9735,4.3466c1.5126,1.282,3.4046,1.7936,6.5627,1.7936,3.2219,0,5.32-.5364,7.0148-1.7936a5.0432,5.0432,0,0,0,2.1988-4.3466v-93.2714a4.5977,4.5977,0,0,0-2.1669-4.1768A11.1439,11.1439,0,0,0,1642.4554,1441.4557Z"/><path class="cls-1" d="M1758.2461,1434.6949h11.4656v106.1719c0,4.152-2.697,7.2662-6.52,9.49-4.0465,2.3725-7.4191,3.5588-14.6148,3.5588a45.8808,45.8808,0,0,1-9.4423-.89,22.037,22.037,0,0,1-6.7453-2.6691,10.912,10.912,0,0,1-4.0465-4.0035c-1.1242-1.6314-.9008-3.4108-.9008-5.4868V1434.6949h11.6926v106.0234a5.483,5.483,0,0,0,2.2484,4.8936c1.5728,1.3348,3.5978,1.928,6.9687,1.928,3.3727,0,5.6211-.5932,7.4209-1.928a5.697,5.697,0,0,0,2.4736-4.8936Z"/><path class="cls-1" d="M1748.5768,1554.5968a46.3674,46.3674,0,0,1-9.5771-.9034,22.5807,22.5807,0,0,1-6.9545-2.749,11.5275,11.5275,0,0,1-4.2841-4.2375c-1.064-1.5409-1.0374-3.2046-1.009-4.9663l.0089-.8738V1434.014h13.0544v106.7043a4.79,4.79,0,0,0,1.9736,4.3466c1.5125,1.2825,3.4045,1.794,6.5626,1.794,3.2219,0,5.32-.5363,7.0148-1.794a5.0432,5.0432,0,0,0,2.1988-4.3466V1434.014h12.8274v106.8528c0,3.9835-2.3708,7.4683-6.8588,10.079C1759.404,1553.3666,1755.9569,1554.5968,1748.5768,1554.5968Zm-20.454-119.221-.0089,106.3865c-.0266,1.67-.0478,2.99.7891,4.2047a10.3077,10.3077,0,0,0,3.83,3.8027,21.3161,21.3161,0,0,0,6.5467,2.5915,45.1173,45.1173,0,0,0,9.2969.8738c7.068,0,10.35-1.1668,14.2708-3.4653,4.1032-2.3872,6.1832-5.3822,6.1832-8.9029v-105.491H1758.927v105.3425a6.3885,6.3885,0,0,1-2.7484,5.44c-1.924,1.4261-4.3373,2.0623-7.827,2.0623-3.4666,0-5.6831-.6251-7.4085-2.09a6.1884,6.1884,0,0,1-2.49-5.4127V1435.3758Z"/><path class="cls-1" d="M1882.3532,1472.3592h-11.4673v-23.5775a6.0985,6.0985,0,0,0-2.6971-4.8932c-1.798-1.3343-5.1707-2.0759-8.5433-2.0759s-6.7453.7416-8.32,2.0759a5.3718,5.3718,0,0,0-2.4737,4.8932c0,7.4147.6756,14.0873,2.4737,19.7221a75.413,75.413,0,0,0,6.0714,15.4216,113.1257,113.1257,0,0,0,8.093,13.0491,64.1348,64.1348,0,0,0,3.5978,6.228,54.2728,54.2728,0,0,1,5.1707,10.6765,67.2217,67.2217,0,0,1,3.8231,12.604c.899,4.449.6738,9.6387.6738,15.4216a9.2469,9.2469,0,0,1-1.5729,5.4868,16.0686,16.0686,0,0,1-4.4968,4.1519,38.2663,38.2663,0,0,1-7.1957,2.6692,50.5108,50.5108,0,0,1-9.8928.89c-7.1939,0-12.1412-1.1863-16.1876-3.5589-3.8231-2.3725-6.0715-5.4867-6.0715-9.6387V1518.179h11.6926v23.7256a6.3014,6.3014,0,0,0,2.4736,4.8936c1.798,1.3348,5.1707,1.9279,8.5433,1.9279s6.7453-.5931,8.3182-1.9279a5.6928,5.6928,0,0,0,2.4736-4.8936c0-7.5623-.6738-14.2353-2.4736-19.87a75.3057,75.3057,0,0,0-6.07-15.4217c-2.0233-3.4107-3.5979-6.5245-5.6211-9.6387,0,0-4.0465-6.376-6.0715-9.6387a57.3857,57.3857,0,0,1-5.1707-10.528,70.7555,70.7555,0,0,1-3.8213-12.6045c-.9007-4.5966-.6756-9.7863-.6756-15.4216a9.711,9.711,0,0,1,1.5747-5.6344,15.5953,15.5953,0,0,1,4.4968-4.0039,24.9324,24.9324,0,0,1,7.1939-2.6691,51.8639,51.8639,0,0,1,9.8928-1.0378c7.1957,0,12.1412,1.1863,16.1894,3.5589,3.8213,2.3725,6.07,5.6343,6.07,9.7863Z"/><path class="cls-1" d="M1855.5972,1555.7831c-7.1247,0-12.2245-1.1265-16.5316-3.6524-4.2575-2.6416-6.4084-6.079-6.4084-10.2261v-24.4065h13.0544v24.4065a5.6411,5.6411,0,0,0,2.2324,4.3741c1.4789,1.0958,4.5217,1.7665,8.1036,1.7665,3.5748,0,6.5946-.6769,7.8784-1.7661a5.0735,5.0735,0,0,0,2.2325-4.3745c0-8.0881-.798-14.52-2.4417-19.6627a74.7787,74.7787,0,0,0-6.02-15.3059c-.77-1.2967-1.4877-2.5738-2.1881-3.824-1.1189-1.9917-2.174-3.8731-3.4046-5.7664-.0035-.0062-4.0536-6.3863-6.0786-9.6507a57.8526,57.8526,0,0,1-5.2327-10.6544,71.7821,71.7821,0,0,1-3.8479-12.7024,65.5025,65.5025,0,0,1-.7022-12.7418c.0053-.9252.0124-1.8637.0124-2.8146a10.4027,10.4027,0,0,1,1.6952-6.0209,16.2775,16.2775,0,0,1,4.7168-4.2074,25.4384,25.4384,0,0,1,7.3889-2.7441,52.0732,52.0732,0,0,1,10.0382-1.0537c7.1248,0,12.2245,1.1264,16.5334,3.6524,4.1972,2.6048,6.4066,6.1889,6.4066,10.3737V1473.04h-12.8292v-24.2584a5.3652,5.3652,0,0,0-2.4257-4.35c-1.5853-1.1765-4.7806-1.9385-8.1337-1.9385-3.362,0-6.529.7695-7.88,1.9146a4.73,4.73,0,0,0-2.2325,4.3736c0,7.9835.798,14.3666,2.4418,19.5151a74.9474,74.9474,0,0,0,6.0218,15.3059,112.7085,112.7085,0,0,0,8.0433,12.97,66.2657,66.2657,0,0,0,3.6191,6.2585,55.1569,55.1569,0,0,1,5.2416,10.8228,67.552,67.552,0,0,1,3.85,12.698,64.219,64.219,0,0,1,.6986,12.66c-.0053.9464-.0124,1.9106-.0124,2.8921a9.8652,9.8652,0,0,1-1.6934,5.8733,16.6732,16.6732,0,0,1-4.6831,4.3337,38.437,38.437,0,0,1-7.389,2.7574A50.8394,50.8394,0,0,1,1855.5972,1555.7831ZM1834.019,1518.86v23.0447c0,3.6954,1.8814,6.6593,5.7488,9.06,4.073,2.3877,8.96,3.4565,15.8294,3.4565a49.5527,49.5527,0,0,0,9.758-.876,37.4012,37.4012,0,0,0,7.02-2.608,15.3152,15.3152,0,0,0,4.2468-3.9325,8.5731,8.5731,0,0,0,1.4523-5.1c0-.9846.0071-1.9519.0124-2.9014a63.3687,63.3687,0,0,0-.6721-12.3855,66.5316,66.5316,0,0,0-3.7858-12.4812,53.95,53.95,0,0,0-5.1192-10.5749,64.4067,64.4067,0,0,1-3.628-6.28,112.3918,112.3918,0,0,1-8.0841-13.034,76.1609,76.1609,0,0,1-6.1282-15.5608c-1.6793-5.26-2.4985-11.7794-2.4985-19.9052a6.0644,6.0644,0,0,1,2.78-5.4615c1.8814-1.6007,5.7364-2.1886,8.6941-2.1886,3.6829,0,7.1123.8467,8.9494,2.21a6.7465,6.7465,0,0,1,2.9719,5.44v22.8966h10.1055v-22.8966c0-3.7419-1.9346-6.84-5.7487-9.2078-4.0731-2.3877-8.96-3.4565-15.83-3.4565a51.4337,51.4337,0,0,0-9.758,1.0241,24.0886,24.0886,0,0,0-6.9847,2.5893,14.8439,14.8439,0,0,0-4.2982,3.8279,8.9374,8.9374,0,0,0-1.4363,5.223c0,.9545-.0071,1.8956-.0125,2.8239a64.5092,64.5092,0,0,0,.6756,12.467,70.5575,70.5575,0,0,0,3.7823,12.4776,56.6607,56.6607,0,0,0,5.1193,10.4265c2.025,3.2605,6.0679,9.6325,6.0679,9.633,1.25,1.9244,2.3176,3.8243,3.4453,5.8361.6969,1.24,1.408,2.5082,2.1864,3.82a76.1,76.1,0,0,1,6.1406,15.5861c1.6793,5.2545,2.4985,11.822,2.4985,20.0528a6.3866,6.3866,0,0,1-2.7485,5.4407c-2.1881,1.8583-6.83,2.0618-8.7242,2.0618-3.9223,0-7.1833-.7514-8.9494-2.0623a6.9653,6.9653,0,0,1-2.7485-5.44V1518.86Z"/><path class="cls-1" d="M1977.4577,1553.6193l-2.6989-20.3148h-14.8382l-2.6988,20.3148H1945.98l15.739-118.7759h11.2422l15.739,118.7759Zm-16.4129-27.73h12.815l-6.52-48.1923Z"/><path class="cls-1" d="M1989.4765,1554.3h-12.6146l-2.6989-20.3148h-13.6466l-2.6988,20.3148h-12.6147l.1011-.77,15.8188-119.3673h12.4338l.08.5913Zm-11.423-1.3618h9.87l-15.5582-117.4141h-10.0506l-15.5581,117.4141h9.87l2.6988-20.3148h16.03Zm-3.4152-26.3677H1960.27l7.0574-54.04Zm-12.8186-1.3618h11.2617l-5.7293-42.3452Z"/><path class="cls-1" d="M2072.3369,1434.9915c7.4209,0,12.1412,1.1862,16.1894,3.5588,3.8213,2.2245,6.07,5.4863,6.07,9.6383v92.2336c0,4.152-2.2484,7.2657-6.07,9.6383-4.0482,2.3725-8.7685,3.5588-16.1894,3.5588h-20.0107V1434.9915Zm0,112.2514c3.1475,0,6.2967-.5932,8.0947-1.9275a6.5571,6.5571,0,0,0,2.6988-4.8932v-92.2336a6.0953,6.0953,0,0,0-2.6988-4.8932c-1.798-1.3343-4.9472-1.9275-8.0947-2.076h-8.7685v106.0235Z"/><path class="cls-1" d="M2072.3369,1554.3h-20.6916v-119.99h20.6916c7.2205,0,12.166,1.0923,16.5334,3.6524,4.19,2.4395,6.4066,5.9757,6.4066,10.2257v92.2336c0,4.1462-2.1509,7.5836-6.3906,10.2168C2084.5029,1553.2079,2079.5574,1554.3,2072.3369,1554.3Zm-19.33-1.3618h19.33c6.9616,0,11.7014-1.0364,15.8454-3.4653,3.8532-2.3925,5.7328-5.356,5.7328-9.0509v-92.2336c0-3.7379-1.9824-6.8672-5.731-9.05-4.1458-2.43-8.8856-3.4662-15.8472-3.4662h-19.33Zm19.33-5.0146h-9.4494V1440.5385h9.4494c2.7077.1268,6.3481.6126,8.5008,2.21a6.7413,6.7413,0,0,1,2.9737,5.44v92.2336c0,1.9386-.99,3.76-2.94,5.4127C2079.0716,1547.1724,2075.9738,1547.9238,2072.3369,1547.9238Zm-8.0876-1.3619h8.0876c3.3017,0,6.1761-.67,7.6887-1.7931a5.8254,5.8254,0,0,0,2.4239-4.3466v-92.2336a5.3648,5.3648,0,0,0-2.4275-4.3493c-1.4611-1.0838-4.2025-1.7741-7.717-1.94l-8.0557.0009Z"/><path class="cls-1" d="M2189.7005,1553.6193l-2.6989-20.3148h-14.8382l-2.6988,20.3148h-11.2422l15.739-118.7759h11.2422l15.739,118.7759Zm-16.4129-27.73h12.815l-6.52-48.1923Z"/><path class="cls-1" d="M2201.7193,1554.3h-12.6146l-2.6989-20.3148h-13.6466L2170.06,1554.3h-12.6146l.101-.77,15.8188-119.3673h12.4338l.08.5913Zm-11.423-1.3618h9.87l-15.5582-117.4141h-10.0506l-15.5581,117.4141h9.87l2.6988-20.3148h16.03Zm-3.4152-26.3677h-14.3684l7.0574-54.04Zm-12.8186-1.3618h11.2617l-5.7293-42.3452Z"/></g></g></svg>