<svg xmlns="http://www.w3.org/2000/svg" xmlns:xlink="http://www.w3.org/1999/xlink" viewBox="0 0 1628.75 1789.51"><defs><style>.cls-1{fill:#278fa0;}.cls-2{fill:url(#Gradiente_sem_nome_18);}</style><radialGradient id="Gradiente_sem_nome_18" cx="325.6" cy="434.08" r="622.6" gradientUnits="userSpaceOnUse"><stop offset="0.01" stop-color="#f9d232"/><stop offset="0.28" stop-color="#f9cf31"/><stop offset="0.48" stop-color="#f8c530"/><stop offset="0.66" stop-color="#f6b52d"/><stop offset="0.71" stop-color="#f5b02c"/><stop offset="0.86" stop-color="#f2a227"/><stop offset="0.98" stop-color="#f09423"/></radialGradient></defs><g id="Camada_2" data-name="Camada 2"><g id="Camada_1-2" data-name="Camada 1"><path class="cls-1" d="M797.23,998.53c9.59,0,19.17,0,28.76,0,9,.05,17.88.29,26.75,1.87a108.28,108.28,0,0,0,13.36,1.13c6.39.32,12.78.55,19.17.64,10.89.15,21.71.77,32.32,3.46,17.13,2.1,34.18,4.81,51.12,8,23.85,4.46,47.81,8.49,71.09,15.6,4.88,1.49,9.92,2.44,14.87,3.71,3.09.8,6.21,1.54,9.19,2.63a105.82,105.82,0,0,0,20.29,5.62,29.89,29.89,0,0,1,7.31,2.25c7.58,3.39,15.84,5.07,23.14,9.18a19.75,19.75,0,0,0,5.38,2c11.33,2.43,21.82,7.2,32.52,11.42,4.75,1.87,9.56,3.61,14.34,5.41,1.79.68,3.66,1.18,5.37,2,12.6,6.24,25.65,11.49,38.35,17.51,6.92,3.28,13.57,7.11,20.42,10.57,17.11,8.65,33.92,17.85,50.57,27.35,5.57,3.17,10.87,6.7,16.19,10.25,6.37,4.25,12.86,8.35,19.48,12.2s13.08,8,19.32,12.44c8.85,6.31,17.61,12.74,26.41,19.11,5.7,4.11,11.48,8.11,16.53,13.06a50.77,50.77,0,0,0,7.4,6.09c17.1,11.36,32.53,24.74,47.42,38.8.93.88,1.86,1.76,2.86,2.55,18.61,14.73,34.71,32.11,51.5,48.75a168.18,168.18,0,0,1,12.47,14.54c2.38,3,5.6,5.23,7.23,8.77.15.33-.26,1.16-.65,1.42a2.39,2.39,0,0,1-1.75.34c-9.27-2.4-18.52-4.85-27.78-7.28-1.23-.33-2.46-.71-3.72-.92-13.88-2.28-27.55-5.54-41.29-8.5a92.13,92.13,0,0,0-15.23-1.61,134.75,134.75,0,0,1-22.76-2.83c-10-2.19-20.17-3.28-30.27-4.79a19.92,19.92,0,0,1-8.84-3.44c-3.12-2.23-6.36-4.33-9.25-6.83-21.34-18.41-44.37-34.52-67.72-50.21-15.93-10.7-32.12-20.93-48.89-30.26-.56-.31-1.14-.57-1.68-.91-5.45-3.33-10.61-7.3-16.39-9.88-17.5-7.84-34.1-17.52-51.82-24.91-8.25-3.44-16.28-7.41-24.52-10.89-11.16-4.73-22.29-9.57-33.79-13.48-4.23-1.44-8.45-2.93-12.58-4.65-7.68-3.21-15.58-5.76-23.52-8.2-4.88-1.51-9.77-2.94-14.56-4.75a70.9,70.9,0,0,0-12.87-3.73,81.78,81.78,0,0,1-14.71-4.16,90.86,90.86,0,0,0-16.63-4.46c-6.91-1.16-13.73-3-20.53-4.7a412.27,412.27,0,0,0-54.54-10.47c-8.87-1-17.67-2.75-26.43-4.5a138.44,138.44,0,0,0-24.77-2.43c-6.4-.12-12.79-.18-19.18-.5a144,144,0,0,1-15.25-1.42,135.7,135.7,0,0,0-21-1.73q-24.94-.12-49.87-.09c-9.59,0-19.15.33-28.63,2.2a90.06,90.06,0,0,1-13.36,1.09c-6.39.28-12.78.3-19.17.5a208,208,0,0,0-21,2.09c-12.66,1.7-25.11,4.8-37.88,5.76a80.35,80.35,0,0,0-9.43,1.69c-14.41,2.87-28.8,5.78-43.1,9.17-6.21,1.47-12.28,3.61-18.72,4a20.14,20.14,0,0,0-3.75.77c-7.42,1.9-14.21,5.78-22,6.76-7,.88-13.4,4.16-20.15,6-16.66,4.61-32.62,11.2-48.87,16.93-10.22,3.61-20.23,7.85-30.18,12.18-13.46,5.87-26.62,12.42-40.13,18.21-7.62,3.27-14.91,7.31-22.33,11-1.71.86-3.37,1.83-5.05,2.76-11.72,6.47-24.47,10.88-35.5,18.85-10.86,7.85-22.5,14.6-33.76,21.92-4.82,3.13-9.49,6.49-14.29,9.65a13,13,0,0,1-3.54,1.39,3.45,3.45,0,0,1-1.85-.12,2.65,2.65,0,0,1-2.07-2.75c1.51-10.75,3-21.49,3.58-32.35.12-2.51,1.07-5,1.6-7.48,2.39-11.25,4.79-22.47,5.81-34,.79-8.9,2.49-17.71,3.78-26.56a12.58,12.58,0,0,1,6-9.34c7.66-4.63,15.26-9.4,23.19-13.5,18.74-9.67,37.53-19.27,56.57-28.34,11.51-5.48,23.26-10.48,35.14-15.19,11.28-4.47,22.6-8.81,34.16-12.51a13.94,13.94,0,0,0,1.84-.54c8.08-3.9,16.75-6.16,25.14-9.2,7.24-2.63,14.41-5.19,22.11-6a15.75,15.75,0,0,0,3.73-.83c10.2-3.81,20.94-5.75,31.27-9a381.9,381.9,0,0,1,42.73-10.59c13.17-2.5,26.24-5.55,39.52-7.52l11.37-1.71c12-1.86,24-3.47,35.94-5.68a111,111,0,0,1,17.11-1.94c7-.2,14.05-.46,21.08-.68a196.76,196.76,0,0,0,24.83-2,106.88,106.88,0,0,1,15.28-1.14c11.5-.16,23-.05,34.52-.05Z"/><path class="cls-1" d="M796.88,1170.91c5.59.48,11.35.67,17,1.53a198.69,198.69,0,0,0,24.84,1.69c13.42.34,26.83.82,40.25,1.24a67,67,0,0,1,13.28,1.75c11.83,2.79,23.76,4.93,36,5.3a50.71,50.71,0,0,1,15.07,2.62,108.44,108.44,0,0,0,28.13,5.54,38.75,38.75,0,0,1,13,3.21,48.23,48.23,0,0,0,14.7,4.19c5.8.53,11.26,2.27,16.73,4,14.59,4.72,29.24,9.23,43.5,14.92,9.49,3.78,19.5,6.17,28.7,10.72,12.25,3.82,23.56,9.86,35.25,15,24,10.53,46.94,23.21,69.76,36.07a47.24,47.24,0,0,1,10.84,7.8c2.11,2.15,1.32,6.81-1.5,8.21a32.46,32.46,0,0,1-10.87,3.55,52.29,52.29,0,0,1-5.74.3,182.83,182.83,0,0,0-45.48,6.09c-4.31,1.11-8.79,1.57-13.19,2.36-8.17,1.46-16.36,2.86-24.51,4.47-6.26,1.23-12.53,2.51-18.69,4.17-4.62,1.24-8.73.49-13-1.3-4.11-1.72-8.46-2.87-12.66-4.38-4.81-1.73-9.67-3.36-14.33-5.45-5.85-2.61-11.64-5.26-18.06-6.15a6.38,6.38,0,0,1-1.87-.43c-11.61-5.54-24.32-7.67-36.4-11.72a219.76,219.76,0,0,0-25.87-7c-8.73-1.78-17.44-3.8-26-6.31-9.84-2.87-19.86-4.82-30.19-4.77-4.51,0-8.81-1.18-13.21-2-15-2.83-30.11-5.74-45.55-5.7-32.59.09-65.19,0-97.78.08a114.63,114.63,0,0,0-24.75,2.45c-8.09,1.79-16.52,1.63-24.51,4.26a25.52,25.52,0,0,1-7.59.78c-9,.1-17.78,1.76-26.5,3.85q-19.55,4.69-39.16,9.1a158,158,0,0,0-20.27,5.72c-5.36,2-11.06,3.08-16.57,4.67-3.07.89-6.09,1.91-9.08,3s-5.86,2.81-8.94,3.43a114.62,114.62,0,0,0-21.76,7.25c-7,3-14.38,5.26-21.27,8.67a91,91,0,0,1-10.64,4.35,202.73,202.73,0,0,0-28,12.55c-16.37,8.65-32.94,17-48.77,26.6-23.51,14.23-46.48,29.33-67.81,46.76-13.36,10.91-27.09,21.38-39.48,33.44-11.33,8.43-21,18.66-31,28.51-22,21.54-41.52,45.11-59.9,69.72-3.82,5.11-7.73,10.16-11.65,15.19a2,2,0,0,1-1.63.65,1.93,1.93,0,0,1-1.55-2.74c2.76-7.84,5.41-15.7,6.71-23.94a10.8,10.8,0,0,1,.38-1.88c4.9-14.56,7.82-29.64,11.72-44.47,2.12-8,4.23-16.06,6-24.16,5.29-23.7,11.15-47.25,17-70.8a41.77,41.77,0,0,1,2.59-7.2,15.08,15.08,0,0,1,3.16-4.74c5.6-5.24,11.18-10.53,17.13-15.35,14.89-12.07,29.86-24,45.31-35.41,6.17-4.53,12.45-8.94,18.75-13.31q7.08-4.92,14.35-9.57c5.38-3.44,10.92-6.64,16.29-10.1,9.14-5.89,18.56-11.29,28.18-16.33,1.13-.6,2.33-1.09,3.41-1.76,21.87-13.38,45.18-23.87,68.63-34,10.55-4.57,21.21-8.89,31.82-13.32,8.76-2,16.87-5.89,25.31-8.83q15.39-5.34,30.91-10.29c6.69-2.13,13.32-4.51,20.38-5.28a47.4,47.4,0,0,0,12.85-3.75,49,49,0,0,1,16.74-3.74,86.86,86.86,0,0,0,24.41-4.63,76,76,0,0,1,20.7-3.66,162.17,162.17,0,0,0,22.8-2.85,284.56,284.56,0,0,1,55.27-5.13,180,180,0,0,0,30.57-2C785.16,1171.26,791,1171.31,796.88,1170.91Z"/><path class="cls-1" d="M798.4,1339.35l59.68,1.09a75.58,75.58,0,0,1,13.31,1.43c11.89,2.34,23.76,4.82,35.8,6.47,8.84,1.21,17.56,3.28,26.3,5.13,1.11.24,2.12,1.36,3,2.25s-1.15,3-3.61,3.78c-15.2,4.91-30,11-44.77,16.92-7.7,3.08-15.73,5.16-23.18,9-6.78,3.51-14.1,6-21.13,9-8.78,3.83-17.42,8-26.26,11.66-14.76,6.11-29.17,13-43.63,19.74a31.24,31.24,0,0,1-13,3.05c-4.48.06-8.95.21-13.42.36-7.67.25-15.33.55-22.83,2.43a28.92,28.92,0,0,1-5.67.93c-10.31.41-20.21,3-30,5.82a50.87,50.87,0,0,1-11.26,2.19,66.06,66.06,0,0,0-16.81,3.56c-6.06,2-12.11,4.09-18.46,5.12a34,34,0,0,0-5.51,1.62c-16.87,5.93-34,11.24-50.4,18.33-8.78,3.79-17.31,8.21-25.81,12.61-8,4.1-15.65,8.64-23.56,12.82-11.33,6-21.93,13.12-32.53,20.26-15.37,10.36-30.52,21-44.25,33.56-22.13,17.51-41.52,37.87-60.74,58.42a342.64,342.64,0,0,0-26.45,32.8c-1.88,2.58-3.7,5.21-5.59,7.79-7.17,9.78-14.33,19.55-20.08,30.29A48.31,48.31,0,0,1,331,1696.08c-6.43,4.15-12.48,8.9-18.65,13.46-5.65,4.17-11.26,8.41-16.85,12.67-2.55,1.93-4.89,4.14-7.52,5.94-21.66,14.81-41.34,32.17-62.21,48-5.59,4.24-11.15,8.54-16.76,12.75a2.42,2.42,0,0,1-3.37-.14,3.45,3.45,0,0,1-.5-3.55l10.65-32.82c6.14-18.87,14-37,22.71-54.85,4.19-8.61,7.93-17.45,12.19-26s8.72-17.06,13.44-25.39c14.53-25.62,31.68-49.49,49.63-72.79,3.11-4,6.62-7.79,10-11.64,2.52-2.89,5.42-5.5,7.6-8.62,5.54-7.91,12.34-14.66,19.1-21.44q16.24-16.29,32.73-32.34c3.66-3.56,7.66-6.77,11.52-10.11,1-.83,2.09-1.5,3-2.37,15-14,31.64-25.86,48-38.08,3.59-2.67,7.23-5.28,11-7.63,13-8.08,25.79-16.63,39.71-23.17a13,13,0,0,0,1.66-1c17.68-11.72,37.34-19.41,56.53-28.12,13.4-6.08,27.52-10.26,40.84-16.5,11-3.27,22-6.59,33.06-9.81,7.36-2.14,14.78-4.06,22.15-6.19,13.54-3.91,27.47-5.9,41.32-8.1,10.11-1.61,20.11-3.69,30.1-5.83a77.64,77.64,0,0,1,15.16-2C757.75,1340.11,778.19,1339.72,798.4,1339.35Z"/><path class="cls-2" d="M1628.75,1218.8S1537,563.17,1098.62,263.45C576.68-93.41,0,15.72,0,15.72s61.61,33.11,133.86,141c15.36.9,34.87,6,54.68,21.9a154.64,154.64,0,0,1,29.64,31.16,44.83,44.83,0,0,1,5.8-21.13C242.54,156,258.16,97.26,224,72c0,0,51.28,1.49,81,57.21,15,28.14,22.79,60.12,18.44,85.28,24.07-22.15,49-60.13,31-89.07,0,0,41.39,17.9,47.45,73a156.68,156.68,0,0,1-1.06,43,44.7,44.7,0,0,1,19-10.85c36.25-10,88.79-40.48,82.48-82.5,0,0,35.23,37.3,16.82,97.71-9.3,30.48-26.37,58.61-47.27,73.32,32.72,1.37,77.13-7.87,84.9-41,0,0,16.62,41.91-18.06,85.22a155.15,155.15,0,0,1-31.18,29.62,44.71,44.71,0,0,1,21.14,5.79c32.72,18.55,91.42,34.17,116.67,0,0,0-1.47,51.28-57.2,81C560,494.7,528,502.5,502.87,498.13c22.17,24.1,60.15,49,89.06,31.06,0,0-17.89,41.35-73,47.45a155.1,155.1,0,0,1-43-1.08,44.79,44.79,0,0,1,10.82,19c10,36.26,40.48,88.81,82.5,82.5,0,0-37.3,35.21-97.71,16.81-30.51-9.28-58.64-26.39-73.33-47.26-1.36,32.69,7.9,77.15,41,84.93,0,0-41.93,16.59-85.2-18.08a156.06,156.06,0,0,1-29.64-31.17,44.5,44.5,0,0,1-5.8,21.11c-2.05,3.63-4.07,7.59-6,11.78,2.15,35.68,3.12,70.44,3.36,102.77.85.73,1.72,1.45,2.63,2.13,0,0-1,0-2.62-.22.68,105.3-6.46,184.31-6.46,184.31s352.39-174.35,706.39-107.32c.14-23,.21-118.69-6.8-201.25-8.16-96-46-168.57-46-168.57s-40.72,47.47-48.53,105c-7.88,58.08,24.27,141.43,24.27,141.43S869,751.74,853.33,697.88c-15.28-52.69,10.19-108.26,10.19-108.26s-5.85,1.5-17,13.15c-12.37,12.9-15,17.8-15,17.8s9-33.5,17.93-45S884,539.82,884,539.82s-17,2.56-37.61,16.2c-25.49,16.86-46.68,46.75-46.68,46.75l-37,26.44s2.32-8.51,6-18.09,17-26.61,17-26.61S744.75,619,733.26,642,709,689.24,709,689.24s-7.84-82.6,30.65-145.59c39.68-64.94,89.15-66.42,117-70.28,29.61-4.11,68.67,3.7,68.67,3.7s-27.55-52.22-97.86-47.29c-18.78,1.32-73.74,10.42-73.74,10.42s10.89-22,24.91-36.17c8.67-8.76,20.87-22.77,20.87-22.77s-15.44-1.76-43.23,7.86c-29.55,10.24-45.18,40.25-45.18,40.25s6.14-36.86,18.92-51.81,37.6-34.88,59.21-37c25.08-2.47,82,7.69,116.47,35.79s46,66.41,46,66.41S957,362.9,986.12,330.37c14.83-16.54,42.34-28.57,69.93-28.05,20.58.38,45,14,45,14S1071.64,331,1047,348c-42.35,29.19-58.33,105-58.33,105s29.38-39.59,81.74-48.53,89.46-5.56,112.69,2.73c53,18.91,56.33,72.78,56.33,72.78s-53.45-28-78.53-30.43L1119,451.58s19.31,2,29.35,6.5a24.19,24.19,0,0,1,14.93,22.56s-47.75-5.79-79.23-3.57c-33.08,2.33-71.14,19.74-71.14,19.74s64.92,11.33,90.87,29.6c22.9,16.13,53.87,42.77,58.62,100.25,4.21,50.92,1.28,51.08,1.28,51.08l-16.61-37s5.13,19.55-3.81,37.43-17.9,26.42-17.9,26.42-.28-32.66-1.27-56.19c-.57-13.41-9-35.91-12.08-44.65-.86-2.46-1.69,5.19-2.47,10.3a29.27,29.27,0,0,1-4.11,11.08l-9.44,13s-15.64-41-31.27-65.27C1040.94,536,981,515.55,981,515.55s59.41,114.58,79.18,199.23c16.64,71.25,21.92,171.53,23,197.75C1433.72,1006.61,1628.75,1218.8,1628.75,1218.8Z"/></g></g></svg>