<svg xmlns="http://www.w3.org/2000/svg" viewBox="0 0 684.2034 260.8336"><defs><style>.cls-1{fill:#204966;}.cls-2{fill:#f7931e;}</style></defs><g id="Camada_2" data-name="Camada 2"><g id="Camada_1-2" data-name="Camada 1"><path class="cls-1" d="M145.772,13.8262q7.89,2.0346,11.5117,12.9179t-3.82,21.1709q12.8672,6.7149,12.4043,15.6133t-11.065,13.3643Q144.201,81.3574,135.27,81.0107t-9.229-27.5058q0-31.4913,5.9209-36.6016A14.4483,14.4483,0,0,1,145.772,13.8262ZM134.0127,45.8975q16.7711-1.0591,15.96-11.5284t-6.93-11.9912q-6.12-1.5219-7.8067,4.7295Q133.55,33.3609,134.0127,45.8975Zm.3638,7.4091q.2307,11.3467,2.4311,15.0352t12.2066.9258q10.0056-2.7612,5.7719-10.4365T134.3765,53.3066Z" transform="translate(-1.8244 -13.2474)"/><path class="cls-1" d="M176.3872,55.82q1.8186,13.2657,16.374,9.6592l3.11,9.4277q-23.2223,3.2754-26.6289-12.5039-3.408-15.7778.1982-26.8437T182.689,23.4531q9.6423-1.0429,15.9272,4.0518l-4.7632,6.98q-2.7457-2.9107-9.5268-2.4151T176.52,46.7568q7.3763-2.6454,18.2266.1661l-.7607,8.3691A33.26,33.26,0,0,0,176.3872,55.82Z" transform="translate(-1.8244 -13.2474)"/><path class="cls-1" d="M244.8945,50.4785a53.7314,53.7314,0,0,1-1.687,18.0449l-9.1631-4.1015q3.7713-13.1,1.2569-20.7412t-6.8306-.0664q-4.3168,7.576-8.4521,7.5752-4.1016,0-7.3765-7.6573t-5.0776,1.8516q-1.8033,9.5112,2.8281,31.9053l-10.0894,3.54q-4.0686-26.2647-.6284-39.2656t8.8159-14.7862q5.3752-1.7871,12.1568,15.0176,8.4352-13.23,12.934-13.2314t7.542,6.583A45.3167,45.3167,0,0,1,244.8945,50.4785Z" transform="translate(-1.8244 -13.2474)"/><path class="cls-1" d="M247.4746,51.5869l-.1982-8.1709A44.0628,44.0628,0,0,1,268.4141,44.64l-1.7535,7.6084A71.2146,71.2146,0,0,0,247.4746,51.5869Z" transform="translate(-1.8244 -13.2474)"/><path class="cls-1" d="M285.2676,70.9385q-4.9453,0-9.8081-14.06t-5.3916-19.3184l6.1528-3.208q2.15,8.8991,9.03,21.1709,6.45-14.7876,8.6006-22.792l6.5166,3.837Q290.213,70.9379,285.2676,70.9385Z" transform="translate(-1.8244 -13.2474)"/><path class="cls-1" d="M305.4624,81.292,296.3,77.62q9.46-17.2,6.1856-39.4306l7.5751-1.1583A80.43,80.43,0,0,1,305.4624,81.292Zm6.7813-54.8457a7.7447,7.7447,0,0,1-2.1666,5.0781,7.7869,7.7869,0,0,1-11.4287,0,7.7725,7.7725,0,0,1-2.15-5.0781,7.686,7.686,0,0,1,2.15-5.0781,7.8584,7.8584,0,0,1,11.4287,0A7.6586,7.6586,0,0,1,312.2437,26.4463Z" transform="translate(-1.8244 -13.2474)"/><path class="cls-1" d="M344.8105,68.9033q-7.79,2.0684-12.9174-17.1845t-7.4263-13.0665A37.857,37.857,0,0,0,322.168,51.95a30.8543,30.8543,0,0,0,3.374,13.8936l-8.6006,2.9111q-4.83-23.0231,0-33.0137,4.8288-9.9888,10.04-9.543t10.7011,14.4063q6.1194,26.5957,7.8726,10.7676t1.6543-17.8467l7.1118,1.0254Q352.6,66.8359,344.8105,68.9033Z" transform="translate(-1.8244 -13.2474)"/><path class="cls-1" d="M365.502,21.0547h.7275q15.1164.5948,19.7153,9.4932t3.5064,20.4765q-1.0914,11.5782-9.4278,16.7715t-14.687,4.9453q-6.3514-.249-6.6821-11.2969t-2.6792-30.1025Q355.9751,21.0542,365.502,21.0547Zm6.4335,10.7344q-9.3778-1.34-7.6079,6.3173a97.4293,97.4293,0,0,1,2.2491,16.7881q.48,9.13,7.7573,5.5244t7.1284-15.4482Q381.3137,33.129,371.9355,31.7891Z" transform="translate(-1.8244 -13.2474)"/><path class="cls-1" d="M423.9365,33.1279a24.8315,24.8315,0,0,1,5.4087,16.0772,24.7783,24.7783,0,0,1-5.4087,16.0429q-5.4081,6.7164-13.1821,6.7159-7.74,0-13.1489-6.7159a24.7807,24.7807,0,0,1-5.4082-16.0429,24.8339,24.8339,0,0,1,5.4082-16.0772q5.4089-6.7147,13.1489-6.7148Q418.5276,26.4131,423.9365,33.1279ZM410.7544,36.833a10.6631,10.6631,0,0,0-7.856,3.5234,12.44,12.44,0,0,0-3.4238,9.0469,12.4378,12.4378,0,0,0,3.4238,9.0469,10.5388,10.5388,0,0,0,15.729,0,12.4742,12.4742,0,0,0,3.4073-9.0469,12.476,12.476,0,0,0-3.4073-9.0469A10.6456,10.6456,0,0,0,410.7544,36.833Z" transform="translate(-1.8244 -13.2474)"/><path class="cls-1" d="M450.2676,64.1406q8.3854-4.2846-3.1094-8.1875t-13.8271-7.5918a14.3965,14.3965,0,0,1-2.3321-7.8232q0-11.4126,24.2471-19.2852l1.9517,8.9649q-10.8172,1.4223-16.2256,7.2275t8.667,9.2451q14.0749,3.441,14.0752,13.166t-7.9888,13.2979q-7.9885,3.5727-20.0625,4.4326l-2.7788-10.6181A27.6289,27.6289,0,0,0,450.2676,64.1406Z" transform="translate(-1.8244 -13.2474)"/><path class="cls-1" d="M529.7085,73.09q-.6021-1.418-1.418-4.082a24.5518,24.5518,0,0,1-11.5586,2.836,20.6338,20.6338,0,0,1-8.9375-1.8907,13.61,13.61,0,0,1-6.789-6.66,14.1894,14.1894,0,0,1-1.2461-5.93,19.3655,19.3655,0,0,1,.43-3.9531,12.3329,12.3329,0,0,1,6.66-8.4649,22.2715,22.2715,0,0,1,10.3985-2.2773,40.1294,40.1294,0,0,1,4.4257.2578,2.9892,2.9892,0,0,1-.0859-.5156c-.0576-.2-.1006-.3584-.1289-.4727l9.4531-2.02q4.6831,22.1718,7.7344,29.4765ZM517.9351,37.6836a124.8236,124.8236,0,0,0-15.168-9.5391l7.9922-6.4453q3.8239,1.5894,11.1719,11.3867Zm-5.9727,23.5039a10.5469,10.5469,0,0,0,4.5977.9453,18.4286,18.4286,0,0,0,2.1054-.1289,13.72,13.72,0,0,0,6.918-2.707q-.7734-3.0073-1.5469-6.1016a30.6628,30.6628,0,0,0-6.875-.9023,12.5255,12.5255,0,0,0-5.8008,1.2031,3.0118,3.0118,0,0,0-1.7187,2.02,9.1357,9.1357,0,0,0-.2149,1.8477,4.3137,4.3137,0,0,0,.4727,2.1055A4.2158,4.2158,0,0,0,511.9624,61.1875Z" transform="translate(-1.8244 -13.2474)"/><path class="cls-1" d="M21.2876,140.8555q-7.2686,4.078-12.7871,2.55-.1977,5.6908,3.4985,14.1914l-7.0469,3.5478Q.6155,138.65,2.2915,126.3057q1.675-12.3429,17.5918-11.875,8.3768,1.28,8.5249,11.8134T21.2876,140.8555ZM15.67,136.8516q7.0226-3.0307,6.7632-9.8682t-6.9477-5.7529q-6.6892,1.0839-7.1207,5.1006a49.2272,49.2272,0,0,0-.0371,9.0419Q8.6477,139.8818,15.67,136.8516Z" transform="translate(-1.8244 -13.2474)"/><path class="cls-1" d="M53.4282,125.7637a19.7758,19.7758,0,0,1,0,23.9248,12.1141,12.1141,0,0,1-19.6118,0,19.7739,19.7739,0,0,1,0-23.9248,12.1141,12.1141,0,0,1,19.6118,0Zm-9.8183,2.76a7.9433,7.9433,0,0,0-5.8516,2.6241,10.18,10.18,0,0,0,0,13.4775,7.8507,7.8507,0,0,0,11.7158,0,10.2164,10.2164,0,0,0,0-13.4775A7.931,7.931,0,0,0,43.61,128.5234Z" transform="translate(-1.8244 -13.2474)"/><path class="cls-1" d="M78.4858,155.626q-7.5768,4.2876-13.44-.5664t-6.11-13.5264A39.7546,39.7546,0,0,1,60.98,126.6514l5.5932,1.8476q-5.4454,19.7109,4.336,21.1641t8.3774-18.1094L86.062,129.78Q86.062,151.34,78.4858,155.626Z" transform="translate(-1.8244 -13.2474)"/><path class="cls-1" d="M101.6455,148.8623q6.2462-3.19-2.3159-6.0977T89.0308,137.11a10.72,10.72,0,0,1-1.7373-5.8272q0-8.5,18.06-14.3643l1.4536,6.6768Q98.75,124.6549,94.7222,128.98t6.455,6.8867q10.4839,2.562,10.4839,9.8057t-5.95,9.9052a44.5709,44.5709,0,0,1-14.9433,3.3008L88.6982,150.97A20.5743,20.5743,0,0,0,101.6455,148.8623Z" transform="translate(-1.8244 -13.2474)"/><path class="cls-1" d="M135.7085,147.0273q-7.3915,2.8828-16.1875-.32a52.925,52.925,0,0,0-1.9956,7.2686l-4.6323-1.8233q6.7264-35.8989,14.081-36.4531t11.1,11.5186a137.4184,137.4184,0,0,1,5.2481,26.1416l-5.8638,2.76A68.9691,68.9691,0,0,0,135.7085,147.0273Zm-14.3149-5.79a34.0807,34.0807,0,0,0,13.4033-.7393q-1.1829-9.7074-4.0039-14.5742-2.8213-4.8646-5.1123.16Q123.3889,131.1112,121.3936,141.2373Z" transform="translate(-1.8244 -13.2474)"/><path class="cls-1" d="M150.3931,116.7705h.542q11.2594.4438,14.6845,7.0713a27.0472,27.0472,0,0,1,2.6114,15.252q-.813,8.6235-7.0215,12.4912T150.27,155.2686q-4.7307-.1846-4.977-8.4141t-1.9961-22.4209Q143.2969,116.771,150.3931,116.7705Zm4.792,7.9951q-6.9852-.9975-5.6665,4.7061a72.5657,72.5657,0,0,1,1.6752,12.5049q.3567,6.8,5.7779,4.1142t5.31-11.5058Q162.17,125.7637,155.1851,124.7656Z" transform="translate(-1.8244 -13.2474)"/><path class="cls-1" d="M191.0957,147.0273q-7.3915,2.8828-16.1875-.32a52.9392,52.9392,0,0,0-1.9956,7.2686l-4.6323-1.8233q6.7265-35.8989,14.081-36.4531t11.1,11.5186a137.4184,137.4184,0,0,1,5.2481,26.1416l-5.8638,2.76A68.9691,68.9691,0,0,0,191.0957,147.0273Zm-14.3149-5.79a34.0807,34.0807,0,0,0,13.4033-.7393q-1.1829-9.7074-4.0039-14.5742-2.8214-4.8646-5.1123.16Q178.7761,131.1112,176.7808,141.2373Z" transform="translate(-1.8244 -13.2474)"/><path class="cls-1" d="M245.2754,140.8555q-7.2686,4.078-12.7871,2.55-.1978,5.6908,3.4985,14.1914l-7.0469,3.5478q-4.3366-22.4941-2.6606-34.8388,1.675-12.3429,17.5918-11.875,8.3767,1.28,8.5249,11.8134T245.2754,140.8555Zm-5.6177-4.0039q7.0225-3.0307,6.7632-9.8682t-6.9478-5.7529q-6.6891,1.0839-7.1206,5.1006a49.2272,49.2272,0,0,0-.0371,9.0419Q232.6355,139.8818,239.6577,136.8516Z" transform="translate(-1.8244 -13.2474)"/><path class="cls-1" d="M261.6353,142.666q1.3549,9.88,12.1962,7.1944l2.316,7.0224q-17.2962,2.439-19.834-9.3135t.1479-19.9941q2.6852-8.2426,9.8677-9.0176t11.8633,3.0176l-3.5479,5.1992q-2.0455-2.168-7.0962-1.7988t-5.8144,10.9394q5.4939-1.97,13.5757.1231l-.5664,6.2334A24.7828,24.7828,0,0,0,261.6353,142.666Z" transform="translate(-1.8244 -13.2474)"/><path class="cls-1" d="M286.52,116.7705h.542q11.26.4438,14.6846,7.0713a27.0464,27.0464,0,0,1,2.6113,15.252q-.813,8.6235-7.0215,12.4912t-10.9394,3.6836q-4.7307-.1846-4.9771-8.4141t-1.9961-22.4209Q279.4238,116.771,286.52,116.7705Zm4.792,7.9951q-6.9851-.9975-5.6665,4.7061a72.5752,72.5752,0,0,1,1.6753,12.5049q.3567,6.8,5.7778,4.1142t5.31-11.5058Q298.2969,125.7637,291.312,124.7656Z" transform="translate(-1.8244 -13.2474)"/><path class="cls-1" d="M327.2227,147.0273q-7.3917,2.8828-16.1875-.32a52.9107,52.9107,0,0,0-1.9956,7.2686l-4.6324-1.8233q6.7266-35.8989,14.0811-36.4531t11.1,11.5186a137.4107,137.4107,0,0,1,5.248,26.1416l-5.8637,2.76A69.0018,69.0018,0,0,0,327.2227,147.0273Zm-14.315-5.79a34.0806,34.0806,0,0,0,13.4033-.7393q-1.1827-9.7074-4.0039-14.5742-2.8212-4.8646-5.1123.16Q314.9031,131.1112,312.9077,141.2373Z" transform="translate(-1.8244 -13.2474)"/><path class="cls-1" d="M357.5938,156.5283a9.8594,9.8594,0,0,1,5.2451,3.4033,6.1579,6.1579,0,0,1,1.1211,3.4434v.12a5.6063,5.6063,0,0,1-2.2422,4.7647,8.84,8.84,0,0,1-5.5254,1.5214,42.5992,42.5992,0,0,1-10.7305-1.9619q-.6006-.1611-.8808-.24l1.2812-4.6846q.44.12.9209.28a56.3047,56.3047,0,0,0,6.9668,1.6016,18.7431,18.7431,0,0,0,2.5225.2,4.24,4.24,0,0,0,2.5224-.5606,1.2111,1.2111,0,0,0,.32-1.001q0-1.2421-2.6025-2.1621a16.21,16.21,0,0,0-4.3643-.8408l-2.3623-.12.16-6.0459q-6.9667-1.2408-10.57-5.2852a11.0859,11.0859,0,0,1-2.6826-5.205,9.76,9.76,0,0,1-.24-2.1221,10.69,10.69,0,0,1,.6407-3.6035q1.6815-5.004,7.6474-8.6485a44.2927,44.2927,0,0,1,15.0947-5.2451l1.5215,8.6885a34.937,34.937,0,0,0-11.8515,4.0039q-3.3633,2.042-4.084,4.084a1.8169,1.8169,0,0,0-.12.6406,2.2211,2.2211,0,0,0,.6406,1.4815q1.8018,2.0024,6.166,2.6025a24.6062,24.6062,0,0,0,3.4834.24,36.5525,36.5525,0,0,0,7.9678-.9609l1.9218,8.6084a44.7036,44.7036,0,0,1-9.97,1.2012,2.4364,2.4364,0,0,1-.4-.04h-.36v1.1612A23.6477,23.6477,0,0,1,357.5938,156.5283Z" transform="translate(-1.8244 -13.2474)"/><path class="cls-1" d="M390.6187,125.7637a19.7758,19.7758,0,0,1,0,23.9248,12.1142,12.1142,0,0,1-19.6119,0,19.7739,19.7739,0,0,1,0-23.9248,12.1142,12.1142,0,0,1,19.6119,0Zm-9.8184,2.76a7.9433,7.9433,0,0,0-5.8516,2.6241,10.18,10.18,0,0,0,0,13.4775,7.8508,7.8508,0,0,0,11.7159,0,10.2167,10.2167,0,0,0,0-13.4775A7.931,7.931,0,0,0,380.8,128.5234Z" transform="translate(-1.8244 -13.2474)"/><path class="cls-1" d="M427.6382,116.7705h.542q11.2595.4438,14.6845,7.0713a27.0456,27.0456,0,0,1,2.6114,15.252q-.813,8.6235-7.0215,12.4912t-10.94,3.6836q-4.7307-.1846-4.977-8.4141t-1.9961-22.4209Q420.542,116.771,427.6382,116.7705Zm4.792,7.9951q-6.9852-.9975-5.6665,4.7061a72.5752,72.5752,0,0,1,1.6753,12.5049q.3567,6.8,5.7778,4.1142t5.31-11.5058Q439.415,125.7637,432.43,124.7656Z" transform="translate(-1.8244 -13.2474)"/><path class="cls-1" d="M471.1616,125.7637a19.7758,19.7758,0,0,1,0,23.9248,12.1141,12.1141,0,0,1-19.6118,0,19.7739,19.7739,0,0,1,0-23.9248,12.1141,12.1141,0,0,1,19.6118,0Zm-9.8183,2.76a7.9433,7.9433,0,0,0-5.8516,2.6241,10.18,10.18,0,0,0,0,13.4775,7.8507,7.8507,0,0,0,11.7158,0,10.2164,10.2164,0,0,0,0-13.4775A7.931,7.931,0,0,0,461.3433,128.5234Z" transform="translate(-1.8244 -13.2474)"/><path class="cls-1" d="M521.7568,140.8555q-7.2685,4.078-12.7871,2.55-.1977,5.6908,3.4986,14.1914l-7.0469,3.5478q-4.3367-22.4941-2.6607-34.8388,1.6751-12.3429,17.5918-11.875,8.3768,1.28,8.5249,11.8134T521.7568,140.8555Zm-5.6176-4.0039q7.0224-3.0307,6.7631-9.8682t-6.9477-5.7529q-6.6893,1.0839-7.1206,5.1006a49.2272,49.2272,0,0,0-.0371,9.0419Q509.117,139.8818,516.1392,136.8516Z" transform="translate(-1.8244 -13.2474)"/><path class="cls-1" d="M549.6475,147.0273q-7.3917,2.8828-16.1875-.32a52.9107,52.9107,0,0,0-1.9956,7.2686l-4.6324-1.8233q6.7266-35.8989,14.0811-36.4531t11.1,11.5186a137.4107,137.4107,0,0,1,5.248,26.1416l-5.8637,2.76A69.0018,69.0018,0,0,0,549.6475,147.0273Zm-14.315-5.79a34.0806,34.0806,0,0,0,13.4033-.7393q-1.1828-9.7074-4.0039-14.5742-2.8212-4.8646-5.1123.16Q537.3279,131.1112,535.3325,141.2373Z" transform="translate(-1.8244 -13.2474)"/><path class="cls-1" d="M558.9116,126.3057q1.675-12.3429,17.5918-11.875,8.3767,1.28,9.5352,11.6045T575.05,141.3105q8.9677,4.4855,12.4668,7.9834l-3.5234,5.7657a88.8979,88.8979,0,0,0-18.8726-11.6543q-.1977,5.6908,3.4985,14.1914l-7.0468,3.5478Q557.2357,138.65,558.9116,126.3057Zm6.0733.0254a49.8554,49.8554,0,0,0-.0494,9.0419q.3816,5.0259,7.3794,1.7374,6.9969-3.29,6.7383-10.127t-6.9477-5.7529Q565.4163,122.3144,564.9849,126.3311Z" transform="translate(-1.8244 -13.2474)"/><path class="cls-1" d="M611.564,147.0273q-7.3917,2.8828-16.1875-.32a52.9107,52.9107,0,0,0-1.9956,7.2686l-4.6324-1.8233q6.7266-35.8989,14.0811-36.4531t11.1,11.5186a137.4107,137.4107,0,0,1,5.248,26.1416l-5.8637,2.76A69.0018,69.0018,0,0,0,611.564,147.0273Zm-14.315-5.79a34.0806,34.0806,0,0,0,13.4033-.7393q-1.1827-9.7074-4.0039-14.5742-2.8212-4.8646-5.1123.16Q599.2444,131.1112,597.249,141.2373Z" transform="translate(-1.8244 -13.2474)"/><path class="cls-1" d="M629.28,135.9648q-.4535,10.5074-1.1328,20.8438l-7.25.68q.3962-4.4179.3964-8.9776a108.3255,108.3255,0,0,0-.623-11.498ZM624.126,131.66l6.5161-7.7061-6.5161-1.583-2.7754,8.5527Z" transform="translate(-1.8244 -13.2474)"/><path class="cls-1" d="M645.2109,148.8623q6.2461-3.19-2.3159-6.0977T632.5962,137.11a10.72,10.72,0,0,1-1.7373-5.8272q0-8.5,18.06-14.3643l1.4537,6.6768q-8.0567,1.0592-12.085,5.3838t6.4551,6.8867q10.4838,2.562,10.4839,9.8057t-5.95,9.9052a44.5715,44.5715,0,0,1-14.9434,3.3008l-2.0693-7.9082A20.5739,20.5739,0,0,0,645.2109,148.8623Z" transform="translate(-1.8244 -13.2474)"/><path class="cls-1" d="M680.0986,125.7637a19.7755,19.7755,0,0,1,0,23.9248,12.1141,12.1141,0,0,1-19.6118,0,19.7739,19.7739,0,0,1,0-23.9248,12.1141,12.1141,0,0,1,19.6118,0Zm-9.8183,2.76a7.9433,7.9433,0,0,0-5.8516,2.6241,10.18,10.18,0,0,0,0,13.4775,7.8507,7.8507,0,0,0,11.7158,0,10.2164,10.2164,0,0,0,0-13.4775A7.931,7.931,0,0,0,670.28,128.5234Z" transform="translate(-1.8244 -13.2474)"/><path class="cls-2" d="M19.5386,193.1113l-.124-5.1074a27.5457,27.5457,0,0,1,13.2133.7656l-1.0957,4.7559A44.54,44.54,0,0,0,19.5386,193.1113Z" transform="translate(-1.8244 -13.2474)"/><path class="cls-2" d="M74.2021,181.5732a16.5953,16.5953,0,0,1,0,20.0782,10.1659,10.1659,0,0,1-16.46,0,16.5953,16.5953,0,0,1,0-20.0782,10.1659,10.1659,0,0,1,16.46,0Zm-8.24,2.3155a6.6663,6.6663,0,0,0-4.9111,2.2021,8.5431,8.5431,0,0,0,0,11.3115,6.5887,6.5887,0,0,0,9.8325,0,8.5741,8.5741,0,0,0,0-11.3115A6.6559,6.6559,0,0,0,65.9619,183.8887Z" transform="translate(-1.8244 -13.2474)"/><path class="cls-2" d="M99.0576,203.9365q-4.87,1.2935-8.0747-10.7422T86.34,185.0264a23.6733,23.6733,0,0,0-1.437,8.3125,19.291,19.291,0,0,0,2.1094,8.6855l-5.3765,1.8194q-3.02-14.3922,0-20.6368t6.2759-5.9658q3.2571.2784,6.69,9.0049,3.8254,16.626,4.9213,6.7314t1.0342-11.1562l4.4458.6406Q103.9277,202.6445,99.0576,203.9365Z" transform="translate(-1.8244 -13.2474)"/><path class="cls-2" d="M111.9922,174.0254h.4551q9.45.372,12.3242,5.9346a22.7026,22.7026,0,0,1,2.1924,12.8q-.6826,7.2378-5.8936,10.4843t-9.1811,3.0918q-3.9705-.1552-4.1773-7.0625-.2065-6.9052-1.6748-18.8173Q106.0371,174.0253,111.9922,174.0254Zm4.022,6.71q-5.8623-.8379-4.7559,3.95a60.91,60.91,0,0,1,1.4063,10.4942q.3,5.7071,4.8491,3.4531t4.456-9.6572Q121.8767,181.5737,116.0142,180.7354Z" transform="translate(-1.8244 -13.2474)"/><path class="cls-2" d="M135.2759,195.7588q1.1374,8.2925,10.2358,6.0381l1.9439,5.8935q-14.516,2.0464-16.646-7.8174t.124-16.78q2.2536-6.9171,8.2817-7.5684t9.9566,2.5332l-2.9776,4.3633q-1.7167-1.8193-5.9555-1.51t-4.88,9.1817q4.6105-1.6539,11.3935.1035l-.4755,5.2314A20.7935,20.7935,0,0,0,135.2759,195.7588Z" transform="translate(-1.8244 -13.2474)"/><path class="cls-2" d="M201.3232,192.4189a33.5781,33.5781,0,0,1-1.0546,11.28l-5.7281-2.5644q2.3577-8.1885.7862-12.9649t-4.27-.042q-2.6984,4.736-5.2833,4.7354-2.5641,0-4.6113-4.7871t-3.1743,1.1582q-1.1273,5.9457,1.7681,19.9443l-6.3067,2.2129q-2.5437-16.4195-.393-24.5459t5.5107-9.2432q3.36-1.1162,7.6,9.3887,5.2728-8.2719,8.085-8.2715t4.7148,4.1143A28.3285,28.3285,0,0,1,201.3232,192.4189Z" transform="translate(-1.8244 -13.2474)"/><path class="cls-2" d="M222.6533,181.5732a16.5953,16.5953,0,0,1,0,20.0782,10.1659,10.1659,0,0,1-16.46,0,16.5953,16.5953,0,0,1,0-20.0782,10.1659,10.1659,0,0,1,16.46,0Zm-8.24,2.3155a6.6662,6.6662,0,0,0-4.9111,2.2021,8.5431,8.5431,0,0,0,0,11.3115,6.5887,6.5887,0,0,0,9.8325,0,8.5741,8.5741,0,0,0,0-11.3115A6.656,6.656,0,0,0,214.4131,183.8887Z" transform="translate(-1.8244 -13.2474)"/><path class="cls-2" d="M228.4746,182.0283q1.4055-10.3608,14.7642-9.9678,7.0305,1.0752,8.0024,9.74t-9.2222,12.82q7.5264,3.7632,10.4629,6.7l-2.957,4.8389a74.5745,74.5745,0,0,0-15.8394-9.7813q-.1662,4.7769,2.9361,11.9111l-5.9141,2.9776Q227.0681,192.3886,228.4746,182.0283Zm5.0972.02a41.8108,41.8108,0,0,0-.0415,7.5889q.32,4.2188,6.1933,1.458t5.6553-8.499q-.2167-5.7378-5.831-4.8281T233.5718,182.0488Z" transform="translate(-1.8244 -13.2474)"/><path class="cls-2" d="M272.6641,199.4189q-6.203,2.4185-13.5855-.2695a44.4812,44.4812,0,0,0-1.6753,6.1006l-3.8872-1.53q5.6448-30.1288,11.8179-30.5937t9.3154,9.667a115.3594,115.3594,0,0,1,4.4048,21.94l-4.9219,2.3154A57.7179,57.7179,0,0,0,272.6641,199.4189ZM260.65,194.56a28.6105,28.6105,0,0,0,11.25-.6211q-.9932-8.1461-3.36-12.2315-2.3681-4.0824-4.2911.1348A60.9607,60.9607,0,0,0,260.65,194.56Z" transform="translate(-1.8244 -13.2474)"/><path class="cls-2" d="M319.9351,199.4189q-6.2029,2.4185-13.5855-.2695a44.4669,44.4669,0,0,0-1.6753,6.1006l-3.8872-1.53q5.6448-30.1288,11.8179-30.5937t9.3154,9.667a115.3594,115.3594,0,0,1,4.4048,21.94l-4.9219,2.3154A57.7341,57.7341,0,0,0,319.9351,199.4189ZM307.9209,194.56a28.6105,28.6105,0,0,0,11.2495-.6211q-.9931-8.1461-3.36-12.2315-2.368-4.0824-4.2911.1348A60.9607,60.9607,0,0,0,307.9209,194.56Z" transform="translate(-1.8244 -13.2474)"/><path class="cls-2" d="M354.0137,174.0254h.4551q9.45.372,12.3242,5.9346a22.7034,22.7034,0,0,1,2.1924,12.8q-.6827,7.2378-5.8936,10.4843t-9.1812,3.0918q-3.97-.1552-4.1772-7.0625-.2065-6.9052-1.6748-18.8173Q348.0586,174.0253,354.0137,174.0254Zm4.0219,6.71q-5.8623-.8379-4.7558,3.95A60.91,60.91,0,0,1,354.686,195.18q.3,5.7071,4.8492,3.4531t4.456-9.6572Q363.8982,181.5737,358.0356,180.7354Z" transform="translate(-1.8244 -13.2474)"/><path class="cls-2" d="M390.542,181.5732a16.5953,16.5953,0,0,1,0,20.0782,10.166,10.166,0,0,1-16.46,0,16.5957,16.5957,0,0,1,0-20.0782,10.166,10.166,0,0,1,16.46,0Zm-8.24,2.3155a6.6666,6.6666,0,0,0-4.9112,2.2021,8.5434,8.5434,0,0,0,0,11.3115,6.5887,6.5887,0,0,0,9.8325,0,8.5741,8.5741,0,0,0,0-11.3115A6.6558,6.6558,0,0,0,382.3018,183.8887Z" transform="translate(-1.8244 -13.2474)"/><path class="cls-2" d="M415.3975,203.9365q-4.87,1.2935-8.0747-10.7422t-4.6426-8.1679a23.6733,23.6733,0,0,0-1.437,8.3125,19.2921,19.2921,0,0,0,2.1093,8.6855l-5.3764,1.8194q-3.02-14.3922,0-20.6368t6.2759-5.9658q3.2569.2784,6.6894,9.0049,3.8254,16.626,4.9214,6.7314t1.0342-11.1562l4.4458.6406Q420.2676,202.6445,415.3975,203.9365Z" transform="translate(-1.8244 -13.2474)"/><path class="cls-2" d="M439.6226,199.4189q-6.2029,2.4185-13.5855-.2695a44.4669,44.4669,0,0,0-1.6753,6.1006l-3.8872-1.53q5.6448-30.1288,11.8179-30.5937t9.3154,9.667a115.3594,115.3594,0,0,1,4.4048,21.94l-4.9219,2.3154A57.7179,57.7179,0,0,0,439.6226,199.4189ZM427.6084,194.56a28.6105,28.6105,0,0,0,11.2495-.6211q-.9931-8.1461-3.36-12.2315-2.368-4.0824-4.2911.1348A60.9607,60.9607,0,0,0,427.6084,194.56Z" transform="translate(-1.8244 -13.2474)"/><path class="cls-2" d="M481.166,192.6777l.7652,5.9756a11.9969,11.9969,0,0,1-8.0235.6621,27.0519,27.0519,0,0,0,3.4121,11.2491l-5.749,2.3984a72.1126,72.1126,0,0,1-3.66-23.8008,15.3573,15.3573,0,0,1,3.4839-10.3291q3.485-4.0839,14.2373-3.8975l-2.833,6.4307q-11.001-1.9233-9.4087,11.9522A10.0787,10.0787,0,0,0,481.166,192.6777Z" transform="translate(-1.8244 -13.2474)"/><path class="cls-2" d="M489.437,195.7588q1.1374,8.2925,10.2359,6.0381l1.9438,5.8935q-14.5158,2.0464-16.646-7.8174t.124-16.78q2.2537-6.9171,8.2818-7.5684t9.9565,2.5332l-2.9775,4.3633q-1.7169-1.8193-5.9556-1.51t-4.88,9.1817q4.6107-1.6539,11.3936.1035l-.4756,5.2314A20.7936,20.7936,0,0,0,489.437,195.7588Z" transform="translate(-1.8244 -13.2474)"/><path class="cls-2" d="M509.2681,206.1182q-6.7617-.2886-6.545-8.9121a61.3026,61.3026,0,0,1,2.6988-16.6465l5.9345,1.3652q-4.7145,16.8531-1.22,18.2178,5.5211-1.4062,5.666-1.4483l.5166,6.1836A41.4007,41.4007,0,0,1,509.2681,206.1182Z" transform="translate(-1.8244 -13.2474)"/><path class="cls-2" d="M522.0269,211.6807l-5.7281-2.295q5.9136-10.7534,3.8667-24.6494l4.7354-.7236A50.2773,50.2773,0,0,1,522.0269,211.6807Zm4.2387-34.2852a4.8406,4.8406,0,0,1-1.3545,3.1748,4.8682,4.8682,0,0,1-7.144,0,4.8572,4.8572,0,0,1-1.3442-3.1748,4.8029,4.8029,0,0,1,1.3442-3.1738,4.9124,4.9124,0,0,1,7.144,0A4.7866,4.7866,0,0,1,526.2656,177.3955Z" transform="translate(-1.8244 -13.2474)"/><path class="cls-2" d="M536.1709,206.2734q-7.7754-1.2508-7.4854-10.3808t5.49-13.751a13.6554,13.6554,0,0,1,11.4043-3.7324l-1.2612,5.666a7.3727,7.3727,0,0,0-7.93,3.3291,11.98,11.98,0,0,0-2.2749,8.81q.6723,4.5689,4.87,4.5283a23.3707,23.3707,0,0,0,9.3052-2.3574l1.1992,5.8935Q543.9463,207.5245,536.1709,206.2734Z" transform="translate(-1.8244 -13.2474)"/><path class="cls-2" d="M555.0918,211.6807l-5.728-2.295q5.9136-10.7534,3.8667-24.6494l4.7353-.7236A50.2773,50.2773,0,0,1,555.0918,211.6807Zm4.2388-34.2852a4.8411,4.8411,0,0,1-1.3545,3.1748,4.8683,4.8683,0,0,1-7.1441,0,4.8572,4.8572,0,0,1-1.3442-3.1748,4.8029,4.8029,0,0,1,1.3442-3.1738,4.9125,4.9125,0,0,1,7.1441,0A4.787,4.787,0,0,1,559.3306,177.3955Z" transform="translate(-1.8244 -13.2474)"/><path class="cls-2" d="M567.416,174.0254h.4551q9.45.372,12.3242,5.9346a22.7026,22.7026,0,0,1,2.1924,12.8q-.6826,7.2378-5.8936,10.4843t-9.1811,3.0918q-3.97-.1552-4.1773-7.0625-.2065-6.9052-1.6748-18.8173Q561.4609,174.0253,567.416,174.0254Zm4.022,6.71q-5.8623-.8379-4.7559,3.95a60.91,60.91,0,0,1,1.4063,10.4942q.3,5.7071,4.8491,3.4531t4.4561-9.6572Q577.3,181.5737,571.438,180.7354Z" transform="translate(-1.8244 -13.2474)"/><path class="cls-2" d="M601.5767,199.4189q-6.2029,2.4185-13.5855-.2695a44.4812,44.4812,0,0,0-1.6753,6.1006l-3.8872-1.53q5.6448-30.1288,11.8179-30.5937t9.3154,9.667a115.3594,115.3594,0,0,1,4.4048,21.94l-4.9219,2.3154A57.7179,57.7179,0,0,0,601.5767,199.4189ZM589.5625,194.56a28.6105,28.6105,0,0,0,11.25-.6211q-.9932-8.1461-3.36-12.2315-2.368-4.0824-4.2911.1348A60.9607,60.9607,0,0,0,589.5625,194.56Z" transform="translate(-1.8244 -13.2474)"/><path class="cls-2" d="M613.9014,174.0254h.455q9.45.372,12.3243,5.9346a22.7026,22.7026,0,0,1,2.1923,12.8q-.6825,7.2378-5.8935,10.4843t-9.1812,3.0918q-3.97-.1552-4.1772-7.0625-.2065-6.9052-1.6748-18.8173Q607.9463,174.0253,613.9014,174.0254Zm4.0219,6.71q-5.8623-.8379-4.7558,3.95a60.91,60.91,0,0,1,1.4062,10.4942q.3,5.7071,4.8492,3.4531t4.456-9.6572Q623.7859,181.5737,617.9233,180.7354Z" transform="translate(-1.8244 -13.2474)"/><path class="cls-2" d="M637.1851,195.7588q1.1374,8.2925,10.2358,6.0381l1.9438,5.8935q-14.5158,2.0464-16.6459-7.8174t.124-16.78q2.2536-6.9171,8.2817-7.5684t9.9566,2.5332l-2.9776,4.3633q-1.7168-1.8193-5.9556-1.51t-4.88,9.1817q4.6106-1.6539,11.3935.1035l-.4756,5.2314A20.7932,20.7932,0,0,0,637.1851,195.7588Z" transform="translate(-1.8244 -13.2474)"/><path class="cls-2" d="M672.9385,193.1113l-.124-5.1074a27.5457,27.5457,0,0,1,13.2133.7656l-1.0957,4.7559A44.54,44.54,0,0,0,672.9385,193.1113Z" transform="translate(-1.8244 -13.2474)"/><path class="cls-1" d="M62.1973,231.9072q4.9321,1.2715,7.1963,8.0752t-2.3882,13.2344q8.0435,4.1982,7.7544,9.76-.29,5.5633-6.917,8.3545a28.7433,28.7433,0,0,1-12.211,2.5742q-5.5831-.2169-5.769-17.1944,0-19.6845,3.7012-22.8808A9.0313,9.0313,0,0,1,62.1973,231.9072Zm-7.3511,20.0479q10.4838-.6607,9.9775-7.2061t-4.3325-7.4961q-3.8254-.9507-4.88,2.9571T54.8462,251.9551Zm.2275,4.6318q.1443,7.0928,1.52,9.3985t7.63.5791q6.2548-1.7256,3.6084-6.5235T55.0737,256.5869Z" transform="translate(-1.8244 -13.2474)"/><path class="cls-1" d="M95.231,261.8193q-6.203,2.4185-13.5855-.2695A44.4669,44.4669,0,0,0,79.97,267.65l-3.8872-1.53q5.6448-30.1288,11.8179-30.5937t9.3154,9.667a115.3578,115.3578,0,0,1,4.4048,21.94l-4.9219,2.3154A57.7341,57.7341,0,0,0,95.231,261.8193ZM83.2168,256.96a28.6105,28.6105,0,0,0,11.2495-.6211q-.9932-8.1461-3.36-12.2315-2.368-4.0825-4.2911.1348A60.9588,60.9588,0,0,0,83.2168,256.96Z" transform="translate(-1.8244 -13.2474)"/><path class="cls-1" d="M103.0068,244.4287q1.4055-10.3608,14.7642-9.9678,7.0305,1.0752,8.0024,9.74t-9.2221,12.82q7.5263,3.7632,10.4629,6.7l-2.9571,4.8388a74.5776,74.5776,0,0,0-15.8393-9.7812q-.1664,4.7769,2.936,11.9111L105.24,273.668Q101.6,254.789,103.0068,244.4287Zm5.0972.02a41.8108,41.8108,0,0,0-.0415,7.5889q.32,4.2188,6.1934,1.458t5.6552-8.499q-.2168-5.7378-5.831-4.8282T108.104,244.4492Z" transform="translate(-1.8244 -13.2474)"/><path class="cls-1" d="M129.4546,244.4287q1.4055-10.3608,14.7642-9.9678,7.0305,1.0752,8.0024,9.74t-9.2222,12.82q7.5264,3.7632,10.4629,6.7l-2.957,4.8388a74.5809,74.5809,0,0,0-15.8394-9.7812q-.1662,4.7769,2.9361,11.9111l-5.9141,2.9776Q128.0481,254.789,129.4546,244.4287Zm5.0972.02a41.8108,41.8108,0,0,0-.0415,7.5889q.32,4.2188,6.1933,1.458t5.6553-8.499q-.2167-5.7378-5.8311-4.8282T134.5518,244.4492Z" transform="translate(-1.8244 -13.2474)"/><path class="cls-1" d="M173.644,261.8193q-6.2028,2.4185-13.5854-.2695a44.4669,44.4669,0,0,0-1.6753,6.1006l-3.8872-1.53q5.6448-30.1288,11.8179-30.5937t9.3154,9.667a115.3578,115.3578,0,0,1,4.4048,21.94l-4.9219,2.3154A57.717,57.717,0,0,0,173.644,261.8193ZM161.63,256.96a28.6107,28.6107,0,0,0,11.25-.6211q-.9932-8.1461-3.36-12.2315-2.3679-4.0825-4.291.1348A60.9588,60.9588,0,0,0,161.63,256.96Z" transform="translate(-1.8244 -13.2474)"/><path class="cls-1" d="M221.8872,259.2031q1.5922,9.2945-9.2642,8.7578t-10.5664-9.6679q.2894-9.129,5.49-13.751a13.6554,13.6554,0,0,1,11.4043-3.7324l-1.2612,5.666a7.3725,7.3725,0,0,0-7.93,3.3291,13.7235,13.7235,0,0,0-2.6778,8.7988q.2682,4.56,5.8726,4.7559t4.5283-3.4121q-1.0752-3.608-5.3139-1.4366l-1.3028-4.9834Q220.295,249.9078,221.8872,259.2031Z" transform="translate(-1.8244 -13.2474)"/><path class="cls-1" d="M224.1416,244.4287q1.4055-10.3608,14.7642-9.9678,7.0305,1.0752,8.0024,9.74t-9.2222,12.82q7.5264,3.7632,10.4629,6.7l-2.957,4.8388a74.5809,74.5809,0,0,0-15.8394-9.7812q-.1662,4.7769,2.9361,11.9111l-5.9141,2.9776Q222.7351,254.789,224.1416,244.4287Zm5.0972.02a41.8108,41.8108,0,0,0-.0415,7.5889q.32,4.2188,6.1933,1.458t5.6553-8.499q-.2167-5.7378-5.8311-4.8282T229.2388,244.4492Z" transform="translate(-1.8244 -13.2474)"/><path class="cls-1" d="M268.3311,261.8193q-6.2029,2.4185-13.5855-.2695A44.4669,44.4669,0,0,0,253.07,267.65l-3.8872-1.53q5.6448-30.1288,11.8179-30.5937t9.3154,9.667a115.3578,115.3578,0,0,1,4.4048,21.94l-4.9219,2.3154A57.7341,57.7341,0,0,0,268.3311,261.8193ZM256.3169,256.96a28.6105,28.6105,0,0,0,11.25-.6211q-.9932-8.1461-3.36-12.2315-2.368-4.0825-4.2911.1348A60.9588,60.9588,0,0,0,256.3169,256.96Z" transform="translate(-1.8244 -13.2474)"/><path class="cls-1" d="M294.5,266.3369q-4.87,1.2935-8.0747-10.7422t-4.6426-8.1679a23.6733,23.6733,0,0,0-1.437,8.3125,19.291,19.291,0,0,0,2.1094,8.6855l-5.3765,1.8193q-3.02-14.392,0-20.6367t6.2759-5.9658q3.2571.2782,6.6894,9.0049,3.8254,16.626,4.9214,6.7314T296,244.2217l4.4458.6406Q299.37,265.045,294.5,266.3369Z" transform="translate(-1.8244 -13.2474)"/><path class="cls-1" d="M307.4341,236.4258h.4551q9.45.372,12.3242,5.9346a22.7026,22.7026,0,0,1,2.1924,12.8q-.6827,7.2378-5.8936,10.4843t-9.1811,3.0918q-3.9705-.1553-4.1773-7.0625-.2065-6.9053-1.6748-18.8174Q301.479,236.4258,307.4341,236.4258Zm4.022,6.71q-5.8623-.8379-4.7559,3.95a60.9086,60.9086,0,0,1,1.4062,10.4942q.3,5.707,4.8492,3.4531t4.456-9.6572Q317.3186,243.9741,311.4561,243.1357Z" transform="translate(-1.8244 -13.2474)"/><path class="cls-1" d="M330.7183,258.1592q1.1375,8.2924,10.2358,6.0381l1.9438,5.8935q-14.5158,2.0464-16.6459-7.8174t.124-16.78q2.2536-6.9171,8.2817-7.5684t9.9566,2.5332l-2.9776,4.3633q-1.7167-1.8194-5.9555-1.51t-4.88,9.1817q4.6105-1.6539,11.3935.1035l-.4756,5.2314A20.7932,20.7932,0,0,0,330.7183,258.1592Z" transform="translate(-1.8244 -13.2474)"/><path class="cls-1" d="M366.3477,271.8066l1.3232-9.2841,6.5552-.125-3.3911,10.2158Z" transform="translate(-1.8244 -13.2474)"/><path class="cls-1" d="M413.3081,256.6387q-6.1,3.4233-10.7319,2.1406-.1663,4.7769,2.936,11.9111l-5.9141,2.9776q-3.6393-18.879-2.2329-29.2393t14.7642-9.9678q7.0305,1.0752,7.1548,9.9161Q419.4087,253.2158,413.3081,256.6387Zm-4.7148-3.36q5.8938-2.543,5.6762-8.2812t-5.831-4.8282q-5.6148.91-5.9761,4.28a41.26,41.26,0,0,0-.0312,7.5889Q402.7,255.8217,408.5933,253.2783Z" transform="translate(-1.8244 -13.2474)"/><path class="cls-1" d="M426.17,274.0811l-5.728-2.295q5.9136-10.7533,3.8667-24.6494l4.7353-.7236A50.2755,50.2755,0,0,1,426.17,274.0811Zm4.2388-34.2852a4.8411,4.8411,0,0,1-1.3545,3.1748,4.8685,4.8685,0,0,1-7.1441,0,4.8577,4.8577,0,0,1-1.3442-3.1748,4.8034,4.8034,0,0,1,1.3442-3.1738,4.9125,4.9125,0,0,1,7.1441,0A4.787,4.787,0,0,1,430.4092,239.7959Z" transform="translate(-1.8244 -13.2474)"/><path class="cls-1" d="M450.1367,261.8193q-6.2028,2.4185-13.5854-.2695a44.4669,44.4669,0,0,0-1.6753,6.1006l-3.8872-1.53q5.6448-30.1288,11.8178-30.5937t9.3155,9.667a115.3656,115.3656,0,0,1,4.4048,21.94l-4.9219,2.3154A57.717,57.717,0,0,0,450.1367,261.8193ZM438.1226,256.96a28.6107,28.6107,0,0,0,11.25-.6211q-.9932-8.1461-3.36-12.2315-2.3679-4.0825-4.291.1348A60.9588,60.9588,0,0,0,438.1226,256.96Z" transform="translate(-1.8244 -13.2474)"/><path class="cls-1" d="M474.1758,269.0361q-6.3589,3.5978-11.28-.4756t-5.1284-11.3525a33.3814,33.3814,0,0,1,1.7163-12.49l4.6943,1.5508q-4.57,16.544,3.6392,17.7626,8.2091,1.22,7.0308-15.1982l5.6865-1.4892Q480.5342,265.4374,474.1758,269.0361Z" transform="translate(-1.8244 -13.2474)"/><path class="cls-1" d="M489.5571,251.3408q-.4065,9.42-1.0156,18.6875l-6.5.6094q.3552-3.9609.3555-8.0488a97.1376,97.1376,0,0,0-.5586-10.3086Zm-4.6211-3.8594,5.8423-6.9091-5.8423-1.419-2.4882,7.668Z" transform="translate(-1.8244 -13.2474)"/><path class="cls-1" d="M511.6367,271.8066l1.3233-9.2841,6.5551-.125-3.3911,10.2158Z" transform="translate(-1.8244 -13.2474)"/><path class="cls-1" d="M553.5825,231.9072q4.9321,1.2715,7.1963,8.0752t-2.3882,13.2344q8.0435,4.1982,7.7544,9.76-.29,5.5633-6.917,8.3545a28.7426,28.7426,0,0,1-12.2109,2.5742q-5.5833-.2169-5.7691-17.1944,0-19.6845,3.7012-22.8808A9.0313,9.0313,0,0,1,553.5825,231.9072Zm-7.3511,20.0479q10.4839-.6607,9.9776-7.2061t-4.3325-7.4961q-3.8254-.9507-4.88,2.9571T546.2314,251.9551Zm.2276,4.6318q.1443,7.0928,1.52,9.3985t7.63.5791q6.2549-1.7256,3.6084-6.5235T546.459,256.5869Z" transform="translate(-1.8244 -13.2474)"/><path class="cls-1" d="M568.875,244.4287q1.4055-10.3608,14.7642-9.9678,7.03,1.0752,8.0024,9.74t-9.2222,12.82q7.5264,3.7632,10.4629,6.7l-2.957,4.8388a74.5809,74.5809,0,0,0-15.8394-9.7812q-.1662,4.7769,2.9361,11.9111l-5.9141,2.9776Q567.4685,254.789,568.875,244.4287Zm5.0972.02a41.8108,41.8108,0,0,0-.0415,7.5889q.32,4.2188,6.1933,1.458t5.6553-8.499q-.2167-5.7378-5.8311-4.8282T573.9722,244.4492Z" transform="translate(-1.8244 -13.2474)"/><path class="cls-1" d="M613.0645,261.8193q-6.2029,2.4185-13.5855-.2695a44.4669,44.4669,0,0,0-1.6753,6.1006l-3.8872-1.53q5.6448-30.1288,11.8179-30.5937t9.3154,9.667a115.3578,115.3578,0,0,1,4.4048,21.94l-4.9219,2.3154A57.7341,57.7341,0,0,0,613.0645,261.8193ZM601.05,256.96a28.6105,28.6105,0,0,0,11.25-.6211q-.9932-8.1461-3.36-12.2315-2.368-4.0825-4.2911.1348A60.9588,60.9588,0,0,0,601.05,256.96Z" transform="translate(-1.8244 -13.2474)"/><path class="cls-1" d="M632.5332,263.3594q5.2419-2.6778-1.9434-5.1182t-8.644-4.7451a9,9,0,0,1-1.4575-4.8906q0-7.1338,15.1572-12.0557l1.22,5.6035q-6.7624.8892-10.143,4.5186t5.4179,5.7793q8.798,2.1518,8.7989,8.23t-4.9942,8.3125a37.4142,37.4142,0,0,1-12.5415,2.7715l-1.7368-6.6377A17.2721,17.2721,0,0,0,632.5332,263.3594Z" transform="translate(-1.8244 -13.2474)"/><path class="cls-1" d="M645.22,274.0811l-5.728-2.295q5.9136-10.7533,3.8667-24.6494l4.7353-.7236A50.2755,50.2755,0,0,1,645.22,274.0811Zm4.2388-34.2852a4.8411,4.8411,0,0,1-1.3545,3.1748,4.8685,4.8685,0,0,1-7.1441,0,4.8577,4.8577,0,0,1-1.3442-3.1748,4.8034,4.8034,0,0,1,1.3442-3.1738,4.9125,4.9125,0,0,1,7.1441,0A4.787,4.787,0,0,1,649.459,239.7959Z" transform="translate(-1.8244 -13.2474)"/><path class="cls-1" d="M658.3506,268.5186q-6.7617-.2886-6.5449-8.9122a61.2986,61.2986,0,0,1,2.6987-16.6464l5.9346,1.3652q-4.7147,16.8529-1.22,18.2178,5.5211-1.4062,5.6661-1.4483l.5166,6.1836A41.4029,41.4029,0,0,1,658.3506,268.5186Z" transform="translate(-1.8244 -13.2474)"/><path class="cls-1" d="M676.2788,264.2383a4.8387,4.8387,0,0,1-1.3545,3.1738,4.8669,4.8669,0,0,1-7.1445,0,4.8568,4.8568,0,0,1-1.3438-3.1738,4.8048,4.8048,0,0,1,1.3438-3.1738,4.9108,4.9108,0,0,1,7.1445,0A4.787,4.787,0,0,1,676.2788,264.2383Z" transform="translate(-1.8244 -13.2474)"/></g></g></svg>