<svg xmlns="http://www.w3.org/2000/svg" xmlns:xlink="http://www.w3.org/1999/xlink" viewBox="0 0 2201.72 2646.54"><defs><style>.cls-1{fill:#278fa0;}.cls-2{fill:url(#Gradiente_sem_nome_18);}.cls-3{fill:#204a66;}</style><radialGradient id="Gradiente_sem_nome_18" cx="325.6" cy="434.08" r="622.6" gradientUnits="userSpaceOnUse"><stop offset="0.01" stop-color="#f9d232"/><stop offset="0.28" stop-color="#f9cf31"/><stop offset="0.48" stop-color="#f8c530"/><stop offset="0.66" stop-color="#f6b52d"/><stop offset="0.71" stop-color="#f5b02c"/><stop offset="0.86" stop-color="#f2a227"/><stop offset="0.98" stop-color="#f09423"/></radialGradient></defs><g id="Camada_2" data-name="Camada 2"><g id="Camada_1-2" data-name="Camada 1"><path class="cls-1" d="M797.23,998.53c9.59,0,19.17,0,28.76,0,9,.05,17.88.29,26.75,1.87a108.28,108.28,0,0,0,13.36,1.13c6.39.32,12.78.55,19.17.64,10.89.15,21.71.77,32.32,3.46,17.13,2.1,34.18,4.81,51.12,8,23.85,4.46,47.81,8.49,71.09,15.6,4.88,1.49,9.92,2.44,14.87,3.71,3.09.8,6.21,1.54,9.19,2.63a105.82,105.82,0,0,0,20.29,5.62,29.89,29.89,0,0,1,7.31,2.25c7.58,3.39,15.84,5.07,23.14,9.18a19.75,19.75,0,0,0,5.38,2c11.33,2.43,21.82,7.2,32.52,11.42,4.75,1.87,9.56,3.61,14.34,5.41,1.79.68,3.66,1.18,5.37,2,12.6,6.24,25.65,11.49,38.35,17.51,6.92,3.28,13.57,7.11,20.42,10.57,17.11,8.65,33.92,17.85,50.57,27.35,5.57,3.17,10.87,6.7,16.19,10.25,6.37,4.25,12.86,8.35,19.48,12.2s13.08,8,19.32,12.44c8.85,6.31,17.61,12.74,26.41,19.11,5.7,4.11,11.48,8.11,16.53,13.06a50.77,50.77,0,0,0,7.4,6.09c17.1,11.36,32.53,24.74,47.42,38.8.93.88,1.86,1.76,2.86,2.55,18.61,14.73,34.71,32.11,51.5,48.75a168.18,168.18,0,0,1,12.47,14.54c2.38,3,5.6,5.23,7.23,8.77.15.33-.26,1.16-.65,1.42a2.39,2.39,0,0,1-1.75.34c-9.27-2.4-18.52-4.85-27.78-7.28-1.23-.33-2.46-.71-3.72-.92-13.88-2.28-27.55-5.54-41.29-8.5a92.13,92.13,0,0,0-15.23-1.61,134.75,134.75,0,0,1-22.76-2.83c-10-2.19-20.17-3.28-30.27-4.79a19.92,19.92,0,0,1-8.84-3.44c-3.12-2.23-6.36-4.33-9.25-6.83-21.34-18.41-44.37-34.52-67.72-50.21-15.93-10.7-32.12-20.93-48.89-30.26-.56-.31-1.14-.57-1.68-.91-5.45-3.33-10.61-7.3-16.39-9.88-17.5-7.84-34.1-17.52-51.82-24.91-8.25-3.44-16.28-7.41-24.52-10.89-11.16-4.73-22.29-9.57-33.79-13.48-4.23-1.44-8.45-2.93-12.58-4.65-7.68-3.21-15.58-5.76-23.52-8.2-4.88-1.51-9.77-2.94-14.56-4.75a70.9,70.9,0,0,0-12.87-3.73,81.78,81.78,0,0,1-14.71-4.16,90.86,90.86,0,0,0-16.63-4.46c-6.91-1.16-13.73-3-20.53-4.7a412.27,412.27,0,0,0-54.54-10.47c-8.87-1-17.67-2.75-26.43-4.5a138.44,138.44,0,0,0-24.77-2.43c-6.4-.12-12.79-.18-19.18-.5a144,144,0,0,1-15.25-1.42,135.7,135.7,0,0,0-21-1.73q-24.94-.12-49.87-.09c-9.59,0-19.15.33-28.63,2.2a90.06,90.06,0,0,1-13.36,1.09c-6.39.28-12.78.3-19.17.5a208,208,0,0,0-21,2.09c-12.66,1.7-25.11,4.8-37.88,5.76a80.35,80.35,0,0,0-9.43,1.69c-14.41,2.87-28.8,5.78-43.1,9.17-6.21,1.47-12.28,3.61-18.72,4a20.14,20.14,0,0,0-3.75.77c-7.42,1.9-14.21,5.78-22,6.76-7,.88-13.4,4.16-20.15,6-16.66,4.61-32.62,11.2-48.87,16.93-10.22,3.61-20.23,7.85-30.18,12.18-13.46,5.87-26.62,12.42-40.13,18.21-7.62,3.27-14.91,7.31-22.33,11-1.71.86-3.37,1.83-5.05,2.76-11.72,6.47-24.47,10.88-35.5,18.85-10.86,7.85-22.5,14.6-33.76,21.92-4.82,3.13-9.49,6.49-14.29,9.65a13,13,0,0,1-3.54,1.39,3.45,3.45,0,0,1-1.85-.12,2.65,2.65,0,0,1-2.07-2.75c1.51-10.75,3-21.49,3.58-32.35.12-2.51,1.07-5,1.6-7.48,2.39-11.25,4.79-22.47,5.81-34,.79-8.9,2.49-17.71,3.78-26.56a12.58,12.58,0,0,1,6-9.34c7.66-4.63,15.26-9.4,23.19-13.5,18.74-9.67,37.53-19.27,56.57-28.34,11.51-5.48,23.26-10.48,35.14-15.19,11.28-4.47,22.6-8.81,34.16-12.51a13.94,13.94,0,0,0,1.84-.54c8.08-3.9,16.75-6.16,25.14-9.2,7.24-2.63,14.41-5.19,22.11-6a15.75,15.75,0,0,0,3.73-.83c10.2-3.81,20.94-5.75,31.27-9a381.9,381.9,0,0,1,42.73-10.59c13.17-2.5,26.24-5.55,39.52-7.52l11.37-1.71c12-1.86,24-3.47,35.94-5.68a111,111,0,0,1,17.11-1.94c7-.2,14.05-.46,21.08-.68a196.76,196.76,0,0,0,24.83-2,106.88,106.88,0,0,1,15.28-1.14c11.5-.16,23-.05,34.52-.05Z"/><path class="cls-1" d="M796.88,1170.91c5.59.48,11.35.67,17,1.53a198.69,198.69,0,0,0,24.84,1.69c13.42.34,26.83.82,40.25,1.24a67,67,0,0,1,13.28,1.75c11.83,2.79,23.76,4.93,36,5.3a50.71,50.71,0,0,1,15.07,2.62,108.44,108.44,0,0,0,28.13,5.54,38.75,38.75,0,0,1,13,3.21,48.23,48.23,0,0,0,14.7,4.19c5.8.53,11.26,2.27,16.73,4,14.59,4.72,29.24,9.23,43.5,14.92,9.49,3.78,19.5,6.17,28.7,10.72,12.25,3.82,23.56,9.86,35.25,15,24,10.53,46.94,23.21,69.76,36.07a47.24,47.24,0,0,1,10.84,7.8c2.11,2.15,1.32,6.81-1.5,8.21a32.46,32.46,0,0,1-10.87,3.55,52.29,52.29,0,0,1-5.74.3,182.83,182.83,0,0,0-45.48,6.09c-4.31,1.11-8.79,1.57-13.19,2.36-8.17,1.46-16.36,2.86-24.51,4.47-6.26,1.23-12.53,2.51-18.69,4.17-4.62,1.24-8.73.49-13-1.3-4.11-1.72-8.46-2.87-12.66-4.38-4.81-1.73-9.67-3.36-14.33-5.45-5.85-2.61-11.64-5.26-18.06-6.15a6.38,6.38,0,0,1-1.87-.43c-11.61-5.54-24.32-7.67-36.4-11.72a219.76,219.76,0,0,0-25.87-7c-8.73-1.78-17.44-3.8-26-6.31-9.84-2.87-19.86-4.82-30.19-4.77-4.51,0-8.81-1.18-13.21-2-15-2.83-30.11-5.74-45.55-5.7-32.59.09-65.19,0-97.78.08a114.63,114.63,0,0,0-24.75,2.45c-8.09,1.79-16.52,1.63-24.51,4.26a25.52,25.52,0,0,1-7.59.78c-9,.1-17.78,1.76-26.5,3.85q-19.55,4.69-39.16,9.1a158,158,0,0,0-20.27,5.72c-5.36,2-11.06,3.08-16.57,4.67-3.07.89-6.09,1.91-9.08,3s-5.86,2.81-8.94,3.43a114.62,114.62,0,0,0-21.76,7.25c-7,3-14.38,5.26-21.27,8.67a91,91,0,0,1-10.64,4.35,202.73,202.73,0,0,0-28,12.55c-16.37,8.65-32.94,17-48.77,26.6-23.51,14.23-46.48,29.33-67.81,46.76-13.36,10.91-27.09,21.38-39.48,33.44-11.33,8.43-21,18.66-31,28.51-22,21.54-41.52,45.11-59.9,69.72-3.82,5.11-7.73,10.16-11.65,15.19a2,2,0,0,1-1.63.65,1.93,1.93,0,0,1-1.55-2.74c2.76-7.84,5.41-15.7,6.71-23.94a10.8,10.8,0,0,1,.38-1.88c4.9-14.56,7.82-29.64,11.72-44.47,2.12-8,4.23-16.06,6-24.16,5.29-23.7,11.15-47.25,17-70.8a41.77,41.77,0,0,1,2.59-7.2,15.08,15.08,0,0,1,3.16-4.74c5.6-5.24,11.18-10.53,17.13-15.35,14.89-12.07,29.86-24,45.31-35.41,6.17-4.53,12.45-8.94,18.75-13.31q7.08-4.92,14.35-9.57c5.38-3.44,10.92-6.64,16.29-10.1,9.14-5.89,18.56-11.29,28.18-16.33,1.13-.6,2.33-1.09,3.41-1.76,21.87-13.38,45.18-23.87,68.63-34,10.55-4.57,21.21-8.89,31.82-13.32,8.76-2,16.87-5.89,25.31-8.83q15.39-5.34,30.91-10.29c6.69-2.13,13.32-4.51,20.38-5.28a47.4,47.4,0,0,0,12.85-3.75,49,49,0,0,1,16.74-3.74,86.86,86.86,0,0,0,24.41-4.63,76,76,0,0,1,20.7-3.66,162.17,162.17,0,0,0,22.8-2.85,284.56,284.56,0,0,1,55.27-5.13,180,180,0,0,0,30.57-2C785.16,1171.26,791,1171.31,796.88,1170.91Z"/><path class="cls-1" d="M798.4,1339.35l59.68,1.09a75.58,75.58,0,0,1,13.31,1.43c11.89,2.34,23.76,4.82,35.8,6.47,8.84,1.21,17.56,3.28,26.3,5.13,1.11.24,2.12,1.36,3,2.25s-1.15,3-3.61,3.78c-15.2,4.91-30,11-44.77,16.92-7.7,3.08-15.73,5.16-23.18,9-6.78,3.51-14.1,6-21.13,9-8.78,3.83-17.42,8-26.26,11.66-14.76,6.11-29.17,13-43.63,19.74a31.24,31.24,0,0,1-13,3.05c-4.48.06-8.95.21-13.42.36-7.67.25-15.33.55-22.83,2.43a28.92,28.92,0,0,1-5.67.93c-10.31.41-20.21,3-30,5.82a50.87,50.87,0,0,1-11.26,2.19,66.06,66.06,0,0,0-16.81,3.56c-6.06,2-12.11,4.09-18.46,5.12a34,34,0,0,0-5.51,1.62c-16.87,5.93-34,11.24-50.4,18.33-8.78,3.79-17.31,8.21-25.81,12.61-8,4.1-15.65,8.64-23.56,12.82-11.33,6-21.93,13.12-32.53,20.26-15.37,10.36-30.52,21-44.25,33.56-22.13,17.51-41.52,37.87-60.74,58.42a342.64,342.64,0,0,0-26.45,32.8c-1.88,2.58-3.7,5.21-5.59,7.79-7.17,9.78-14.33,19.55-20.08,30.29A48.31,48.31,0,0,1,331,1696.08c-6.43,4.15-12.48,8.9-18.65,13.46-5.65,4.17-11.26,8.41-16.85,12.67-2.55,1.93-4.89,4.14-7.52,5.94-21.66,14.81-41.34,32.17-62.21,48-5.59,4.24-11.15,8.54-16.76,12.75a2.42,2.42,0,0,1-3.37-.14,3.45,3.45,0,0,1-.5-3.55l10.65-32.82c6.14-18.87,14-37,22.71-54.85,4.19-8.61,7.93-17.45,12.19-26s8.72-17.06,13.44-25.39c14.53-25.62,31.68-49.49,49.63-72.79,3.11-4,6.62-7.79,10-11.64,2.52-2.89,5.42-5.5,7.6-8.62,5.54-7.91,12.34-14.66,19.1-21.44q16.24-16.29,32.73-32.34c3.66-3.56,7.66-6.77,11.52-10.11,1-.83,2.09-1.5,3-2.37,15-14,31.64-25.86,48-38.08,3.59-2.67,7.23-5.28,11-7.63,13-8.08,25.79-16.63,39.71-23.17a13,13,0,0,0,1.66-1c17.68-11.72,37.34-19.41,56.53-28.12,13.4-6.08,27.52-10.26,40.84-16.5,11-3.27,22-6.59,33.06-9.81,7.36-2.14,14.78-4.06,22.15-6.19,13.54-3.91,27.47-5.9,41.32-8.1,10.11-1.61,20.11-3.69,30.1-5.83a77.64,77.64,0,0,1,15.16-2C757.75,1340.11,778.19,1339.72,798.4,1339.35Z"/><path class="cls-2" d="M1628.75,1218.8S1537,563.17,1098.62,263.45C576.68-93.41,0,15.72,0,15.72s61.61,33.11,133.86,141c15.36.9,34.87,6,54.68,21.9a154.64,154.64,0,0,1,29.64,31.16,44.83,44.83,0,0,1,5.8-21.13C242.54,156,258.16,97.26,224,72c0,0,51.28,1.49,81,57.21,15,28.14,22.79,60.12,18.44,85.28,24.07-22.15,49-60.13,31-89.07,0,0,41.39,17.9,47.45,73a156.68,156.68,0,0,1-1.06,43,44.7,44.7,0,0,1,19-10.85c36.25-10,88.79-40.48,82.48-82.5,0,0,35.23,37.3,16.82,97.71-9.3,30.48-26.37,58.61-47.27,73.32,32.72,1.37,77.13-7.87,84.9-41,0,0,16.62,41.91-18.06,85.22a155.15,155.15,0,0,1-31.18,29.62,44.71,44.71,0,0,1,21.14,5.79c32.72,18.55,91.42,34.17,116.67,0,0,0-1.47,51.28-57.2,81C560,494.7,528,502.5,502.87,498.13c22.17,24.1,60.15,49,89.06,31.06,0,0-17.89,41.35-73,47.45a155.1,155.1,0,0,1-43-1.08,44.79,44.79,0,0,1,10.82,19c10,36.26,40.48,88.81,82.5,82.5,0,0-37.3,35.21-97.71,16.81-30.51-9.28-58.64-26.39-73.33-47.26-1.36,32.69,7.9,77.15,41,84.93,0,0-41.93,16.59-85.2-18.08a156.06,156.06,0,0,1-29.64-31.17,44.5,44.5,0,0,1-5.8,21.11c-2.05,3.63-4.07,7.59-6,11.78,2.15,35.68,3.12,70.44,3.36,102.77.85.73,1.72,1.45,2.63,2.13,0,0-1,0-2.62-.22.68,105.3-6.46,184.31-6.46,184.31s352.39-174.35,706.39-107.32c.14-23,.21-118.69-6.8-201.25-8.16-96-46-168.57-46-168.57s-40.72,47.47-48.53,105c-7.88,58.08,24.27,141.43,24.27,141.43S869,751.74,853.33,697.88c-15.28-52.69,10.19-108.26,10.19-108.26s-5.85,1.5-17,13.15c-12.37,12.9-15,17.8-15,17.8s9-33.5,17.93-45S884,539.82,884,539.82s-17,2.56-37.61,16.2c-25.49,16.86-46.68,46.75-46.68,46.75l-37,26.44s2.32-8.51,6-18.09,17-26.61,17-26.61S744.75,619,733.26,642,709,689.24,709,689.24s-7.84-82.6,30.65-145.59c39.68-64.94,89.15-66.42,117-70.28,29.61-4.11,68.67,3.7,68.67,3.7s-27.55-52.22-97.86-47.29c-18.78,1.32-73.74,10.42-73.74,10.42s10.89-22,24.91-36.17c8.67-8.76,20.87-22.77,20.87-22.77s-15.44-1.76-43.23,7.86c-29.55,10.24-45.18,40.25-45.18,40.25s6.14-36.86,18.92-51.81,37.6-34.88,59.21-37c25.08-2.47,82,7.69,116.47,35.79s46,66.41,46,66.41S957,362.9,986.12,330.37c14.83-16.54,42.34-28.57,69.93-28.05,20.58.38,45,14,45,14S1071.64,331,1047,348c-42.35,29.19-58.33,105-58.33,105s29.38-39.59,81.74-48.53,89.46-5.56,112.69,2.73c53,18.91,56.33,72.78,56.33,72.78s-53.45-28-78.53-30.43L1119,451.58s19.31,2,29.35,6.5a24.19,24.19,0,0,1,14.93,22.56s-47.75-5.79-79.23-3.57c-33.08,2.33-71.14,19.74-71.14,19.74s64.92,11.33,90.87,29.6c22.9,16.13,53.87,42.77,58.62,100.25,4.21,50.92,1.28,51.08,1.28,51.08l-16.61-37s5.13,19.55-3.81,37.43-17.9,26.42-17.9,26.42-.28-32.66-1.27-56.19c-.57-13.41-9-35.91-12.08-44.65-.86-2.46-1.69,5.19-2.47,10.3a29.27,29.27,0,0,1-4.11,11.08l-9.44,13s-15.64-41-31.27-65.27C1040.94,536,981,515.55,981,515.55s59.41,114.58,79.18,199.23c16.64,71.25,21.92,171.53,23,197.75C1433.72,1006.61,1628.75,1218.8,1628.75,1218.8Z"/><path class="cls-3" d="M1065.84,2369.24c1.12-30,3.22-55.49,6.88-80.84.64-4.42,1.59-8.8,2.32-13.21,1.25-7.57,2.53-15.14,3.64-22.73,1.94-13.29,4-26.54,7.26-39.6,2-8.07,3.88-16.18,4.63-24.49a98.71,98.71,0,0,1,3-15,59.32,59.32,0,0,0,1-7.57c.28-2.5-2.65-5.2-4.84-4.49-3.65,1.17-7.27,2.46-11,3.55s-7.42,1.89-11.08,3c-8.32,2.48-16.51,1.41-24.56-1.06a39.45,39.45,0,0,1-14.91-8.38c-7.9-7.06-12.59-16-15.81-25.85a73.67,73.67,0,0,1-3.29-18.85,155.84,155.84,0,0,1,.64-28.74c1.07-8.22,2.71-16.39,4.52-24.49,1.39-6.22,3.56-12.26,5.15-18.44,3-11.83,7.94-23,12.85-34.06,3.11-7,7.36-13.46,11.79-19.74a47.42,47.42,0,0,1,5.15-5.66,27.52,27.52,0,0,1,16.93-8.15,31.5,31.5,0,0,1,18.5,3.68,16.37,16.37,0,0,1,6.68,6.69,6.79,6.79,0,0,1,.81,5.54c-3.82,10.2-6.08,20.84-9.07,31.27-4.08,14.18-6.6,28.64-8.69,43.2-.72,5.06-1.29,10.16-2.29,15.17-2.52,12.68-2.08,25.44-1.35,38.23a14.25,14.25,0,0,0,2.71,7.07,7.29,7.29,0,0,0,6.74,2.61,30.61,30.61,0,0,0,8.82-3.64c6.64-3.85,13.3-7.66,19.83-11.68A197.27,197.27,0,0,1,1131,2101.1a40,40,0,0,1,29.91-1.49c3.69,1.21,6.35,4.18,8.36,7.58a26.38,26.38,0,0,1,3.51,12.81,112.84,112.84,0,0,1-1.7,21c-1.08,6.95-2.32,13.87-3.46,20.81-.72,4.42-1.42,8.84-2,13.27a200,200,0,0,1-3.87,20.7,208,208,0,0,0-4.47,24.51c-1.24,10.15-3,20.25-5.07,30.26-2.84,13.8-5.2,27.65-6.73,41.64-.21,1.91-.09,3.92-.66,5.71-2.94,9.25-2.63,19-4.41,28.4-1.67,8.84-1.65,17.81-1.66,26.77,0,6.53,1.72,12.63,4,18.63,1.43,3.71,6.9,6.55,11.1,5.92a32.8,32.8,0,0,0,15.69-6.69,130.47,130.47,0,0,0,20.24-20.38c6.9-8.43,12.85-17.53,18.76-26.65,7.31-11.28,13.74-23.08,20-35,6-11.3,11.49-22.83,17.22-34.26a56.88,56.88,0,0,0,5.47-16.3c2.67-16.43,7-32.5,11.42-48.5a268.65,268.65,0,0,1,10.18-28.91c5.28-13,10.93-25.92,18-38.16,10.88-19,23.63-36.47,40.1-51,10.22-9,21.55-16,35.14-18.65,2.51-.49,5-1,7.49-1.7a34.22,34.22,0,0,1,18.93,0c1.84.53,3.74.85,5.62,1.25,1.25.26,2.52.44,3.76.74,10.85,2.6,20.48,7,26.91,16.84,1.92,2.94,5.25,3.33,8.61,2.43,1.23-.34,2.45-.71,3.67-1.1a12.93,12.93,0,0,0,1.77-.73c4.1-2.16,8.55-2.25,13-2.46,7.45-.33,13.78,2.3,19.52,6.68a15.74,15.74,0,0,1,3.78,4.27c1.7,2.81,2.54,6,1.45,9.19-1.67,4.82-3.72,9.52-5.74,14.22a152.55,152.55,0,0,0-8.08,23.55c-1.22,5-3,9.79-4.27,14.73-2.11,8-4.44,16-5.7,24.26a168.44,168.44,0,0,1-3.73,18.8c-3,11.15-4.64,22.54-6.6,33.88q-1.95,11.34-3.85,22.69c-3.22,18.93-5.19,38-7.32,57.08-.28,2.54-.36,5.11-.75,7.63-3.31,21-3,42.07-2.81,63.18a70.47,70.47,0,0,0,2.65,18.94c.53,1.84,1.27,3.62,2,5.4,1.94,5,7.13,7.32,12.58,5.82a29,29,0,0,0,11.72-6.3,98.58,98.58,0,0,0,9.3-9.65,189.67,189.67,0,0,0,21.44-31.74c12-21.88,23.25-44.09,31.62-67.67,5.12-11,8.47-22.75,13.15-34a108.8,108.8,0,0,0,5.66-18.3c3.22-14.34,6-28.81,9.88-43,7.24-26.56,15.85-52.65,29.27-76.89a58.7,58.7,0,0,1,16-18.87,31.31,31.31,0,0,1,10.15-5.28,80.28,80.28,0,0,1,16.88-3.43,54.37,54.37,0,0,1,24.43,3.77,27.9,27.9,0,0,1,3.37,1.79c3.79,2.18,6.18,7.34,5.17,11.51a36.54,36.54,0,0,1-2.32,7.28,170.8,170.8,0,0,0-8.37,21.41c-2.76,8.5-6.11,16.83-8.6,25.41q-3.48,12-7.61,23.72a66.38,66.38,0,0,0-2.59,9.24,158.67,158.67,0,0,1-5.62,20.28,130.28,130.28,0,0,0-4.13,16.74q-2.58,13.15-5.43,26.27c-3.26,15-5.81,30.16-5.27,45.63a70.65,70.65,0,0,0,.73,9.55,32.42,32.42,0,0,0,2.38,7.23c1.39,3.28,5.89,5.68,9.38,5.45a31.17,31.17,0,0,0,16.08-5.65,80.86,80.86,0,0,0,14.21-12.83c11.45-13,21.07-27.32,29.83-42.23,13.31-22.65,24.44-46.37,34.64-70.55a27.44,27.44,0,0,0,2.28-11.17c0-3.2,0-6.4-.14-9.59-.47-13.54,1.79-26.77,4.3-40,2.17-11.41,6.63-22.08,11.63-32.43,9.23-19.12,21.14-36.43,36.7-51.13a123.76,123.76,0,0,1,33.34-22.26,60,60,0,0,1,31.76-5.53,18.61,18.61,0,0,1,10.4,4.5,55,55,0,0,1,17.24,27.13c.46,1.61-.84,4.27-2.36,4.59-5,1.06-10,2.19-15,3.13a56.81,56.81,0,0,0-12.62,4.43c-16,7.12-27.14,18.91-33.7,35a178.89,178.89,0,0,0-8.28,23.5c-3.33,13.09-3.94,26.54-5.75,39.83a24,24,0,0,0,0,5.74c1.85,18.47,3.63,37,10.62,54.41,3.46,12.36,9.35,23.76,14.15,35.6.24.58.7,1.06,1,1.62,1.5,2.85,5.58,4.22,8.23,2.72a70.07,70.07,0,0,0,6.61-3.87,439.36,439.36,0,0,0,58.3-49.73c8.5-8.73,16.18-18.13,23.77-27.6a57.56,57.56,0,0,0,6.16-9.69c3.23-6.24,6.14-12.65,9.17-19,5.24-11,11-21.63,18.29-31.45a45.66,45.66,0,0,1,12.39-11.85c2.15-1.36,4.3-2.76,6.33-4.3a11.39,11.39,0,0,0,4-6.37c.94-3.71,1.61-7.5,2.18-11.29,1.9-12.65,3.85-25.31,7.24-37.65,3.58-13,8.93-25.3,17.29-36.09a62.33,62.33,0,0,1,17-15.29,51.19,51.19,0,0,1,19.74-6.94,98.29,98.29,0,0,1,26.76.24,45.72,45.72,0,0,1,22.6,9.79,64.74,64.74,0,0,1,21,29.26,164.44,164.44,0,0,1,4.65,16.6c.92,3.72,1.3,7.57,2.2,11.29a72.19,72.19,0,0,1,2,17.11q0,17.27-.14,34.53a71,71,0,0,1-.71,9.56c-1.48,10.12-3.09,20.22-4.68,30.32-.69,4.42-1.48,8.83-2.18,13.25-1.82,11.35-3.39,22.73-6.79,33.79-1.87,6.08-2.83,12.46-4.08,18.73-1,5.3,2.51,8.31,8,6.94,1.24-.31,2.51-.52,3.73-.91,1.82-.59,3.64-1.22,5.4-2a90.52,90.52,0,0,0,22.85-13.91c14.21-12.15,26.41-26,35.15-42.68q4.46-8.49,9-16.93a6.43,6.43,0,0,1,6.28-3.58,15.12,15.12,0,0,1,11.39,6.22,12,12,0,0,1,2.38,9,52.93,52.93,0,0,1-2,9.35c-10,30.39-26.35,56.74-50.82,77.66a124.36,124.36,0,0,1-39.47,23.21c-7.84,2.76-15.73,5.37-23.56,8.15a9.66,9.66,0,0,0-5.32,5.24,10.5,10.5,0,0,0-.8,1.74c-3.32,11.69-8.41,22.79-11.45,34.58a102.05,102.05,0,0,1-4.31,12.7c-5.28,13-10.38,26.14-16.44,38.85s-12.45,25.21-20.67,36.69a153.49,153.49,0,0,1-25.72,28.34c-9.41,7.94-19.8,14-31.74,17.29a57.22,57.22,0,0,0-5.51,1.63,37.54,37.54,0,0,1-13.19,2.13c-3.2,0-6.39,0-9.59,0-5.2.06-10-1.31-14.92-3-11.43-4-19.74-11.52-26.29-21.34-4.28-6.42-7.73-13.23-9.4-20.86-2-9.36-4.34-18.67-6.29-28.06a50.64,50.64,0,0,1-.72-9.55c-.11-9-.08-17.9-.1-26.86a151.75,151.75,0,0,1,2.2-24.78c1.85-11.35,3.4-22.76,5.22-34.12,1.52-9.46,3.18-18.9,4.6-28.37.19-1.3-1.14-2.23-2.46-2.44a3.06,3.06,0,0,0-1.81.07,39.79,39.79,0,0,0-6.43,4.08c-11.56,10.09-23.28,20-35.34,29.46a92.89,92.89,0,0,0-9.68,9.25,6.39,6.39,0,0,0-1.48,5.38,36.67,36.67,0,0,0,1.72,7.45c5.58,14.33,9.38,29.19,13.3,44,3.14,11.86,3.43,24,4.48,36.08l-2.73,24.77c-4.11,13.55-9.06,26.75-19,37.27a88.59,88.59,0,0,1-31.33,21.65,142.39,142.39,0,0,1-29.44,8.5c-11.43,2-22.93,2-34.13-1.77-4.24-1.44-8.55-2.73-12.64-4.51a53.74,53.74,0,0,1-24.31-21,42.81,42.81,0,0,1-5.8-16.15,79.11,79.11,0,0,1,.54-28.62,105,105,0,0,1,8.55-25.38,196.21,196.21,0,0,1,28.82-42.86c7.55-8.68,15-17.43,23.42-25.36a24.16,24.16,0,0,0,5.74-7.61,5.61,5.61,0,0,0,.59-3.64c-1.86-5.44-3.83-10.85-6-16.15-5.45-13-11-25.88-16.62-38.79-.76-1.74-1.85-3.35-2.77-5-.68-1.23-4.14-1.85-5.12-.87a15.38,15.38,0,0,0-2.62,2.74c-1.65,2.73-3.15,5.56-4.61,8.4-11.4,22.24-24.29,43.57-39.67,63.28a189,189,0,0,1-41.37,39.66,102.9,102.9,0,0,1-27.45,13.48c-10.39,3.3-21.19,4.88-32.18,3.12-11.39-1.83-20-7.82-26.39-17.4-2.81-4.25-4.44-9.23-8.13-12.94-1-1-4.32-1.15-5.21,0a30.58,30.58,0,0,0-2.38,3c-1.92,3.32-3.87,6.63-5.51,10.1-3.82,8.12-8.41,15.81-13,23.51a263.81,263.81,0,0,1-20.62,30,168.08,168.08,0,0,1-25.7,25.73,80,80,0,0,1-19.76,11.63c-10.59,4.45-13.15,5-24.17,4.94-.64,0-1.28,0-1.91,0-8.5.49-16.47-1.83-24.26-4.79-12.38-4.71-21.9-13-28.93-24.15a86.66,86.66,0,0,1-12.39-36c-1.49-12.06-2.66-24.15-2.38-36.34a26.18,26.18,0,0,0-1-5.61c-.25-1.25-4-2.33-5-1.49-1.49,1.2-3,2.36-4.47,3.6-3.42,2.88-6.76,5.86-10.22,8.68-8.62,7-18.69,11-29.35,13.6a37.93,37.93,0,0,1-22.63-1.43,43.39,43.39,0,0,1-23.9-21c-2.08-3.94-4.29-7.81-6.43-11.72-.69-1.28-4.17-1.57-5.11-.49a22.11,22.11,0,0,0-2.48,2.85q-9.87,16.45-19.63,33a381.07,381.07,0,0,1-31.88,45.52,219.54,219.54,0,0,1-24,24.78,128.18,128.18,0,0,1-23.4,16.65,72.68,72.68,0,0,1-38.64,9.31,32,32,0,0,1-26.07-14,67,67,0,0,1-11.58-26.1A273.17,273.17,0,0,1,1065.84,2369.24ZM1294,2277.78c.06,7-.08,14,1.13,21a30.25,30.25,0,0,0,3.86,10.73,15.89,15.89,0,0,0,12.45,7.85c6.1.68,11.37-1.5,15.89-5.31a55.88,55.88,0,0,0,11.33-12.91,234.47,234.47,0,0,0,12.22-21.65,356.73,356.73,0,0,0,18.33-46.21c5-15.11,10.63-30.09,13.17-45.93a37.68,37.68,0,0,1,1.73-5.47c3-9.11,5-18.45,7.14-27.78,1.42-6.21,2.4-12.49,4.2-18.65,1.95-6.7,2.87-13.73,3.91-20.66a27.25,27.25,0,0,0-2.13-15,15.49,15.49,0,0,0-17.1-9.34,29.64,29.64,0,0,0-16.72,8.7,133.13,133.13,0,0,0-18.38,22c-11.18,17.21-20,35.62-27.3,54.7a483.4,483.4,0,0,0-16,49.12C1296.94,2240.92,1293.81,2259.13,1294,2277.78Zm642,73c0,6.57-.23,12.31.07,18a102.18,102.18,0,0,0,1.78,13.24,19.43,19.43,0,0,0,3.91,8.63,10.42,10.42,0,0,0,6.35,3.9,16.68,16.68,0,0,0,11.13-1.66,39,39,0,0,0,12-9.37,186.94,186.94,0,0,0,12.72-16.73c6.59-10.2,11.83-21.1,17-32,7.57-16.17,13.45-33,19.2-49.9,1.64-4.84,3.12-9.73,3.21-14.88a6.54,6.54,0,0,0-2.61-4.89,12,12,0,0,0-3.31-1.87c-6.55-2.65-12.39-6.54-18.14-10.55a71.75,71.75,0,0,1-18.86-18.76c-1.42-2.12-2.77-4.28-4.22-6.38-.72-1-1.63-1.94-2.4-2.94-1.54-2-5.2-2-6.61,0a54.06,54.06,0,0,0-7.67,15.29c-5.18,15.72-11.31,31.16-13.86,47.65a30,30,0,0,1-.89,3.72C1939.07,2311,1936.88,2331.19,1935.92,2350.77Zm125.86-254.14c-.27-11.52-.35-23-1.25-34.49A90.57,90.57,0,0,0,2055,2038a34.54,34.54,0,0,0-4.58-8.36c-4.91-6.73-12.48-6.68-17.54.14a21,21,0,0,0-3.6,6.69,134.56,134.56,0,0,0-3.65,16.83c-1.16,8.22-2.72,16.37-3.92,24.58-1.29,8.82-3.15,17.63-3.17,26.6,0,5.12-.4,10.19-.88,15.28a205.8,205.8,0,0,0,.3,40.17,93.85,93.85,0,0,0,11.15,36.37,32.19,32.19,0,0,0,4.72,6c2.16,2.33,6.81,1.7,8.26-.95a36.7,36.7,0,0,0,1.92-3.3,127.71,127.71,0,0,0,7.67-23.64c2.18-10.64,4.33-21.27,6.33-31.94a120.91,120.91,0,0,0,1.74-13.28C2060.54,2118.3,2061.11,2107.46,2061.78,2096.63ZM1773,2390.18h-.06c0-7.65.07-15.29,0-22.93a32.16,32.16,0,0,0-1-5.58c-.33-1.67-2.93-2.72-4.58-2.07a9.85,9.85,0,0,0-4.3,3.6c-4.54,6.18-7.78,13.13-11.41,19.84-6.18,11.43-7.86,24.1-10,36.64a24.28,24.28,0,0,0-.13,3.82,35,35,0,0,0,5.26,18.1,8.16,8.16,0,0,0,4.47,3.38,11.2,11.2,0,0,0,12.11-3.34,29.74,29.74,0,0,0,5.67-9.86c2.24-7.33,4-14.76,4-22.5Z"/><path class="cls-3" d="M1686,1813.05a221.94,221.94,0,0,0,1.22,34.92,55.6,55.6,0,0,0,3.54,14.88,37.75,37.75,0,0,0,2.56,5.13,16.74,16.74,0,0,0,18,8.06,35,35,0,0,0,10.7-4.1,62.35,62.35,0,0,0,12.07-9.4,156.26,156.26,0,0,0,26.08-33c9.18-15.52,8.57-11.82,12.48-31.79.73-3.75,1.76-7.45,2.73-11.15,1.79-6.8,3.85-13.53,5.41-20.38,3.13-13.69,15.46-45.7,22.14-59.17,1.71-3.43,3.71-6.71,5.53-10.09,4.64-8.55,10.44-16.06,18.81-21.34A11.12,11.12,0,0,0,1830,1673a8.84,8.84,0,0,0,1.8-3.32c.82-3.74,1.46-7.53,2-11.31a266.8,266.8,0,0,1,6.23-28.07c2.7-10.16,8.13-18.7,14.64-26.67a24,24,0,0,1,5.57-5.23c12.93-8.13,26.52-12.3,41.87-7.16,8.79,2.94,16.08,7.7,21.71,15A32.36,32.36,0,0,1,1927,1611c4.14,8,7.43,16.3,8.76,25.25.65,4.42,1.13,8.88,1.38,13.35a316.19,316.19,0,0,1-.57,40.25,209.86,209.86,0,0,1-4.3,28.42c-2.53,11.88-4.85,23.8-7.21,35.72a36.78,36.78,0,0,0-.17,3.8c-.22,2.27,2.83,5.08,5,4.6a32.54,32.54,0,0,0,3.73-.83,68.85,68.85,0,0,0,22.84-13.78,115.78,115.78,0,0,0,25.64-33.2c1.18-2.27,2.17-4.64,3.32-6.92a7.64,7.64,0,0,1,9.91-3.13c4.35,2,6.86,5.89,6.07,10.83a62.79,62.79,0,0,1-4.52,14.62c-8.13,19.07-19.37,36-35.51,49.33-7.43,6.13-15.32,11.55-24.35,15.08-4.76,1.86-9.58,3.56-14.36,5.36a67.57,67.57,0,0,0-7.11,2.85,9.54,9.54,0,0,0-5,5.58c-3.74,12.22-8.26,24.17-12.55,36.2a289.35,289.35,0,0,1-19.78,43.59,119.08,119.08,0,0,1-15.63,21.78,121.78,121.78,0,0,1-11.1,10.56c-13.94,12-30.27,15.85-48.27,13.7-.63-.07-1.26-.21-1.89-.28-7.33-.78-13.28-4.27-18.44-9.34a42.64,42.64,0,0,1-10.28-16,102.83,102.83,0,0,1-3.82-12.84c-1.53-6.85-2.61-13.81-4-20.69a7.4,7.4,0,0,0-2-3c-.78-.87-3.87-.1-5.31,1.15-1,.83-2,1.63-2.92,2.49-2.35,2.17-4.64,4.39-7,6.53a82.72,82.72,0,0,1-22.26,14.8c-2.33,1-4.52,2.37-6.74,3.62-3.15,1.78-3.28,7.79-.19,9.88,1.58,1.08,3.26,2,4.9,3,7.75,4.62,11.4,11.84,12.81,20.4a16.84,16.84,0,0,1-.06,5.71c-2.12,11-7.14,20.45-16.12,27.5a28.14,28.14,0,0,1-3,2.35c-10.66,6.29-22,10.39-34.55,9.78a18.67,18.67,0,0,1-9.12-2.54,8,8,0,0,1-3.63-8.17,3,3,0,0,1,2.23-2.77,73.09,73.09,0,0,1,7.49-1.24,45.8,45.8,0,0,0,22.81-9.25,17.6,17.6,0,0,0,7.13-15c-.08-4-1.67-7.63-5.16-9.77-3.8-2.32-7.93-4.08-11.89-6.15a7.24,7.24,0,0,1-4-6.11c-.21-3.17.16-6.38.08-9.56-.08-3.57-2.11-5.89-5.25-7.28-1.75-.78-3.59-1.36-5.36-2.08-3-1.2-5.9-2.43-8.85-3.66a39.27,39.27,0,0,1-13.94-10c-3-3.3-5.82-6.77-8.75-10.15-1.52-1.76-5.24-1.35-6.69.77-3.25,4.73-6.76,9.32-9.64,14.28-5.18,8.94-11.84,16.66-19,24a131.8,131.8,0,0,1-11.52,10.09c-10.52,8.58-22.79,11-36,10-1.27-.1-2.54-.35-3.81-.42-8.63-.5-16.06-3.88-22.62-9.36a28.94,28.94,0,0,1-2.87-2.54c-6.54-7.22-11.58-15.33-13.45-25-2.3-11.93-4.39-23.91-4.41-36.12a4.59,4.59,0,0,0-1.33-3.5c-.87-.84-2.32-1.58-3.35-.91-4.81,3.12-9.45,6.49-14.13,9.82a41.37,41.37,0,0,1-19.56,7.29c-9.22,1.06-17.84-.36-25.33-6.34a57.25,57.25,0,0,0-4.75-3.21c-.89-.58-4.63.32-5.34,1.26a45.57,45.57,0,0,0-3.4,4.61c-3.82,6.65-7.41,13.44-11.28,20a222.39,222.39,0,0,1-34.81,45.59,99.77,99.77,0,0,1-11.73,9.85,66,66,0,0,1-26.15,11.3,41.13,41.13,0,0,1-22.6-2,26.33,26.33,0,0,1-9.66-6.1,51.26,51.26,0,0,1-13.6-22.8c-3.46-12.36-5.94-24.86-5.68-37.8.15-7.66,0-15.33,0-23a2.89,2.89,0,0,0-1.94-2.89,3.09,3.09,0,0,0-3.46.76,43.89,43.89,0,0,0-3.49,4.55c-2.57,3.67-5,7.4-7.64,11-1.86,2.6-3.83,5.12-5.82,7.62-7.71,9.72-17.59,16.64-28.59,22.11a11.3,11.3,0,0,1-1.76.74c-7.43,2.11-14.89,3.32-22.7,2.16-7.41-1.11-13.09-4.86-17.82-10.32a44.46,44.46,0,0,1-7.76-13.16c-.93-2.38-1.69-4.82-2.62-7.19-.85-2.17-4.78-3.44-6.51-2.14a74.41,74.41,0,0,0-6,4.69,128.78,128.78,0,0,1-14.9,12A70.71,70.71,0,0,1,1148,1906c-3.74.86-7.51,1.57-11.28,2.27a33.52,33.52,0,0,1-13.35,0c-6.85-1.5-13.87-2.19-20.44-5a45.68,45.68,0,0,1-12.89-8.14,59,59,0,0,1-18.35-33,170,170,0,0,1-2.83-42c.44-8.3,1.14-16.59,1.55-24.89a128.51,128.51,0,0,1,3.81-24.6c2-8.07,4.14-16.1,6.16-24.17,3.28-13.07,8.24-25.54,13.85-37.74,4-8.69,8.08-17.36,13.62-25.29a183.21,183.21,0,0,1,13-16.58,75,75,0,0,1,21.22-16.21,31.78,31.78,0,0,1,7.05-3c10.65-2.7,21.39-3.74,32.24-.95a22.43,22.43,0,0,1,12.56,8.28,48.14,48.14,0,0,1,10.22,28.38,82.47,82.47,0,0,1-2,22.85c-.94,3.71-1.62,7.5-2.49,11.23-4.69,20.16-13.32,38.62-24.39,56a90.76,90.76,0,0,1-18.87,21.57c-1,.81-1.86,1.79-2.91,2.5-6,4-12.24,6.93-19.71,6.07a16.09,16.09,0,0,0-5.71-.06c-1.38.33-3.69,2.19-4,3.69-1.82,10.07-3.41,20.19-3.48,30.42a85.74,85.74,0,0,0,5.92,31.86c3.38,8.67,12.86,13,22.1,10.24a44.38,44.38,0,0,0,18.19-10.27,146.67,146.67,0,0,0,26.8-34.83,29.48,29.48,0,0,0,3.3-11q1.92-15.22,3.81-30.45a146.89,146.89,0,0,1,5.09-24.38,71.6,71.6,0,0,0,2.06-7.38c2.86-15.17,8.35-29.55,13.75-43.89a214.57,214.57,0,0,1,29-53.83c2.3-3.06,4.76-6,7.23-8.94,5.47-6.47,12.37-11.07,19.93-14.67a29,29,0,0,1,7.3-2.25,45.07,45.07,0,0,1,24.51,2.48c7.77,3,15.1,6.92,21,13a28,28,0,0,0,4.65,3.21c1.16.77,4.33-.31,5-1.66a22,22,0,0,0,1.59-3.47c3.9-15.49,8.22-30.89,9.85-46.86a52,52,0,0,1,1.4-7.53,310.64,310.64,0,0,0,7.06-37.66c1-7.61,1.67-15.3,3.36-22.76s3-15,4-22.62c1-7,2-13.92,2.88-20.89.77-5.7,1.47-11.41,2.21-17.12a87.54,87.54,0,0,0,1.23-9.5c.22-10.91,2.74-21.55,3.66-32.37a6,6,0,0,1,.58-1.82c.79-1.78,1.8-3.47,3.8-4,5-1.24,9.89-2.66,14.92-3.41a41.93,41.93,0,0,1,18.93,1.73,24.72,24.72,0,0,1,13.45,10.21,32.92,32.92,0,0,1,5.61,16.13,86.62,86.62,0,0,1-.94,21c-1.91,11.35-3.62,22.73-5.38,34.11-.79,5.05-1.66,10.1-2.23,15.17a161.37,161.37,0,0,1-4.91,26.35,79.55,79.55,0,0,0-2.11,9.36c-2.85,18.33-6.8,36.43-10.57,54.58-2.21,10.63-3.55,21.44-6.1,32-3,12.43-5.89,24.87-7.48,37.57a21.67,21.67,0,0,1-.67,3.78c-5.44,17.13-7.07,35-10.82,52.52-4.57,21.26-7.35,42.83-11.75,64.08-3.26,15.74-4.58,31.61-6.05,47.51a141,141,0,0,0-.11,24.91,30.66,30.66,0,0,0,3.86,12.74,9.06,9.06,0,0,0,11.65,3.45,24.27,24.27,0,0,0,7.5-5.87c6.84-8.44,13.82-16.78,19.49-26.09q11-18,20.72-36.75a65.77,65.77,0,0,0,7.33-23.63c1.22-11.44,3-22.81,4.7-34.2a139.43,139.43,0,0,1,4.94-20.48,304.81,304.81,0,0,1,13.83-37.78,192.79,192.79,0,0,1,20.16-34.76,118.45,118.45,0,0,1,19.73-20.83,59.84,59.84,0,0,1,25.63-12.51,51.34,51.34,0,0,1,31.91,3.21,37,37,0,0,1,12.27,9c2.36,2.47,5.51,3,8.83,2.3,1.87-.42,3.7-1,5.56-1.47a30.13,30.13,0,0,1,3.76-.75,21.71,21.71,0,0,1,17.7,5.54,11.24,11.24,0,0,1,2.27,3.05c.92,1.7,1.57,3.6.88,5.5q-2.25,6.3-4.81,12.5a131.55,131.55,0,0,0-6.57,20,182.8,182.8,0,0,1-4.88,18.52,79.5,79.5,0,0,0-3.26,13c-2.71,16.39-5.76,32.72-8.52,49.1-2.66,15.76-4.58,31.65-6.1,47.55-1.27,13.35-1.72,26.78-2.26,40.19a78.59,78.59,0,0,0,2,21,23.47,23.47,0,0,0,2.07,5.32,7.41,7.41,0,0,0,6.2,3.89,13.86,13.86,0,0,0,9.06-2.5,35.21,35.21,0,0,0,8.41-7.78c3.92-5.05,7.75-10.17,11.31-15.47,6.79-10.1,12.2-21,17.49-31.93,3.67-7.57,5.94-15.5,5.73-24,0-1.92.09-3.84.14-5.75.26-10.88,1-21.66,3.43-32.36,2.12-9.33,3.25-18.88,4.9-28.33.44-2.51,1.11-5,1.75-7.45,2.06-8,4-16.12,6.28-24.12,7.11-25.29,15.93-49.91,29.12-72.79a152.47,152.47,0,0,1,16.67-23.39,82.78,82.78,0,0,1,23.85-19,47.65,47.65,0,0,1,14.44-5,72.63,72.63,0,0,1,26.7,0c11.41,2.24,20,8.46,24.91,19a73.59,73.59,0,0,1,6.47,43,39.13,39.13,0,0,1-2.88,9.1,13.14,13.14,0,0,1-3.41,4.56c-5.41,4.7-11.54,8-18.88,8.4a4.64,4.64,0,0,1-4.5-5c.17-1.27.32-2.54.5-3.8,1.53-10.8,1.59-21.66,1.42-32.54a46.54,46.54,0,0,0-4.39-18.51c-2-4.52-8.21-7.21-13-5.24a30,30,0,0,0-6.65,3.71,45.44,45.44,0,0,0-11.2,13,131.85,131.85,0,0,0-7.3,13.48c-6.06,13.4-11.67,27-15.54,41.22-.67,2.47-1,5-1.82,7.45-7.32,22.6-10.87,46-15.09,69.27C1687.29,1780.26,1686.54,1796.87,1686,1813.05Zm-382.25-115.12c.26-11.62-1-19.73-4.13-27.55-1.7-4.28-7.39-6.27-11.13-3.86a35.19,35.19,0,0,0-10.87,10.58,184.59,184.59,0,0,0-10.26,18.33c-8.14,16.68-13.61,34.31-19.29,51.88a18.89,18.89,0,0,0,.15,13.07c1.67,4.34,1.25,8.74.15,13.15a143.19,143.19,0,0,1-7.62,23.61c-4.7,10.59-7.18,21.75-8.54,33.19a59.24,59.24,0,0,0,3.64,28.14,18.31,18.31,0,0,0,.89,1.7,10,10,0,0,0,9.57,5,18.08,18.08,0,0,0,8.83-3.25,40.8,40.8,0,0,0,8.3-7.87,115.14,115.14,0,0,0,14.19-22.62,246.91,246.91,0,0,0,11-26.45c4.59-13.89,9.94-27.57,12.87-42a108.4,108.4,0,0,1,3.54-12.9c2.85-8.52,4.08-17.34,5.3-26.18a6,6,0,0,0-.07-1.89,3.52,3.52,0,0,0-.68-1.77c-1.33-1.32-2.79-2.51-4.21-3.74-2-1.75-3.23-3.81-2.91-6.62C1303,1704.86,1303.52,1699.78,1303.71,1697.93Zm165,114.46a31.22,31.22,0,0,0,5.56,18.85,12.65,12.65,0,0,0,13.47,4.88,19.22,19.22,0,0,0,6.7-3.55,47.64,47.64,0,0,0,7.7-8.47c7.67-10.35,13-21.95,17.41-33.92,5-13.74,10.52-27.36,13.74-41.71.7-3.11,1.54-6.19,2.46-9.24,5.32-17.72,8.87-35.85,12.68-53.93a19.35,19.35,0,0,0-2.07-13c-3.2-6.27-10-8.78-16.1-5.9a34.67,34.67,0,0,0-12.19,9c-4.06,4.9-7.78,10.08-11.48,15.26-6.71,9.41-11.16,20-15.58,30.59a12.45,12.45,0,0,0-.76,7.5c1.11,5.14.26,10-1.1,15.06-4.84,17.87-11.34,35.17-17.73,52.5A44,44,0,0,0,1468.74,1812.39Zm341.94,50.19c0,5-.15,7.53,0,10.07a68.46,68.46,0,0,0,1.25,9.49,17.39,17.39,0,0,0,5.44,9.9,8.15,8.15,0,0,0,7.08,2,19.54,19.54,0,0,0,8.49-4.22c7.18-5.64,12.39-13,16.76-20.77a279.15,279.15,0,0,0,26.63-65.48c.5-1.9-1.07-5.79-2.74-6.76a33.11,33.11,0,0,0-3.34-1.87c-10.82-4.78-19.15-12.57-26.36-21.72-1.19-1.5-2.2-3.13-3.37-4.65-1.4-1.81-5.59-1.66-6.8.26-1.35,2.15-3,4.24-3.82,6.59-3.17,9.05-6.15,18.16-9,27.31a98.6,98.6,0,0,0-2.75,11.15c-1.82,9.41-3.46,18.86-5.22,28.29A144.5,144.5,0,0,0,1810.68,1862.58ZM1904.46,1673a276.61,276.61,0,0,0-1.76-34.42,46.62,46.62,0,0,0-3.65-12.86,12.16,12.16,0,0,0-5.11-5.54,7.11,7.11,0,0,0-7.25-.06,13.13,13.13,0,0,0-6,7.23,41,41,0,0,0-1.9,7.4c-1.83,10.71-2.59,21.58-4.45,32.25a229.6,229.6,0,0,0-2.79,30.45,125.21,125.21,0,0,0,.6,21c.81,6.28,3,12.39,4.6,18.56a41.11,41.11,0,0,0,2,5.4,12.71,12.71,0,0,0,1.84,3.33,30.33,30.33,0,0,0,4.08,3.93c1.8,1.46,5.53.36,6.56-1.76a114.24,114.24,0,0,0,8.67-27.3C1903.09,1705,1903.56,1689,1904.46,1673Zm-727.3,18.09c-.05-5.14-.92-8.78-3.26-12a7.83,7.83,0,0,0-10.2-2.28,14.36,14.36,0,0,0-4.34,3.6,94.77,94.77,0,0,0-11.65,21.9c-4.52,11.91-9,23.88-12.12,36.26a131.37,131.37,0,0,1-3.76,12.82c-1.72,4.77-2.63,9.83-3.82,14.79-.69,2.87.35,5.56,2.46,6.51,2,.88,3.78.17,5.38-.92a49.66,49.66,0,0,0,12.2-12c13.67-18.82,23.39-39.44,28.22-62.26C1176.79,1695,1177,1692.45,1177.16,1691.13Z"/><path class="cls-3" d="M435,2521.35a188.37,188.37,0,0,0,.36,38.28,19.5,19.5,0,0,1,0,3.82,9.25,9.25,0,0,1-3.35,6.63,81.31,81.31,0,0,1-19.73,11.65,122,122,0,0,1-33.12,9.27,44.86,44.86,0,0,1-31.06-7.13,21.91,21.91,0,0,1-9.6-13.77,37.1,37.1,0,0,1-1.21-9.47c.17-7,.27-14.1,1.32-21,2-13.25,3.46-26.6,6.37-39.72a172.78,172.78,0,0,0,3.4-22.74c1.15-13.39,4.51-26.45,5.62-39.83a445.87,445.87,0,0,0,7.22-51.19,37.6,37.6,0,0,1,1-5.66,272.18,272.18,0,0,0,6.58-41.58c.57-7,2-13.9,3-20.85.94-6.31.94-12.76,3.19-18.85,1.46-10.76,3.33-21.49,4.29-32.29,1.19-13.39,4.16-26.51,5.35-39.88,3.43-16.29,4.15-32.95,6.48-49.39.63-4.42.79-8.89,2.15-13.2a24.79,24.79,0,0,0,1.14-5.63c1-14,3.87-27.83,5-41.86q1.58-20,5.14-39.89a75.78,75.78,0,0,0,1.23-7.56c1.24-15.94,4.21-31.68,5-47.67.18-3.82.91-7.61,1.34-11.41.66-5.72,1.27-11.43,1.89-17.15.14-1.27.16-2.56.36-3.81,3.19-20.23,3.94-40.7,6.17-61,.07-.64.2-1.27.21-1.91.51-17.9,2.78-35.67,3.93-53.52.49-7.64.42-15.33.51-23,.11-9-.36-17.88-2.56-26.64a25.18,25.18,0,0,1-.65-5.68,6.53,6.53,0,0,1,2.2-5.12,26.73,26.73,0,0,1,6.49-4c5.29-2.25,10.72-4.16,16.08-6.24,8.55-3.32,17.42-3.8,26.4-2.71s15.31,6.07,20.32,13.1a44.25,44.25,0,0,1,6.47,13.85c2.37,8.6,4.71,17.27,4.65,26.33,0,7,.2,14.07-.1,21.09s-1.17,14-1.64,21c-.12,1.64.93,2.4,2.23,2a3.29,3.29,0,0,0,1.54-.93,16.22,16.22,0,0,0,2.17-3.13c3.58-7.49,6.93-15.09,10.67-22.5a267.2,267.2,0,0,1,27.26-43.9c4.33-5.57,9.05-10.74,13.86-15.86,8.41-9,18.38-15.84,29.2-21.47a84.6,84.6,0,0,1,12.41-5c20.8-6.91,21.92-7.12,47-7.2,14.56,0,27.62,4.79,40,11.69,11.45,6.36,19.72,16.1,26.63,27,7.58,12,12.33,25.21,15.87,38.87,1.92,7.41,3.72,14.85,4.13,22.58.33,6.38,1.13,12.73,1.73,19.1a218.55,218.55,0,0,1,0,40.2c-.62,7-1.19,14-1.59,21a246,246,0,0,1-6.6,43.51c-.74,3.1-1.29,6.26-1.84,9.4-2.1,12-5.32,23.65-8.38,35.4-6.44,24.79-15.19,48.78-24.22,72.68-3.6,9.56-7.62,19-12,28.21-5.47,11.54-10.82,23.14-16.83,34.43a550.2,550.2,0,0,1-38.3,61.89c-17.94,25.09-38.65,47.61-62.88,66.77a162.51,162.51,0,0,1-59.44,30,99,99,0,0,1-26.57,3.17c-5.11,0-10.21-.36-15.32-.52-1.28,0-2.55,0-3.83.07-3.17.05-6.43,2.55-7,5.49-2.08,10.66-4,21.32-5.17,32.15-2.92,28-6.2,55.89-9.27,83.83-1.32,12.08-2.27,24.18-2.55,36.33C435.53,2507.3,435.2,2514.32,435,2521.35Zm239.6-624.75c.39-16.11-2.36-31.84-5.53-47.53a54.43,54.43,0,0,0-9.43-20.8,34.35,34.35,0,0,0-14.61-12,22.81,22.81,0,0,0-5.43-1.81,54.4,54.4,0,0,0-21,.42,56.24,56.24,0,0,0-22.23,10.88c-10,8-19.15,17-26.34,27.7a225.12,225.12,0,0,0-12.26,19.45,452,452,0,0,0-23.59,52.4c-5.19,13.76-9.58,27.77-14.46,41.63-1.27,3.6-2.19,7.34-3.23,11-2.08,7.38-4.19,14.75-6.18,22.16-1.66,6.17-3.27,12.36-4.7,18.58q-4.3,18.67-8.36,37.41c-2.67,12.48-4.55,25.11-7.81,37.49-1.63,6.15-2.37,12.55-3.47,18.84-.77,4.4-1.46,8.82-2.2,13.23-2.67,15.74-6.3,31.33-7.92,47.24-1.36,13.35-4.46,26.47-5.11,39.91a22,22,0,0,1-.54,3.79c-2.39,10.63-3.15,21.5-4.72,32.25-1.66,11.37-2.25,22.89-5.15,34.09a10.67,10.67,0,0,0,1.77,9.12c3,4.13,6,8.32,9.22,12.25a15.69,15.69,0,0,0,8.18,4.75,21,21,0,0,0,9.51.61c7.52-1.42,15.06-2.86,22.45-4.84,6.2-1.67,11.66-5.24,17.17-8.43a116.78,116.78,0,0,0,21.27-16.27c16.49-15.51,29.2-33.86,40.08-53.52a499.12,499.12,0,0,0,22.3-46.68,412.25,412.25,0,0,0,17.52-48.64c1.05-3.69,2.1-7.39,3.46-11,3-7.78,5-15.83,7.22-23.83,4.62-16.63,9-33.3,12-50.32.33-1.88,1.1-3.67,1.51-5.54,1.93-8.73,4-17.44,5.68-26.22,2-10,3.63-20.12,5.44-30.18.56-3.14,1.34-6.26,1.71-9.42,2.39-20.32,4.78-40.63,7-61C674.38,1908.13,674.31,1902.35,674.55,1896.6Z"/><path class="cls-3" d="M887.37,1981.69a213.92,213.92,0,0,0-.54,34.71c.32,4.25-1.87,7.19-5.08,9.68a52.84,52.84,0,0,1-17,8.59c-6.7,2.07-13.54,3.75-20.4,5.22a17.65,17.65,0,0,1-7.58-.26,70,70,0,0,1-10.87-3.7,17,17,0,0,1-9.07-9.43,28.1,28.1,0,0,1-2.17-15q1.7-12.35,3.5-24.68c2.89-19.6,5.61-39.23,9.15-58.73,1.36-7.54,2-15.21,3.08-22.8,2.61-17.7,5.31-35.39,8-53.09.38-2.53.9-5,1.12-7.58,1.6-17.84,4.86-35.43,7.65-53.09,2.19-13.89,3.58-27.9,5.15-41.87.58-5.08,1.33-10.11,2.18-15.16,2.24-13.23,4.18-26.51,5.39-39.88.69-7.64,1.19-15.27,2.77-22.83,1-5,.69-10.24,1.72-15.21,2.76-13.2,3.22-26.64,4.85-40,.93-7.61,1.59-15.26,2.11-22.91a104.43,104.43,0,0,1,2.17-17.09,31.29,31.29,0,0,0,.92-5.68c.86-19.15,4.46-38.08,4.7-57.3.2-16,.82-32-.56-47.91a6.91,6.91,0,0,1,3.4-6.43,9,9,0,0,1,1.62-1c6-2.27,11.88-4.74,18-6.66a27.63,27.63,0,0,1,15.17-.29,22.88,22.88,0,0,1,11.35,6.82,29.42,29.42,0,0,1,7.27,13.32,100.6,100.6,0,0,1,3,24.68c-.09,5.75-.2,11.5-.16,17.25a3.12,3.12,0,0,0,2.17,2.77,2.77,2.77,0,0,0,3.4-.86,16.8,16.8,0,0,0,2.33-3c1.22-2.24,2.26-4.58,3.35-6.89a197.86,197.86,0,0,1,22.23-35.77,90.47,90.47,0,0,1,35.55-28.45,64.5,64.5,0,0,1,18.32-5.37,129.39,129.39,0,0,1,28.71-.51,49,49,0,0,1,26.23,10.72,69.78,69.78,0,0,1,18.34,21.89A103,103,0,0,1,1108,1493a174.6,174.6,0,0,1,4.42,38c.21,17.27.12,34.53-3.45,51.56-.65,3.12-.84,6.33-1.32,9.49a273.05,273.05,0,0,1-7,33.72c-3.85,13.52-7.63,27-12.24,40.33a480,480,0,0,1-41.78,90.31c-15.55,25.93-34.14,49.38-57,69.32a128.19,128.19,0,0,1-25.32,17.15c-4,2.06-8.1,3.79-12.14,5.73a38.91,38.91,0,0,1-10.94,3.38q-4.74.75-9.45,1.64a63.43,63.43,0,0,1-21,.72,24.94,24.94,0,0,0-5.69.34c-1.46.13-3.75,2.19-4.18,3.56a78.94,78.94,0,0,0-3.59,18.77c-1,16.61-4.28,33-5.16,49.57a12.13,12.13,0,0,1-.2,1.9c-3.09,14.47-3.22,29.2-4,43.87C887.8,1976.18,887.49,1980,887.37,1981.69Zm178.48-457.44c.47-13.57-2.09-26.71-5.42-39.74a37.79,37.79,0,0,0-8.15-15,19.9,19.9,0,0,0-7.63-5.62,28.92,28.92,0,0,0-11.15-2.46,42.15,42.15,0,0,0-23.57,6.78,73.35,73.35,0,0,0-18,17,180.22,180.22,0,0,0-15.68,24c-5.45,10.15-9.57,20.86-14,31.45a334.55,334.55,0,0,0-13.87,39.74c-4.61,16.59-9,33.27-12.37,50.19-1.62,8.13-3.53,16.22-5.57,24.26a181,181,0,0,0-3.75,18.76c-1.26,8.84-2.69,17.68-4.47,26.43-2.8,13.78-4.86,27.65-6.28,41.63-1,9.53-1.85,19-3.9,28.44-1.48,6.85-2.35,13.84-3.27,20.8s-1.72,13.94-2.27,20.93a11.5,11.5,0,0,0,2.14,7.23,39.87,39.87,0,0,0,7.51,8.63,10.34,10.34,0,0,0,5.2,2.21,34.56,34.56,0,0,0,13.33-.37c9.36-2.25,18.32-5.44,26.17-11.31a141.92,141.92,0,0,0,11.87-9.64c10.41-9.64,18.7-21,26-33,7.95-13.1,14.42-27,20.52-41.06,7.63-17.59,12.85-36,19-54.13,4.56-19.89,11.23-39.29,13.74-59.67a130.09,130.09,0,0,1,3.42-16.88c2.74-10.55,4.12-21.31,5.49-32.07,1.3-10.13,2.3-20.29,3.74-30.4C1065.45,1535.76,1065.47,1530,1065.85,1524.25Z"/><path class="cls-3" d="M879,2451.37c-11.2.5-21.47-2.75-31.47-7.31a42.75,42.75,0,0,1-11.11-7.4A83.31,83.31,0,0,1,824,2422.14a54.27,54.27,0,0,1-6.13-11.9,125.39,125.39,0,0,1-8.21-41.18c-.2-7.66-.51-15.31-.85-23a3.27,3.27,0,0,0-2.27-2.78,4.1,4.1,0,0,0-3.66,0,8,8,0,0,0-1.62,1c-1.47,1.23-2.89,2.52-4.35,3.75-2.93,2.47-5.83,5-8.84,7.36-9.24,7.3-20,11.32-31.33,13.71a34.46,34.46,0,0,1-17.07-.83,47.05,47.05,0,0,1-12.21-5.48,27.1,27.1,0,0,1-4.56-3.46,59.37,59.37,0,0,1-13.68-20.57,124.34,124.34,0,0,1-8.48-41.11c-.82-23.72.25-47.28,5.61-70.52,2.16-9.34,3.63-18.84,6.08-28.09,2.3-8.63,5.31-17.09,8.31-25.51,9.93-27.82,22.36-54.34,40.56-77.87A201.45,201.45,0,0,1,777.71,2077a104.25,104.25,0,0,1,19.6-15.3,63.6,63.6,0,0,1,21.25-8.49c3.77-.73,7.52-1.53,11.27-2.32a27.94,27.94,0,0,1,11.41.1c4.39.88,8.81,1.6,13.18,2.57a62.81,62.81,0,0,1,7.32,2.2c7.38,2.62,13.83,6.57,18.29,13.26a12,12,0,0,0,2.49,2.91,6.9,6.9,0,0,0,5.41,1.22,17.74,17.74,0,0,0,5.55-1.44c6.54-3.46,13.5-3.57,20.57-2.93a13,13,0,0,1,3.72.83c4.12,1.75,8.23,3.55,11.56,6.66a14.49,14.49,0,0,1,4.67,8.15,15.57,15.57,0,0,1,0,3.8,4.81,4.81,0,0,1-.7,1.76c-8.09,14.71-12.31,30.82-16.89,46.78-2.46,8.59-4.33,17.35-6.46,26-.76,3.1-1.63,6.18-2.18,9.32-1.56,8.81-2.59,17.73-4.58,26.44-1.84,8.1-3.83,16.17-5.24,24.35-1.62,9.44-2.81,19-4.13,28.46-2.28,16.45-4.82,32.87-6.68,49.38-1.28,11.41-1.89,22.93-2.29,34.42s-.22,23-.18,34.51a67.49,67.49,0,0,0,1.91,17.11,53.94,53.94,0,0,0,2.62,7.17,9.56,9.56,0,0,0,9.39,5.31,23.43,23.43,0,0,0,5.57-1.32,37.05,37.05,0,0,0,11.1-7.38c9-8.33,16.05-18.23,22.34-28.64a441.4,441.4,0,0,0,31.21-61.48c5.06-12.4,10.6-24.65,14.42-37.53,5.39-11.63,8.8-24,13.29-36a123.45,123.45,0,0,0,4.69-16.59,93.08,93.08,0,0,1,4.77-14.55,6.48,6.48,0,0,1,3.86-4c3-1,6-2.17,9.1-3,5.49-1.42,10,.71,14,4.35a6.5,6.5,0,0,1,1.7,3.37,25.63,25.63,0,0,1,.83,7.55,83.7,83.7,0,0,1-2.62,15.06c-4.41,14.67-7.43,29.77-13.44,44a41.47,41.47,0,0,0-1.72,5.48c-3.73,14.26-9.17,27.93-14.73,41.51-8,19.5-16.63,38.76-27,57.13-8.51,15-17.37,29.83-28.64,43-8.73,10.24-18.09,19.8-29,27.83-7.86,5.79-17,8.78-26,12ZM745.86,2280.51c.13,2.47.38,8.84.8,15.21a30.94,30.94,0,0,0,5,14.32,15.63,15.63,0,0,0,12.64,7.58c5.36.4,10.06-1.47,14.31-4.5a42.11,42.11,0,0,0,9.38-9.51,180.8,180.8,0,0,0,21.16-38.5c2.18-5.31,4.38-10.62,6.29-16,4.45-12.64,9.27-25.19,13-38.06,6.87-23.92,12.83-48.09,18.42-72.34,2-8.7,3.43-17.54,4.74-26.38a25.89,25.89,0,0,0-3.43-16.59,15.17,15.17,0,0,0-16.34-7.16,36.27,36.27,0,0,0-16.54,9.13c-10.83,10.21-18.84,22.47-25.95,35.37-13.94,25.26-24,52.13-32.29,79.67a32,32,0,0,0-1.44,5.56c-.77,7-2.9,13.7-4.88,20.43C747.11,2251.07,746.24,2263.8,745.86,2280.51Z"/><path class="cls-3" d="M2033.24,1901.07c0-5.1,0-10.19,0-15.28a3,3,0,0,0-2.1-2.81,3.33,3.33,0,0,0-3.58.34c-2,1.59-3.87,3.32-5.86,4.9a38.68,38.68,0,0,1-4.69,3.28,18.23,18.23,0,0,1-11,2.38,11.19,11.19,0,0,1-6.82-3.13,22,22,0,0,1-6.74-13.4c-1.05-8.92-.47-17.85.47-26.75a30.93,30.93,0,0,1,1.26-5.59c1.85-6.11,3.85-12.17,5.67-18.28,2.77-9.31,7.48-17.58,13.18-25.35a23,23,0,0,1,2.44-3c3.77-3.64,8-6,13.52-6.31,6-.37,11.16,2.09,16.47,4.18a4.44,4.44,0,0,0,5-1.9c.3-.55.87-1,1-1.59,3.57-14.22,7.88-28.26,9.87-42.85.94-7,1.91-13.91,3.12-20.82a92.61,92.61,0,0,1,2.8-11.11c1.16-3.87,7.17-6,11.35-4.28a11.9,11.9,0,0,1,7.47,12.19c-.9,7.59-2.31,15.13-3.57,22.67q-1.72,10.4-3.57,20.76c-1.66,9.42-3.32,18.83-5.57,28.15-2.4,9.91-4.82,19.83-6.26,30a171.53,171.53,0,0,1-4,18.7c-4,15.53-5.93,31.34-6.9,47.3a25.52,25.52,0,0,0,.47,5.7,5.77,5.77,0,0,0,3.23,4.39,6.2,6.2,0,0,0,6.88-1.69,23.34,23.34,0,0,0,2.46-2.92c3.64-6,7.35-12,10.72-18.11a57.66,57.66,0,0,0,5-14.42c2.22-9.32,4.36-18.66,7-27.86,3.19-11.12,7.75-21.64,15.7-30.32a17.16,17.16,0,0,0,4-8.5c.78-3.74,1.74-7.45,2.82-11.12a24.21,24.21,0,0,1,5.93-9.71c6.18-6.58,17.26-7.33,24.47-1.68a16.2,16.2,0,0,1,5.37,7.77c2.41,7.33,3.7,14.9,2.82,22.63s-2.11,15.17-3.14,22.75c-.26,1.89-.31,3.8-.45,5.7a4.89,4.89,0,0,0,2.85,4.48,5,5,0,0,0,3.69,0c3.6-1.53,6.26-4.28,9.1-6.86,3.79-3.46,5.44-8.63,9.63-11.69a2.22,2.22,0,0,1,1.85-.2,2.55,2.55,0,0,1,1.19,1.43,7.75,7.75,0,0,1-.24,5.55,50.61,50.61,0,0,1-15.54,21.44c-2.44,2-5.45,3.28-8.26,4.78s-5.83,2.65-8.49,4.36a10.42,10.42,0,0,0-3.71,4.27,76.21,76.21,0,0,0-3.85,10.8,76.73,76.73,0,0,1-11.68,24,69.86,69.86,0,0,1-6.22,7.22c-3.65,3.91-8.39,5.79-13.51,6.64-5.93,1-11.44,0-16-4.33-1.38-1.31-2.82-2.55-4.29-3.76-1.25-1-4.18-.54-5.2.78L2068,1921.73a42.79,42.79,0,0,1-8.36,7.82,19.93,19.93,0,0,1-12.54,3.9,13.27,13.27,0,0,1-13.29-11.37c-.4-3.17-.74-6.35-.86-9.53-.15-3.82,0-7.65,0-11.48ZM2005.66,1862c.1,7.44-.18,11.25,1,15,.68,2.09,3.75,3.7,6.18,3.07a12.28,12.28,0,0,0,7.38-5.64,87.88,87.88,0,0,0,12.12-27.9c1-4.34,2.24-8.63,3.54-12.89a45.23,45.23,0,0,0,1-20.81,12.52,12.52,0,0,0-3.51-6.62c-1.64-1.75-5.12-2.22-6.94-.72-1.46,1.2-3.14,2.37-4.07,3.94a123.16,123.16,0,0,0-12.92,31.74C2007.4,1849.16,2005.5,1857.26,2005.66,1862Zm95.88,22.47c.13,1.41.29,3.31.52,5.21.07.62.32,1.22.45,1.84.6,2.81,5.11,4.52,7.8,3a18.35,18.35,0,0,0,6.73-6.65,92.57,92.57,0,0,0,10.66-24.5c.7-2.56.35-5.23-1.8-7-3.43-2.84-7-5.49-10.7-8a4.59,4.59,0,0,0-3.62-.6,5.63,5.63,0,0,0-2.5,2.73,27.46,27.46,0,0,0-2.12,5.32c-1,3.68-1.66,7.5-2.86,11.12C2102.26,1872.53,2101.83,1878.23,2101.54,1884.48Zm39.41-78c-.22-3.78-.26-7.57-.7-11.32a12.26,12.26,0,0,0-4.09-8.23,2.43,2.43,0,0,0-3.38-.15,7.23,7.23,0,0,0-3.28,4.37c-2.18,9.9-2.43,20-2.71,30.06-.09,3.07,1,6.19,1.65,9.27a12.47,12.47,0,0,0,.76,1.73c.66,1.76,3.12,3.16,4.46,2.4,1-.59,2.46-1.23,2.83-2.18A67.93,67.93,0,0,0,2141,1806.52Z"/><path class="cls-3" d="M1611.05,2059.66c-8,.45-13.45-3.62-17.1-10.11-1.61-2.87-.92-6.23.91-9.05a22.27,22.27,0,0,1,3.59-4.41c8-7.22,15.88-14.69,24.34-21.39,10.94-8.68,22.25-16.92,34-24.55a11.61,11.61,0,0,1,11-.85,40.36,40.36,0,0,1,15.6,10.66,16.1,16.1,0,0,1,2.91,4.84,7.28,7.28,0,0,1-.88,7.23c-5.41,7.18-12.26,12.88-19.47,18.1a307,307,0,0,1-47.53,28A15.66,15.66,0,0,1,1611.05,2059.66Z"/><path class="cls-3" d="M525.55,2553.82c4.61,0,7.54.91,10.06,2.62a9.12,9.12,0,0,1,3.77,7.5v29a9,9,0,0,1-3.77,6.94c-.15.11-.28.22-.42.34l.42.34a8.75,8.75,0,0,1,3.77,7.39v26.71a8.9,8.9,0,0,1-3.77,7.38c-2.52,1.82-5.45,2.73-10.06,2.73H513.11v-90.93Zm-5.45,44h5.45a8.47,8.47,0,0,0,5-1.59,5,5,0,0,0,1.53-3c0-.11.14-.68.14-.79v-28.53a5,5,0,0,0-1.67-3.75,8.47,8.47,0,0,0-5-1.59H520.1Zm5.45,42.05a7.74,7.74,0,0,0,5-1.47,5.47,5.47,0,0,0,1.67-3.75v-25.92a5,5,0,0,0-1.67-3.64,7.66,7.66,0,0,0-4.75-1.59H520.1v36.37Z"/><path class="cls-3" d="M525.55,2645.4H512.46v-92.23h13.09c4.48,0,7.6.82,10.42,2.73a9.81,9.81,0,0,1,4.06,8v29a9.56,9.56,0,0,1-3.79,7.27,9.37,9.37,0,0,1,3.79,7.74v26.71a9.54,9.54,0,0,1-4,7.9C533.22,2644.55,530.1,2645.4,525.55,2645.4Zm-11.79-1.3h11.79c4.25,0,7.15-.78,9.67-2.61a8.21,8.21,0,0,0,3.51-6.85v-26.71a8.13,8.13,0,0,0-3.51-6.86l-1.07-.87,1.05-.85a8.41,8.41,0,0,0,3.53-6.46v-28.95a8.43,8.43,0,0,0-3.52-7c-2.56-1.74-5.46-2.48-9.66-2.48H513.76Zm11.79-3.58h-6.11v-37.68h6.39a8.16,8.16,0,0,1,5.19,1.76,5.66,5.66,0,0,1,1.88,4.12v25.92a6,6,0,0,1-1.85,4.2A8.23,8.23,0,0,1,525.55,2640.52Zm-4.8-1.31h4.8a7.12,7.12,0,0,0,4.59-1.31,4.7,4.7,0,0,0,1.46-3.26v-25.92a4.33,4.33,0,0,0-1.47-3.16,6.93,6.93,0,0,0-4.34-1.42h-5Zm-.65-40.75h-.66v-40.52h6.11c1.74.11,4.07.49,5.47,1.77a5.68,5.68,0,0,1,1.88,4.23v28.53a2.86,2.86,0,0,1-.08.53c0,.12-.05.24-.06.3a5.45,5.45,0,0,1-1.74,3.39c-1.4,1.29-3.73,1.67-5.44,1.77Zm.65-1.3h4.8a7.76,7.76,0,0,0,4.59-1.42,4.23,4.23,0,0,0,1.32-2.56s0-.15.08-.45c0-.12.05-.24.06-.3v-28.49a4.33,4.33,0,0,0-1.47-3.27,7.74,7.74,0,0,0-4.62-1.42h-4.76Z"/><path class="cls-3" d="M598.48,2644.75l-1.67-15.57h-9.23l-1.67,15.57h-7l9.78-91h7l9.78,91Zm-10.2-21.25h8l-4.06-36.94Z"/><path class="cls-3" d="M606.19,2645.4H597.9l-1.68-15.57h-8.05l-1.68,15.57H578.2l.07-.72,9.85-91.62h8.15Zm-7.12-1.3h5.67l-9.64-89.74h-5.81l-9.64,89.74h5.67l1.68-15.57h10.39Zm-2.1-19.95h-9.41l4.62-43.68Zm-8-1.31h6.51l-3.31-30.19Z"/><path class="cls-3" d="M671.28,2592.47a8.76,8.76,0,0,1-3.78,7.39l-.42.34.42.34a8.73,8.73,0,0,1,3.78,7.39v36.82h-7.13v-36a5,5,0,0,0-1.68-3.64,7.61,7.61,0,0,0-4.75-1.59H652v41.26h-7v-90.93h12.43c4.61,0,7.55.91,10.06,2.73a8.76,8.76,0,0,1,3.78,7.39ZM652,2558.6v39.21h5.44a8.42,8.42,0,0,0,5-1.59,5,5,0,0,0,1.68-3.75v-28.53a5,5,0,0,0-1.68-3.75,8.42,8.42,0,0,0-5-1.59Z"/><path class="cls-3" d="M671.93,2645.4H663.5v-36.68a4.33,4.33,0,0,0-1.47-3.16,6.93,6.93,0,0,0-4.34-1.42h-5v41.25h-8.29v-92.23h13.08c4.56,0,7.68.85,10.45,2.85a9.4,9.4,0,0,1,4,7.92v28.53a9.78,9.78,0,0,0,0,15.46Zm-7.13-1.3h5.82v-36.17a8.12,8.12,0,0,0-3.5-6.86l-1.07-.87,1-.85a8.16,8.16,0,0,0,3.53-6.88v-28.53a8.14,8.14,0,0,0-3.5-6.86c-2.52-1.82-5.42-2.6-9.68-2.6H645.66v89.62h5.68v-41.26h6.38a8.12,8.12,0,0,1,5.19,1.76,5.64,5.64,0,0,1,1.89,4.12ZM652,2598.46h-.66v-40.52h6.1c1.75.11,4.08.49,5.47,1.77a5.65,5.65,0,0,1,1.89,4.23v28.53a5.68,5.68,0,0,1-1.88,4.23c-1.4,1.28-3.73,1.66-5.44,1.76Zm.65-1.3h4.79a7.74,7.74,0,0,0,4.59-1.42,4.36,4.36,0,0,0,1.47-3.27v-28.53a4.33,4.33,0,0,0-1.47-3.27,7.77,7.77,0,0,0-4.62-1.42h-4.76Z"/><path class="cls-3" d="M737.09,2592.47a8.76,8.76,0,0,1-3.78,7.39l-.42.34.42.34a8.73,8.73,0,0,1,3.78,7.39v36.82H730v-36a5,5,0,0,0-1.68-3.64,7.61,7.61,0,0,0-4.75-1.59h-5.72v41.26h-7v-90.93h12.43c4.61,0,7.55.91,10.06,2.73a8.76,8.76,0,0,1,3.78,7.39Zm-19.28-33.87v39.21h5.44a8.42,8.42,0,0,0,5-1.59,5,5,0,0,0,1.68-3.75v-28.53a5,5,0,0,0-1.68-3.75,8.42,8.42,0,0,0-5-1.59Z"/><path class="cls-3" d="M737.74,2645.4h-8.43v-36.68a4.33,4.33,0,0,0-1.47-3.16,6.93,6.93,0,0,0-4.34-1.42h-5v41.25h-8.29v-92.23h13.08c4.56,0,7.68.85,10.45,2.85a9.4,9.4,0,0,1,4,7.92v28.53a9.78,9.78,0,0,0,0,15.46Zm-7.13-1.3h5.82v-36.17a8.12,8.12,0,0,0-3.5-6.86l-1.07-.87,1-.85a8.16,8.16,0,0,0,3.53-6.88v-28.53a8.14,8.14,0,0,0-3.5-6.86c-2.52-1.82-5.42-2.6-9.68-2.6H711.47v89.62h5.68v-41.26h6.38a8.12,8.12,0,0,1,5.19,1.76,5.64,5.64,0,0,1,1.89,4.12Zm-12.8-45.64h-.66v-40.52h6.1c1.75.11,4.08.49,5.47,1.77a5.65,5.65,0,0,1,1.89,4.23v28.53a5.68,5.68,0,0,1-1.88,4.23c-1.4,1.28-3.73,1.66-5.44,1.76Zm.65-1.3h4.79a7.71,7.71,0,0,0,4.59-1.42,4.36,4.36,0,0,0,1.47-3.27v-28.53a4.33,4.33,0,0,0-1.47-3.27,7.74,7.74,0,0,0-4.62-1.42h-4.76Z"/><path class="cls-3" d="M796.19,2644.75l-1.68-15.57h-9.22l-1.68,15.57h-7l9.78-91h7l9.78,91ZM786,2623.5h8l-4.05-36.94Z"/><path class="cls-3" d="M803.9,2645.4h-8.3l-1.67-15.57h-8l-1.68,15.57h-8.3l.08-.72,9.84-91.62H794Zm-7.12-1.3h5.67l-9.64-89.74H787l-9.65,89.74H783l1.67-15.57h10.4Zm-2.1-19.95h-9.42l4.63-43.68Zm-8-1.31h6.51l-3.32-30.19Z"/><path class="cls-3" d="M901.4,2588.94v-25.8a4.38,4.38,0,0,0-1.54-3.63,6.31,6.31,0,0,0-4.61-1.59,5.45,5.45,0,0,0-4.33,1.59,4.28,4.28,0,0,0-1.4,3.63v71.5a4.66,4.66,0,0,0,1.4,3.75c1,1,2.24,1.47,4.33,1.47a6.32,6.32,0,0,0,4.61-1.47,4.78,4.78,0,0,0,1.54-3.75v-27.4h-4.47v-5.79h11.6v33.3a8.78,8.78,0,0,1-4.06,7.27c-2.51,1.82-4.61,2.73-9.08,2.73a23.6,23.6,0,0,1-5.87-.68,12.51,12.51,0,0,1-4.19-2.05,7.82,7.82,0,0,1-2.51-3.07c-.7-1.25-.56-2.61-.56-4.2v-71.61c0-1.59-.14-3.06.56-4.2a7.41,7.41,0,0,1,2.51-3.18,14.85,14.85,0,0,1,4.19-1.94,23.41,23.41,0,0,1,5.87-.79c4.47,0,6.57.91,9.08,2.73s4.06,4.2,4.06,7.38v25.8Z"/><path class="cls-3" d="M895.39,2645.4a23.56,23.56,0,0,1-6-.7,12.85,12.85,0,0,1-4.42-2.15,8.46,8.46,0,0,1-2.72-3.31,7.26,7.26,0,0,1-.63-3.81v-73a7,7,0,0,1,.66-3.86,7.8,7.8,0,0,1,2.69-3.37,15.38,15.38,0,0,1,4.4-2,24.12,24.12,0,0,1,6-.81c4.67,0,6.85,1,9.47,2.85,2.87,2.2,4.32,4.86,4.32,7.91v26.46h-8.43v-26.46a3.71,3.71,0,0,0-1.3-3.13,5.77,5.77,0,0,0-4.2-1.44,4.85,4.85,0,0,0-3.86,1.39,3.63,3.63,0,0,0-1.21,3.18v71.5a4,4,0,0,0,1.18,3.26c.9.94,2,1.31,3.89,1.31a5.67,5.67,0,0,0,4.17-1.31,4.09,4.09,0,0,0,1.33-3.26V2607.9h-4.47v-7.11h12.9v34a9.45,9.45,0,0,1-4.33,7.8C902.24,2644.44,900.06,2645.4,895.39,2645.4Zm0-91.72a22.17,22.17,0,0,0-5.71.78,14.17,14.17,0,0,0-4,1.85,6.63,6.63,0,0,0-2.27,2.9,6,6,0,0,0-.5,3.24v73a6.13,6.13,0,0,0,.48,3.2,7.24,7.24,0,0,0,2.33,2.85,11.65,11.65,0,0,0,4,2,22.86,22.86,0,0,0,5.7.66c4.31,0,6.31-.88,8.7-2.61a8.09,8.09,0,0,0,3.78-6.74V2602.1H897.58v4.49h4.47v28a5.41,5.41,0,0,1-1.75,4.23,7,7,0,0,1-5,1.65c-2.24,0-3.68-.51-4.8-1.68a5.37,5.37,0,0,1-1.58-4.2v-71.5a5,5,0,0,1,1.64-4.14,6.08,6.08,0,0,1,4.74-1.74,7,7,0,0,1,5,1.77,4.94,4.94,0,0,1,1.75,4.11v25.15h5.82v-25.15c0-2.66-1.24-4.91-3.79-6.87C901.7,2554.56,899.7,2553.68,895.39,2553.68Z"/><path class="cls-3" d="M974.34,2592.47a8.76,8.76,0,0,1-3.78,7.39l-.42.34.42.34a8.73,8.73,0,0,1,3.78,7.39v36.82h-7.13v-36a5,5,0,0,0-1.68-3.64,7.61,7.61,0,0,0-4.75-1.59h-5.72v41.26h-7v-90.93H960.5c4.61,0,7.55.91,10.06,2.73a8.76,8.76,0,0,1,3.78,7.39Zm-19.28-33.87v39.21h5.44a8.42,8.42,0,0,0,5-1.59,5,5,0,0,0,1.68-3.75v-28.53a5,5,0,0,0-1.68-3.75,8.42,8.42,0,0,0-5-1.59Z"/><path class="cls-3" d="M975,2645.4h-8.43v-36.68a4.33,4.33,0,0,0-1.47-3.16,6.93,6.93,0,0,0-4.34-1.42h-5v41.25h-8.29v-92.23H960.5c4.56,0,7.68.85,10.45,2.85a9.4,9.4,0,0,1,4,7.92v28.53a9.78,9.78,0,0,0,0,15.46Zm-7.13-1.3h5.82v-36.17a8.12,8.12,0,0,0-3.5-6.86l-1.07-.87,1-.85a8.17,8.17,0,0,0,3.52-6.88v-28.53a8.14,8.14,0,0,0-3.5-6.86c-2.52-1.82-5.42-2.6-9.68-2.6H948.72v89.62h5.68v-41.26h6.38a8.12,8.12,0,0,1,5.19,1.76,5.64,5.64,0,0,1,1.89,4.12Zm-12.8-45.64h-.66v-40.52h6.1c1.75.11,4.08.49,5.47,1.77a5.65,5.65,0,0,1,1.89,4.23v28.53a5.68,5.68,0,0,1-1.88,4.23c-1.4,1.28-3.73,1.66-5.44,1.76Zm.65-1.3h4.79a7.71,7.71,0,0,0,4.59-1.42,4.36,4.36,0,0,0,1.47-3.27v-28.53a4.33,4.33,0,0,0-1.47-3.27,7.74,7.74,0,0,0-4.62-1.42h-4.76Z"/><path class="cls-3" d="M1033.44,2644.75l-1.68-15.57h-9.22l-1.67,15.57h-7l9.78-91h7l9.78,91Zm-10.2-21.25h8l-4-36.94Z"/><path class="cls-3" d="M1041.15,2645.4h-8.3l-1.67-15.57h-8.05l-1.68,15.57h-8.3l.08-.72,9.84-91.62h8.16Zm-7.12-1.3h5.67l-9.64-89.74h-5.81l-9.65,89.74h5.68l1.67-15.57h10.4Zm-2.1-19.95h-9.42l4.63-43.68Zm-8-1.31h6.51l-3.32-30.19Z"/><path class="cls-3" d="M1099.25,2553.71h7v91h-7l-12.3-57.62v57.62h-7v-91h7l12.3,57.63Z"/><path class="cls-3" d="M1106.89,2645.4h-8.17l-11.11-52.09v52.09h-8.29v-92.34h8.16l11.12,52.09v-52.09h8.29Zm-7.11-1.3h5.8v-89.74h-5.68v63.16l-13.47-63.16h-5.81v89.74h5.68v-63.16Z"/><path class="cls-3" d="M1158.21,2553.82c4.61,0,7.55.91,10.06,2.73a8.76,8.76,0,0,1,3.78,7.39v70.7a8.88,8.88,0,0,1-3.78,7.38c-2.51,1.82-5.45,2.73-10.06,2.73h-12.43v-90.93Zm0,86a7.71,7.71,0,0,0,5-1.47,5.44,5.44,0,0,0,1.68-3.75v-70.7a5,5,0,0,0-1.68-3.75,8.42,8.42,0,0,0-5-1.59h-5.44v81.26Z"/><path class="cls-3" d="M1158.21,2645.4h-13.08v-92.23h13.08c4.56,0,7.68.85,10.45,2.85a9.4,9.4,0,0,1,4,7.92v70.7a9.57,9.57,0,0,1-4,7.9C1165.89,2644.55,1162.77,2645.4,1158.21,2645.4Zm-11.78-1.3h11.78c4.26,0,7.16-.78,9.68-2.61a8.2,8.2,0,0,0,3.5-6.85v-70.7a8.14,8.14,0,0,0-3.5-6.86c-2.52-1.82-5.42-2.6-9.68-2.6h-11.78Zm11.78-3.58h-6.1v-82.58h6.1c1.75.11,4.08.49,5.47,1.77a5.65,5.65,0,0,1,1.89,4.23v70.7a6,6,0,0,1-1.85,4.2A8.26,8.26,0,0,1,1158.21,2640.52Zm-4.79-1.31h4.79a7.08,7.08,0,0,0,4.59-1.31,4.71,4.71,0,0,0,1.47-3.26v-70.7a4.33,4.33,0,0,0-1.47-3.27,7.77,7.77,0,0,0-4.62-1.42h-4.76Z"/><path class="cls-3" d="M1218.57,2559.51v38.3h10.06v5.68h-10.06v35.58h15.37v5.68h-22.35v-91h22.35v5.8Z"/><path class="cls-3" d="M1234.59,2645.4h-23.66v-92.34h23.66v7.1h-15.36v37h10.06v7h-10.06v34.27h15.36Zm-22.35-1.3h21v-4.38h-15.37v-36.88H1228v-4.38h-10.06v-39.61h15.37v-4.49h-21Z"/><path class="cls-3" d="M1323.09,2605.66c0,2.27-2.24,4.09-5,4.09s-5-1.82-5-4.09,2.23-4.09,5-4.09S1323.09,2603.39,1323.09,2605.66Z"/><path class="cls-3" d="M1318.06,2613.23c-4.78,0-8.51-3.32-8.51-7.57s3.73-7.57,8.51-7.57,8.51,3.32,8.51,7.57S1322.83,2613.23,1318.06,2613.23Zm0-8.18a1.75,1.75,0,0,0-1.55.62,1.82,1.82,0,0,0,1.55.6.89.89,0,1,0,0-1.22Z"/><path class="cls-3" d="M1414.6,2553.82c4.61,0,7.55.91,10.06,2.73a8.76,8.76,0,0,1,3.78,7.39v29.44a8.9,8.9,0,0,1-3.78,7.39c-2.51,1.81-5.45,2.72-10.06,2.72h-5.44v41.26h-7v-90.93Zm6.71,10.12a5,5,0,0,0-1.68-3.75,8.42,8.42,0,0,0-5-1.59h-5.44v39.21h5.44a8.42,8.42,0,0,0,5-1.59,5,5,0,0,0,1.68-3.75Z"/><path class="cls-3" d="M1409.81,2645.4h-8.29v-92.23h13.08c4.56,0,7.68.85,10.45,2.85a9.4,9.4,0,0,1,4,7.92v29.44a9.57,9.57,0,0,1-4,7.9c-2.78,2-5.9,2.87-10.46,2.87h-4.79Zm-7-1.3h5.68v-41.26h6.1c4.26,0,7.16-.78,9.68-2.6a8.24,8.24,0,0,0,3.5-6.86v-29.44a8.14,8.14,0,0,0-3.5-6.86c-2.52-1.82-5.42-2.6-9.68-2.6h-11.78Zm6.34-45.64h-.66v-40.52h6.1c1.75.11,4.08.49,5.47,1.77a5.65,5.65,0,0,1,1.89,4.23v28.53a5.68,5.68,0,0,1-1.88,4.23c-1.4,1.28-3.73,1.66-5.44,1.76Zm.65-1.3h4.79a7.74,7.74,0,0,0,4.59-1.42,4.36,4.36,0,0,0,1.47-3.27v-28.53a4.33,4.33,0,0,0-1.47-3.27,7.77,7.77,0,0,0-4.62-1.42h-4.76Z"/><path class="cls-3" d="M1468,2644.75v-91h7v91Z"/><path class="cls-3" d="M1475.62,2645.4h-8.29v-92.34h8.29Zm-7-1.3h5.68v-89.74h-5.68Z"/><path class="cls-3" d="M1534.07,2644.75l-1.68-15.57h-9.22l-1.68,15.57h-7l9.78-91h7l9.78,91Zm-10.2-21.25h8l-4-36.94Z"/><path class="cls-3" d="M1541.78,2645.4h-8.3l-1.68-15.57h-8l-1.67,15.57h-8.3l.08-.72,9.84-91.62h8.16Zm-7.13-1.3h5.68l-9.64-89.74h-5.82l-9.64,89.74h5.68l1.67-15.57H1533Zm-2.09-19.95h-9.42l4.63-43.68Zm-8-1.31h6.51l-3.31-30.19Z"/><path class="cls-3" d="M1599.74,2553.6h7.12V2635a8.77,8.77,0,0,1-4,7.27c-2.51,1.82-4.61,2.73-9.08,2.73a23.54,23.54,0,0,1-5.87-.68,12.42,12.42,0,0,1-4.19-2.05,7.76,7.76,0,0,1-2.52-3.07c-.69-1.25-.56-2.61-.56-4.2V2553.6h7.27v81.26a4.64,4.64,0,0,0,1.4,3.75c1,1,2.23,1.48,4.33,1.48a6.29,6.29,0,0,0,4.61-1.48,4.75,4.75,0,0,0,1.54-3.75Z"/><path class="cls-3" d="M1593.73,2645.63a24.15,24.15,0,0,1-6-.7,12.81,12.81,0,0,1-4.41-2.15,8.46,8.46,0,0,1-2.72-3.31,7.2,7.2,0,0,1-.63-3.82v-82.71h8.57v81.92a4,4,0,0,0,1.19,3.27c.9.94,2,1.31,3.89,1.31a5.68,5.68,0,0,0,4.17-1.31,4.12,4.12,0,0,0,1.32-3.27v-81.92h8.44v82a9.45,9.45,0,0,1-4.33,7.8C1600.58,2644.67,1598.39,2645.63,1593.73,2645.63Zm-12.48-91.38v81.42a6.19,6.19,0,0,0,.48,3.19,7.29,7.29,0,0,0,2.33,2.86,11.78,11.78,0,0,0,4,2,22.86,22.86,0,0,0,5.7.66c4.31,0,6.31-.88,8.7-2.61a8.09,8.09,0,0,0,3.78-6.74v-80.73h-5.82v80.61a5.39,5.39,0,0,1-1.75,4.23,7,7,0,0,1-5.05,1.65c-2.24,0-3.68-.5-4.8-1.68a5.31,5.31,0,0,1-1.58-4.2v-80.61Z"/><path class="cls-3" d="M1646.41,2644.75v-91h7v91Zm15.92-107.86-9.08,10.68h-6.7l8.94-10.68Z"/><path class="cls-3" d="M1654,2645.4h-8.29v-92.34H1654Zm-7-1.3h5.68v-89.74h-5.68Zm6.5-95.87h-8.41l10-12h8.56Zm-5.62-1.31h5l8-9.38h-5.13Z"/><path class="cls-3" d="M1742.53,2605.66c0,2.27-2.23,4.09-5,4.09s-5-1.82-5-4.09,2.24-4.09,5-4.09S1742.53,2603.39,1742.53,2605.66Z"/><path class="cls-3" d="M1737.5,2613.23c-4.77,0-8.51-3.32-8.51-7.57s3.74-7.57,8.51-7.57,8.51,3.32,8.51,7.57S1742.28,2613.23,1737.5,2613.23Zm0-8.18a1.77,1.77,0,0,0-1.55.62,1.84,1.84,0,0,0,1.55.6.9.9,0,1,0,0-1.22Z"/><path class="cls-3" d="M1834.05,2553.82c4.61,0,7.55.91,10.06,2.62a9.09,9.09,0,0,1,3.77,7.5v29a9,9,0,0,1-3.77,6.94l-.42.34.42.34a8.72,8.72,0,0,1,3.77,7.39v26.71a8.87,8.87,0,0,1-3.77,7.38c-2.51,1.82-5.45,2.73-10.06,2.73h-12.43v-90.93Zm-5.45,44h5.45a8.44,8.44,0,0,0,5-1.59,4.92,4.92,0,0,0,1.54-3c0-.11.14-.68.14-.79v-28.53a5,5,0,0,0-1.68-3.75,8.44,8.44,0,0,0-5-1.59h-5.45Zm5.45,42.05a7.72,7.72,0,0,0,5-1.47,5.44,5.44,0,0,0,1.68-3.75v-25.92a5,5,0,0,0-1.68-3.64,7.64,7.64,0,0,0-4.75-1.59h-5.73v36.37Z"/><path class="cls-3" d="M1834.05,2645.4H1821v-92.23h13.09c4.49,0,7.61.82,10.43,2.73a9.83,9.83,0,0,1,4.06,8v29a9.57,9.57,0,0,1-3.8,7.27,9.35,9.35,0,0,1,3.8,7.74v26.71a9.57,9.57,0,0,1-4,7.9C1841.73,2644.55,1838.6,2645.4,1834.05,2645.4Zm-11.78-1.3h11.78c4.26,0,7.15-.78,9.68-2.61a8.2,8.2,0,0,0,3.5-6.85v-26.71a8.12,8.12,0,0,0-3.5-6.86l-1.07-.87,1-.85a8.35,8.35,0,0,0,3.53-6.46v-28.95a8.4,8.4,0,0,0-3.52-7c-2.55-1.74-5.45-2.48-9.66-2.48h-11.78Zm11.78-3.58H1828v-37.68h6.38a8.14,8.14,0,0,1,5.19,1.76,5.64,5.64,0,0,1,1.89,4.12v25.92a6,6,0,0,1-1.86,4.2A8.21,8.21,0,0,1,1834.05,2640.52Zm-4.8-1.31h4.8a7.08,7.08,0,0,0,4.59-1.31,4.7,4.7,0,0,0,1.46-3.26v-25.92a4.32,4.32,0,0,0-1.46-3.16,7,7,0,0,0-4.35-1.42h-5Zm-.65-40.75H1828v-40.52h6.1c1.75.11,4.08.49,5.47,1.77a5.65,5.65,0,0,1,1.89,4.23v28.53a2.86,2.86,0,0,1-.08.53c0,.12,0,.24-.06.3a5.55,5.55,0,0,1-1.74,3.39c-1.4,1.29-3.73,1.67-5.44,1.77Zm.65-1.3h4.8a7.74,7.74,0,0,0,4.59-1.42,4.24,4.24,0,0,0,1.33-2.56,2.55,2.55,0,0,1,.08-.45c0-.12,0-.24.06-.3v-28.49a4.32,4.32,0,0,0-1.46-3.27,7.78,7.78,0,0,0-4.63-1.42h-4.76Z"/><path class="cls-3" d="M1913.69,2592.47a8.77,8.77,0,0,1-3.77,7.39l-.42.34.42.34a8.75,8.75,0,0,1,3.77,7.39v36.82h-7.12v-36a5,5,0,0,0-1.68-3.64,7.66,7.66,0,0,0-4.75-1.59h-5.73v41.26h-7v-90.93h12.44c4.61,0,7.54.91,10.06,2.73a8.77,8.77,0,0,1,3.77,7.39Zm-19.28-33.87v39.21h5.45a8.44,8.44,0,0,0,5-1.59,5,5,0,0,0,1.68-3.75v-28.53a5,5,0,0,0-1.68-3.75,8.44,8.44,0,0,0-5-1.59Z"/><path class="cls-3" d="M1914.34,2645.4h-8.43v-36.68a4.33,4.33,0,0,0-1.47-3.16,6.91,6.91,0,0,0-4.34-1.42h-5v41.25h-8.29v-92.23h13.09c4.55,0,7.68.85,10.44,2.85a9.38,9.38,0,0,1,4,7.92v28.53a9.79,9.79,0,0,0,0,15.46Zm-7.12-1.3H1913v-36.17a8.12,8.12,0,0,0-3.5-6.86l-1.07-.87,1-.85a8.16,8.16,0,0,0,3.53-6.88v-28.53a8.14,8.14,0,0,0-3.5-6.86c-2.53-1.82-5.42-2.6-9.68-2.6h-11.78v89.62h5.68v-41.26h6.38a8.14,8.14,0,0,1,5.19,1.76,5.64,5.64,0,0,1,1.89,4.12Zm-12.81-45.64h-.65v-40.52h6.1c1.75.11,4.08.49,5.47,1.77a5.65,5.65,0,0,1,1.89,4.23v28.53a5.68,5.68,0,0,1-1.88,4.23c-1.41,1.28-3.73,1.66-5.44,1.76Zm.65-1.3h4.8a7.74,7.74,0,0,0,4.59-1.42,4.35,4.35,0,0,0,1.46-3.27v-28.53a4.29,4.29,0,0,0-1.47-3.27,7.72,7.72,0,0,0-4.62-1.42h-4.76Z"/><path class="cls-3" d="M1972.8,2644.75l-1.68-15.57h-9.22l-1.68,15.57h-7l9.78-91h7l9.78,91Zm-10.2-21.25h8l-4-36.94Z"/><path class="cls-3" d="M1980.51,2645.4h-8.3l-1.68-15.57h-8l-1.67,15.57h-8.3l.08-.72,9.84-91.62h8.16Zm-7.13-1.3h5.68l-9.64-89.74h-5.82L1954,2644.1h5.68l1.67-15.57h10.4Zm-2.09-19.95h-9.42l4.63-43.68Zm-8-1.31h6.51l-3.31-30.19Z"/><path class="cls-3" d="M2049.78,2582.47h-7.12v-18.08a5,5,0,0,0-1.68-3.75,8.32,8.32,0,0,0-5.31-1.59c-2.09,0-4.19.57-5.17,1.59a4.47,4.47,0,0,0-1.54,3.75,61.45,61.45,0,0,0,1.54,15.12,66.94,66.94,0,0,0,3.77,11.82,94.24,94.24,0,0,0,5,10,52.31,52.31,0,0,0,2.24,4.78,46.43,46.43,0,0,1,3.21,8.18,60.93,60.93,0,0,1,2.38,9.66c.56,3.41.42,7.39.42,11.82a8.34,8.34,0,0,1-1,4.21,11.18,11.18,0,0,1-2.8,3.18,20.79,20.79,0,0,1-4.47,2.05,25.82,25.82,0,0,1-6.14.68c-4.48,0-7.55-.91-10.06-2.73a8.9,8.9,0,0,1-3.78-7.39v-18.18h7.27v18.18a5.27,5.27,0,0,0,1.54,3.75c1.11,1,3.21,1.48,5.3,1.48s4.2-.45,5.17-1.48a4.75,4.75,0,0,0,1.54-3.75,61.85,61.85,0,0,0-1.54-15.23,65.33,65.33,0,0,0-3.77-11.82c-1.25-2.61-2.23-5-3.49-7.39,0,0-2.52-4.88-3.77-7.38a48.85,48.85,0,0,1-3.22-8.07,65.44,65.44,0,0,1-2.37-9.67,79.21,79.21,0,0,1-.42-11.82,8.73,8.73,0,0,1,1-4.31,10.6,10.6,0,0,1,2.79-3.07,14,14,0,0,1,4.47-2.05,26.65,26.65,0,0,1,6.15-.8c4.47,0,7.54.91,10.06,2.73a9.12,9.12,0,0,1,3.77,7.5Z"/><path class="cls-3" d="M2033.16,2646.54c-4.5,0-7.72-.88-10.45-2.85a9.61,9.61,0,0,1-4-7.92v-18.84h8.57v18.84a4.65,4.65,0,0,0,1.36,3.3c.86.79,2.68,1.28,4.83,1.28s4-.49,4.7-1.28a4.14,4.14,0,0,0,1.36-3.3,61,61,0,0,0-1.52-15.06,65,65,0,0,0-3.74-11.73c-.47-1-.92-2-1.35-2.92-.7-1.53-1.35-3-2.12-4.42,0,0-2.52-4.9-3.78-7.4a49.54,49.54,0,0,1-3.25-8.18,66,66,0,0,1-2.4-9.74,62.28,62.28,0,0,1-.43-9.77v-2.16a9.35,9.35,0,0,1,1.06-4.63,11.34,11.34,0,0,1,3-3.29,14.52,14.52,0,0,1,4.68-2.14,26.75,26.75,0,0,1,6.32-.82c4.49,0,7.71.88,10.44,2.85a9.82,9.82,0,0,1,4,8v18.73H2042v-18.73a4.32,4.32,0,0,0-1.47-3.27,7.69,7.69,0,0,0-4.86-1.41c-2,0-3.9.55-4.7,1.38a3.88,3.88,0,0,0-1.35,3.3,60.72,60.72,0,0,0,1.51,15,66.74,66.74,0,0,0,3.74,11.72,94.31,94.31,0,0,0,5,9.93c.71,1.72,1.4,3.17,2.26,4.8a47.82,47.82,0,0,1,3.26,8.31,50.6,50.6,0,0,1,2.83,19.43v2.23a9,9,0,0,1-1.06,4.53,12,12,0,0,1-3,3.37,21.13,21.13,0,0,1-4.67,2.15A26.08,26.08,0,0,1,2033.16,2646.54Zm-13.18-28.3v17.53a8.24,8.24,0,0,0,3.51,6.87c2.48,1.79,5.46,2.59,9.67,2.59a24.76,24.76,0,0,0,6-.66,19.89,19.89,0,0,0,4.28-2,10.47,10.47,0,0,0,2.58-3,7.69,7.69,0,0,0,.89-3.89v-2.23a49.21,49.21,0,0,0-2.77-19,45.48,45.48,0,0,0-3.18-8.1c-.87-1.66-1.57-3.15-2.25-4.82a89,89,0,0,1-5-10,67.71,67.71,0,0,1-3.82-11.93,62.13,62.13,0,0,1-1.55-15.27,5.1,5.1,0,0,1,1.78-4.25c1.2-1.27,3.68-1.74,5.58-1.74a8.88,8.88,0,0,1,5.75,1.76,5.65,5.65,0,0,1,1.89,4.23v17.42h5.82v-17.42a8.46,8.46,0,0,0-3.52-7c-2.47-1.79-5.46-2.59-9.66-2.59a26,26,0,0,0-6,.77,13.12,13.12,0,0,0-4.25,1.95,10,10,0,0,0-2.62,2.88,8.13,8.13,0,0,0-.88,4v2.16a61.7,61.7,0,0,0,.42,9.56,64.13,64.13,0,0,0,2.35,9.56,47.89,47.89,0,0,0,3.18,8c1.26,2.5,3.77,7.38,3.77,7.38.78,1.48,1.44,2.94,2.14,4.49.44.95.88,1.92,1.36,2.92a67,67,0,0,1,3.82,12,62.45,62.45,0,0,1,1.55,15.37A5.39,5.39,0,0,1,2039,2640c-1.41,1.49-4.39,1.65-5.61,1.65-2.5,0-4.6-.6-5.75-1.65a5.91,5.91,0,0,1-1.74-4.23v-17.53Z"/><path class="cls-3" d="M2089.33,2644.75v-91h7v91Z"/><path class="cls-3" d="M2097,2645.4h-8.3v-92.34h8.3Zm-7-1.3h5.68v-89.74H2090Z"/><path class="cls-3" d="M2142.84,2639.07h15.09v5.68h-22.08v-91h7Z"/><path class="cls-3" d="M2158.58,2645.4H2135.2v-92.34h8.29v85.36h15.09Zm-22.07-1.3h20.77v-4.38h-15.09v-85.36h-5.68Z"/><path class="cls-3" d="M1535.66,1435c7.42,0,12.14,1.19,16.19,3.56,3.82,2.22,6.07,5.49,6.07,9.64v38.4c0,4.16-2.25,7.27-6.07,9.64-4,2.38-8.77,3.56-16.19,3.56h-8.77v53.83h-11.24V1435Zm10.79,13.2a6.06,6.06,0,0,0-2.7-4.89c-1.79-1.34-4.94-1.93-8.09-2.08h-8.77v51.16h8.77c3.15-.15,6.3-.74,8.09-2.08a6.08,6.08,0,0,0,2.7-4.89Z"/><path class="cls-3" d="M1527.57,1554.3H1515v-120h20.69c7.22,0,12.17,1.09,16.53,3.65,4.19,2.44,6.41,6,6.41,10.23v38.4c0,4.15-2.15,7.59-6.39,10.22s-9.33,3.66-16.55,3.66h-8.09Zm-11.24-1.36h9.88v-53.83h9.45c7,0,11.7-1,15.85-3.46,3.85-2.4,5.73-5.36,5.73-9.06v-38.4c0-3.74-2-6.87-5.73-9-4.15-2.43-8.89-3.47-15.85-3.47h-19.33Zm10.56-59.88h-.68v-52.52h9.45c2.71.13,6.35.61,8.5,2.21a6.74,6.74,0,0,1,3,5.44v37.22a6.74,6.74,0,0,1-3,5.44c-2.15,1.6-5.79,2.08-8.47,2.21Zm.68-1.36h8.09c3.48-.17,6.22-.86,7.69-2a5.34,5.34,0,0,0,2.42-4.34v-37.22a5.36,5.36,0,0,0-2.42-4.35c-1.47-1.08-4.21-1.77-7.72-1.94h-8.06Z"/><path class="cls-3" d="M1621.55,1447.6c0-2.08-.23-4,.9-5.49a10.19,10.19,0,0,1,4-4.15,26.44,26.44,0,0,1,6.75-2.52,36.74,36.74,0,0,1,9.44-1c7.2,0,10.57,1.18,14.62,3.56,3.82,2.37,6.52,5.48,6.52,9.64V1541c0,4.15-2.7,7.26-6.52,9.49-4,2.37-7.42,3.55-14.62,3.55a45.34,45.34,0,0,1-9.44-.89,22.19,22.19,0,0,1-6.75-2.66,11,11,0,0,1-4-4c-1.13-1.63-.9-3.41-.9-5.48Zm30.8,0a5.31,5.31,0,0,0-2.47-4.75,11.79,11.79,0,0,0-7.42-2.08c-3.38,0-5.4.75-7,2.08a5.1,5.1,0,0,0-2.25,4.75v93.27a5.48,5.48,0,0,0,2.25,4.89c1.57,1.33,3.59,1.93,7,1.93s5.62-.6,7.42-1.93a5.71,5.71,0,0,0,2.47-4.89Z"/><path class="cls-3" d="M1642.68,1554.75a46.11,46.11,0,0,1-9.58-.91,22.58,22.58,0,0,1-6.95-2.75,11.48,11.48,0,0,1-4.29-4.24c-1.06-1.54-1-3.2-1-5v-95.17c0-1.83-.06-3.57,1-5a10.66,10.66,0,0,1,4.25-4.33,27.59,27.59,0,0,1,6.94-2.6,37.72,37.72,0,0,1,9.59-1c7.38,0,10.83,1.23,15,3.65,4.55,2.83,6.86,6.26,6.86,10.23V1541c0,4-2.37,7.46-6.86,10.07C1653.51,1553.52,1650.06,1554.75,1642.68,1554.75Zm0-119.67a36.34,36.34,0,0,0-9.28,1,26,26,0,0,0-6.6,2.46,9.62,9.62,0,0,0-3.76,3.88c-.87,1.16-.85,2.6-.82,4.26v95.21c0,1.67,0,3,.79,4.21a10.28,10.28,0,0,0,3.83,3.8,21.48,21.48,0,0,0,6.54,2.59,45.43,45.43,0,0,0,9.3.87c7.07,0,10.35-1.16,14.27-3.46,4.1-2.39,6.18-5.38,6.18-8.9V1447.6c0-3.51-2-6.48-6.19-9.06C1653,1436.25,1649.75,1435.08,1642.68,1435.08Zm-.22,113.29c-3.47,0-5.69-.63-7.41-2.09a6.17,6.17,0,0,1-2.49-5.41V1447.6a5.81,5.81,0,0,1,2.55-5.32c1.76-1.5,4.05-2.19,7.35-2.19a12.57,12.57,0,0,1,7.82,2.21,5.92,5.92,0,0,1,2.75,5.3v93.27a6.41,6.41,0,0,1-2.75,5.44C1648.36,1547.73,1646,1548.37,1642.46,1548.37Zm0-106.91c-3,0-5,.57-6.53,1.91-1.45,1-2,2.17-2,4.23v93.27a4.79,4.79,0,0,0,2,4.34c1.52,1.29,3.41,1.8,6.57,1.8s5.32-.54,7-1.8a5,5,0,0,0,2.2-4.34V1447.6a4.59,4.59,0,0,0-2.17-4.18A11.08,11.08,0,0,0,1642.46,1441.46Z"/><path class="cls-3" d="M1758.25,1434.69h11.46v106.18c0,4.15-2.7,7.26-6.52,9.49-4,2.37-7.42,3.56-14.61,3.56a46.2,46.2,0,0,1-9.45-.89,22.4,22.4,0,0,1-6.74-2.67,10.94,10.94,0,0,1-4.05-4c-1.12-1.63-.9-3.41-.9-5.48V1434.69h11.69v106a5.47,5.47,0,0,0,2.25,4.89c1.58,1.34,3.6,1.93,7,1.93s5.62-.59,7.42-1.93a5.68,5.68,0,0,0,2.48-4.89Z"/><path class="cls-3" d="M1748.58,1554.6a46,46,0,0,1-9.58-.91,22.58,22.58,0,0,1-7-2.75,11.53,11.53,0,0,1-4.29-4.23c-1.06-1.54-1-3.21-1-5V1434h13.06v106.71a4.77,4.77,0,0,0,2,4.34c1.51,1.29,3.4,1.8,6.56,1.8s5.32-.54,7-1.8a5,5,0,0,0,2.2-4.34V1434h12.82v106.86c0,4-2.37,7.47-6.86,10.08C1759.4,1553.37,1756,1554.6,1748.58,1554.6Zm-20.46-119.22v106.38c0,1.67,0,3,.79,4.21a10.36,10.36,0,0,0,3.83,3.8,21.28,21.28,0,0,0,6.55,2.59,45.43,45.43,0,0,0,9.3.87c7.06,0,10.35-1.16,14.27-3.46,4.1-2.39,6.18-5.38,6.18-8.9V1435.38h-10.1v105.34a6.38,6.38,0,0,1-2.75,5.44c-1.93,1.42-4.34,2.06-7.83,2.06s-5.68-.62-7.41-2.09a6.19,6.19,0,0,1-2.49-5.41V1435.38Z"/><path class="cls-3" d="M1882.35,1472.36h-11.46v-23.58a6.1,6.1,0,0,0-2.7-4.89c-1.8-1.34-5.17-2.08-8.54-2.08s-6.75.74-8.32,2.08a5.37,5.37,0,0,0-2.48,4.89c0,7.42.68,14.09,2.48,19.72a74.82,74.82,0,0,0,6.07,15.43,113.31,113.31,0,0,0,8.09,13,61.86,61.86,0,0,0,3.6,6.23,54.44,54.44,0,0,1,5.17,10.68,67.62,67.62,0,0,1,3.82,12.6c.9,4.45.68,9.64.68,15.42a9.21,9.21,0,0,1-1.58,5.49,16,16,0,0,1-4.49,4.15,38.22,38.22,0,0,1-7.2,2.67,49.92,49.92,0,0,1-9.89.89c-7.2,0-12.14-1.18-16.19-3.56-3.82-2.37-6.07-5.48-6.07-9.64v-23.72H1845v23.72a6.33,6.33,0,0,0,2.47,4.9c1.8,1.33,5.17,1.93,8.55,1.93s6.74-.6,8.32-1.93a5.7,5.7,0,0,0,2.47-4.9c0-7.56-.67-14.23-2.47-19.87a76.1,76.1,0,0,0-6.07-15.42c-2-3.41-3.6-6.52-5.63-9.64,0,0-4-6.37-6.07-9.63a57.82,57.82,0,0,1-5.17-10.53,71.36,71.36,0,0,1-3.82-12.61c-.9-4.59-.67-9.78-.67-15.42a9.74,9.74,0,0,1,1.57-5.63,15.5,15.5,0,0,1,4.5-4,25.23,25.23,0,0,1,7.19-2.67,52.1,52.1,0,0,1,9.89-1c7.2,0,12.15,1.18,16.19,3.56,3.82,2.37,6.07,5.63,6.07,9.78Z"/><path class="cls-3" d="M1855.6,1555.78c-7.13,0-12.23-1.12-16.53-3.65s-6.41-6.08-6.41-10.23v-24.4h13v24.4a5.65,5.65,0,0,0,2.23,4.38c1.48,1.09,4.53,1.77,8.11,1.77s6.59-.68,7.88-1.77a5.08,5.08,0,0,0,2.23-4.38c0-8.08-.8-14.52-2.44-19.66a74.83,74.83,0,0,0-6-15.3c-.77-1.3-1.49-2.58-2.19-3.83-1.12-2-2.18-3.87-3.41-5.76,0,0-4-6.39-6.07-9.66a57.67,57.67,0,0,1-5.24-10.65,72.27,72.27,0,0,1-3.85-12.7,65.84,65.84,0,0,1-.7-12.74c0-.93,0-1.87,0-2.82a10.43,10.43,0,0,1,1.69-6,16.37,16.37,0,0,1,4.72-4.21,25.48,25.48,0,0,1,7.39-2.74,52.06,52.06,0,0,1,10-1c7.13,0,12.23,1.12,16.54,3.65s6.4,6.19,6.4,10.37V1473H1870.2v-24.26a5.37,5.37,0,0,0-2.42-4.35c-1.59-1.17-4.78-1.94-8.13-1.94s-6.53.77-7.88,1.92a4.72,4.72,0,0,0-2.24,4.37c0,8,.8,14.37,2.44,19.52a75.18,75.18,0,0,0,6,15.3,112.25,112.25,0,0,0,8,13,65.46,65.46,0,0,0,3.62,6.26,55.33,55.33,0,0,1,5.24,10.82,67.86,67.86,0,0,1,3.85,12.7c.76,3.76.73,8.08.7,12.66,0,1,0,1.91,0,2.89a9.85,9.85,0,0,1-1.7,5.88,16.79,16.79,0,0,1-4.68,4.33,38,38,0,0,1-7.39,2.76A50.83,50.83,0,0,1,1855.6,1555.78ZM1834,1518.86v23c0,3.7,1.88,6.66,5.75,9.06,4.07,2.39,9,3.46,15.83,3.46a49.73,49.73,0,0,0,9.76-.87,37.55,37.55,0,0,0,7-2.61,15.52,15.52,0,0,0,4.24-3.94,8.55,8.55,0,0,0,1.45-5.1c0-1,0-2,0-2.9,0-4.5.06-8.76-.68-12.38a66.69,66.69,0,0,0-3.78-12.48,54,54,0,0,0-5.12-10.58,63,63,0,0,1-3.63-6.28,111.58,111.58,0,0,1-8.08-13,76.11,76.11,0,0,1-6.13-15.56c-1.68-5.26-2.5-11.78-2.5-19.91a6.06,6.06,0,0,1,2.78-5.46c1.88-1.6,5.74-2.19,8.7-2.19,3.68,0,7.11.85,8.94,2.21a6.75,6.75,0,0,1,3,5.44v22.9h10.1v-22.9c0-3.74-1.93-6.84-5.75-9.21-4.07-2.38-9-3.45-15.83-3.45a51.38,51.38,0,0,0-9.75,1,24,24,0,0,0-7,2.59,14.9,14.9,0,0,0-4.3,3.83,8.93,8.93,0,0,0-1.43,5.22c0,1,0,1.9,0,2.83a64.23,64.23,0,0,0,.68,12.46,70.78,70.78,0,0,0,3.78,12.48,57.46,57.46,0,0,0,5.12,10.43c2,3.26,6.07,9.63,6.07,9.63,1.25,1.92,2.32,3.82,3.44,5.84.7,1.24,1.41,2.5,2.19,3.82a76.2,76.2,0,0,1,6.14,15.58c1.68,5.26,2.5,11.82,2.5,20.05a6.41,6.41,0,0,1-2.75,5.45c-2.19,1.85-6.83,2.06-8.72,2.06-3.92,0-7.19-.75-9-2.07a6.94,6.94,0,0,1-2.75-5.44v-23Z"/><path class="cls-3" d="M1977.46,1553.62l-2.7-20.32h-14.84l-2.7,20.32H1946l15.74-118.78H1973l15.74,118.78ZM1961,1525.89h12.82l-6.52-48.19Z"/><path class="cls-3" d="M1989.48,1554.3h-12.62l-2.7-20.31h-13.64l-2.7,20.31H1945.2l.1-.77,15.82-119.37h12.44l.08.59Zm-11.43-1.36h9.87l-15.56-117.42h-10l-15.55,117.42h9.87l2.69-20.32h16Zm-3.41-26.37h-14.37l7.06-54Zm-12.82-1.36h11.26l-5.73-42.35Z"/><path class="cls-3" d="M2072.34,1435c7.42,0,12.14,1.19,16.19,3.56,3.82,2.22,6.07,5.49,6.07,9.64v92.23c0,4.15-2.25,7.27-6.07,9.64-4.05,2.37-8.77,3.56-16.19,3.56h-20V1435Zm0,112.25c3.14,0,6.29-.59,8.09-1.92a6.56,6.56,0,0,0,2.7-4.9v-92.23a6.06,6.06,0,0,0-2.7-4.89c-1.8-1.34-4.95-1.93-8.09-2.08h-8.77v106Z"/><path class="cls-3" d="M2072.34,1554.3h-20.69v-120h20.69c7.22,0,12.16,1.09,16.53,3.65,4.19,2.44,6.41,6,6.41,10.23v92.23c0,4.15-2.15,7.59-6.39,10.22S2079.56,1554.3,2072.34,1554.3Zm-19.33-1.36h19.33c7,0,11.7-1,15.84-3.47,3.86-2.39,5.74-5.35,5.74-9v-92.23c0-3.74-2-6.87-5.74-9-4.14-2.43-8.88-3.47-15.84-3.47H2053Zm19.33-5h-9.45V1440.54h9.45c2.7.13,6.35.61,8.5,2.21a6.77,6.77,0,0,1,3,5.44v92.23c0,1.94-1,3.76-2.94,5.41C2079.07,1547.17,2076,1547.92,2072.34,1547.92Zm-8.09-1.36h8.09c3.3,0,6.17-.67,7.69-1.79a5.86,5.86,0,0,0,2.42-4.35v-92.23a5.37,5.37,0,0,0-2.43-4.35c-1.46-1.08-4.2-1.77-7.72-1.94h-8.05Z"/><path class="cls-3" d="M2189.7,1553.62l-2.7-20.32h-14.84l-2.7,20.32h-11.24L2174,1434.84h11.24l15.74,118.78Zm-16.41-27.73h12.81l-6.52-48.19Z"/><path class="cls-3" d="M2201.72,1554.3H2189.1l-2.69-20.31h-13.65l-2.7,20.31h-12.61l.1-.77,15.82-119.37h12.43l.08.59Zm-11.42-1.36h9.87l-15.56-117.42h-10.05L2159,1552.94h9.87l2.7-20.32h16Zm-3.42-26.37h-14.37l7.06-54Zm-12.82-1.36h11.26l-5.73-42.35Z"/></g></g></svg>