<svg xmlns="http://www.w3.org/2000/svg" viewBox="0 0 245.2578 81.8826"><defs><style>.cls-1{fill:#d67003;}</style></defs><g id="Camada_2" data-name="Camada 2"><g id="Camada_1-2" data-name="Camada 1"><path class="cls-1" d="M14.2266,16.8973Q11.8082,22.3509,7.38,23.3758a4.7311,4.7311,0,0,1-1.0664.123q-2.3364,0-4.7149-2.542A6.309,6.309,0,0,1,0,16.4881a14.2711,14.2711,0,0,1,1.8037-6.52A9.9568,9.9568,0,0,1,3.69,7.4266a3.58,3.58,0,0,1,2.42-1.2706,1.8628,1.8628,0,0,1,1.2295.4913A11.361,11.361,0,0,0,10.4141,7.96a4.6344,4.6344,0,0,1,2.788,2.2138,10.6074,10.6074,0,0,1,1.4346,4.7149A4.7943,4.7943,0,0,1,14.2266,16.8973Zm-3.2793-2.542q-.2886-2.9913-1.6-3.5664a1.0081,1.0081,0,0,0-.3692-.0821q-.4906,0-1.23.82a3.9208,3.9208,0,0,1-1.2715,1.1065q-.2871.123-.8193-.2461a1.8547,1.8547,0,0,0-.6973-.3691.2818.2818,0,0,0-.205.082,4.7528,4.7528,0,0,0-1.4346,3.8135,5.2722,5.2722,0,0,0,.8193,2.9931q1.1484,1.6816,1.9278,1.6807,1.8032,0,3.4843-2.2549A5.674,5.674,0,0,0,10.9473,14.3553Z"/><path class="cls-1" d="M33.415.908q-.5757,5.4947-1.1074,11.0283A106.8667,106.8667,0,0,0,31.61,22.8836q0,1.4355.082,2.8291a1.4139,1.4139,0,0,1-.4717,1.1484,1.6443,1.6443,0,0,1-1.168.4912q-1.2714,0-2.1318-1.7216a144.5219,144.5219,0,0,1-6.52-16.0723q-.082-.2462-.2051-.2461c-.1914,0-.3145.1924-.3692.5742a104.585,104.585,0,0,0-.6962,12.3408q0,3.1173.164,6.3555a1.6917,1.6917,0,0,1-.6972,1.64.8624.8624,0,0,1-.6153.2871,1.6548,1.6548,0,0,1-.7383-.2461c-.4091-.1914-.67-.3145-.7783-.3692q-.5331-.1639-.6562-.9834-.0411-.6562-.0821-1.3535-.123-2.2968-.123-4.7969,0-4.3446.4922-10.8652Q17.8745,1.9738,17.958.908q.04-.9024,1.5166-.9023.6974-.082,2.05,1.0253a63.4613,63.4613,0,0,1,3.2393,8.1172,55.9388,55.9388,0,0,0,3.3623,8.1592Q28.74,11.8552,30.0527.826q.1231-.82,1.1885-.82a3.6162,3.6162,0,0,1,.8613.123c.4366.1094.6973.1777.7793.2051A.8618.8618,0,0,1,33.415.908Z"/><path class="cls-1" d="M47.3955,16.6932q-.41.9433-.7793,1.8857A6.9584,6.9584,0,0,1,45.55,20.3416q-1.2715,1.6-2.542,3.1572a11.2775,11.2775,0,0,1-2.7471,2.624q-.41.4923-.9013,1.0245a1.38,1.38,0,0,1-.9844.5332,1.672,1.672,0,0,1-.5742-.1231q-.3282-.123-.7168-.2871a1.0011,1.0011,0,0,1-.5537-.5322q-.1231-1.7227-.1231-3.69,0-2.0082.1641-5.9863.1626-3.9756.1641-5.9853,0-2.6646-.2051-4.8789-.0411-.0411-.9024-.9434a1.4794,1.4794,0,0,1-.5332-.9844,1.0965,1.0965,0,0,1,.0821-.4092,1.0069,1.0069,0,0,1,.9023-.5742q.5333-.082,1.0664-.123a17.3593,17.3593,0,0,1,7.2158,3.8535A8.5145,8.5145,0,0,1,45.96,8.7391a9.8744,9.8744,0,0,1,1.9677,5.4531A6.0588,6.0588,0,0,1,47.3955,16.6932Zm-2.9521-4.3877q-.3691-2.5825-4.3868-4.5508-.2885,6.8481-.164,14.5137,4.6319-4.6318,4.6328-8.8145A8.1338,8.1338,0,0,0,44.4434,12.3055Z"/><path class="cls-1" d="M63.959,5.2537A44.0273,44.0273,0,0,1,59.49,6.6883a44.3713,44.3713,0,0,0-4.47,1.4355,21.4731,21.4731,0,0,0-.5332,4.7559,4.31,4.31,0,0,0,1.5176.2461,13.9563,13.9563,0,0,0,1.9267-.2051,13.9709,13.9709,0,0,1,1.9268-.2051,3.76,3.76,0,0,1,1.9687.4922A2.868,2.868,0,0,1,62.4,14.2732a.5.5,0,0,1-.2861.4512,4.91,4.91,0,0,0-.5743.5742.94.94,0,0,1-.82.3282,17.358,17.358,0,0,1-3.1572.246,9.1353,9.1353,0,0,0-3.0752.4922,20.5317,20.5317,0,0,0-.7783,4.7969,4.4743,4.4743,0,0,0,.3281,1.8857q1.9263,1.3536,6.6826,1.1485a1.1182,1.1182,0,0,0,.6973-.3076,1.0692,1.0692,0,0,1,.6152-.3076q1.147-.2462,1.5166,1.7216a1.63,1.63,0,0,1-.2256,1.21,1.2138,1.2138,0,0,1-1.0048.5937,30.64,30.64,0,0,1-8.6094-.7783,4.34,4.34,0,0,1-2.0908-1.2715,3.6641,3.6641,0,0,1-1.0664-2.2138,27.701,27.701,0,0,1,0-6.3955q-1.1486-.7794-1.0254-1.5176.0409-.3692.6357-.6768t.6768-.6347q.082-.3282.3281-3.8955-2.297-.45-2.2549-1.7217A2.1975,2.1975,0,0,1,50.3467,6.115q1.3125-.5331,2.624-1.0664a20.6285,20.6285,0,0,1,3.8545-1.3935q1.9672-.5333,3.9766-1.0254a2.5422,2.5422,0,0,1,.4921-.041A5.3142,5.3142,0,0,1,63.877,3.45c.0263.1094.0957.3144.205.6143a2.2549,2.2549,0,0,1,.1641.6562A.6291.6291,0,0,1,63.959,5.2537Z"/><path class="cls-1" d="M95.3232,26.451q.1641.8188-1.1884.9013A2.6567,2.6567,0,0,1,92.29,26.574a4.74,4.74,0,0,1-1.23-2.2549,17.5413,17.5413,0,0,1-.4922-4.0595A31.1008,31.1008,0,0,0,90.28,16.201q-.5332,1.8442-1.7627,5.4941-.7383,2.0083-.9024,2.2959-.6562,1.2715-1.64,1.1475a4.6284,4.6284,0,0,1-3.0342-2.2139A13.7524,13.7524,0,0,1,81.63,19.2762a21.8769,21.8769,0,0,0-1.1074-3.69,59.498,59.498,0,0,1-3.7715,12.792q-.2871.6153-1.7227-.082a1.788,1.788,0,0,1-1.1885-1.64,14.34,14.34,0,0,1,.86-2.624q.3691-.9843,2.87-9.4717A77.56,77.56,0,0,0,79.375,4.1873a5.0567,5.0567,0,0,0,.4092-.86.7486.7486,0,0,1,.7383-.5742,2.7079,2.7079,0,0,1,1.9267.5332,29.7347,29.7347,0,0,0,.39,3.833,29.9468,29.9468,0,0,1,.39,3.9981q.3691,2.2968.6973,4.6328a10.4274,10.4274,0,0,0,1.64,4.3047,107.363,107.363,0,0,0,5.002-17.3018q.1641-.6547,1.23-.6562,1.5161,0,1.7216.9844a17.9642,17.9642,0,0,1,.2871,3.4033q0,.6138-.082,2.664-.0409,1.7228,0,2.7881A91.3011,91.3011,0,0,0,95.3232,26.451Z"/><path class="cls-1" d="M111.2725,16.8973q-2.42,5.4536-6.8467,6.4785a4.7436,4.7436,0,0,1-1.0664.123q-2.3364,0-4.7149-2.542a6.3051,6.3051,0,0,1-1.6-4.4687,14.2733,14.2733,0,0,1,1.8047-6.52,9.915,9.915,0,0,1,1.8858-2.5419,3.5762,3.5762,0,0,1,2.4189-1.2706,1.8671,1.8671,0,0,1,1.23.4913A11.3488,11.3488,0,0,0,107.459,7.96a4.632,4.632,0,0,1,2.7881,2.2138,10.5986,10.5986,0,0,1,1.4355,4.7149A4.81,4.81,0,0,1,111.2725,16.8973Zm-3.28-2.542q-.2871-2.9913-1.5986-3.5664a1.0162,1.0162,0,0,0-.3692-.0821q-.4922,0-1.2305.82a3.9194,3.9194,0,0,1-1.27,1.1065q-.2871.123-.82-.2461a1.8474,1.8474,0,0,0-.6972-.3691.28.28,0,0,0-.2041.082,4.75,4.75,0,0,0-1.4356,3.8135,5.2719,5.2719,0,0,0,.82,2.9931q1.1471,1.6816,1.9268,1.6807,1.8032,0,3.4853-2.2549A5.6721,5.6721,0,0,0,107.9922,14.3553Z"/><path class="cls-1" d="M129.8037,26.0408a.5962.5962,0,0,1,.1231.3692q0,.9418-1.9688,1.4345a48.2867,48.2867,0,0,1-5.4111-5.166q-3.6094-3.895-5.3711-5.4121-.123,1.0663-.4512,5.5762a28.7561,28.7561,0,0,1-.7383,5.4121,2.18,2.18,0,0,0-.5127.2051,1.0389,1.0389,0,0,1-.7168.123,2.2462,2.2462,0,0,1-1.8047-2.501,10.9088,10.9088,0,0,1,.1641-1.64q.1641-1.1895.2051-1.4766.1641-2.3773.2051-5.6582V12.8387a60.287,60.287,0,0,1,.6152-9.3887q.4088-2.5415,4.7969-2.3369a5.0332,5.0332,0,0,1,3.8545,2.2138A6.8456,6.8456,0,0,1,124.31,7.5906a6.4334,6.4334,0,0,1-1.4356,3.8545,8.9789,8.9789,0,0,1-3.0332,2.7061q-.7383.41-.7383.9013,0,.5332.8614,1.2715.6548.5332,1.3115,1.0654.0409.0411,4.51,4.1006A20.8175,20.8175,0,0,1,129.8037,26.0408ZM121.1523,7.6316a5.6184,5.6184,0,0,0,.0821-1.3115,3.0242,3.0242,0,0,0-.7178-1.5586,2.3773,2.3773,0,0,0-1.9062-.6972q-.9845,0-1.23.6152a11.9162,11.9162,0,0,0-.2051,2.3369q0,.5332.123,2.7471a23.1457,23.1457,0,0,1,0,2.747Q120.7017,9.9691,121.1523,7.6316Z"/><path class="cls-1" d="M142.4727,23.7859a3.36,3.36,0,0,1,.2451,1.1475,1.8644,1.8644,0,0,1-.6963,1.4355c-.4658.41-.7793.6006-.9434.5743q-2.01-.3692-2.542-3.2393a31.6326,31.6326,0,0,0-1.3525-5.207q-1.3946.123-2.7881.2461a4.6471,4.6471,0,0,0-2.501.9834,46.1555,46.1555,0,0,0-1.1894,4.5107,30.0663,30.0663,0,0,1-1.3526,4.5508q-.33.7383-1.3945.41-1.3521-.4526-1.4346-1.23a10.0748,10.0748,0,0,1,.9014-4.1817,17.8753,17.8753,0,0,0,1.3535-4.2646c.0264-.2451-.15-.5186-.5332-.8194s-.5742-.5332-.5742-.6972a.6934.6934,0,0,1,.1846-.4307,1.6005,1.6005,0,0,1,.8613-.3691c.4512-.0948.7031-.2383.7588-.43q.7368-2.0508,2.3369-7.627a70.0172,70.0172,0,0,1,2.4189-7.4209.9969.9969,0,0,1,1.0245-.5732,1.5787,1.5787,0,0,1,1.0253.3682,4.7668,4.7668,0,0,1,1.4756,2.9521q.2462,1.6817.4512,3.3623A130.0317,130.0317,0,0,0,142.4727,23.7859Zm-5.9864-7.831a26.1382,26.1382,0,0,0-.5332-3.4033q-.41-1.6392-.7793-3.28-1.2289,3.4043-2.1318,6.8066A27.0288,27.0288,0,0,1,136.4863,15.9549Z"/><path class="cls-1" d="M168.958,23.7859a3.3377,3.3377,0,0,1,.2461,1.1475,1.8623,1.8623,0,0,1-.6973,1.4355c-.4648.41-.7783.6006-.9423.5743q-2.01-.3692-2.542-3.2393a31.7135,31.7135,0,0,0-1.3536-5.207q-1.3944.123-2.788.2461a4.65,4.65,0,0,0-2.501.9834,46.1965,46.1965,0,0,0-1.1885,4.5107,30.0492,30.0492,0,0,1-1.3535,4.5508q-.3282.7383-1.3936.41-1.3535-.4526-1.4355-1.23a10.0786,10.0786,0,0,1,.9023-4.1817,17.8654,17.8654,0,0,0,1.3526-4.2646q.0409-.3677-.5323-.8194c-.3837-.3007-.5742-.5332-.5742-.6972a.694.694,0,0,1,.1846-.4307,1.6006,1.6006,0,0,1,.86-.3691q.6768-.1422.7588-.43.7383-2.0508,2.337-7.627a70.2277,70.2277,0,0,1,2.4189-7.4209.9983.9983,0,0,1,1.0254-.5732,1.5785,1.5785,0,0,1,1.0244.3682,4.7635,4.7635,0,0,1,1.4766,2.9521q.246,1.6817.4511,3.3623A130.2322,130.2322,0,0,0,168.958,23.7859Zm-5.9863-7.831a26.3287,26.3287,0,0,0-.5322-3.4033q-.4118-1.6392-.7793-3.28-1.2306,3.4043-2.1319,6.8066A27.01,27.01,0,0,1,162.9717,15.9549Z"/><path class="cls-1" d="M192.5332,16.6932q-.41.9433-.7793,1.8857a6.9584,6.9584,0,0,1-1.0664,1.7627q-1.2715,1.6-2.542,3.1572a11.2775,11.2775,0,0,1-2.7471,2.624q-.41.4923-.9013,1.0245a1.38,1.38,0,0,1-.9844.5332,1.672,1.672,0,0,1-.5742-.1231q-.3282-.123-.7168-.2871a1.0011,1.0011,0,0,1-.5537-.5322q-.1232-1.7227-.1231-3.69,0-2.0082.1641-5.9863.1626-3.9756.164-5.9853,0-2.6646-.205-4.8789-.0411-.0411-.9024-.9434a1.4794,1.4794,0,0,1-.5332-.9844,1.0965,1.0965,0,0,1,.0821-.4092,1.0069,1.0069,0,0,1,.9023-.5742q.5333-.082,1.0664-.123a17.3593,17.3593,0,0,1,7.2158,3.8535,8.5145,8.5145,0,0,1,1.5987,1.7227,9.8744,9.8744,0,0,1,1.9677,5.4531A6.0588,6.0588,0,0,1,192.5332,16.6932Zm-2.9521-4.3877q-.3691-2.5825-4.3868-4.5508-.2884,6.8481-.164,14.5137,4.6318-4.6318,4.6328-8.8145A8.1338,8.1338,0,0,0,189.5811,12.3055Z"/><path class="cls-1" d="M208.9326,16.8973q-2.42,5.4536-6.8467,6.4785a4.7429,4.7429,0,0,1-1.0664.123q-2.3364,0-4.7148-2.542a6.3051,6.3051,0,0,1-1.6-4.4687,14.2721,14.2721,0,0,1,1.8047-6.52,9.9124,9.9124,0,0,1,1.8857-2.5419,3.5764,3.5764,0,0,1,2.419-1.2706,1.8669,1.8669,0,0,1,1.23.4913A11.35,11.35,0,0,0,205.1191,7.96a4.6317,4.6317,0,0,1,2.7881,2.2138,10.5976,10.5976,0,0,1,1.4356,4.7149A4.8084,4.8084,0,0,1,208.9326,16.8973Zm-3.28-2.542q-.2871-2.9913-1.5986-3.5664a1.0157,1.0157,0,0,0-.3691-.0821q-.4923,0-1.23.82a3.92,3.92,0,0,1-1.27,1.1065q-.2871.123-.82-.2461a1.8475,1.8475,0,0,0-.6973-.3691.28.28,0,0,0-.2041.082,4.75,4.75,0,0,0-1.4355,3.8135,5.2719,5.2719,0,0,0,.82,2.9931q1.1469,1.6816,1.9267,1.6807,1.8033,0,3.4854-2.2549A5.6719,5.6719,0,0,0,205.6523,14.3553Z"/><path class="cls-1" d="M228.12.908q-.5742,5.4947-1.1074,11.0283a106.831,106.831,0,0,0-.6963,10.9473q0,1.4355.082,2.8291a1.4166,1.4166,0,0,1-.4716,1.1484,1.645,1.645,0,0,1-1.169.4912q-1.2714,0-2.1318-1.7216a144.576,144.576,0,0,1-6.5186-16.0723c-.0556-.1641-.123-.2461-.2051-.2461-.1914,0-.3144.1924-.3691.5742a104.5787,104.5787,0,0,0-.6973,12.3408q0,3.1173.1641,6.3555a1.69,1.69,0,0,1-.6973,1.64.8619.8619,0,0,1-.6142.2871,1.6548,1.6548,0,0,1-.7383-.2461q-.6153-.2871-.7793-.3692-.5332-.1639-.6563-.9834-.0409-.6562-.081-1.3535-.123-2.2968-.1231-4.7969,0-4.3446.4913-10.8652.7793-9.9215.8613-10.9873.041-.9024,1.5166-.9023.6972-.082,2.0508,1.0253a63.6427,63.6427,0,0,1,3.2383,8.1172,56.0291,56.0291,0,0,0,3.3623,8.1592q.6151-5.4522,1.9267-16.4814.123-.82,1.19-.82a3.6162,3.6162,0,0,1,.8613.123q.6547.1641.7783.2051A.86.86,0,0,1,228.12.908Z"/><path class="cls-1" d="M245.0117,23.7859a3.3377,3.3377,0,0,1,.2461,1.1475,1.8623,1.8623,0,0,1-.6973,1.4355c-.4648.41-.7783.6006-.9423.5743q-2.01-.3692-2.542-3.2393a31.7245,31.7245,0,0,0-1.3535-5.207q-1.3946.123-2.7881.2461a4.65,4.65,0,0,0-2.501.9834,46.1965,46.1965,0,0,0-1.1885,4.5107,30.0492,30.0492,0,0,1-1.3535,4.5508q-.3281.7383-1.3936.41-1.3535-.4526-1.4355-1.23a10.0786,10.0786,0,0,1,.9023-4.1817,17.8558,17.8558,0,0,0,1.3526-4.2646q.0409-.3677-.5322-.8194c-.3838-.3007-.5743-.5332-.5743-.6972a.694.694,0,0,1,.1846-.4307,1.601,1.601,0,0,1,.86-.3691q.6766-.1422.7587-.43.7383-2.0508,2.337-7.627a70.2277,70.2277,0,0,1,2.4189-7.4209.9983.9983,0,0,1,1.0254-.5732,1.5785,1.5785,0,0,1,1.0244.3682,4.7635,4.7635,0,0,1,1.4766,2.9521q.246,1.6817.4511,3.3623A130.25,130.25,0,0,0,245.0117,23.7859Zm-5.9863-7.831a26.3114,26.3114,0,0,0-.5322-3.4033q-.4116-1.6392-.7793-3.28-1.23,3.4043-2.1319,6.8066A27.0106,27.0106,0,0,1,239.0254,15.9549Z"/><path class="cls-1" d="M66.8906,48.9187a2.4218,2.4218,0,0,1-.5127,1.4971,2.151,2.151,0,0,1-1.333.84,1.4318,1.4318,0,0,1-.9013-.1846,1.8145,1.8145,0,0,0-.9024-.2256,15.5065,15.5065,0,0,0-4.4277,1.2715q-3.3208,1.3946-4.3457,1.6806-.1656,2.584-.1641,5.2481,0,2.666.1641,5.33a2.8085,2.8085,0,0,0,.6963.082,12.19,12.19,0,0,0,2.9521-.6562,8.5777,8.5777,0,0,1,3.0752-.45q.9009.0819.82.6962a3.2658,3.2658,0,0,1-2.0508,2.46q-1.6817.5333-3.3613,1.1074-.6562.0821-2.1318.41a18.3849,18.3849,0,0,0-.0821,1.8447q0,.9845.1026,2.9932.1011,2.01.1015,2.9931a11.7966,11.7966,0,0,1-1.1064,5.5752.7933.7933,0,0,1-.7383.4512,1.6138,1.6138,0,0,1-1.0244-.4512,2.118,2.118,0,0,1-.6973-.9834,9.63,9.63,0,0,1-.41-2.9521q0-.5742.2871-3.9766a15.3693,15.3693,0,0,0-.082-3.9775q-.082-.5318-.82-.8613a4.46,4.46,0,0,1-1.1884-.6553,4.4,4.4,0,0,1,.082-1.6406.8554.8554,0,0,0,.84-.3282.9473.9473,0,0,1,.6768-.4091,1.3448,1.3448,0,0,1,.3281.041,22.705,22.705,0,0,0,.41-4.5108q0-.86-.3281-6.3545a3.4645,3.4645,0,0,1-1.5372-.9638,2.1631,2.1631,0,0,1-.7587-1.4961q0-1.0239,1.4755-1.2305a53.9484,53.9484,0,0,0,7.4209-2.05,27.287,27.287,0,0,1,7.626-1.5986,2.1882,2.1882,0,0,1,1.292.39A1.2164,1.2164,0,0,1,66.8906,48.9187Z"/><path class="cls-1" d="M78.4521,54.4539a44.0238,44.0238,0,0,1-4.4687,1.4346,44.3627,44.3627,0,0,0-4.47,1.4355,21.4667,21.4667,0,0,0-.5332,4.7559,4.31,4.31,0,0,0,1.5175.2461,13.9559,13.9559,0,0,0,1.9268-.2051,13.9709,13.9709,0,0,1,1.9268-.2051,3.76,3.76,0,0,1,1.9687.4922,2.87,2.87,0,0,1,.5733,1.0654.5.5,0,0,1-.2862.4512,4.9133,4.9133,0,0,0-.5742.5742.94.94,0,0,1-.82.3281,17.3469,17.3469,0,0,1-3.1572.2461,9.1327,9.1327,0,0,0-3.0752.4922,20.5275,20.5275,0,0,0-.7784,4.7969,4.4725,4.4725,0,0,0,.3282,1.8857q1.9263,1.3536,6.6826,1.1485a1.1184,1.1184,0,0,0,.6973-.3076,1.0689,1.0689,0,0,1,.6152-.3077q1.1469-.246,1.5166,1.7217a1.6306,1.6306,0,0,1-.2256,1.21,1.214,1.214,0,0,1-1.0049.5937,30.6439,30.6439,0,0,1-8.6094-.7783,4.3406,4.3406,0,0,1-2.0908-1.2715,3.6647,3.6647,0,0,1-1.0664-2.2138,27.701,27.701,0,0,1,0-6.3955q-1.1484-.7794-1.0254-1.5176.0411-.3691.6358-.6768.5948-.3061.6767-.6347t.3282-3.8956q-2.297-.45-2.2549-1.7216A2.1974,2.1974,0,0,1,64.84,55.3152q1.3125-.5331,2.6241-1.0664a20.6214,20.6214,0,0,1,3.8545-1.3935q1.9673-.5332,3.9765-1.0254a2.5433,2.5433,0,0,1,.4922-.041,5.3139,5.3139,0,0,1,2.583.8613c.0264.1094.0957.3144.2051.6142a2.256,2.256,0,0,1,.1641.6563A.629.629,0,0,1,78.4521,54.4539Z"/><path class="cls-1" d="M91.2031,70.2078q-.0834.0424-4.7969,3.419a28.4176,28.4176,0,0,1-4.88,2.9257,1.0845,1.0845,0,0,1-.4912.1231,1.3453,1.3453,0,0,1-1.0664-.7393c-.4922-.6572-.752-.998-.7793-1.0263q-.082-3.6123.4511-10.0606.6153-6.8569.6153-9.8965,0-2.0932-.1641-3.9424a1.83,1.83,0,0,1,1.3525-.5332q1.5587,0,1.8047,1.1475.1232,3.3618-.2871,10.0654t-.3281,10.0655A20.09,20.09,0,0,0,85.627,70.034a27.8982,27.8982,0,0,1,2.9111-1.8447,5.353,5.353,0,0,0,.7168-.0821,5.3318,5.3318,0,0,1,.7588-.082,1.2613,1.2613,0,0,1,1.1894.6592A1.2933,1.2933,0,0,1,91.2031,70.2078Z"/><path class="cls-1" d="M97.0244,54.2078q.082,1.19.082,2.46,0,2.789-.5742,8.4052-.5742,5.6178-.5742,8.4873,0,1.0665.041,2.0909A1.4715,1.4715,0,0,1,94.4,76.7576q-1.7637-.082-1.9268-1.5166a26.7568,26.7568,0,0,1-.164-3.0342,75.0834,75.0834,0,0,1,.6767-8.3232,75.1486,75.1486,0,0,0,.6758-8.2813q0-1.0663-.082-2.0918a1.448,1.448,0,0,1,1.3945-.7783,3.0946,3.0946,0,0,1,1.5576.45.5034.5034,0,0,1,.2461-.1221c.0821,0,.1231.1368.1231.4092a1.7628,1.7628,0,0,0,0,.5742A.2613.2613,0,0,0,97.0244,54.2078Z"/><path class="cls-1" d="M110.5537,50.2312q0,1.1059-1.4756,1.3936a4.8936,4.8936,0,0,0-2.3779.8613q-4.5922,4.8384-4.5918,12.5049a19.9807,19.9807,0,0,0,1.1475,6.8057q.9434,2.625,1.3535,3.4443a6.72,6.72,0,0,0,2.501,2.87q.6151.2858,1.2294.5332a1.1316,1.1316,0,0,1,.6563,1.0244,1.8466,1.8466,0,0,1-.4307,1.1895.888.888,0,0,1-.9218.41,8.3934,8.3934,0,0,1-1.6407-.5333q-1.9672-1.1484-4.2636-4.8789c-.3829-.63-.7725-1.2773-1.169-1.9482a9.2587,9.2587,0,0,1-.8808-1.9062,51.7525,51.7525,0,0,1-.6973-5.2891,24.5316,24.5316,0,0,1-.1641-2.7881,18.6781,18.6781,0,0,1,4.2227-12.3408q2.4609-2.9517,5.125-2.9522a3.44,3.44,0,0,1,2.0918.6973Q110.5532,49.534,110.5537,50.2312Z"/><path class="cls-1" d="M114.6123,54.2078q.082,1.19.082,2.46,0,2.789-.5732,8.4052-.5757,5.6178-.5742,8.4873,0,1.0665.041,2.0909a1.4722,1.4722,0,0,1-1.5986,1.1064q-1.7637-.082-1.9278-1.5166a26.7336,26.7336,0,0,1-.164-3.0342,75.0586,75.0586,0,0,1,.6767-8.3232,74.9561,74.9561,0,0,0,.6768-8.2813q0-1.0663-.0821-2.0918a1.4466,1.4466,0,0,1,1.3936-.7783,3.0956,3.0956,0,0,1,1.5586.45.4958.4958,0,0,1,.2461-.1221c.082,0,.123.1368.123.4092a1.7076,1.7076,0,0,0,0,.5742A.2573.2573,0,0,0,114.6123,54.2078Z"/><path class="cls-1" d="M128.7988,65.8934q-.41.9433-.7793,1.8857a6.9584,6.9584,0,0,1-1.0664,1.7627q-1.2714,1.6-2.542,3.1572a11.2792,11.2792,0,0,1-2.747,2.624q-.41.4923-.9014,1.0245a1.38,1.38,0,0,1-.9844.5332,1.6729,1.6729,0,0,1-.5742-.1231q-.3281-.123-.7168-.2871a1.0014,1.0014,0,0,1-.5537-.5322q-.123-1.7227-.1231-3.69,0-2.0082.1641-5.9863.1626-3.9756.1641-5.9853,0-2.6646-.2051-4.8789-.0411-.0411-.9024-.9434a1.4794,1.4794,0,0,1-.5332-.9844,1.0965,1.0965,0,0,1,.0821-.4092,1.0069,1.0069,0,0,1,.9023-.5742q.5333-.0821,1.0664-.123a17.3593,17.3593,0,0,1,7.2158,3.8535,8.5119,8.5119,0,0,1,1.5987,1.7227,9.8746,9.8746,0,0,1,1.9678,5.4531A6.0589,6.0589,0,0,1,128.7988,65.8934Zm-2.9521-4.3877q-.3691-2.5825-4.3867-4.5508-.2886,6.8481-.1641,14.5136,4.6318-4.6317,4.6328-8.8144A8.1179,8.1179,0,0,0,125.8467,61.5057Z"/><path class="cls-1" d="M146.06,72.9861a3.3573,3.3573,0,0,1,.2451,1.1475,1.8644,1.8644,0,0,1-.6963,1.4355c-.4658.41-.7793.6006-.9434.5743q-2.01-.3692-2.542-3.2393a31.62,31.62,0,0,0-1.3525-5.207q-1.3946.123-2.7881.2461a4.6471,4.6471,0,0,0-2.501.9834,46.1555,46.1555,0,0,0-1.1894,4.5107,30.08,30.08,0,0,1-1.3525,4.5508q-.33.7383-1.3946.41-1.352-.4526-1.4345-1.23a10.0725,10.0725,0,0,1,.9013-4.1817,17.8753,17.8753,0,0,0,1.3535-4.2646c.0264-.2451-.15-.5186-.5332-.8194s-.5742-.5332-.5742-.6972a.6934.6934,0,0,1,.1846-.4307,1.6005,1.6005,0,0,1,.8613-.3691c.4512-.0948.7031-.2383.7588-.43q.7368-2.0508,2.3369-7.627a69.99,69.99,0,0,1,2.419-7.4209.9967.9967,0,0,1,1.0244-.5732,1.5792,1.5792,0,0,1,1.0254.3682,4.7678,4.7678,0,0,1,1.4756,2.9521q.246,1.6816.4511,3.3623A130.0317,130.0317,0,0,0,146.06,72.9861Zm-5.9864-7.831a26.1382,26.1382,0,0,0-.5332-3.4033q-.41-1.6392-.7793-3.28-1.229,3.4042-2.1318,6.8066A27.0288,27.0288,0,0,1,140.0732,65.1551Z"/><path class="cls-1" d="M159.3838,65.8934q-.41.9433-.7793,1.8857a6.9323,6.9323,0,0,1-1.0654,1.7627q-1.2716,1.6-2.542,3.1572a11.2971,11.2971,0,0,1-2.7471,2.624q-.41.4923-.9023,1.0245a1.3781,1.3781,0,0,1-.9834.5332,1.6729,1.6729,0,0,1-.5743-.1231q-.328-.123-.7177-.2871a1.0071,1.0071,0,0,1-.5537-.5322q-.1232-1.7227-.1231-3.69,0-2.0082.1641-5.9863.164-3.9756.164-5.9853,0-2.6646-.205-4.8789-.0411-.0411-.9014-.9434a1.479,1.479,0,0,1-.5332-.9844,1.0964,1.0964,0,0,1,.082-.4092,1.0058,1.0058,0,0,1,.9024-.5742q.5317-.0821,1.0654-.123a17.3534,17.3534,0,0,1,7.2158,3.8535,8.5148,8.5148,0,0,1,1.6,1.7227,9.8824,9.8824,0,0,1,1.9678,5.4531A6.0439,6.0439,0,0,1,159.3838,65.8934Zm-2.9522-4.3877q-.3692-2.5825-4.3867-4.5508-.2871,6.8481-.164,14.5136,4.6332-4.6317,4.6328-8.8144A8.1181,8.1181,0,0,0,156.4316,61.5057Z"/><path class="cls-1" d="M175.9473,54.4539a44.0357,44.0357,0,0,1-4.4688,1.4346A44.4132,44.4132,0,0,0,167.01,57.324a21.4667,21.4667,0,0,0-.5332,4.7559,4.3039,4.3039,0,0,0,1.5166.2461,13.967,13.967,0,0,0,1.9277-.2051,13.941,13.941,0,0,1,1.9268-.2051,3.7561,3.7561,0,0,1,1.9677.4922,2.8614,2.8614,0,0,1,.5742,1.0654.5.5,0,0,1-.2871.4512,5.0032,5.0032,0,0,0-.5742.5742.9377.9377,0,0,1-.8193.3281,17.3469,17.3469,0,0,1-3.1572.2461,9.1282,9.1282,0,0,0-3.0752.4922,20.5378,20.5378,0,0,0-.7793,4.7969,4.4884,4.4884,0,0,0,.3281,1.8857q1.9263,1.3536,6.6836,1.1485a1.1181,1.1181,0,0,0,.6963-.3076,1.0692,1.0692,0,0,1,.6152-.3077q1.1471-.246,1.5166,1.7217a1.6348,1.6348,0,0,1-.2246,1.21,1.2167,1.2167,0,0,1-1.0049.5937,30.6465,30.6465,0,0,1-8.61-.7783,4.3449,4.3449,0,0,1-2.0909-1.2715,3.6633,3.6633,0,0,1-1.0654-2.2138,27.701,27.701,0,0,1,0-6.3955q-1.1484-.7794-1.0254-1.5176c.0264-.2461.2393-.4717.6358-.6768s.6211-.416.6757-.6347.1641-1.5176.3282-3.8956q-2.297-.45-2.2549-1.7216a2.2,2.2,0,0,1,1.4355-1.8858q1.3111-.5331,2.6241-1.0664a20.6066,20.6066,0,0,1,3.8535-1.3935q1.9688-.5332,3.9775-1.0254a2.5259,2.5259,0,0,1,.4912-.041,5.3107,5.3107,0,0,1,2.583.8613q.0411.1641.2051.6142a2.223,2.223,0,0,1,.1641.6563A.6268.6268,0,0,1,175.9473,54.4539Z"/><path class="cls-1" d="M181.8926,75.7742a2.0209,2.0209,0,0,1-.1641,1.127q-.246.5537-.5947.5742a.767.767,0,0,0-.5127.1846.3451.3451,0,0,1-.3281.123q-2.1725-.82-2.46-2.1318-.123-.5757.7793-1.169a2.4805,2.4805,0,0,1,1.2715-.5537,2.66,2.66,0,0,1,1.291.5742A1.7917,1.7917,0,0,1,181.8926,75.7742Zm3.9765-25.0107a80.1614,80.1614,0,0,1-2.0908,10.332,41.1516,41.1516,0,0,0-1.4756,10.6191.8523.8523,0,0,1-.4306.6768,1,1,0,0,1-.8.2256q-2.09-.41-2.2139-2.05-.0409-.8613-.041-1.7227a45.0353,45.0353,0,0,1,1.2305-9.43q1.8852-8.2412,2.05-9.3476a.8813.8813,0,0,1,.6152-.6973,1.4759,1.4759,0,0,1,1.0244-.041q.6972.2051,1.3945.41A1.0119,1.0119,0,0,1,185.8691,50.7635Z"/></g></g></svg>