<svg xmlns="http://www.w3.org/2000/svg" viewBox="0 0 613 106.39"><defs><style>.cls-1{fill:#204966;}</style></defs><g id="Camada_2" data-name="Camada 2"><g id="Camada_1-2" data-name="Camada 1"><path class="cls-1" d="M13.15,7.23q5.26,1.35,7.68,8.61T18.28,30q8.58,4.47,8.27,10.41t-7.38,8.91A30.63,30.63,0,0,1,6.15,52Q.2,51.79,0,33.68q0-21,4-24.4A9.58,9.58,0,0,1,13.15,7.23ZM5.31,28.6Q16.5,27.89,16,20.92t-4.62-8q-4.08-1-5.2,3.15T5.31,28.6Zm.25,4.94q.15,7.58,1.62,10t8.13.61q6.68-1.83,3.85-7T5.56,33.54Z"/><path class="cls-1" d="M33.56,35.22q1.21,8.84,10.92,6.44l2.07,6.28Q31.07,50.13,28.8,39.61t.13-17.9q2.4-7.36,8.83-8.07t10.62,2.7L45.2,21c-1.22-1.3-3.33-1.83-6.35-1.61s-4.74,3.48-5.2,9.79q4.92-1.77,12.15.11l-.51,5.58A22.14,22.14,0,0,0,33.56,35.22Z"/><path class="cls-1" d="M79.23,31.66a36,36,0,0,1-1.12,12L72,41q2.5-8.73.84-13.82t-4.56-.05c-1.92,3.37-3.79,5.05-5.63,5.05s-3.46-1.7-4.92-5.1-2.58-3-3.38,1.23-.18,11.32,1.88,21.27l-6.72,2.36q-2.71-17.51-.42-26.17T55,15.86q3.59-1.2,8.11,10,5.62-8.82,8.62-8.82c2,0,3.67,1.46,5,4.39A30.13,30.13,0,0,1,79.23,31.66Z"/><path class="cls-1" d="M81,32.4,80.82,27a29.35,29.35,0,0,1,14.09.82l-1.17,5.07A47.33,47.33,0,0,0,81,32.4Z"/><path class="cls-1" d="M106.14,45.3q-3.28,0-6.53-9.37c-2.17-6.25-3.36-10.54-3.6-12.88l4.1-2.14a58,58,0,0,0,6,14.11,118.6,118.6,0,0,0,5.74-15.19l4.34,2.56Q109.45,45.29,106.14,45.3Z"/><path class="cls-1" d="M119.61,52.2l-6.11-2.45q6.3-11.46,4.12-26.28l5-.78A53.65,53.65,0,0,1,119.61,52.2Zm4.52-36.56A5.19,5.19,0,0,1,122.68,19a5.18,5.18,0,0,1-7.62,0,5.21,5.21,0,0,1-1.43-3.38,5.17,5.17,0,0,1,1.43-3.39,5.25,5.25,0,0,1,7.62,0A5.15,5.15,0,0,1,124.13,15.64Z"/><path class="cls-1" d="M145.84,43.94q-5.21,1.38-8.62-11.45t-4.95-8.71a25.22,25.22,0,0,0-1.53,8.86A20.55,20.55,0,0,0,133,41.9l-5.73,1.94q-3.23-15.35,0-22c2.14-4.43,4.37-6.56,6.69-6.36s4.69,3.4,7.13,9.61q4.08,17.73,5.25,7.17t1.1-11.89l4.75.68Q151,42.57,145.84,43.94Z"/><path class="cls-1" d="M159.63,12h.48q10.08.41,13.15,6.33A24.21,24.21,0,0,1,175.59,32q-.72,7.73-6.28,11.18t-9.79,3.3q-4.23-.16-4.46-7.53T153.28,18.9Q153.28,12,159.63,12Zm4.29,7.16q-6.25-.9-5.07,4.21a66.13,66.13,0,0,1,1.5,11.19q.32,6.09,5.17,3.68T170.27,28Q170.16,20.09,163.92,19.2Z"/><path class="cls-1" d="M198.58,20.09a16.54,16.54,0,0,1,3.61,10.72,16.48,16.48,0,0,1-3.61,10.69,10.83,10.83,0,0,1-17.55,0,16.53,16.53,0,0,1-3.61-10.69A16.6,16.6,0,0,1,181,20.09a10.85,10.85,0,0,1,17.55,0Zm-8.79,2.47a7.11,7.11,0,0,0-5.23,2.35,8.31,8.31,0,0,0-2.28,6,8.28,8.28,0,0,0,2.28,6A7,7,0,0,0,195,37a8.27,8.27,0,0,0,2.27-6,8.3,8.3,0,0,0-2.27-6A7.11,7.11,0,0,0,189.79,22.56Z"/><path class="cls-1" d="M216.13,40.77q5.6-2.87-2.07-5.46t-9.22-5.06A9.66,9.66,0,0,1,203.29,25q0-7.6,16.16-12.85l1.3,6q-7.2.95-10.81,4.82t5.78,6.16q9.38,2.3,9.38,8.78t-5.33,8.86a39.77,39.77,0,0,1-13.37,3l-1.85-7.08A18.39,18.39,0,0,0,216.13,40.77Z"/><path class="cls-1" d="M268.69,39.12q-6.62,2.58-14.48-.28a46.64,46.64,0,0,0-1.79,6.5l-4.15-1.63q6-32.13,12.61-32.63t9.93,10.31a123,123,0,0,1,4.7,23.4l-5.25,2.47A61.72,61.72,0,0,0,268.69,39.12Zm-12.81-5.18a30.67,30.67,0,0,0,12-.66q-1.06-8.69-3.59-13t-4.57.14A64.76,64.76,0,0,0,255.88,33.94Z"/><path class="cls-1" d="M311.84,7.23q5.25,1.35,7.67,8.61T317,30q8.58,4.47,8.27,10.41t-7.37,8.91a30.63,30.63,0,0,1-13,2.74q-6-.23-6.16-18.33,0-21,3.95-24.4A9.6,9.6,0,0,1,311.84,7.23ZM304,28.6q11.17-.71,10.64-7.68t-4.62-8q-4.08-1-5.21,3.15T304,28.6Zm.24,4.94q.15,7.58,1.62,10t8.14.61q6.66-1.83,3.85-7T304.24,33.54Z"/><path class="cls-1" d="M347.06,39.12q-6.62,2.58-14.48-.28a46.64,46.64,0,0,0-1.79,6.5l-4.15-1.63q6-32.13,12.61-32.63t9.93,10.31a123,123,0,0,1,4.7,23.4l-5.25,2.47A61.72,61.72,0,0,0,347.06,39.12Zm-12.81-5.18a30.67,30.67,0,0,0,12-.66q-1.06-8.69-3.59-13t-4.57.14A64.76,64.76,0,0,0,334.25,33.94Z"/><path class="cls-1" d="M355.36,20.58Q356.85,9.53,371.1,10q7.5,1.14,8.53,10.39T369.8,34q8,4,11.16,7.14l-3.16,5.16a79.69,79.69,0,0,0-16.89-10.43q-.18,5.1,3.13,12.7l-6.3,3.18Q353.85,31.63,355.36,20.58Zm5.43,0a44.21,44.21,0,0,0,0,8.09c.22,3,2.43,3.52,6.6,1.56s6.19-5,6-9.07-2.22-5.79-6.22-5.15S361.05,18.2,360.79,20.6Z"/><path class="cls-1" d="M383.56,20.58Q385.06,9.53,399.3,10q7.5,1.14,8.54,10.39T398,34q8,4,11.16,7.14L406,46.31a80.2,80.2,0,0,0-16.89-10.43q-.18,5.1,3.13,12.7l-6.31,3.18Q382.06,31.63,383.56,20.58Zm5.43,0a45.13,45.13,0,0,0,0,8.09q.35,4.5,6.6,1.56t6-9.07q-.24-6.12-6.22-5.15T389,20.6Z"/><path class="cls-1" d="M430.68,39.12q-6.62,2.58-14.49-.28a47.91,47.91,0,0,0-1.78,6.5l-4.15-1.63q6-32.13,12.6-32.63t9.94,10.31a123.79,123.79,0,0,1,4.7,23.4l-5.25,2.47A61.72,61.72,0,0,0,430.68,39.12Zm-12.81-5.18a30.67,30.67,0,0,0,12-.66q-1.06-8.69-3.59-13t-4.57.14A64.76,64.76,0,0,0,417.87,33.94Z"/><path class="cls-1" d="M482.13,36.33q1.69,9.91-9.88,9.34T461,35.36q.31-9.73,5.86-14.66t12.16-4l-1.35,6a7.87,7.87,0,0,0-8.46,3.55,14.65,14.65,0,0,0-2.85,9.38q.29,4.88,6.26,5.08c4,.14,5.6-1.08,4.83-3.64s-2.65-3.08-5.67-1.54l-1.39-5.31Q480.43,26.43,482.13,36.33Z"/><path class="cls-1" d="M484.53,20.58Q486,9.53,500.28,10q7.49,1.14,8.53,10.39T499,34q8,4,11.16,7.14L507,46.31a79.94,79.94,0,0,0-16.89-10.43q-.18,5.1,3.13,12.7l-6.31,3.18Q483,31.63,484.53,20.58Zm5.44,0a44.15,44.15,0,0,0-.05,8.09q.34,4.5,6.61,1.56t6-9.07q-.24-6.12-6.22-5.15C492.35,16.68,490.22,18.2,490,20.6Z"/><path class="cls-1" d="M531.65,39.12q-6.61,2.58-14.48-.28a46.64,46.64,0,0,0-1.79,6.5l-4.14-1.63q6-32.13,12.6-32.63t9.93,10.31a123,123,0,0,1,4.7,23.4l-5.25,2.47A61.72,61.72,0,0,0,531.65,39.12Zm-12.81-5.18a30.67,30.67,0,0,0,12-.66q-1.07-8.69-3.58-13t-4.58.14A64.76,64.76,0,0,0,518.84,33.94Z"/><path class="cls-1" d="M559.56,43.94q-5.19,1.38-8.61-11.45t-5-8.71a25.22,25.22,0,0,0-1.53,8.86,20.55,20.55,0,0,0,2.25,9.26L541,43.84q-3.21-15.35,0-22c2.15-4.43,4.38-6.56,6.69-6.36s4.7,3.4,7.14,9.61q4.08,17.73,5.25,7.17t1.1-11.89l4.74.68Q564.76,42.57,559.56,43.94Z"/><path class="cls-1" d="M573.35,12h.49q10.08.41,13.14,6.33A24.29,24.29,0,0,1,589.32,32q-.74,7.73-6.29,11.18t-9.79,3.3Q569,46.34,568.79,39T567,18.9Q567,12,573.35,12Zm4.29,7.16q-6.25-.9-5.07,4.21a64.16,64.16,0,0,1,1.5,11.19q.31,6.09,5.17,3.68T584,28Q583.9,20.09,577.64,19.2Z"/><path class="cls-1" d="M598.18,35.22q1.22,8.84,10.92,6.44l2.07,6.28q-15.48,2.19-17.75-8.33t.13-17.9q2.4-7.36,8.83-8.07T613,16.34L609.83,21c-1.22-1.3-3.34-1.83-6.35-1.61s-4.75,3.48-5.21,9.79q4.92-1.77,12.15.11l-.51,5.58A22.14,22.14,0,0,0,598.18,35.22Z"/><path class="cls-1" d="M172.86,87.79q-6.51,3.66-11.45,2.28-.16,5.1,3.14,12.71L158.24,106q-3.88-20.13-2.38-31.18T171.6,64.14q7.5,1.15,7.63,10.58T172.86,87.79Zm-5-3.58q6.28-2.71,6-8.83t-6.21-5.15c-4,.65-6.12,2.17-6.38,4.56a44.39,44.39,0,0,0,0,8.1Q161.54,86.93,167.83,84.21Z"/><path class="cls-1" d="M186.57,106.39l-6.1-2.45q6.3-11.46,4.12-26.28l5-.77A53.53,53.53,0,0,1,186.57,106.39Zm4.53-36.56a5.19,5.19,0,0,1-1.45,3.39,5.2,5.2,0,0,1-7.62,0,5.21,5.21,0,0,1-1.43-3.39A5.13,5.13,0,0,1,182,66.45a5.22,5.22,0,0,1,7.62,0A5.11,5.11,0,0,1,191.1,69.83Z"/><path class="cls-1" d="M212.13,93.32q-6.62,2.58-14.49-.29a48.31,48.31,0,0,0-1.78,6.5l-4.15-1.63q6-32.13,12.6-32.62t9.94,10.31A123.52,123.52,0,0,1,219,99l-5.25,2.47A61.55,61.55,0,0,0,212.13,93.32Zm-12.81-5.19a30.29,30.29,0,0,0,12-.66q-1.06-8.68-3.59-13t-4.57.14A64.76,64.76,0,0,0,199.32,88.13Z"/><path class="cls-1" d="M237.77,101q-6.78,3.84-12-.51t-5.47-12.1a35.44,35.44,0,0,1,1.83-13.32l5,1.65q-4.87,17.64,3.88,19t7.49-16.21l6.07-1.59Q244.55,97.17,237.77,101Z"/><path class="cls-1" d="M248.52,106.39l-6.11-2.45q6.3-11.46,4.12-26.28l5.05-.77A53.61,53.61,0,0,1,248.52,106.39Z"/><path class="cls-1" d="M264.72,86.59l-.13-5.45a29.35,29.35,0,0,1,14.09.82L277.51,87A47.72,47.72,0,0,0,264.72,86.59Z"/><path class="cls-1" d="M305.73,61.42Q311,62.77,313.4,70t-2.54,14.11q8.56,4.48,8.26,10.41c-.2,4-2.66,6.92-7.37,8.91a30.63,30.63,0,0,1-13,2.74q-6-.23-6.15-18.33,0-21,3.94-24.4A9.65,9.65,0,0,1,305.73,61.42ZM297.89,82.8q11.17-.7,10.64-7.69t-4.62-8q-4.08-1-5.2,3.15T297.89,82.8Zm.24,4.94c.1,5,.65,8.38,1.62,10s3.69,1.84,8.14.62,5.73-3.55,3.85-7S305.32,86.78,298.13,87.74Z"/><path class="cls-1" d="M322,74.77q1.5-11,15.74-10.63,7.5,1.15,8.53,10.39T336.48,88.2q8,4,11.16,7.15l-3.16,5.15a79.69,79.69,0,0,0-16.89-10.43q-.18,5.1,3.13,12.71l-6.3,3.17Q320.53,85.82,322,74.77Zm5.43,0a44.32,44.32,0,0,0,0,8.1c.22,3,2.43,3.51,6.6,1.55s6.19-5,6-9.06-2.22-5.8-6.22-5.15S327.73,72.4,327.47,74.79Z"/><path class="cls-1" d="M369.16,93.32q-6.62,2.58-14.49-.29a46.87,46.87,0,0,0-1.78,6.5l-4.15-1.63q6-32.13,12.6-32.62t9.94,10.31A122.75,122.75,0,0,1,376,99l-5.25,2.47A60.05,60.05,0,0,0,369.16,93.32Zm-12.81-5.19a30.23,30.23,0,0,0,12-.66q-1.05-8.68-3.58-13t-4.58.14A65.48,65.48,0,0,0,356.35,88.13Z"/><path class="cls-1" d="M389.92,95q5.59-2.85-2.07-5.46t-9.22-5.06a9.57,9.57,0,0,1-1.55-5.22q0-7.6,16.16-12.85l1.3,6q-7.21.95-10.82,4.81t5.78,6.17q9.39,2.3,9.38,8.77T393.56,101a39.79,39.79,0,0,1-13.38,3l-1.85-7.08A18.43,18.43,0,0,0,389.92,95Z"/><path class="cls-1" d="M403.45,106.39l-6.11-2.45q6.3-11.46,4.12-26.28l5.05-.77A53.61,53.61,0,0,1,403.45,106.39ZM408,69.83a5.14,5.14,0,0,1-1.45,3.39,5.19,5.19,0,0,1-7.61,0,5.17,5.17,0,0,1-1.44-3.39,5.09,5.09,0,0,1,1.44-3.38,5.21,5.21,0,0,1,7.61,0A5.06,5.06,0,0,1,408,69.83Z"/><path class="cls-1" d="M417.45,100.46q-7.21-.3-7-9.5a65.84,65.84,0,0,1,2.88-17.76l6.33,1.46q-5,18-1.3,19.43l6-1.55.55,6.6A44.88,44.88,0,0,1,417.45,100.46Z"/><path class="cls-1" d="M458.64,95.9a5.17,5.17,0,0,1-1.44,3.38,5.18,5.18,0,0,1-7.62,0,5.16,5.16,0,0,1-1.43-3.38,5.1,5.1,0,0,1,1.43-3.39,5.25,5.25,0,0,1,7.62,0A5.12,5.12,0,0,1,458.64,95.9Zm-8.42-9.24q-1.64-15.15,1.08-26.75l6.39.73a66.63,66.63,0,0,0-3.3,25.62Z"/><path class="cls-1" d="M245.54,73.08a46.49,46.49,0,0,1,9.52-8.25l3.85.94a49.8,49.8,0,0,0-7.17,8.81Z"/><path class="cls-1" d="M262,9.75A49.36,49.36,0,0,0,254.79.94L258.65,0a46.52,46.52,0,0,1,9.52,8.26Z"/></g></g></svg>