<svg xmlns="http://www.w3.org/2000/svg" viewBox="0 0 1864.48 1222.03"><defs><style>.cls-1{fill:#204a66;}</style></defs><g id="Camada_2" data-name="Camada 2"><g id="Camada_1-2" data-name="Camada 1"><path class="cls-1" d="M728.6,944.74c1.11-30,3.21-55.5,6.88-80.84.64-4.43,1.59-8.8,2.32-13.22,1.25-7.57,2.52-15.13,3.63-22.72,1.94-13.3,4.06-26.54,7.27-39.61,2-8.06,3.88-16.17,4.63-24.48a97.63,97.63,0,0,1,3-15,57.42,57.42,0,0,0,1-7.56c.29-2.51-2.65-5.21-4.84-4.5-3.65,1.18-7.26,2.47-10.94,3.56s-7.42,1.89-11.09,3c-8.32,2.48-16.5,1.41-24.55-1.05A39.32,39.32,0,0,1,691,733.88c-7.9-7.06-12.59-16-15.81-25.85a73.6,73.6,0,0,1-3.29-18.85,154.89,154.89,0,0,1,.64-28.73c1.06-8.23,2.71-16.39,4.51-24.49,1.39-6.22,3.56-12.27,5.16-18.45,3-11.82,7.94-23,12.85-34.06,3.1-7,7.36-13.46,11.78-19.73a47.5,47.5,0,0,1,5.15-5.67,27.6,27.6,0,0,1,16.93-8.15,31.5,31.5,0,0,1,18.5,3.69,16.19,16.19,0,0,1,6.68,6.69,6.75,6.75,0,0,1,.82,5.54c-3.83,10.2-6.08,20.84-9.08,31.26-4.07,14.18-6.59,28.64-8.68,43.21-.73,5.06-1.29,10.15-2.29,15.16-2.53,12.68-2.09,25.45-1.36,38.23a14.38,14.38,0,0,0,2.71,7.08,7.31,7.31,0,0,0,6.75,2.6,31.1,31.1,0,0,0,8.82-3.63c6.63-3.85,13.3-7.67,19.83-11.69a200.65,200.65,0,0,1,22.14-11.45,40,40,0,0,1,29.91-1.48c3.68,1.2,6.35,4.17,8.36,7.58a26.49,26.49,0,0,1,3.51,12.81,112.8,112.8,0,0,1-1.7,21c-1.09,7-2.33,13.87-3.46,20.81-.72,4.42-1.42,8.84-2,13.27a203.43,203.43,0,0,1-3.88,20.71A209.69,209.69,0,0,0,820,795.8c-1.25,10.14-3,20.25-5.07,30.26-2.84,13.79-5.2,27.64-6.73,41.64-.21,1.91-.1,3.91-.67,5.7-2.93,9.25-2.63,19-4.41,28.4-1.67,8.84-1.64,17.81-1.65,26.77,0,6.53,1.72,12.63,4,18.63,1.42,3.71,6.9,6.55,11.1,5.92a32.79,32.79,0,0,0,15.69-6.69,131.27,131.27,0,0,0,20.24-20.37c6.9-8.43,12.84-17.54,18.76-26.66,7.31-11.28,13.73-23.08,20-34.95,6-11.31,11.49-22.84,17.21-34.26A56.44,56.44,0,0,0,914,813.88c2.68-16.43,7-32.49,11.42-48.5a270.73,270.73,0,0,1,10.19-28.9c5.27-13,10.93-25.93,17.94-38.16,10.89-19,23.63-36.48,40.11-51.05,10.21-9,21.54-16,35.14-18.64,2.51-.5,5-1,7.48-1.7a34.22,34.22,0,0,1,18.93,0c1.84.53,3.74.86,5.62,1.25,1.25.27,2.52.45,3.77.75,10.85,2.59,20.48,7,26.91,16.84,1.92,2.93,5.25,3.33,8.6,2.42,1.23-.33,2.46-.71,3.67-1.1a11,11,0,0,0,1.77-.73c4.11-2.16,8.55-2.25,13.06-2.45,7.44-.34,13.78,2.29,19.51,6.67a15.64,15.64,0,0,1,3.78,4.28c1.7,2.8,2.55,6,1.46,9.18-1.67,4.82-3.73,9.52-5.75,14.22a151.57,151.57,0,0,0-8.07,23.56c-1.23,5-3,9.78-4.27,14.72-2.11,8-4.44,16-5.7,24.27a168.3,168.3,0,0,1-3.74,18.79c-3,11.15-4.64,22.54-6.59,33.88-1.31,7.56-2.57,15.13-3.86,22.69-3.21,18.93-5.19,38-7.31,57.08-.28,2.54-.36,5.12-.76,7.64-3.31,21-3,42.07-2.8,63.17a70.15,70.15,0,0,0,2.65,18.95c.53,1.83,1.26,3.61,2,5.4,2,5,7.13,7.32,12.59,5.81a29.07,29.07,0,0,0,11.72-6.29,98.55,98.55,0,0,0,9.29-9.66,189,189,0,0,0,21.45-31.73c12-21.89,23.25-44.1,31.61-67.67,5.12-11,8.48-22.76,13.16-34a109.15,109.15,0,0,0,5.66-18.3c3.22-14.34,6-28.8,9.88-43,7.23-26.55,15.84-52.64,29.27-76.88a58.83,58.83,0,0,1,16-18.88,31.61,31.61,0,0,1,10.15-5.28,79.63,79.63,0,0,1,16.88-3.42,54.48,54.48,0,0,1,24.43,3.76,28.1,28.1,0,0,1,3.38,1.8c3.78,2.17,6.17,7.33,5.17,11.51a36.89,36.89,0,0,1-2.32,7.27,169.28,169.28,0,0,0-8.37,21.41c-2.77,8.51-6.12,16.83-8.61,25.41q-3.48,12-7.61,23.73a65.83,65.83,0,0,0-2.58,9.23,156.64,156.64,0,0,1-5.63,20.28,128.61,128.61,0,0,0-4.12,16.74q-2.58,13.17-5.44,26.28c-3.25,15-5.8,30.16-5.26,45.63a70.49,70.49,0,0,0,.72,9.54,33.74,33.74,0,0,0,2.38,7.24c1.4,3.27,5.9,5.67,9.39,5.44a31.11,31.11,0,0,0,16.08-5.65,80,80,0,0,0,14.2-12.82c11.46-13,21.07-27.33,29.84-42.24,13.31-22.64,24.43-46.37,34.63-70.54a27.7,27.7,0,0,0,2.29-11.18c0-3.2,0-6.4-.14-9.59-.47-13.53,1.79-26.77,4.3-40,2.16-11.41,6.63-22.08,11.62-32.42,9.23-19.13,21.14-36.44,36.7-51.14a124,124,0,0,1,33.35-22.26,60,60,0,0,1,31.76-5.52,18.63,18.63,0,0,1,10.4,4.49,55,55,0,0,1,17.24,27.14c.46,1.61-.85,4.27-2.37,4.59-5,1-10,2.18-15,3.12a56.41,56.41,0,0,0-12.63,4.44c-16,7.11-27.13,18.91-33.7,35a180.17,180.17,0,0,0-8.27,23.49c-3.34,13.1-3.94,26.54-5.75,39.83a24.58,24.58,0,0,0,0,5.75c1.86,18.46,3.64,36.94,10.63,54.4,3.46,12.37,9.35,23.77,14.15,35.6a17.39,17.39,0,0,0,1,1.63c1.5,2.84,5.57,4.21,8.22,2.71a68.74,68.74,0,0,0,6.61-3.86,441,441,0,0,0,58.31-49.73c8.49-8.74,16.17-18.13,23.77-27.6a57.88,57.88,0,0,0,6.16-9.7c3.23-6.24,6.14-12.65,9.17-19A189.89,189.89,0,0,1,1603.13,692a45.81,45.81,0,0,1,12.39-11.85c2.16-1.36,4.31-2.75,6.33-4.3a11.38,11.38,0,0,0,4.05-6.37c.93-3.71,1.61-7.5,2.18-11.28,1.9-12.65,3.84-25.31,7.24-37.66,3.58-13,8.93-25.3,17.29-36.08a62.08,62.08,0,0,1,17-15.3,51.11,51.11,0,0,1,19.74-6.93,97.89,97.89,0,0,1,26.76.23,45.9,45.9,0,0,1,22.6,9.79,64.65,64.65,0,0,1,21,29.26,162.76,162.76,0,0,1,4.65,16.61c.93,3.72,1.3,7.57,2.21,11.29a72.62,72.62,0,0,1,2,17.1q0,17.28-.14,34.54a71.16,71.16,0,0,1-.72,9.56c-1.47,10.12-3.08,20.22-4.67,30.32-.69,4.42-1.48,8.83-2.19,13.24-1.81,11.36-3.39,22.73-6.79,33.79-1.87,6.09-2.83,12.46-4.07,18.73-1,5.31,2.5,8.32,8,6.94,1.24-.31,2.51-.51,3.72-.91a57.14,57.14,0,0,0,5.4-2,90,90,0,0,0,22.85-13.9c14.22-12.15,26.42-26,35.16-42.69q4.45-8.48,9-16.93a6.42,6.42,0,0,1,6.27-3.58,15.14,15.14,0,0,1,11.4,6.22,12,12,0,0,1,2.37,9.05,51.1,51.1,0,0,1-2,9.34c-10,30.39-26.34,56.74-50.81,77.66a124.29,124.29,0,0,1-39.47,23.21c-7.84,2.77-15.73,5.38-23.57,8.15a9.67,9.67,0,0,0-5.31,5.24,10.55,10.55,0,0,0-.81,1.74c-3.32,11.69-8.4,22.79-11.45,34.58a100.53,100.53,0,0,1-4.3,12.71c-5.29,13-10.39,26.13-16.44,38.84s-12.46,25.21-20.68,36.7a153.38,153.38,0,0,1-25.71,28.33c-9.42,7.95-19.8,14-31.74,17.29-1.85.51-3.73,1-5.52,1.64a37.74,37.74,0,0,1-13.18,2.12c-3.2,0-6.4,0-9.6,0-5.19.06-10-1.32-14.91-3-11.44-4-19.75-11.53-26.3-21.35-4.28-6.42-7.73-13.22-9.39-20.85-2-9.37-4.35-18.68-6.29-28.07a49.72,49.72,0,0,1-.72-9.54c-.11-9-.09-17.91-.1-26.86a150.77,150.77,0,0,1,2.2-24.79c1.85-11.35,3.4-22.75,5.22-34.11,1.51-9.46,3.18-18.9,4.6-28.38.19-1.29-1.15-2.23-2.47-2.43a3,3,0,0,0-1.8.06,40.49,40.49,0,0,0-6.43,4.08c-11.57,10.09-23.29,20-35.35,29.47a92.85,92.85,0,0,0-9.68,9.25,6.37,6.37,0,0,0-1.47,5.38,37.23,37.23,0,0,0,1.71,7.44c5.59,14.34,9.39,29.19,13.31,44,3.14,11.87,3.42,24,4.48,36.08q-1.37,12.39-2.74,24.77c-4.11,13.56-9.06,26.75-19,37.28a88.49,88.49,0,0,1-31.32,21.64,142,142,0,0,1-29.44,8.5c-11.44,2-22.93,2-34.14-1.77-4.23-1.43-8.54-2.72-12.63-4.5a53.78,53.78,0,0,1-24.32-21,43,43,0,0,1-5.8-16.15,78.89,78.89,0,0,1,.55-28.62,104.86,104.86,0,0,1,8.55-25.38,195.56,195.56,0,0,1,28.82-42.85c7.54-8.68,15-17.44,23.41-25.37a23.86,23.86,0,0,0,5.74-7.6,5.7,5.7,0,0,0,.6-3.64c-1.86-5.44-3.83-10.86-6.06-16.16-5.44-13-11-25.87-16.62-38.78-.75-1.75-1.85-3.35-2.77-5-.67-1.24-4.13-1.85-5.12-.88a16.1,16.1,0,0,0-2.62,2.74c-1.64,2.74-3.15,5.56-4.6,8.4-11.4,22.24-24.29,43.57-39.67,63.29a189,189,0,0,1-41.37,39.65,102.9,102.9,0,0,1-27.45,13.48c-10.39,3.31-21.19,4.89-32.18,3.12-11.4-1.83-20-7.81-26.39-17.39-2.81-4.25-4.44-9.23-8.13-12.94-1-1-4.32-1.16-5.21,0a29.15,29.15,0,0,0-2.39,3c-1.91,3.32-3.87,6.64-5.5,10.1-3.82,8.12-8.41,15.81-13,23.52a264.58,264.58,0,0,1-20.62,30,167.7,167.7,0,0,1-25.71,25.73,79.79,79.79,0,0,1-19.75,11.63c-10.6,4.45-13.16,5-24.17,4.95-.64,0-1.28,0-1.92,0-8.5.5-16.46-1.83-24.25-4.79-12.39-4.71-21.91-13-28.93-24.15a86.48,86.48,0,0,1-12.39-36c-1.49-12.06-2.66-24.16-2.39-36.35a26.16,26.16,0,0,0-1-5.61c-.25-1.25-4-2.32-5-1.49-1.48,1.2-3,2.37-4.47,3.6-3.42,2.88-6.75,5.86-10.22,8.68-8.62,7-18.68,11-29.34,13.6a37.77,37.77,0,0,1-22.63-1.43,43.36,43.36,0,0,1-23.9-21c-2.09-3.94-4.3-7.81-6.43-11.72-.69-1.27-4.17-1.57-5.11-.48a20.76,20.76,0,0,0-2.48,2.85q-9.87,16.44-19.63,33a382,382,0,0,1-31.88,45.53,217.84,217.84,0,0,1-24,24.77,128.64,128.64,0,0,1-23.39,16.66,72.63,72.63,0,0,1-38.64,9.3,32.05,32.05,0,0,1-26.07-14,66.94,66.94,0,0,1-11.58-26.11A272.4,272.4,0,0,1,728.6,944.74Zm228.11-91.46c.06,7-.09,14,1.13,21A30.3,30.3,0,0,0,961.7,885a15.89,15.89,0,0,0,12.45,7.85c6.09.67,11.37-1.51,15.88-5.32a56.08,56.08,0,0,0,11.34-12.9A239.52,239.52,0,0,0,1013.59,853c7.35-14.93,13.14-30.5,18.32-46.22,5-15.11,10.63-30.09,13.17-45.93a37.56,37.56,0,0,1,1.73-5.46c3-9.12,5-18.46,7.14-27.79,1.42-6.2,2.41-12.49,4.2-18.65,2-6.7,2.88-13.72,3.91-20.66a27,27,0,0,0-2.13-15,15.49,15.49,0,0,0-17.1-9.35,29.67,29.67,0,0,0-16.71,8.7,133,133,0,0,0-18.38,22c-11.19,17.21-20,35.62-27.3,54.7a486.15,486.15,0,0,0-16,49.13C959.7,816.42,956.57,834.62,956.71,853.28Zm642,73c0,6.57-.22,12.32.08,18a103.77,103.77,0,0,0,1.77,13.23,19.38,19.38,0,0,0,3.91,8.63,10.43,10.43,0,0,0,6.36,3.9,16.69,16.69,0,0,0,11.13-1.66,39,39,0,0,0,12-9.36,189.74,189.74,0,0,0,12.71-16.73c6.59-10.2,11.84-21.11,17-32.06,7.58-16.17,13.46-33,19.2-49.89,1.65-4.85,3.13-9.74,3.22-14.88a6.57,6.57,0,0,0-2.62-4.9,12.47,12.47,0,0,0-3.3-1.87c-6.56-2.65-12.39-6.53-18.14-10.55a71.79,71.79,0,0,1-18.87-18.76c-1.42-2.11-2.77-4.28-4.22-6.37-.72-1-1.62-1.94-2.4-2.94-1.53-2-5.19-2-6.6-.05a53.67,53.67,0,0,0-7.67,15.29c-5.19,15.72-11.31,31.17-13.86,47.66a29.87,29.87,0,0,1-.89,3.71C1601.83,886.45,1599.64,906.68,1598.67,926.26Zm125.86-254.14c-.27-11.52-.34-23-1.25-34.48a90.62,90.62,0,0,0-5.52-24.2,35.63,35.63,0,0,0-4.58-8.36c-4.91-6.73-12.48-6.68-17.55.15a21,21,0,0,0-3.6,6.68,136.77,136.77,0,0,0-3.65,16.83c-1.15,8.23-2.72,16.38-3.92,24.58-1.29,8.83-3.14,17.63-3.16,26.6,0,5.13-.41,10.2-.88,15.29a205.8,205.8,0,0,0,.29,40.17,94.09,94.09,0,0,0,11.16,36.37,32,32,0,0,0,4.71,6c2.17,2.33,6.82,1.69,8.27-1a37.62,37.62,0,0,0,1.91-3.3,126.76,126.76,0,0,0,7.68-23.64c2.17-10.63,4.33-21.27,6.32-31.94a118.66,118.66,0,0,0,1.74-13.27C1723.29,693.79,1723.87,683,1724.53,672.12ZM1435.75,965.67h-.06c0-7.64.07-15.29,0-22.93a32.84,32.84,0,0,0-1-5.57c-.33-1.67-2.93-2.72-4.58-2.07a9.79,9.79,0,0,0-4.31,3.59c-4.53,6.19-7.78,13.13-11.41,19.84-6.17,11.43-7.86,24.1-10,36.65a23,23,0,0,0-.13,3.81,35.08,35.08,0,0,0,5.26,18.11,8.23,8.23,0,0,0,4.46,3.38,11.23,11.23,0,0,0,12.11-3.34,30.09,30.09,0,0,0,5.68-9.87c2.23-7.33,4-14.76,4-22.49Q1435.76,975.22,1435.75,965.67Z"/><path class="cls-1" d="M1348.72,388.55a223,223,0,0,0,1.21,34.91,55.8,55.8,0,0,0,3.54,14.88,39.75,39.75,0,0,0,2.57,5.14,16.75,16.75,0,0,0,18,8,35.13,35.13,0,0,0,10.69-4.09,61.42,61.42,0,0,0,12.07-9.41,155.93,155.93,0,0,0,26.09-33c9.17-15.52,8.57-11.83,12.48-31.8.73-3.75,1.75-7.45,2.72-11.15,1.79-6.79,3.86-13.53,5.42-20.38,3.13-13.69,15.45-45.7,22.14-59.16,1.7-3.44,3.7-6.72,5.53-10.09,4.64-8.56,10.44-16.06,18.8-21.34a11.3,11.3,0,0,0,2.76-2.63,9,9,0,0,0,1.81-3.33c.82-3.74,1.46-7.52,2-11.31a265.4,265.4,0,0,1,6.23-28.07c2.7-10.16,8.12-18.69,14.63-26.67a24.49,24.49,0,0,1,5.58-5.23c12.93-8.13,26.51-12.29,41.86-7.16,8.8,2.95,16.08,7.71,21.72,15a32,32,0,0,1,3.17,4.79c4.14,8,7.44,16.3,8.76,25.26.65,4.42,1.14,8.88,1.38,13.34a314.33,314.33,0,0,1-.56,40.25,210,210,0,0,1-4.31,28.43c-2.52,11.87-4.85,23.8-7.21,35.71-.24,1.23,0,2.54-.17,3.8-.22,2.28,2.83,5.09,5,4.61a31,31,0,0,0,3.73-.84,68.81,68.81,0,0,0,22.83-13.78,115.3,115.3,0,0,0,25.64-33.2c1.18-2.27,2.17-4.63,3.33-6.91a7.63,7.63,0,0,1,9.91-3.13c4.35,2,6.85,5.88,6.06,10.83a62.92,62.92,0,0,1-4.51,14.62c-8.13,19.06-19.37,36-35.52,49.32-7.42,6.13-15.32,11.55-24.35,15.09-4.75,1.86-9.57,3.56-14.35,5.36a67.51,67.51,0,0,0-7.11,2.84,9.57,9.57,0,0,0-5,5.58c-3.75,12.23-8.26,24.17-12.55,36.2a290.91,290.91,0,0,1-19.78,43.6,119,119,0,0,1-15.63,21.77,123.28,123.28,0,0,1-11.1,10.57c-13.94,12-30.28,15.84-48.27,13.7-.63-.08-1.26-.22-1.9-.29-7.33-.77-13.28-4.26-18.43-9.34a42.68,42.68,0,0,1-10.28-16,102.87,102.87,0,0,1-3.83-12.84c-1.52-6.86-2.6-13.81-4-20.7a7.37,7.37,0,0,0-2-3c-.77-.86-3.87-.1-5.31,1.15-1,.84-2,1.63-2.91,2.5-2.35,2.16-4.65,4.39-7,6.53a82.82,82.82,0,0,1-22.27,14.79c-2.33,1-4.51,2.37-6.73,3.62-3.16,1.79-3.29,7.79-.19,9.89,1.58,1.07,3.25,2,4.9,3,7.75,4.61,11.4,11.83,12.8,20.39a16.34,16.34,0,0,1-.06,5.71c-2.11,11-7.13,20.45-16.11,27.51a29.28,29.28,0,0,1-3,2.35c-10.65,6.29-22,10.38-34.55,9.77A18.56,18.56,0,0,1,1336,552a8,8,0,0,1-3.63-8.16,2.94,2.94,0,0,1,2.23-2.78,72.42,72.42,0,0,1,7.48-1.23,45.9,45.9,0,0,0,22.82-9.26,17.55,17.55,0,0,0,7.12-15c-.08-4-1.67-7.64-5.15-9.77-3.8-2.33-7.94-4.09-11.89-6.15a7.23,7.23,0,0,1-4-6.12c-.22-3.17.15-6.37.08-9.56-.08-3.56-2.11-5.89-5.26-7.28-1.75-.77-3.58-1.36-5.35-2.07-3-1.2-5.9-2.44-8.85-3.66a39.08,39.08,0,0,1-13.94-10c-3-3.3-5.83-6.77-8.75-10.15-1.53-1.76-5.24-1.35-6.69.77-3.26,4.74-6.77,9.33-9.64,14.29-5.18,8.94-11.84,16.66-19,24A135,135,0,0,1,1262.07,500c-10.52,8.58-22.79,11-36,10-1.28-.1-2.54-.35-3.82-.42-8.63-.49-16-3.88-22.61-9.36a27.76,27.76,0,0,1-2.87-2.53c-6.54-7.23-11.58-15.33-13.45-25-2.31-11.93-4.39-23.9-4.42-36.11a4.6,4.6,0,0,0-1.32-3.5c-.88-.85-2.33-1.59-3.36-.92-4.8,3.13-9.45,6.5-14.12,9.82a41.3,41.3,0,0,1-19.56,7.29c-9.22,1.07-17.84-.36-25.33-6.34-1.49-1.18-3.15-2.16-4.75-3.21-.89-.58-4.64.32-5.35,1.26a46.62,46.62,0,0,0-3.39,4.61c-3.82,6.66-7.41,13.44-11.29,20.06a222,222,0,0,1-34.81,45.58A99.52,99.52,0,0,1,1043.9,521a66.15,66.15,0,0,1-26.16,11.31,41.1,41.1,0,0,1-22.59-2,26,26,0,0,1-9.67-6.1,51.35,51.35,0,0,1-13.6-22.8c-3.45-12.36-5.93-24.86-5.68-37.79.16-7.67,0-15.34,0-23a2.87,2.87,0,0,0-1.94-2.88,3.08,3.08,0,0,0-3.46.75,45.81,45.81,0,0,0-3.49,4.56c-2.57,3.66-5,7.4-7.63,11-1.86,2.6-3.84,5.11-5.82,7.61-7.71,9.72-17.6,16.64-28.59,22.11a9.75,9.75,0,0,1-1.77.74c-7.43,2.11-14.89,3.33-22.69,2.16-7.41-1.1-13.09-4.86-17.83-10.32a44.6,44.6,0,0,1-7.75-13.15c-.93-2.38-1.7-4.82-2.63-7.2-.85-2.17-4.78-3.43-6.5-2.13a72.11,72.11,0,0,0-6,4.68,127.64,127.64,0,0,1-14.91,12,70.44,70.44,0,0,1-24.42,10.75c-3.73.86-7.51,1.58-11.28,2.28a33.66,33.66,0,0,1-13.34-.06c-6.85-1.5-13.88-2.18-20.45-5a45.19,45.19,0,0,1-12.88-8.14,58.93,58.93,0,0,1-18.35-32.95,170.46,170.46,0,0,1-2.84-42c.45-8.3,1.14-16.59,1.56-24.89a128.5,128.5,0,0,1,3.8-24.6c2-8.06,4.14-16.1,6.16-24.16,3.28-13.08,8.25-25.55,13.86-37.75,4-8.69,8.08-17.35,13.61-25.29a181.42,181.42,0,0,1,13-16.57,74.63,74.63,0,0,1,21.21-16.22,32.68,32.68,0,0,1,7-3c10.66-2.7,21.4-3.74,32.25-1a22.5,22.5,0,0,1,12.56,8.28,48.15,48.15,0,0,1,10.21,28.38,82.09,82.09,0,0,1-2,22.85c-.93,3.72-1.61,7.5-2.48,11.24-4.69,20.15-13.33,38.62-24.39,56a91.2,91.2,0,0,1-18.87,21.57c-1,.82-1.86,1.79-2.91,2.5-6,4-12.24,6.93-19.71,6.08a15.87,15.87,0,0,0-5.71-.07c-1.39.33-3.69,2.19-4,3.69-1.82,10.07-3.42,20.2-3.48,30.43a85.29,85.29,0,0,0,5.92,31.85c3.38,8.68,12.86,13,22.1,10.25a44.46,44.46,0,0,0,18.19-10.28,146.17,146.17,0,0,0,26.79-34.83,29.29,29.29,0,0,0,3.3-10.95q1.94-15.21,3.81-30.44a145.91,145.91,0,0,1,5.1-24.38,74.4,74.4,0,0,0,2.06-7.39c2.86-15.17,8.35-29.55,13.74-43.88a215,215,0,0,1,29-53.84c2.31-3.06,4.77-6,7.24-8.93,5.47-6.47,12.36-11.08,19.93-14.67a28.56,28.56,0,0,1,7.29-2.26,45.05,45.05,0,0,1,24.51,2.48c7.77,3,15.1,6.93,21,13a26.91,26.91,0,0,0,4.66,3.21c1.15.78,4.32-.3,4.95-1.66a20.27,20.27,0,0,0,1.59-3.46c3.91-15.49,8.23-30.89,9.85-46.87a52.28,52.28,0,0,1,1.41-7.53,310.61,310.61,0,0,0,7-37.66c1-7.61,1.68-15.29,3.36-22.75s3-15,4-22.63c1-7,2-13.92,2.89-20.89.76-5.7,1.47-11.41,2.21-17.11a88.15,88.15,0,0,0,1.22-9.5c.23-10.92,2.75-21.55,3.66-32.38a6.06,6.06,0,0,1,.59-1.82c.78-1.78,1.8-3.47,3.8-4,5-1.24,9.89-2.66,14.92-3.4a41.93,41.93,0,0,1,18.93,1.72A24.66,24.66,0,0,1,1092,12.36a32.89,32.89,0,0,1,5.61,16.12,86.57,86.57,0,0,1-.93,21c-1.92,11.35-3.62,22.74-5.39,34.11-.78,5-1.65,10.1-2.22,15.18a161.59,161.59,0,0,1-4.92,26.35,77,77,0,0,0-2.1,9.35c-2.85,18.33-6.8,36.44-10.57,54.59-2.21,10.62-3.55,21.44-6.1,32-3,12.43-5.9,24.87-7.49,37.58a20.67,20.67,0,0,1-.67,3.77c-5.44,17.14-7.06,35.05-10.82,52.52-4.57,21.26-7.34,42.83-11.74,64.09-3.26,15.73-4.58,31.61-6.06,47.5a141.94,141.94,0,0,0-.11,24.91,30.63,30.63,0,0,0,3.87,12.74,9,9,0,0,0,11.64,3.46,24.22,24.22,0,0,0,7.51-5.88c6.84-8.43,13.82-16.78,19.49-26.08,7.31-12,14.25-24.25,20.72-36.75A66,66,0,0,0,1099,375.3c1.21-11.43,3-22.81,4.69-34.19a139.28,139.28,0,0,1,5-20.49,304.38,304.38,0,0,1,13.83-37.78,192.2,192.2,0,0,1,20.16-34.76,118.8,118.8,0,0,1,19.73-20.83,59.84,59.84,0,0,1,25.62-12.5,51.36,51.36,0,0,1,31.92,3.2,37.13,37.13,0,0,1,12.27,9c2.36,2.48,5.51,3,8.83,2.3,1.87-.42,3.7-1,5.56-1.47a34.55,34.55,0,0,1,3.75-.75,21.8,21.8,0,0,1,17.71,5.54,11.2,11.2,0,0,1,2.26,3c.93,1.7,1.57,3.6.89,5.5-1.5,4.2-3.11,8.38-4.81,12.5a132.82,132.82,0,0,0-6.58,20,184.15,184.15,0,0,1-4.87,18.52,78.63,78.63,0,0,0-3.26,13c-2.71,16.39-5.76,32.72-8.53,49.1-2.66,15.77-4.58,31.65-6.09,47.55-1.28,13.35-1.72,26.79-2.27,40.19a78.71,78.71,0,0,0,2,21,23.66,23.66,0,0,0,2.07,5.32,7.38,7.38,0,0,0,6.2,3.88,13.83,13.83,0,0,0,9-2.49,35.11,35.11,0,0,0,8.42-7.79c3.92-5,7.75-10.17,11.31-15.47,6.79-10.1,12.19-21,17.49-31.92,3.66-7.58,5.93-15.5,5.72-24,0-1.91.09-3.83.14-5.75.27-10.88,1-21.66,3.44-32.35,2.12-9.33,3.25-18.89,4.9-28.33.43-2.51,1.11-5,1.74-7.46,2.07-8,4-16.12,6.28-24.11,7.12-25.3,15.93-49.91,29.12-72.8a153.62,153.62,0,0,1,16.68-23.38,82.65,82.65,0,0,1,23.85-19.05,47.75,47.75,0,0,1,14.43-5,72.68,72.68,0,0,1,26.71,0c11.4,2.23,20,8.45,24.91,19a73.6,73.6,0,0,1,6.46,43,38.37,38.37,0,0,1-2.88,9.1,12.91,12.91,0,0,1-3.4,4.56c-5.42,4.71-11.54,8-18.88,8.4a4.65,4.65,0,0,1-4.51-5c.18-1.26.32-2.53.5-3.8,1.54-10.8,1.59-21.66,1.42-32.53a46.59,46.59,0,0,0-4.39-18.52c-2-4.52-8.2-7.2-13-5.23a29.41,29.41,0,0,0-6.64,3.71,45.43,45.43,0,0,0-11.21,13,134,134,0,0,0-7.3,13.49c-6,13.4-11.67,27-15.53,41.22-.67,2.46-1,5-1.82,7.45-7.32,22.59-10.88,46-15.09,69.27C1350.05,355.76,1349.29,372.37,1348.72,388.55ZM966.47,273.43c.26-11.62-1-19.73-4.14-27.56-1.69-4.27-7.38-6.27-11.13-3.86a35.55,35.55,0,0,0-10.87,10.59,184.27,184.27,0,0,0-10.25,18.33c-8.14,16.67-13.62,34.3-19.3,51.87a18.89,18.89,0,0,0,.16,13.07c1.67,4.34,1.24,8.75.14,13.16a142.85,142.85,0,0,1-7.62,23.61c-4.7,10.58-7.18,21.74-8.53,33.18A59.29,59.29,0,0,0,898.57,434a17.08,17.08,0,0,0,.89,1.69,10,10,0,0,0,9.56,5,18.09,18.09,0,0,0,8.84-3.26,40.53,40.53,0,0,0,8.3-7.87,115,115,0,0,0,14.19-22.62c4-8.66,8-17.4,11-26.45,4.6-13.88,10-27.56,12.87-42a109,109,0,0,1,3.55-12.9c2.85-8.52,4.07-17.34,5.29-26.17a5.78,5.78,0,0,0-.06-1.9,3.54,3.54,0,0,0-.68-1.76c-1.34-1.32-2.8-2.51-4.22-3.75-2-1.75-3.22-3.81-2.9-6.62C965.8,280.35,966.28,275.28,966.47,273.43Zm165,114.45a31.23,31.23,0,0,0,5.57,18.85,12.65,12.65,0,0,0,13.47,4.88,19.23,19.23,0,0,0,6.7-3.55,47.61,47.61,0,0,0,7.7-8.46c7.66-10.36,13-22,17.4-33.92,5-13.74,10.53-27.36,13.75-41.72.7-3.1,1.54-6.18,2.46-9.23,5.32-17.72,8.87-35.86,12.67-53.93a19.23,19.23,0,0,0-2.07-13c-3.19-6.28-10-8.78-16.09-5.91a34.82,34.82,0,0,0-12.2,9.06c-4,4.89-7.78,10.07-11.47,15.26-6.71,9.41-11.17,20-15.59,30.59a12.43,12.43,0,0,0-.75,7.5c1.1,5.14.25,10-1.1,15.05-4.84,17.87-11.34,35.17-17.73,52.51A44,44,0,0,0,1131.49,387.88Zm342,50.19c0,5-.16,7.54,0,10.08a68.64,68.64,0,0,0,1.24,9.49,17.53,17.53,0,0,0,5.45,9.9,8.12,8.12,0,0,0,7.08,1.94,19.51,19.51,0,0,0,8.48-4.22c7.19-5.63,12.4-13,16.76-20.76A278.2,278.2,0,0,0,1539.12,379c.5-1.9-1.06-5.78-2.73-6.75a34.34,34.34,0,0,0-3.34-1.88c-10.82-4.78-19.16-12.56-26.37-21.71-1.18-1.51-2.2-3.14-3.36-4.65-1.4-1.81-5.59-1.67-6.8.25-1.36,2.15-3,4.24-3.83,6.6-3.17,9-6.14,18.16-9,27.3a101.56,101.56,0,0,0-2.76,11.16c-1.82,9.41-3.46,18.85-5.21,28.28A144.5,144.5,0,0,0,1473.44,438.07Zm93.78-189.53a278.61,278.61,0,0,0-1.76-34.43,46.3,46.3,0,0,0-3.66-12.86,12.06,12.06,0,0,0-5.1-5.53,7.13,7.13,0,0,0-7.26-.07,13.19,13.19,0,0,0-6,7.24,41.43,41.43,0,0,0-1.9,7.4c-1.82,10.7-2.59,21.58-4.45,32.25a231.15,231.15,0,0,0-2.79,30.44,126.25,126.25,0,0,0,.61,21c.8,6.28,3,12.4,4.59,18.56a43,43,0,0,0,2,5.4,12.61,12.61,0,0,0,1.84,3.34,31.59,31.59,0,0,0,4.08,3.93c1.81,1.45,5.54.35,6.56-1.76a114.4,114.4,0,0,0,8.68-27.3C1565.84,280.46,1566.31,264.48,1567.22,248.54Zm-727.3,18.09c-.06-5.14-.93-8.78-3.27-12a7.82,7.82,0,0,0-10.2-2.29,14.52,14.52,0,0,0-4.34,3.61,95.68,95.68,0,0,0-11.65,21.89c-4.51,11.92-9,23.88-12.11,36.26-1.1,4.33-2.23,8.6-3.76,12.82-1.73,4.77-2.64,9.84-3.82,14.79-.7,2.88.35,5.57,2.45,6.51s3.78.17,5.39-.92a49.93,49.93,0,0,0,12.19-12C824.47,316.43,834.2,295.81,839,273,839.55,270.5,839.74,268,839.92,266.63Z"/><path class="cls-1" d="M97.71,1096.84a189.08,189.08,0,0,0,.35,38.28,18.85,18.85,0,0,1,0,3.83,9.28,9.28,0,0,1-3.36,6.63A81.25,81.25,0,0,1,75,1157.23a122.48,122.48,0,0,1-33.12,9.26,45,45,0,0,1-31.07-7.12,21.94,21.94,0,0,1-9.6-13.78,37.09,37.09,0,0,1-1.2-9.47,165.46,165.46,0,0,1,1.31-21c2-13.25,3.47-26.59,6.38-39.72a175.92,175.92,0,0,0,3.4-22.74c1.14-13.39,4.5-26.44,5.61-39.82a443.87,443.87,0,0,0,7.23-51.2,37.24,37.24,0,0,1,.95-5.65,270.89,270.89,0,0,0,6.58-41.59c.57-7,2-13.9,3.06-20.85.94-6.3.94-12.76,3.19-18.84C39.18,863.93,41,853.2,42,842.39c1.19-13.39,4.17-26.51,5.35-39.87,3.44-16.3,4.16-32.95,6.49-49.4.63-4.42.78-8.89,2.15-13.2a24.67,24.67,0,0,0,1.13-5.63c1-14,3.88-27.82,5-41.86,1.06-13.35,2.77-26.68,5.15-39.89.45-2.51,1-5,1.23-7.56,1.24-15.93,4.21-31.68,5-47.66.18-3.82.91-7.61,1.34-11.42q1-8.56,1.89-17.14c.14-1.27.15-2.56.35-3.82,3.2-20.22,3.94-40.7,6.17-61,.07-.63.2-1.26.22-1.9.51-17.9,2.78-35.67,3.93-53.53.49-7.64.41-15.32.51-23,.11-9-.37-17.89-2.56-26.65a25.19,25.19,0,0,1-.66-5.68,6.55,6.55,0,0,1,2.21-5.12,26.79,26.79,0,0,1,6.48-4c5.29-2.24,10.72-4.15,16.08-6.23,8.56-3.32,17.43-3.8,26.41-2.71,8.83,1.07,15.3,6.07,20.31,13.1A43.87,43.87,0,0,1,162.62,402c2.37,8.6,4.71,17.27,4.65,26.34,0,7,.2,14.07-.09,21.09s-1.17,14-1.65,21c-.11,1.64.94,2.39,2.23,2a3.19,3.19,0,0,0,1.55-.93,15.74,15.74,0,0,0,2.16-3.13c3.59-7.49,6.94-15.09,10.68-22.5A265.76,265.76,0,0,1,209.41,402c4.33-5.58,9-10.75,13.86-15.87,8.41-8.95,18.37-15.84,29.2-21.47a85.27,85.27,0,0,1,12.41-5c20.79-6.91,21.92-7.11,47-7.2,14.57-.05,27.62,4.8,40,11.69,11.44,6.36,19.72,16.1,26.62,27,7.58,12,12.34,25.21,15.87,38.87,1.92,7.41,3.73,14.86,4.13,22.59.34,6.37,1.13,12.73,1.73,19.09a218.55,218.55,0,0,1,0,40.2c-.63,7-1.19,14-1.6,21A246.67,246.67,0,0,1,392,576.46c-.75,3.11-1.29,6.26-1.85,9.41-2.1,12-5.32,23.65-8.37,35.39-6.44,24.79-15.19,48.78-24.22,72.68-3.61,9.56-7.62,19-12,28.22-5.48,11.53-10.82,23.14-16.83,34.43a552.09,552.09,0,0,1-38.31,61.89c-17.94,25.08-38.64,47.61-62.87,66.77a162.79,162.79,0,0,1-59.45,30,99.3,99.3,0,0,1-26.56,3.17c-5.11,0-10.22-.37-15.33-.53-1.27,0-2.55.06-3.83.08-3.16,0-6.42,2.55-7,5.49-2.08,10.65-4.05,21.31-5.18,32.15-2.92,28-6.19,55.88-9.26,83.83-1.33,12.07-2.27,24.17-2.55,36.33C98.28,1082.79,98,1089.82,97.71,1096.84Zm239.6-624.75c.39-16.11-2.36-31.83-5.53-47.52a54.51,54.51,0,0,0-9.43-20.8,34.27,34.27,0,0,0-14.62-12,23.26,23.26,0,0,0-5.43-1.81,54.15,54.15,0,0,0-21,.43,56.08,56.08,0,0,0-22.23,10.87c-10,8-19.15,17-26.35,27.7-4.27,6.36-8.67,12.7-12.25,19.45a450.27,450.27,0,0,0-23.59,52.4c-5.2,13.76-9.58,27.78-14.46,41.63-1.28,3.61-2.19,7.34-3.23,11-2.08,7.38-4.19,14.76-6.18,22.16-1.66,6.17-3.28,12.36-4.71,18.59-2.86,12.45-5.67,24.91-8.35,37.4s-4.55,25.12-7.82,37.49c-1.62,6.16-2.36,12.55-3.46,18.84-.77,4.41-1.46,8.83-2.21,13.23-2.66,15.75-6.29,31.33-7.91,47.24-1.36,13.35-4.46,26.48-5.11,39.92a22,22,0,0,1-.54,3.79c-2.4,10.63-3.15,21.5-4.72,32.25-1.66,11.36-2.26,22.89-5.15,34.08a10.66,10.66,0,0,0,1.77,9.13c3,4.13,6,8.31,9.22,12.24a15.72,15.72,0,0,0,8.17,4.76,21.16,21.16,0,0,0,9.51.61c7.52-1.43,15.07-2.87,22.45-4.85,6.2-1.67,11.67-5.24,17.18-8.43a116.34,116.34,0,0,0,21.27-16.27c16.48-15.51,29.19-33.85,40.07-53.52A496.7,496.7,0,0,0,275,755.41a412.25,412.25,0,0,0,17.52-48.64c1-3.68,2.09-7.39,3.46-11,3-7.78,5-15.83,7.21-23.84,4.62-16.63,9-33.3,12-50.32.33-1.87,1.1-3.67,1.52-5.54,1.93-8.73,3.95-17.44,5.67-26.21,2-10,3.64-20.12,5.45-30.18.56-3.15,1.33-6.26,1.71-9.43,2.38-20.31,4.78-40.63,7-61C337.14,483.62,337.07,477.84,337.31,472.09Z"/><path class="cls-1" d="M550.13,557.19a213.79,213.79,0,0,0-.54,34.7c.32,4.25-1.87,7.19-5.08,9.69a52.81,52.81,0,0,1-17,8.58c-6.7,2.08-13.54,3.75-20.4,5.22a17.7,17.7,0,0,1-7.59-.25,71.28,71.28,0,0,1-10.86-3.7,17,17,0,0,1-9.07-9.44,28.07,28.07,0,0,1-2.17-15c1.13-8.24,2.28-16.47,3.5-24.69,2.89-19.6,5.61-39.22,9.14-58.73,1.37-7.54,2-15.21,3.09-22.79,2.6-17.71,5.3-35.4,8-53.09.38-2.53.89-5.05,1.12-7.59,1.6-17.84,4.85-35.42,7.64-53.09,2.2-13.88,3.58-27.89,5.16-41.87.57-5.08,1.33-10.11,2.18-15.15,2.23-13.23,4.17-26.51,5.38-39.89.7-7.63,1.2-15.27,2.77-22.83,1-5,.69-10.23,1.73-15.21,2.75-13.2,3.22-26.64,4.84-40,.93-7.61,1.6-15.26,2.12-22.9a103.46,103.46,0,0,1,2.16-17.1,30.49,30.49,0,0,0,.93-5.67c.86-19.16,4.45-38.08,4.7-57.31.2-16,.82-31.94-.57-47.91a7,7,0,0,1,3.41-6.43,8.58,8.58,0,0,1,1.62-1c6-2.27,11.88-4.74,18-6.67a27.86,27.86,0,0,1,15.18-.29,22.9,22.9,0,0,1,11.35,6.83A29.44,29.44,0,0,1,598,47a100.65,100.65,0,0,1,3,24.68c-.08,5.75-.19,11.5-.16,17.25a3.1,3.1,0,0,0,2.18,2.77,2.78,2.78,0,0,0,3.4-.85,18.17,18.17,0,0,0,2.33-3c1.21-2.25,2.25-4.59,3.34-6.9a199.33,199.33,0,0,1,22.23-35.77,90.55,90.55,0,0,1,35.56-28.44,63.77,63.77,0,0,1,18.32-5.37,129.92,129.92,0,0,1,28.7-.52,48.93,48.93,0,0,1,26.24,10.73,69.6,69.6,0,0,1,18.33,21.88,102.78,102.78,0,0,1,9.21,25.09,176,176,0,0,1,4.42,38c.2,17.26.12,34.52-3.45,51.55-.65,3.12-.84,6.34-1.32,9.5a272.9,272.9,0,0,1-7,33.71c-3.86,13.52-7.63,27-12.24,40.33a481,481,0,0,1-41.78,90.32c-15.55,25.93-34.14,49.37-57,69.31a128.19,128.19,0,0,1-25.32,17.15c-4,2.06-8.11,3.79-12.14,5.73A39,39,0,0,1,604,427.47c-3.16.5-6.3,1.06-9.45,1.65a63.69,63.69,0,0,1-21,.71,25.4,25.4,0,0,0-5.68.34c-1.46.14-3.76,2.2-4.18,3.57a78.78,78.78,0,0,0-3.6,18.76c-.94,16.61-4.27,33-5.15,49.57a11.17,11.17,0,0,1-.21,1.91c-3.09,14.46-3.22,29.19-4,43.87C550.55,551.68,550.24,555.5,550.13,557.19ZM728.6,99.74c.48-13.57-2.08-26.71-5.41-39.74A37.83,37.83,0,0,0,715,45a19.83,19.83,0,0,0-7.63-5.63,28.83,28.83,0,0,0-11.15-2.45,42,42,0,0,0-23.57,6.78,73.09,73.09,0,0,0-18,17,180.22,180.22,0,0,0-15.68,24c-5.46,10.15-9.57,20.86-14,31.45a335.26,335.26,0,0,0-13.86,39.75c-4.61,16.59-9,33.26-12.38,50.18-1.62,8.14-3.52,16.22-5.56,24.26a178.89,178.89,0,0,0-3.75,18.76c-1.27,8.85-2.69,17.68-4.47,26.43-2.8,13.78-4.87,27.66-6.29,41.64-1,9.52-1.85,19-3.89,28.44-1.49,6.84-2.35,13.84-3.28,20.79s-1.71,13.94-2.27,20.94a11.51,11.51,0,0,0,2.15,7.23,39.06,39.06,0,0,0,7.51,8.62,10.4,10.4,0,0,0,5.2,2.22,34.56,34.56,0,0,0,13.33-.38c9.36-2.25,18.32-5.44,26.17-11.3a144,144,0,0,0,11.87-9.64c10.41-9.65,18.69-21,26-33,8-13.1,14.43-27,20.53-41.06,7.63-17.58,12.85-36,19-54.13,4.57-19.89,11.23-39.28,13.74-59.66a131.94,131.94,0,0,1,3.42-16.89c2.74-10.54,4.12-21.31,5.5-32.07,1.3-10.12,2.3-20.28,3.74-30.4C728.2,111.25,728.23,105.47,728.6,99.74Z"/><path class="cls-1" d="M541.74,1026.87c-11.21.5-21.47-2.75-31.47-7.31a43.32,43.32,0,0,1-11.12-7.4,84.18,84.18,0,0,1-12.45-14.53,54.48,54.48,0,0,1-6.13-11.9,125.86,125.86,0,0,1-8.21-41.18c-.19-7.65-.5-15.3-.85-22.95a3.23,3.23,0,0,0-2.26-2.78,4.09,4.09,0,0,0-3.67,0,8.29,8.29,0,0,0-1.61,1c-1.48,1.22-2.89,2.51-4.36,3.75-2.93,2.46-5.83,5-8.83,7.35-9.24,7.3-20,11.32-31.33,13.72a34.5,34.5,0,0,1-17.08-.84,47.3,47.3,0,0,1-12.2-5.47,26.83,26.83,0,0,1-4.57-3.47,59.26,59.26,0,0,1-13.67-20.57,124,124,0,0,1-8.49-41.11c-.82-23.72.25-47.28,5.62-70.52,2.16-9.33,3.62-18.84,6.08-28.08,2.29-8.63,5.3-17.09,8.31-25.52,9.93-27.81,22.35-54.34,40.56-77.87a200,200,0,0,1,16.46-18.69,104.2,104.2,0,0,1,19.6-15.29,63.41,63.41,0,0,1,21.25-8.5c3.76-.73,7.51-1.53,11.27-2.31a28.11,28.11,0,0,1,11.41.09c4.39.89,8.81,1.6,13.17,2.57a61,61,0,0,1,7.32,2.21c7.39,2.62,13.84,6.56,18.3,13.26a11.76,11.76,0,0,0,2.48,2.9,7,7,0,0,0,5.42,1.23,18,18,0,0,0,5.54-1.45c6.55-3.46,13.5-3.57,20.58-2.92a12.34,12.34,0,0,1,3.72.83c4.12,1.74,8.22,3.54,11.55,6.66a14.41,14.41,0,0,1,4.68,8.15,15.5,15.5,0,0,1,0,3.79,4.69,4.69,0,0,1-.7,1.77c-8.09,14.7-12.31,30.81-16.88,46.77-2.47,8.59-4.34,17.35-6.46,26-.76,3.1-1.63,6.18-2.19,9.32C569,756.4,568,765.32,566,774c-1.85,8.1-3.84,16.18-5.24,24.36-1.62,9.44-2.81,19-4.13,28.45-2.29,16.45-4.82,32.88-6.68,49.38-1.29,11.42-1.89,22.93-2.29,34.42s-.22,23-.18,34.52a67.54,67.54,0,0,0,1.91,17.11,51.75,51.75,0,0,0,2.62,7.17,9.57,9.57,0,0,0,9.39,5.31,23.85,23.85,0,0,0,5.56-1.32A36.9,36.9,0,0,0,578,966c9-8.33,16.05-18.23,22.35-28.63a440.9,440.9,0,0,0,31.2-61.49c5.07-12.39,10.61-24.64,14.43-37.53,5.39-11.63,8.8-24,13.29-35.95A124.09,124.09,0,0,0,664,785.85a92.93,92.93,0,0,1,4.76-14.54,6.45,6.45,0,0,1,3.86-4c3-1,6-2.17,9.1-3,5.49-1.43,10,.7,14,4.35a6.48,6.48,0,0,1,1.71,3.36c.48,2.49,1.1,5.09.83,7.55a83.7,83.7,0,0,1-2.62,15.06c-4.41,14.67-7.44,29.77-13.44,44a40.17,40.17,0,0,0-1.72,5.49c-3.73,14.25-9.17,27.92-14.74,41.5-8,19.51-16.62,38.77-27,57.14-8.52,15-17.38,29.83-28.64,43-8.74,10.24-18.09,19.81-29,27.83-7.86,5.8-17,8.78-26,12ZM408.62,856c.12,2.47.38,8.85.8,15.21a30.72,30.72,0,0,0,5,14.33,15.66,15.66,0,0,0,12.63,7.58c5.37.39,10.07-1.48,14.31-4.51a41.71,41.71,0,0,0,9.38-9.51,180.29,180.29,0,0,0,21.16-38.49c2.18-5.32,4.39-10.62,6.3-16,4.45-12.65,9.27-25.19,13-38.06,6.86-23.92,12.82-48.1,18.42-72.35,2-8.69,3.43-17.54,4.73-26.38a25.78,25.78,0,0,0-3.43-16.58A15.16,15.16,0,0,0,494.59,664,36.39,36.39,0,0,0,478,673.17c-10.82,10.22-18.83,22.47-26,35.37-13.93,25.27-23.95,52.13-32.29,79.68a32.1,32.1,0,0,0-1.43,5.55c-.78,7-2.91,13.7-4.88,20.43C409.87,826.57,409,839.3,408.62,856Z"/><path class="cls-1" d="M1696,476.56c0-5.09,0-10.19,0-15.28a3,3,0,0,0-2.11-2.81,3.32,3.32,0,0,0-3.58.35c-2,1.59-3.86,3.32-5.86,4.89a37.89,37.89,0,0,1-4.68,3.29,18.3,18.3,0,0,1-11,2.37,11.19,11.19,0,0,1-6.82-3.13,22,22,0,0,1-6.74-13.39c-1.06-8.93-.48-17.85.46-26.75a31.06,31.06,0,0,1,1.27-5.6c1.85-6.1,3.85-12.16,5.67-18.28,2.76-9.3,7.47-17.58,13.17-25.35a23.87,23.87,0,0,1,2.45-2.94,20.64,20.64,0,0,1,13.52-6.32c6-.36,11.15,2.1,16.47,4.19a4.46,4.46,0,0,0,4.95-1.9c.3-.56.86-1,1-1.6,3.57-14.21,7.88-28.26,9.86-42.84,1-7,1.92-13.91,3.12-20.83a97.61,97.61,0,0,1,2.8-11.11c1.16-3.87,7.18-5.95,11.35-4.28a11.89,11.89,0,0,1,7.48,12.19c-.91,7.6-2.32,15.13-3.57,22.68-1.15,6.92-2.36,13.84-3.58,20.75-1.66,9.42-3.31,18.83-5.56,28.15-2.4,9.91-4.82,19.84-6.27,30a172.17,172.17,0,0,1-4,18.71c-4,15.52-5.94,31.34-6.9,47.29a24.85,24.85,0,0,0,.46,5.7,5.77,5.77,0,0,0,3.23,4.39,6.17,6.17,0,0,0,6.88-1.68,24.17,24.17,0,0,0,2.47-2.92c3.63-6,7.34-12,10.71-18.11a57.33,57.33,0,0,0,5-14.43c2.23-9.31,4.37-18.66,7-27.86,3.18-11.11,7.75-21.63,15.7-30.32a17.08,17.08,0,0,0,4-8.5c.77-3.74,1.74-7.45,2.81-11.12a24.19,24.19,0,0,1,5.94-9.71c6.18-6.58,17.25-7.33,24.47-1.67a16.22,16.22,0,0,1,5.37,7.77c2.41,7.33,3.69,14.9,2.81,22.63s-2.11,15.16-3.14,22.75c-.25,1.88-.3,3.79-.45,5.69a5,5,0,0,0,2.86,4.49,5,5,0,0,0,3.69,0c3.6-1.54,6.25-4.29,9.09-6.87,3.8-3.45,5.44-8.62,9.63-11.69a2.22,2.22,0,0,1,1.85-.2,2.6,2.6,0,0,1,1.2,1.43,7.86,7.86,0,0,1-.24,5.55,50.72,50.72,0,0,1-15.54,21.45c-2.45,2-5.46,3.27-8.27,4.77s-5.83,2.65-8.49,4.37a10.44,10.44,0,0,0-3.7,4.26,73.51,73.51,0,0,0-3.85,10.81,77,77,0,0,1-11.68,24,68.66,68.66,0,0,1-6.23,7.21c-3.64,3.91-8.39,5.79-13.5,6.65-5.93,1-11.44,0-16-4.34-1.38-1.3-2.82-2.55-4.29-3.75-1.25-1-4.19-.55-5.2.78q-6.36,8.36-12.72,16.72a42.49,42.49,0,0,1-8.36,7.82,19.81,19.81,0,0,1-12.54,3.9,13.27,13.27,0,0,1-13.3-11.37c-.4-3.16-.73-6.34-.85-9.52-.15-3.83,0-7.66,0-11.49Zm-27.58-39.05c.1,7.44-.18,11.24,1,15,.69,2.08,3.76,3.7,6.18,3.07a12.41,12.41,0,0,0,7.39-5.64A87.94,87.94,0,0,0,1695.15,422c1-4.34,2.24-8.63,3.53-12.89a45.09,45.09,0,0,0,1-20.81,12.56,12.56,0,0,0-3.51-6.61c-1.65-1.75-5.12-2.23-6.94-.73-1.46,1.21-3.15,2.37-4.08,3.94a123.72,123.72,0,0,0-12.92,31.75C1670.15,424.66,1668.26,432.76,1668.42,437.51ZM1764.29,460c.14,1.4.3,3.31.52,5.2.07.63.32,1.23.45,1.85.61,2.81,5.11,4.51,7.81,3a18.27,18.27,0,0,0,6.73-6.65,92.57,92.57,0,0,0,10.66-24.5c.7-2.56.35-5.22-1.81-7-3.43-2.83-7-5.48-10.69-8a4.63,4.63,0,0,0-3.62-.6,5.72,5.72,0,0,0-2.51,2.74,27.33,27.33,0,0,0-2.11,5.31c-1,3.69-1.66,7.5-2.87,11.12C1765,448,1764.58,453.72,1764.29,460Zm39.41-78c-.21-3.77-.25-7.57-.69-11.31a12.3,12.3,0,0,0-4.09-8.23,2.43,2.43,0,0,0-3.39-.16,7.28,7.28,0,0,0-3.28,4.37c-2.17,9.9-2.42,20-2.7,30.06-.09,3.08,1,6.19,1.64,9.28a13.66,13.66,0,0,0,.76,1.72c.67,1.76,3.12,3.16,4.47,2.4,1-.58,2.46-1.22,2.83-2.18A67.92,67.92,0,0,0,1803.7,382Z"/><path class="cls-1" d="M1273.8,635.16c-8,.44-13.44-3.63-17.09-10.12-1.61-2.87-.93-6.23.91-9a21.86,21.86,0,0,1,3.59-4.41c8-7.21,15.88-14.69,24.33-21.39,11-8.68,22.26-16.92,34-24.54a11.61,11.61,0,0,1,11-.86,40.25,40.25,0,0,1,15.59,10.66,15.63,15.63,0,0,1,2.91,4.85,7.25,7.25,0,0,1-.87,7.22c-5.42,7.18-12.27,12.89-19.48,18.1a304.94,304.94,0,0,1-47.53,28A15.67,15.67,0,0,1,1273.8,635.16Z"/><path class="cls-1" d="M188.3,1129.32c4.61,0,7.55.91,10.06,2.61a9.09,9.09,0,0,1,3.77,7.5v29a9,9,0,0,1-3.77,6.93l-.42.34.42.34a8.75,8.75,0,0,1,3.77,7.39v26.71a8.89,8.89,0,0,1-3.77,7.39c-2.51,1.82-5.45,2.73-10.06,2.73H175.87v-90.93Zm-5.45,44h5.45c2-.11,3.91-.56,5-1.59a4.89,4.89,0,0,0,1.54-3c0-.12.14-.68.14-.8v-28.53a5,5,0,0,0-1.68-3.75,8.51,8.51,0,0,0-5-1.59h-5.45Zm5.45,42.06a7.73,7.73,0,0,0,5-1.48,5.4,5.4,0,0,0,1.68-3.75v-25.91a5,5,0,0,0-1.68-3.64,7.58,7.58,0,0,0-4.75-1.59h-5.73v36.37Z"/><path class="cls-1" d="M188.3,1220.9H175.21v-92.23H188.3c4.49,0,7.61.81,10.43,2.72a9.85,9.85,0,0,1,4.06,8v29a9.59,9.59,0,0,1-3.8,7.27,9.33,9.33,0,0,1,3.8,7.73v26.71a9.6,9.6,0,0,1-4,7.91C196,1220,192.86,1220.9,188.3,1220.9Zm-11.78-1.31H188.3c4.26,0,7.15-.78,9.68-2.6a8.22,8.22,0,0,0,3.5-6.86v-26.71a8.14,8.14,0,0,0-3.5-6.86l-1.07-.87,1-.85a8.32,8.32,0,0,0,3.53-6.45v-29a8.45,8.45,0,0,0-3.51-7c-2.56-1.73-5.46-2.48-9.67-2.48H176.52ZM188.3,1216h-6.1v-37.68h6.38a8.14,8.14,0,0,1,5.19,1.77,5.61,5.61,0,0,1,1.89,4.12v25.91a6,6,0,0,1-1.86,4.2A8.21,8.21,0,0,1,188.3,1216Zm-4.79-1.31h4.79a7.08,7.08,0,0,0,4.59-1.3,4.74,4.74,0,0,0,1.46-3.27v-25.91a4.29,4.29,0,0,0-1.46-3.16,6.9,6.9,0,0,0-4.35-1.42h-5Zm-.66-40.74h-.65v-40.52h6.1c1.75.1,4.08.49,5.47,1.76a5.65,5.65,0,0,1,1.89,4.23V1168a2.76,2.76,0,0,1-.08.53c0,.12-.05.24-.06.31a5.55,5.55,0,0,1-1.74,3.39c-1.4,1.28-3.73,1.67-5.44,1.77Zm.66-1.31h4.79a7.74,7.74,0,0,0,4.59-1.42,4.24,4.24,0,0,0,1.33-2.55,4.16,4.16,0,0,1,.08-.45c0-.12,0-.24.06-.31v-28.49a4.35,4.35,0,0,0-1.46-3.27,7.84,7.84,0,0,0-4.63-1.42h-4.75Z"/><path class="cls-1" d="M261.24,1220.25l-1.68-15.58h-9.22l-1.68,15.58h-7l9.78-91h7l9.78,91ZM251,1199h8L255,1162.05Z"/><path class="cls-1" d="M269,1220.9h-8.3L259,1205.33h-8.05l-1.68,15.57H241l.08-.72,9.84-91.63H259Zm-7.13-1.31h5.68l-9.64-89.73H252l-9.64,89.73h5.68l1.67-15.57h10.4Zm-2.09-19.95h-9.42l4.63-43.68Zm-8-1.3h6.51l-3.31-30.2Z"/><path class="cls-1" d="M334,1168a8.76,8.76,0,0,1-3.77,7.39l-.42.34.42.34a8.77,8.77,0,0,1,3.77,7.39v36.83h-7.12v-36a5,5,0,0,0-1.68-3.64,7.6,7.6,0,0,0-4.75-1.59h-5.73v41.26h-7v-90.93H320.2c4.61,0,7.54.91,10.06,2.73a8.74,8.74,0,0,1,3.77,7.38Zm-19.28-33.87v39.21h5.45c2-.11,3.91-.56,5-1.59a5,5,0,0,0,1.68-3.75v-28.53a5,5,0,0,0-1.68-3.75,8.51,8.51,0,0,0-5-1.59Z"/><path class="cls-1" d="M334.68,1220.9h-8.43v-36.68a4.29,4.29,0,0,0-1.47-3.16,6.85,6.85,0,0,0-4.34-1.42h-5v41.26h-8.29v-92.23H320.2c4.55,0,7.68.85,10.44,2.85a9.36,9.36,0,0,1,4,7.91V1168a9.36,9.36,0,0,1-3.78,7.73,9.34,9.34,0,0,1,3.78,7.73Zm-7.12-1.31h5.82v-36.17a8.14,8.14,0,0,0-3.5-6.86l-1.07-.87,1-.85a8.15,8.15,0,0,0,3.53-6.88v-28.53a8.11,8.11,0,0,0-3.5-6.85c-2.53-1.83-5.42-2.61-9.68-2.61H308.42v89.62h5.68v-41.26h6.38a8.14,8.14,0,0,1,5.19,1.77,5.61,5.61,0,0,1,1.89,4.12ZM314.75,1174h-.65v-40.52h6.1c1.75.1,4.08.49,5.47,1.76a5.65,5.65,0,0,1,1.89,4.23V1168a5.68,5.68,0,0,1-1.88,4.23c-1.41,1.28-3.73,1.67-5.44,1.77Zm.65-1.31h4.8a7.74,7.74,0,0,0,4.59-1.42,4.32,4.32,0,0,0,1.46-3.27v-28.53a4.32,4.32,0,0,0-1.47-3.27,7.78,7.78,0,0,0-4.62-1.42H315.4Z"/><path class="cls-1" d="M399.84,1168a8.74,8.74,0,0,1-3.77,7.39l-.42.34.42.34a8.75,8.75,0,0,1,3.77,7.39v36.83h-7.12v-36a5,5,0,0,0-1.68-3.64,7.58,7.58,0,0,0-4.75-1.59h-5.73v41.26h-7v-90.93H386c4.61,0,7.54.91,10.06,2.73a8.72,8.72,0,0,1,3.77,7.38Zm-19.28-33.87v39.21H386c2-.11,3.91-.56,5-1.59a5,5,0,0,0,1.68-3.75v-28.53a5,5,0,0,0-1.68-3.75,8.51,8.51,0,0,0-5-1.59Z"/><path class="cls-1" d="M400.5,1220.9h-8.44v-36.68a4.29,4.29,0,0,0-1.47-3.16,6.85,6.85,0,0,0-4.34-1.42h-5v41.26h-8.29v-92.23H386c4.55,0,7.68.85,10.44,2.85a9.37,9.37,0,0,1,4.05,7.91V1168a9.36,9.36,0,0,1-3.79,7.73,9.35,9.35,0,0,1,3.79,7.73Zm-7.13-1.31h5.82v-36.17a8.14,8.14,0,0,0-3.5-6.86l-1.07-.87,1-.85a8.15,8.15,0,0,0,3.53-6.88v-28.53a8.11,8.11,0,0,0-3.5-6.85c-2.53-1.83-5.42-2.61-9.68-2.61H374.23v89.62h5.68v-41.26h6.38a8.14,8.14,0,0,1,5.19,1.77,5.61,5.61,0,0,1,1.89,4.12ZM380.56,1174h-.65v-40.52H386c1.75.1,4.08.49,5.47,1.76a5.65,5.65,0,0,1,1.89,4.23V1168a5.68,5.68,0,0,1-1.88,4.23c-1.41,1.28-3.73,1.67-5.44,1.77Zm.65-1.31H386a7.74,7.74,0,0,0,4.59-1.42,4.32,4.32,0,0,0,1.46-3.27v-28.53a4.32,4.32,0,0,0-1.47-3.27,7.78,7.78,0,0,0-4.62-1.42h-4.76Z"/><path class="cls-1" d="M459,1220.25l-1.68-15.58h-9.22l-1.68,15.58h-7l9.79-91h7l9.78,91ZM448.75,1199h8l-4-36.94Z"/><path class="cls-1" d="M466.66,1220.9h-8.3l-1.68-15.57h-8.05L447,1220.9h-8.3l.07-.72,9.85-91.63h8.16Zm-7.13-1.31h5.67l-9.64-89.73h-5.81l-9.64,89.73h5.67l1.68-15.57h10.39Zm-2.09-19.95H448l4.63-43.68Zm-8-1.3H456l-3.31-30.2Z"/><path class="cls-1" d="M564.16,1164.44v-25.8a4.39,4.39,0,0,0-1.54-3.64,6.37,6.37,0,0,0-4.61-1.59,5.45,5.45,0,0,0-4.33,1.59,4.29,4.29,0,0,0-1.4,3.64v71.49a4.64,4.64,0,0,0,1.4,3.75c1,1,2.23,1.48,4.33,1.48a6.33,6.33,0,0,0,4.61-1.48,4.75,4.75,0,0,0,1.54-3.75v-27.39h-4.47v-5.8h11.59v33.3a8.81,8.81,0,0,1-4,7.28c-2.51,1.82-4.61,2.73-9.08,2.73a23.06,23.06,0,0,1-5.87-.69,12.22,12.22,0,0,1-4.19-2,7.76,7.76,0,0,1-2.52-3.07c-.69-1.25-.55-2.62-.55-4.21v-71.6c0-1.59-.14-3.07.55-4.21a7.36,7.36,0,0,1,2.52-3.18,14.44,14.44,0,0,1,4.19-1.93,22.88,22.88,0,0,1,5.87-.8c4.47,0,6.57.91,9.08,2.73s4,4.21,4,7.39v25.8Z"/><path class="cls-1" d="M558.15,1220.9a24.15,24.15,0,0,1-6-.7,13,13,0,0,1-4.41-2.15,8.46,8.46,0,0,1-2.72-3.31,7.2,7.2,0,0,1-.63-3.82v-73a6.92,6.92,0,0,1,.66-3.87,7.8,7.8,0,0,1,2.69-3.37,15.39,15.39,0,0,1,4.4-2,23.5,23.5,0,0,1,6-.82c4.67,0,6.85,1,9.46,2.85,2.87,2.2,4.33,4.86,4.33,7.92v26.45H563.5v-26.45a3.72,3.72,0,0,0-1.29-3.13,5.75,5.75,0,0,0-4.2-1.45,4.87,4.87,0,0,0-3.86,1.39,3.65,3.65,0,0,0-1.22,3.19v71.49a4,4,0,0,0,1.19,3.27c.9.94,2,1.3,3.89,1.3a5.72,5.72,0,0,0,4.17-1.3,4.15,4.15,0,0,0,1.32-3.27v-26.74H559v-7.1h12.91v34a9.46,9.46,0,0,1-4.33,7.81C565,1219.94,562.82,1220.9,558.15,1220.9Zm0-91.72a22.65,22.65,0,0,0-5.71.77,14.31,14.31,0,0,0-4,1.85,6.69,6.69,0,0,0-2.27,2.9,6,6,0,0,0-.51,3.24v73a6.19,6.19,0,0,0,.48,3.19,7.29,7.29,0,0,0,2.33,2.86,11.57,11.57,0,0,0,4,1.94,22.4,22.4,0,0,0,5.7.66c4.31,0,6.31-.87,8.7-2.6a8.09,8.09,0,0,0,3.78-6.75v-32.65H560.34v4.5h4.47v28a5.39,5.39,0,0,1-1.75,4.23,7,7,0,0,1-5,1.65c-2.24,0-3.68-.5-4.81-1.68a5.35,5.35,0,0,1-1.57-4.2v-71.49a5,5,0,0,1,1.64-4.14,6,6,0,0,1,4.74-1.74,7,7,0,0,1,5,1.76,5,5,0,0,1,1.75,4.12v25.15h5.82v-25.15c0-2.67-1.24-4.91-3.8-6.87C564.46,1130.05,562.46,1129.18,558.15,1129.18Z"/><path class="cls-1" d="M637.09,1168a8.74,8.74,0,0,1-3.77,7.39l-.42.34.42.34a8.75,8.75,0,0,1,3.77,7.39v36.83H630v-36a5,5,0,0,0-1.68-3.64,7.58,7.58,0,0,0-4.75-1.59h-5.73v41.26h-7v-90.93h12.43c4.61,0,7.54.91,10.06,2.73a8.72,8.72,0,0,1,3.77,7.38Zm-19.28-33.87v39.21h5.45c2-.11,3.91-.56,5-1.59A5,5,0,0,0,630,1168v-28.53a5,5,0,0,0-1.68-3.75,8.51,8.51,0,0,0-5-1.59Z"/><path class="cls-1" d="M637.75,1220.9h-8.44v-36.68a4.32,4.32,0,0,0-1.46-3.16,6.9,6.9,0,0,0-4.35-1.42h-5v41.26h-8.29v-92.23h13.09c4.55,0,7.68.85,10.44,2.85a9.37,9.37,0,0,1,4,7.91V1168a9.36,9.36,0,0,1-3.79,7.73,9.35,9.35,0,0,1,3.79,7.73Zm-7.13-1.31h5.82v-36.17a8.14,8.14,0,0,0-3.5-6.86l-1.07-.87,1-.85a8.15,8.15,0,0,0,3.53-6.88v-28.53a8.11,8.11,0,0,0-3.5-6.85c-2.53-1.83-5.42-2.61-9.68-2.61H611.48v89.62h5.68v-41.26h6.38a8.14,8.14,0,0,1,5.19,1.77,5.61,5.61,0,0,1,1.89,4.12ZM617.81,1174h-.65v-40.52h6.1c1.75.1,4.08.49,5.47,1.76a5.65,5.65,0,0,1,1.89,4.23V1168a5.68,5.68,0,0,1-1.88,4.23c-1.4,1.28-3.73,1.67-5.44,1.77Zm.65-1.31h4.8a7.74,7.74,0,0,0,4.59-1.42,4.32,4.32,0,0,0,1.46-3.27v-28.53a4.35,4.35,0,0,0-1.46-3.27,7.84,7.84,0,0,0-4.63-1.42h-4.76Z"/><path class="cls-1" d="M696.2,1220.25l-1.68-15.58H685.3l-1.68,15.58h-7l9.79-91h7l9.78,91ZM686,1199h8l-4.05-36.94Z"/><path class="cls-1" d="M703.91,1220.9h-8.3l-1.68-15.57h-8l-1.67,15.57h-8.3l.07-.72,9.85-91.63H694Zm-7.13-1.31h5.67l-9.64-89.73H687l-9.64,89.73H683l1.68-15.57H695.1Zm-2.09-19.95h-9.42L689.9,1156Zm-8-1.3h6.51l-3.31-30.2Z"/><path class="cls-1" d="M762,1129.2h7v91h-7l-12.29-57.63v57.63h-7v-91h7L762,1186.83Z"/><path class="cls-1" d="M769.64,1220.9h-8.16l-11.12-52.09v52.09h-8.29v-92.35h8.17l11.11,52.09v-52.09h8.29Zm-7.11-1.31h5.81v-89.73h-5.68V1193l-13.48-63.16h-5.8v89.73h5.68v-63.16Z"/><path class="cls-1" d="M821,1129.32c4.61,0,7.54.91,10.06,2.73a8.74,8.74,0,0,1,3.77,7.38v70.7a8.92,8.92,0,0,1-3.77,7.39c-2.52,1.82-5.45,2.73-10.06,2.73H808.53v-90.93Zm0,86a7.73,7.73,0,0,0,5-1.48,5.4,5.4,0,0,0,1.68-3.75v-70.7a5,5,0,0,0-1.68-3.75,8.51,8.51,0,0,0-5-1.59h-5.45v81.27Z"/><path class="cls-1" d="M821,1220.9H807.88v-92.23H821c4.55,0,7.68.85,10.44,2.85a9.36,9.36,0,0,1,4,7.91v70.7a9.59,9.59,0,0,1-4,7.91C828.65,1220,825.52,1220.9,821,1220.9Zm-11.78-1.31H821c4.26,0,7.15-.78,9.68-2.6a8.22,8.22,0,0,0,3.5-6.86v-70.7a8.11,8.11,0,0,0-3.5-6.85c-2.53-1.83-5.42-2.61-9.68-2.61H809.19ZM821,1216h-6.1v-82.57H821c1.75.1,4.08.49,5.47,1.76a5.65,5.65,0,0,1,1.89,4.23v70.7a6,6,0,0,1-1.86,4.2A8.23,8.23,0,0,1,821,1216Zm-4.8-1.31H821a7.08,7.08,0,0,0,4.59-1.3,4.74,4.74,0,0,0,1.46-3.27v-70.7a4.32,4.32,0,0,0-1.47-3.27,7.78,7.78,0,0,0-4.62-1.42h-4.76Z"/><path class="cls-1" d="M881.33,1135v38.3h10.06V1179H881.33v35.57H896.7v5.69H874.34v-91H896.7v5.8Z"/><path class="cls-1" d="M897.35,1220.9H873.69v-92.35h23.66v7.1H882v37H892v7H882v34.27h15.37ZM875,1219.59h21v-4.38H880.68v-36.88h10.06V1174H880.68v-39.61H896v-4.49H875Z"/><path class="cls-1" d="M985.84,1181.15c0,2.28-2.23,4.1-5,4.1s-5-1.82-5-4.1,2.24-4.09,5-4.09S985.84,1178.88,985.84,1181.15Z"/><path class="cls-1" d="M980.81,1188.73c-4.77,0-8.51-3.33-8.51-7.58s3.74-7.57,8.51-7.57,8.51,3.33,8.51,7.57S985.59,1188.73,980.81,1188.73Zm0-8.19a1.76,1.76,0,0,0-1.55.63,1.88,1.88,0,0,0,1.55.59.9.9,0,1,0,0-1.22Z"/><path class="cls-1" d="M1077.36,1129.32c4.61,0,7.54.91,10.06,2.73a8.74,8.74,0,0,1,3.77,7.38v29.44a8.92,8.92,0,0,1-3.77,7.39c-2.52,1.82-5.45,2.73-10.06,2.73h-5.45v41.26h-7v-90.93Zm6.71,10.11a5,5,0,0,0-1.68-3.75,8.51,8.51,0,0,0-5-1.59h-5.45v39.21h5.45c2-.11,3.91-.56,5-1.59a5,5,0,0,0,1.68-3.75Z"/><path class="cls-1" d="M1072.56,1220.9h-8.29v-92.23h13.09c4.55,0,7.68.85,10.44,2.85a9.36,9.36,0,0,1,4,7.91v29.44a9.59,9.59,0,0,1-4,7.91c-2.78,2-5.91,2.86-10.46,2.86h-4.8Zm-7-1.31h5.68v-41.26h6.1c4.26,0,7.15-.77,9.68-2.6a8.22,8.22,0,0,0,3.5-6.86v-29.44a8.11,8.11,0,0,0-3.5-6.85c-2.53-1.83-5.42-2.61-9.68-2.61h-11.78Zm6.33-45.63h-.65v-40.52h6.1c1.75.1,4.08.49,5.47,1.76a5.65,5.65,0,0,1,1.89,4.23V1168a5.65,5.65,0,0,1-1.89,4.23c-1.4,1.28-3.72,1.67-5.43,1.77Zm.65-1.31h4.8a7.74,7.74,0,0,0,4.59-1.42,4.32,4.32,0,0,0,1.46-3.27v-28.53a4.32,4.32,0,0,0-1.47-3.27,7.78,7.78,0,0,0-4.62-1.42h-4.76Z"/><path class="cls-1" d="M1130.73,1220.25v-91h7v91Z"/><path class="cls-1" d="M1138.37,1220.9h-8.29v-92.35h8.29Zm-7-1.31h5.68v-89.73h-5.68Z"/><path class="cls-1" d="M1196.82,1220.25l-1.67-15.58h-9.23l-1.67,15.58h-7l9.78-91h7l9.78,91Zm-10.2-21.26h8l-4.06-36.94Z"/><path class="cls-1" d="M1204.53,1220.9h-8.29l-1.68-15.57h-8l-1.68,15.57h-8.29l.07-.72,9.85-91.63h8.15Zm-7.12-1.31h5.67l-9.64-89.73h-5.81l-9.64,89.73h5.67l1.68-15.57h10.39Zm-2.1-19.95h-9.41l4.62-43.68Zm-8-1.3h6.51l-3.31-30.2Z"/><path class="cls-1" d="M1262.49,1129.09h7.13v81.38a8.79,8.79,0,0,1-4,7.27c-2.52,1.82-4.61,2.73-9.09,2.73a23,23,0,0,1-5.86-.68,12.15,12.15,0,0,1-4.19-2,7.74,7.74,0,0,1-2.52-3.06c-.7-1.25-.56-2.62-.56-4.21v-81.38h7.27v81.27a4.69,4.69,0,0,0,1.39,3.75c1,1,2.24,1.48,4.34,1.48a6.35,6.35,0,0,0,4.61-1.48,4.8,4.8,0,0,0,1.53-3.75Z"/><path class="cls-1" d="M1256.48,1221.13a23.66,23.66,0,0,1-6-.71,12.94,12.94,0,0,1-4.42-2.15,8.33,8.33,0,0,1-2.72-3.31,7.28,7.28,0,0,1-.63-3.82v-82.7h8.57v81.92a4,4,0,0,0,1.18,3.27c.9.93,2,1.3,3.9,1.3a5.72,5.72,0,0,0,4.17-1.3,4.15,4.15,0,0,0,1.32-3.27v-81.92h8.43v82a9.42,9.42,0,0,1-4.32,7.8C1263.33,1220.16,1261.15,1221.13,1256.48,1221.13ZM1244,1129.74v81.42a6.14,6.14,0,0,0,.48,3.2,7.27,7.27,0,0,0,2.33,2.86,11.57,11.57,0,0,0,4,1.94,22.38,22.38,0,0,0,5.69.66c4.31,0,6.31-.88,8.7-2.6a8.12,8.12,0,0,0,3.79-6.75v-80.73h-5.83v80.62a5.43,5.43,0,0,1-1.74,4.23,7,7,0,0,1-5.05,1.65c-2.25,0-3.68-.5-4.81-1.68a5.37,5.37,0,0,1-1.58-4.2v-80.62Z"/><path class="cls-1" d="M1309.16,1220.25v-91h7v91Zm15.93-107.87-9.08,10.69h-6.71l8.94-10.69Z"/><path class="cls-1" d="M1316.8,1220.9h-8.29v-92.35h8.29Zm-7-1.31h5.68v-89.73h-5.68Zm6.49-95.87h-8.41l10-12h8.56Zm-5.61-1.31h5l8-9.37h-5.13Z"/><path class="cls-1" d="M1405.29,1181.15c0,2.28-2.24,4.1-5,4.1s-5-1.82-5-4.1,2.24-4.09,5-4.09S1405.29,1178.88,1405.29,1181.15Z"/><path class="cls-1" d="M1400.26,1188.73c-4.77,0-8.51-3.33-8.51-7.58s3.74-7.57,8.51-7.57,8.51,3.33,8.51,7.57S1405,1188.73,1400.26,1188.73Zm0-8.19a1.75,1.75,0,0,0-1.55.63,1.86,1.86,0,0,0,1.55.59.89.89,0,1,0,0-1.22Z"/><path class="cls-1" d="M1496.81,1129.32c4.61,0,7.54.91,10.06,2.61a9.12,9.12,0,0,1,3.77,7.5v29a9,9,0,0,1-3.77,6.93l-.42.34.42.34a8.77,8.77,0,0,1,3.77,7.39v26.71a8.92,8.92,0,0,1-3.77,7.39c-2.52,1.82-5.45,2.73-10.06,2.73h-12.44v-90.93Zm-5.45,44h5.45c2-.11,3.91-.56,5-1.59a4.93,4.93,0,0,0,1.53-3c0-.12.14-.68.14-.8v-28.53a5,5,0,0,0-1.67-3.75c-1.12-1-3.08-1.47-5-1.59h-5.45Zm5.45,42.06a7.75,7.75,0,0,0,5-1.48,5.43,5.43,0,0,0,1.67-3.75v-25.91a5,5,0,0,0-1.67-3.64,7.6,7.6,0,0,0-4.75-1.59h-5.73v36.37Z"/><path class="cls-1" d="M1496.81,1220.9h-13.09v-92.23h13.09c4.48,0,7.6.81,10.42,2.72a9.82,9.82,0,0,1,4.06,8v29a9.58,9.58,0,0,1-3.79,7.27,9.35,9.35,0,0,1,3.79,7.73v26.71a9.57,9.57,0,0,1-4,7.91C1504.49,1220,1501.36,1220.9,1496.81,1220.9Zm-11.79-1.31h11.79c4.25,0,7.15-.78,9.67-2.6a8.21,8.21,0,0,0,3.51-6.86v-26.71a8.14,8.14,0,0,0-3.5-6.86l-1.08-.87,1-.85a8.35,8.35,0,0,0,3.53-6.45v-29a8.46,8.46,0,0,0-3.52-7c-2.56-1.73-5.46-2.48-9.66-2.48H1485Zm11.79-3.58h-6.1v-37.68h6.38a8.16,8.16,0,0,1,5.19,1.77,5.61,5.61,0,0,1,1.89,4.12v25.91a6,6,0,0,1-1.86,4.2A8.23,8.23,0,0,1,1496.81,1216Zm-4.8-1.31h4.8a7.1,7.1,0,0,0,4.59-1.3,4.74,4.74,0,0,0,1.46-3.27v-25.91a4.29,4.29,0,0,0-1.47-3.16,6.85,6.85,0,0,0-4.34-1.42h-5Zm-.65-40.74h-.65v-40.52h6.1c1.74.1,4.07.49,5.47,1.76a5.69,5.69,0,0,1,1.89,4.23V1168a3.1,3.1,0,0,1-.09.53c0,.12,0,.24-.06.31a5.49,5.49,0,0,1-1.73,3.39c-1.41,1.28-3.74,1.67-5.45,1.77Zm.65-1.31h4.8a7.74,7.74,0,0,0,4.59-1.42,4.24,4.24,0,0,0,1.33-2.55,1.92,1.92,0,0,1,.07-.45c0-.12,0-.24.06-.31v-28.49a4.32,4.32,0,0,0-1.47-3.27,7.78,7.78,0,0,0-4.62-1.42H1492Z"/><path class="cls-1" d="M1576.45,1168a8.76,8.76,0,0,1-3.77,7.39c-.15.11-.28.23-.42.34.14.11.27.23.42.34a8.77,8.77,0,0,1,3.77,7.39v36.83h-7.13v-36a5,5,0,0,0-1.67-3.64,7.6,7.6,0,0,0-4.75-1.59h-5.73v41.26h-7v-90.93h12.44c4.61,0,7.54.91,10.06,2.73a8.74,8.74,0,0,1,3.77,7.38Zm-19.28-33.87v39.21h5.45c2-.11,3.91-.56,5-1.59a5,5,0,0,0,1.67-3.75v-28.53a5,5,0,0,0-1.67-3.75c-1.12-1-3.08-1.47-5-1.59Z"/><path class="cls-1" d="M1577.1,1220.9h-8.43v-36.68a4.29,4.29,0,0,0-1.47-3.16,6.87,6.87,0,0,0-4.34-1.42h-5v41.26h-8.29v-92.23h13.09c4.55,0,7.67.85,10.44,2.85a9.39,9.39,0,0,1,4,7.91V1168a9.36,9.36,0,0,1-3.79,7.73,9.35,9.35,0,0,1,3.79,7.73Zm-7.13-1.31h5.83v-36.17a8.15,8.15,0,0,0-3.51-6.86l-1.07-.87,1-.85a8.17,8.17,0,0,0,3.53-6.88v-28.53a8.12,8.12,0,0,0-3.51-6.85c-2.52-1.83-5.42-2.61-9.67-2.61h-11.79v89.62h5.68v-41.26h6.39a8.16,8.16,0,0,1,5.19,1.77,5.63,5.63,0,0,1,1.88,4.12Zm-12.8-45.63h-.66v-40.52h6.11c1.74.1,4.07.49,5.47,1.76a5.68,5.68,0,0,1,1.88,4.23V1168a5.68,5.68,0,0,1-1.88,4.23c-1.4,1.28-3.73,1.67-5.44,1.77Zm.65-1.31h4.8a7.76,7.76,0,0,0,4.59-1.42,4.35,4.35,0,0,0,1.46-3.27v-28.53a4.36,4.36,0,0,0-1.47-3.27,7.81,7.81,0,0,0-4.62-1.42h-4.76Z"/><path class="cls-1" d="M1635.55,1220.25l-1.67-15.58h-9.23l-1.67,15.58h-7l9.78-91h7l9.78,91Zm-10.2-21.26h8l-4.06-36.94Z"/><path class="cls-1" d="M1643.26,1220.9H1635l-1.68-15.57h-8l-1.68,15.57h-8.29l.07-.72,9.85-91.63h8.15Zm-7.12-1.31h5.67l-9.64-89.73h-5.81l-9.64,89.73h5.67l1.68-15.57h10.39Zm-2.1-19.95h-9.41l4.62-43.68Zm-8-1.3h6.51l-3.31-30.2Z"/><path class="cls-1" d="M1712.54,1158h-7.13v-18.07a5,5,0,0,0-1.67-3.75,8.28,8.28,0,0,0-5.31-1.59c-2.1,0-4.2.56-5.17,1.59a4.47,4.47,0,0,0-1.54,3.75,61.5,61.5,0,0,0,1.54,15.12,65.84,65.84,0,0,0,3.77,11.82,92.39,92.39,0,0,0,5,10c.7,1.7,1.4,3.18,2.23,4.77a46.44,46.44,0,0,1,3.22,8.18,60.81,60.81,0,0,1,2.37,9.67c.56,3.41.42,7.38.42,11.82a8.3,8.3,0,0,1-1,4.2,11,11,0,0,1-2.79,3.18,21,21,0,0,1-4.47,2,25.9,25.9,0,0,1-6.15.68c-4.47,0-7.54-.91-10.06-2.73a8.89,8.89,0,0,1-3.77-7.38v-18.19h7.26v18.19a5.3,5.3,0,0,0,1.54,3.75c1.12,1,3.22,1.47,5.31,1.47s4.19-.45,5.17-1.47a4.78,4.78,0,0,0,1.54-3.75,61.74,61.74,0,0,0-1.54-15.23,66.94,66.94,0,0,0-3.77-11.82c-1.26-2.62-2.24-5-3.49-7.39,0,0-2.52-4.89-3.78-7.39a49.71,49.71,0,0,1-3.21-8.07,64.06,64.06,0,0,1-2.38-9.66,79.21,79.21,0,0,1-.42-11.82,8.77,8.77,0,0,1,1-4.32,10.77,10.77,0,0,1,2.8-3.07,13.8,13.8,0,0,1,4.47-2,26.59,26.59,0,0,1,6.15-.79c4.47,0,7.54.91,10,2.73a9.1,9.1,0,0,1,3.78,7.5Z"/><path class="cls-1" d="M1695.91,1222c-4.49,0-7.71-.88-10.44-2.85a9.55,9.55,0,0,1-4-7.91v-18.84H1690v18.84a4.67,4.67,0,0,0,1.35,3.3,7.76,7.76,0,0,0,4.84,1.27c2.15,0,4-.49,4.7-1.27a4.17,4.17,0,0,0,1.35-3.3,61.19,61.19,0,0,0-1.51-15.07,66.74,66.74,0,0,0-3.74-11.72c-.48-1-.92-2-1.36-2.93-.69-1.52-1.35-3-2.11-4.42,0,0-2.52-4.89-3.78-7.4a48.91,48.91,0,0,1-3.26-8.18,64.41,64.41,0,0,1-2.39-9.74,62.22,62.22,0,0,1-.44-9.77v-2.15a9.47,9.47,0,0,1,1.06-4.64,11.45,11.45,0,0,1,3-3.28,14.44,14.44,0,0,1,4.68-2.15,27.25,27.25,0,0,1,6.32-.81c4.49,0,7.71.88,10.44,2.85a9.81,9.81,0,0,1,4,8v18.72h-8.43v-18.72a4.33,4.33,0,0,0-1.47-3.27,7.71,7.71,0,0,0-4.86-1.42c-2,0-3.91.56-4.7,1.39a3.84,3.84,0,0,0-1.36,3.3,60.52,60.52,0,0,0,1.52,14.95,65.39,65.39,0,0,0,3.74,11.72,91.73,91.73,0,0,0,5,9.94c.71,1.71,1.39,3.16,2.25,4.8a47.26,47.26,0,0,1,3.27,8.31,61.87,61.87,0,0,1,2.39,9.73,60.7,60.7,0,0,1,.43,9.7v2.23a8.84,8.84,0,0,1-1.06,4.52,11.56,11.56,0,0,1-3,3.37,21.59,21.59,0,0,1-4.67,2.16A26.12,26.12,0,0,1,1695.91,1222Zm-13.18-28.3v17.54a8.23,8.23,0,0,0,3.52,6.87c2.48,1.79,5.46,2.59,9.66,2.59a24.85,24.85,0,0,0,6-.66,20.38,20.38,0,0,0,4.28-2,10.43,10.43,0,0,0,2.57-2.95,7.65,7.65,0,0,0,.9-3.88V1209a49.21,49.21,0,0,0-2.77-19,46.56,46.56,0,0,0-3.18-8.1c-.87-1.65-1.57-3.14-2.26-4.81a94.4,94.4,0,0,1-5-10,67,67,0,0,1-3.81-11.94,62,62,0,0,1-1.55-15.26,5.15,5.15,0,0,1,1.77-4.26c1.21-1.27,3.69-1.74,5.59-1.74a8.9,8.9,0,0,1,5.75,1.77,5.69,5.69,0,0,1,1.89,4.23v17.42h5.81v-17.42a8.42,8.42,0,0,0-3.51-7c-2.48-1.79-5.46-2.6-9.66-2.6a25.47,25.47,0,0,0-6,.78,13,13,0,0,0-4.25,1.94,10.16,10.16,0,0,0-2.62,2.88,8.17,8.17,0,0,0-.88,4v2.16a60.59,60.59,0,0,0,.42,9.56,62.8,62.8,0,0,0,2.35,9.55,48.34,48.34,0,0,0,3.18,8c1.25,2.5,3.77,7.38,3.77,7.38.77,1.48,1.44,2.94,2.14,4.48.43,1,.87,1.92,1.36,2.92a67.22,67.22,0,0,1,3.82,12,62.54,62.54,0,0,1,1.55,15.38,5.41,5.41,0,0,1-1.75,4.23c-1.42,1.48-4.4,1.65-5.61,1.65-2.51,0-4.6-.6-5.75-1.65a5.94,5.94,0,0,1-1.75-4.23v-17.54Z"/><path class="cls-1" d="M1752.08,1220.25v-91h7v91Z"/><path class="cls-1" d="M1759.72,1220.9h-8.29v-92.35h8.29Zm-7-1.31h5.69v-89.73h-5.69Z"/><path class="cls-1" d="M1805.6,1214.56h15.09v5.69h-22.08v-91h7Z"/><path class="cls-1" d="M1821.34,1220.9H1798v-92.35h8.29v85.36h15.09Zm-22.08-1.31H1820v-4.38h-15.09v-85.35h-5.68Z"/><path class="cls-1" d="M1198.42,10.49c7.42,0,12.14,1.18,16.19,3.55,3.82,2.23,6.07,5.49,6.07,9.64V62.09c0,4.15-2.25,7.26-6.07,9.64-4,2.37-8.77,3.56-16.19,3.56h-8.77v53.82h-11.24V10.49Zm10.79,13.19a6.09,6.09,0,0,0-2.7-4.89c-1.8-1.33-5-1.93-8.09-2.08h-8.77V67.87h8.77c3.14-.15,6.29-.74,8.09-2.07a6.09,6.09,0,0,0,2.7-4.9Z"/><path class="cls-1" d="M1190.33,129.79h-12.61V9.8h20.7c7.22,0,12.16,1.1,16.53,3.66,4.19,2.44,6.41,6,6.41,10.22V62.09c0,4.14-2.15,7.58-6.39,10.22-4.39,2.56-9.33,3.66-16.55,3.66h-8.09Zm-11.24-1.36H1189V74.6h9.45c7,0,11.7-1,15.84-3.46,3.85-2.39,5.73-5.36,5.73-9V23.68c0-3.74-2-6.86-5.73-9-4.14-2.43-8.88-3.46-15.84-3.46h-19.33Zm10.56-59.88H1189V16h9.45c2.7.13,6.34.62,8.5,2.21a6.77,6.77,0,0,1,3,5.44V60.9a6.74,6.74,0,0,1-3,5.44c-2.16,1.6-5.8,2.09-8.47,2.21Zm.68-1.36h8.09c3.48-.16,6.22-.85,7.68-1.94a5.35,5.35,0,0,0,2.43-4.35V23.68a5.38,5.38,0,0,0-2.43-4.35c-1.46-1.08-4.2-1.77-7.72-1.94h-8.05Z"/><path class="cls-1" d="M1284.3,23.09c0-2.08-.22-4,.9-5.49a10.28,10.28,0,0,1,4-4.15,26.36,26.36,0,0,1,6.74-2.52,37.32,37.32,0,0,1,9.45-1c7.19,0,10.56,1.19,14.61,3.56,3.82,2.37,6.52,5.49,6.52,9.64v93.42c0,4.15-2.7,7.27-6.52,9.49-4,2.37-7.42,3.56-14.61,3.56a46.2,46.2,0,0,1-9.45-.89,21.89,21.89,0,0,1-6.74-2.67,11,11,0,0,1-4-4c-1.12-1.64-.9-3.41-.9-5.49Zm30.81,0a5.3,5.3,0,0,0-2.48-4.75,11.8,11.8,0,0,0-7.42-2.07c-3.37,0-5.39.74-7,2.07a5.1,5.1,0,0,0-2.25,4.75v93.27a5.47,5.47,0,0,0,2.25,4.89c1.58,1.34,3.6,1.93,7,1.93s5.62-.59,7.42-1.93a5.68,5.68,0,0,0,2.48-4.89Z"/><path class="cls-1" d="M1305.44,130.24a46.75,46.75,0,0,1-9.58-.9,22.63,22.63,0,0,1-7-2.75,11.6,11.6,0,0,1-4.28-4.24c-1.06-1.54-1-3.21-1-5V22.21c0-1.83,0-3.56,1.05-5a10.76,10.76,0,0,1,4.24-4.33,27.31,27.31,0,0,1,6.95-2.59,37.64,37.64,0,0,1,9.59-1.06c7.38,0,10.82,1.23,15,3.65,4.55,2.83,6.85,6.27,6.85,10.23v93.42c0,4-2.37,7.47-6.86,10.08C1316.26,129,1312.82,130.24,1305.44,130.24Zm0-119.67a36.68,36.68,0,0,0-9.28,1,26,26,0,0,0-6.6,2.47,9.53,9.53,0,0,0-3.76,3.87c-.88,1.17-.85,2.6-.83,4.26V117.4c0,1.67,0,3,.79,4.21a10.36,10.36,0,0,0,3.83,3.8,21.28,21.28,0,0,0,6.55,2.59,44.72,44.72,0,0,0,9.3.88c7.06,0,10.35-1.17,14.27-3.47,4.1-2.39,6.18-5.38,6.18-8.9V23.09c0-3.51-2-6.47-6.2-9.06C1315.79,11.74,1312.5,10.57,1305.44,10.57Zm-.23,113.29c-3.47,0-5.68-.62-7.41-2.09a6.19,6.19,0,0,1-2.49-5.41V23.09a5.78,5.78,0,0,1,2.56-5.31c1.76-1.5,4-2.19,7.34-2.19A12.54,12.54,0,0,1,1313,17.8a5.9,5.9,0,0,1,2.75,5.29v93.27a6.38,6.38,0,0,1-2.75,5.44C1311.11,123.23,1308.7,123.86,1305.21,123.86Zm0-106.91c-3,0-5,.57-6.53,1.91-1.44,1-2,2.17-2,4.23v93.27a4.8,4.8,0,0,0,2,4.35c1.51,1.28,3.4,1.79,6.56,1.79s5.32-.54,7-1.79a5.05,5.05,0,0,0,2.19-4.35V23.09a4.6,4.6,0,0,0-2.16-4.18A11.18,11.18,0,0,0,1305.21,17Z"/><path class="cls-1" d="M1421,10.19h11.47V116.36c0,4.15-2.7,7.27-6.52,9.49-4,2.37-7.42,3.56-14.62,3.56a46.1,46.1,0,0,1-9.44-.89,21.79,21.79,0,0,1-6.74-2.67,10.92,10.92,0,0,1-4.05-4c-1.13-1.63-.9-3.41-.9-5.49V10.19h11.69v106a5.5,5.5,0,0,0,2.25,4.9c1.57,1.33,3.6,1.92,7,1.92s5.62-.59,7.42-1.92a5.7,5.7,0,0,0,2.47-4.9Z"/><path class="cls-1" d="M1411.33,130.09a46.65,46.65,0,0,1-9.57-.9,22.53,22.53,0,0,1-7-2.75,11.53,11.53,0,0,1-4.28-4.24c-1.07-1.54-1-3.2-1-5V9.51h13v106.7a4.8,4.8,0,0,0,2,4.35c1.52,1.28,3.41,1.79,6.57,1.79s5.32-.53,7-1.79a5,5,0,0,0,2.2-4.35V9.51h12.83V116.36c0,4-2.37,7.47-6.86,10.08C1422.16,128.86,1418.71,130.09,1411.33,130.09ZM1390.88,10.87V117.26c0,1.67,0,3,.79,4.2a10.28,10.28,0,0,0,3.83,3.8,21.21,21.21,0,0,0,6.55,2.6,45.26,45.26,0,0,0,9.29.87c7.07,0,10.35-1.17,14.27-3.47,4.11-2.38,6.19-5.38,6.19-8.9V10.87h-10.11V116.21a6.38,6.38,0,0,1-2.75,5.44c-1.92,1.43-4.33,2.06-7.82,2.06s-5.69-.62-7.41-2.08a6.22,6.22,0,0,1-2.49-5.42V10.87Z"/><path class="cls-1" d="M1545.11,47.85h-11.47V24.28a6.09,6.09,0,0,0-2.7-4.9c-1.79-1.33-5.17-2.07-8.54-2.07s-6.74.74-8.32,2.07a5.38,5.38,0,0,0-2.47,4.9c0,7.41.67,14.08,2.47,19.72a76.1,76.1,0,0,0,6.07,15.42,111.3,111.3,0,0,0,8.1,13,64.07,64.07,0,0,0,3.59,6.23A53.51,53.51,0,0,1,1537,89.37a67,67,0,0,1,3.83,12.61c.9,4.45.67,9.64.67,15.42a9.3,9.3,0,0,1-1.57,5.49,16.2,16.2,0,0,1-4.5,4.15,38.11,38.11,0,0,1-7.19,2.67,50.87,50.87,0,0,1-9.9.89c-7.19,0-12.14-1.19-16.18-3.56-3.83-2.38-6.08-5.49-6.08-9.64V93.67h11.7V117.4a6.29,6.29,0,0,0,2.47,4.89c1.8,1.34,5.17,1.93,8.54,1.93s6.75-.59,8.32-1.93a5.68,5.68,0,0,0,2.48-4.89c0-7.56-.68-14.24-2.48-19.87a74.51,74.51,0,0,0-6.07-15.42c-2-3.41-3.6-6.53-5.62-9.64,0,0-4-6.38-6.07-9.64a57.5,57.5,0,0,1-5.17-10.53,70.18,70.18,0,0,1-3.82-12.6c-.9-4.6-.68-9.79-.68-15.42a9.68,9.68,0,0,1,1.58-5.64,15.57,15.57,0,0,1,4.49-4A24.82,24.82,0,0,1,1513,12a52.08,52.08,0,0,1,9.89-1c7.2,0,12.14,1.19,16.19,3.56,3.82,2.37,6.07,5.63,6.07,9.79Z"/><path class="cls-1" d="M1518.35,131.28c-7.12,0-12.22-1.13-16.53-3.66s-6.41-6.07-6.41-10.22V93h13.06V117.4a5.62,5.62,0,0,0,2.23,4.37c1.48,1.1,4.52,1.77,8.1,1.77s6.6-.68,7.88-1.77a5.05,5.05,0,0,0,2.23-4.37c0-8.09-.79-14.52-2.44-19.66a74.36,74.36,0,0,0-6-15.31c-.77-1.3-1.49-2.57-2.19-3.82-1.11-2-2.17-3.88-3.4-5.77,0,0-4-6.39-6.08-9.65a58.33,58.33,0,0,1-5.23-10.66,71.43,71.43,0,0,1-3.85-12.7,65.84,65.84,0,0,1-.7-12.74c0-.92,0-1.86,0-2.81a10.4,10.4,0,0,1,1.7-6,16.17,16.17,0,0,1,4.71-4.2,25.71,25.71,0,0,1,7.39-2.75,52.08,52.08,0,0,1,10-1.05c7.12,0,12.22,1.13,16.53,3.65s6.41,6.19,6.41,10.38V48.53H1533V24.28a5.34,5.34,0,0,0-2.42-4.35c-1.59-1.18-4.79-1.94-8.14-1.94s-6.53.77-7.88,1.91a4.74,4.74,0,0,0-2.23,4.38c0,8,.8,14.36,2.44,19.51a74.93,74.93,0,0,0,6,15.31,113.1,113.1,0,0,0,8,13,66.6,66.6,0,0,0,3.61,6.26,54.56,54.56,0,0,1,5.25,10.82,67.42,67.42,0,0,1,3.85,12.7,64.27,64.27,0,0,1,.69,12.66c0,.94,0,1.91,0,2.89a9.89,9.89,0,0,1-1.69,5.87,16.67,16.67,0,0,1-4.68,4.34,39,39,0,0,1-7.39,2.75A50.9,50.9,0,0,1,1518.35,131.28Zm-21.58-36.93V117.4c0,3.69,1.89,6.66,5.75,9.06,4.08,2.39,9,3.46,15.83,3.46a49.61,49.61,0,0,0,9.76-.88,37.55,37.55,0,0,0,7-2.61,15.26,15.26,0,0,0,4.25-3.93,8.59,8.59,0,0,0,1.45-5.1c0-1,0-2,0-2.9a63.63,63.63,0,0,0-.67-12.39,66,66,0,0,0-3.79-12.48,53.35,53.35,0,0,0-5.11-10.57,65.38,65.38,0,0,1-3.63-6.28,114,114,0,0,1-8.09-13,76.46,76.46,0,0,1-6.12-15.56c-1.68-5.26-2.5-11.78-2.5-19.9a6.08,6.08,0,0,1,2.78-5.47c1.88-1.6,5.73-2.18,8.69-2.18,3.68,0,7.11.84,8.95,2.21a6.71,6.71,0,0,1,3,5.44V47.17h10.11V24.28c0-3.75-1.94-6.84-5.75-9.21-4.07-2.39-9-3.46-15.83-3.46a50.79,50.79,0,0,0-9.76,1,24.08,24.08,0,0,0-7,2.58,14.91,14.91,0,0,0-4.3,3.83,9,9,0,0,0-1.44,5.23c0,.95,0,1.89,0,2.82a64.38,64.38,0,0,0,.68,12.47A70.68,70.68,0,0,0,1504.82,52a55.87,55.87,0,0,0,5.12,10.43c2,3.26,6.07,9.63,6.07,9.63,1.25,1.93,2.31,3.83,3.44,5.84.7,1.24,1.41,2.51,2.19,3.82a76.29,76.29,0,0,1,6.14,15.59c1.68,5.25,2.5,11.82,2.5,20.05a6.38,6.38,0,0,1-2.75,5.44c-2.19,1.86-6.83,2.06-8.73,2.06-3.92,0-7.18-.75-9-2.06a7,7,0,0,1-2.74-5.44V94.35Z"/><path class="cls-1" d="M1640.21,129.11l-2.7-20.31h-14.83l-2.7,20.31h-11.24l15.73-118.77h11.25l15.74,118.77Zm-16.41-27.73h12.82l-6.52-48.19Z"/><path class="cls-1" d="M1652.23,129.79h-12.61l-2.7-20.31h-13.65l-2.7,20.31H1608l.1-.77L1623.88,9.66h12.43l.08.59Zm-11.42-1.36h9.87L1635.12,11h-10l-15.56,117.41h9.87l2.7-20.31h16Zm-3.42-26.37H1623l7-54Zm-12.81-1.36h11.26l-5.73-42.34Z"/><path class="cls-1" d="M1735.09,10.49c7.42,0,12.14,1.18,16.19,3.55,3.82,2.23,6.07,5.49,6.07,9.64v92.24c0,4.15-2.25,7.26-6.07,9.63-4,2.38-8.77,3.56-16.19,3.56h-20V10.49Zm0,112.25c3.15,0,6.3-.6,8.1-1.93a6.57,6.57,0,0,0,2.7-4.89V23.68a6.12,6.12,0,0,0-2.7-4.89c-1.8-1.33-5-1.93-8.1-2.08h-8.77v106Z"/><path class="cls-1" d="M1735.09,129.79H1714.4V9.8h20.69c7.22,0,12.17,1.1,16.54,3.66,4.19,2.44,6.4,6,6.4,10.22v92.24c0,4.14-2.15,7.58-6.39,10.21S1742.31,129.79,1735.09,129.79Zm-19.33-1.36h19.33c7,0,11.7-1,15.85-3.46,3.85-2.4,5.73-5.36,5.73-9V23.68c0-3.74-2-6.86-5.73-9-4.15-2.43-8.89-3.46-15.85-3.46h-19.33Zm19.33-5h-9.45V16h9.45c2.71.13,6.35.62,8.5,2.21a6.75,6.75,0,0,1,3,5.44v92.24a7.15,7.15,0,0,1-2.94,5.41C1741.83,122.67,1738.73,123.42,1735.09,123.42Zm-8.08-1.36h8.08c3.3,0,6.18-.67,7.69-1.8a5.81,5.81,0,0,0,2.43-4.34V23.68a5.38,5.38,0,0,0-2.43-4.35c-1.46-1.08-4.2-1.77-7.72-1.94h-8Z"/><path class="cls-1" d="M1852.46,129.11l-2.7-20.31h-14.84l-2.7,20.31H1821l15.74-118.77H1848l15.74,118.77ZM1836,101.38h12.82l-6.52-48.19Z"/><path class="cls-1" d="M1864.48,129.79h-12.62l-2.7-20.31h-13.64l-2.7,20.31H1820.2l.1-.77L1836.12,9.66h12.44l.08.59Zm-11.43-1.36h9.87L1847.36,11h-10l-15.56,117.41h9.87l2.7-20.31h16Zm-3.41-26.37h-14.37l7.06-54Zm-12.82-1.36h11.26l-5.73-42.34Z"/></g></g></svg>