<svg xmlns="http://www.w3.org/2000/svg" xmlns:xlink="http://www.w3.org/1999/xlink" viewBox="0 0 85.8179 120.3562"><defs><style>.cls-1{isolation:isolate;}.cls-2{fill:#204966;}.cls-3{mix-blend-mode:multiply;fill:url(#Gradiente_sem_nome_13);}.cls-4{fill:#ff9b43;}.cls-5{fill:#ffce29;}.cls-6{fill:#ff750a;}.cls-7{fill:#fff51f;}.cls-8{fill:#fffe85;}.cls-9{fill:#ffe41f;}.cls-10{fill:#ff8629;}.cls-11{fill:#ffa31e;}.cls-12{fill:#ed6902;}.cls-13{fill:#f78851;}.cls-14{fill:#fe6c05;}.cls-15{fill:#e55f06;}</style><radialGradient id="Gradiente_sem_nome_13" cx="42.9138" cy="26025.4739" r="31.1655" gradientTransform="translate(0 -6372.2056) scale(1 0.2479)" gradientUnits="userSpaceOnUse"><stop offset="0" stop-color="#b6b1b3" stop-opacity="0.8695"/><stop offset="0.3977" stop-color="#bfbdbe" stop-opacity="0.4944"/><stop offset="0.8067" stop-color="#c8c8c8" stop-opacity="0.1395"/><stop offset="1" stop-color="#ccc" stop-opacity="0"/></radialGradient></defs><g class="cls-1"><g id="Camada_2" data-name="Camada 2"><g id="Camada_1-2" data-name="Camada 1"><path class="cls-2" d="M4.986,116.2644a3.3412,3.3412,0,0,0,.6372,2.2227,1.5325,1.5325,0,0,0,1.1328.41v1.4589a2.9055,2.9055,0,0,1-2.1665-.85,4.33,4.33,0,0,1-.977-2.6338H3.57l-.0566.0147a1.669,1.669,0,0,1-.6372-.1279,2.0111,2.0111,0,0,1-.7647-.51,8.1709,8.1709,0,0,1-1.6709-4.2627,32.7577,32.7577,0,0,1-.439-5.9473q.099-10.3506,3.54-10.35,1.9827,0,2.832,3.2431a30.7823,30.7823,0,0,1,.6655,6.74,38.18,38.18,0,0,1-.3115,6.0459q-.4672,3.2989-1.6284,4.4747l-.0566.0419ZM1.46,106.0545a29.7265,29.7265,0,0,0,.439,5.834A6.9405,6.9405,0,0,0,3.131,115.23a1.2111,1.2111,0,0,0,.2549.1845.286.286,0,0,0,.085.0137h.0425a.66.66,0,0,0,.2407-.043.8674.8674,0,0,0,.3115-.2119,6.4951,6.4951,0,0,0,1.1753-3.3,36.9182,36.9182,0,0,0,.34-6.1875,23.4989,23.4989,0,0,0-.9062-7.25A2.6984,2.6984,0,0,0,4.0231,97.36a.7971.7971,0,0,0-.269-.1835.5881.5881,0,0,0-.2124-.043q-.8071,0-1.3877,2.166A28.7251,28.7251,0,0,0,1.46,106.0545Z"/><path class="cls-2" d="M16.215,113.22v.1l-.0141.0987q-.0139.4526-.0142.7509-.0139.4527-.0142.835-.0138.9917-.0141,1.7275l-1.4444.0137v-.2832a2.6189,2.6189,0,0,1-.7788.3965,2.3121,2.3121,0,0,1-.68.1,3.1089,3.1089,0,0,1-2.6621-1.7842,8.5067,8.5067,0,0,1-.9345-3.8515,54.3744,54.3744,0,0,1,.3257-7.3067l1.4443.1416q-.7932,8.2691.4106,10.2656.7787,1.3038,1.6993,1.0342a1.4173,1.4173,0,0,0,.8071-.665,2.9361,2.9361,0,0,0,.3965-1.4727q.0138-.6093.0141-.8789v-1.8261q-.014-1.2891-.0141-2.3506,0-2.9883.0283-4.1768l1.4443.042q-.0139,1.1045-.0141,3.9365v2.294q.0138.4819.0141,1.0049V113.22Z"/><path class="cls-2" d="M20.9728,116.7742a2.606,2.606,0,0,1-.7788-.2978,2.9493,2.9493,0,0,1-.85-.7647A7.0743,7.0743,0,0,1,18.155,111.96a5.192,5.192,0,0,1-.0284-.5957v-.6231l.0142-.2969v-.2548q-.0849-3.7662,1.2461-5.4659a2.915,2.915,0,0,1,1.09-.8779,2.1655,2.1655,0,0,1,.4673-.17,3.0027,3.0027,0,0,1,.3682-.0567,2.5059,2.5059,0,0,1,1.9541.708,3.2615,3.2615,0,0,1,1.0337,2.0254,3.6449,3.6449,0,0,1-2.8887,4.545,7.0655,7.0655,0,0,1-1.8267.17v.41c0,.1426.0049.2647.0142.3692a7.1273,7.1273,0,0,0,.5664,2.4355,1.6586,1.6586,0,0,0,1.09,1.0615,1.1214,1.1214,0,0,0,.85-.1982,1.8493,1.8493,0,0,0,.6939-.793l1.3027.6661a3.5561,3.5561,0,0,1-1.1469,1.3164,2.6878,2.6878,0,0,1-1.5152.4814A2.9625,2.9625,0,0,1,20.9728,116.7742Zm.0284-7.2646a2.6522,2.6522,0,0,0,1.3168-.6377,2.5642,2.5642,0,0,0,.5381-2.3223,1.8706,1.8706,0,0,0-.51-1.09,1.1,1.1,0,0,0-.92-.3965q-.7362.0572-1.2461,1.1611a8.6082,8.6082,0,0,0-.5948,3.3838A5.2263,5.2263,0,0,0,21.0012,109.51Z"/><path class="cls-2" d="M36.3224,105.4314a8.4427,8.4427,0,0,1,.9488,3.8516q.156,2.3087,0,7.4482l-1.4585-.0429q.1413-4.7431.0283-6.9375a7.8783,7.8783,0,0,0-.7222-3.5117,1.2892,1.2892,0,0,0-.6089-.5245.9806.9806,0,0,0-.2832-.042,1.2729,1.2729,0,0,0-.2407.0274,2.2413,2.2413,0,0,0-1.1186.751,2.5817,2.5817,0,0,0-.6514,1.2744v1.43q.0139,1.374.0142,2.5781.0138,3.7236-.0142,5.083l-1.4585-.042q.0424-1.4032.0283-5.3535-.0139-1.33-.0141-2.6055-.0139-1.1044-.0142-1.1328a2.462,2.462,0,0,0-.4106-1.3867,1.4937,1.4937,0,0,0-.9771-.7227q-1.2033-.2124-2.124,2.1954-.0139.6078-.0142.665c.0093.1514.0142.2783.0142.3818v1.459q.0139,1.2891.0141,2.3652,0,3.0015-.0283,4.1768l-1.4585-.042q.0287-1.1044.0283-3.9375,0-1.02-.0141-2.2793v-1.8555h-.0142v-1.1464l.0283-.07q.014-.4818.0142-.8076l.0142-.8916q.0138-1.02,0-1.6855l1.4585-.0137v.9629a3.4641,3.4641,0,0,1,1.331-.8223,2.0946,2.0946,0,0,1,1.0054-.0839A2.8894,2.8894,0,0,1,31.6354,105.7a3.6884,3.6884,0,0,1,2.0391-1.416A2.359,2.359,0,0,1,36.3224,105.4314Z"/><path class="cls-2" d="M43.5158,115.5984l1.19-.8359a1.2913,1.2913,0,0,0,1.6425.6377,1.9108,1.9108,0,0,0,.9629-.9629,2.4234,2.4234,0,0,0,.2266-1.6279,3.3718,3.3718,0,0,0-.6514-1.3741q-.34-.4672-1.147-1.374a14.0828,14.0828,0,0,1-1.3027-1.6133,3.1884,3.1884,0,0,1-.5806-1.6992,3.0628,3.0628,0,0,1,.6089-1.8984,2.4472,2.4472,0,0,1,1.26-.8633,2.61,2.61,0,0,1,1.6709.07,2.71,2.71,0,0,1,1.3169,1.0625l-1.2178.793a1.233,1.233,0,0,0-.5947-.4961,1.1813,1.1813,0,0,0-.7647-.0274q-.821.24-.8213,1.3594a2.1154,2.1154,0,0,0,.4815,1.1035,6.5909,6.5909,0,0,0,.4814.6094l.2691.3262.2832.3105.34.3828.34.3965q.3684.4527.6372.836a4.7491,4.7491,0,0,1,.8213,1.8261,3.9157,3.9157,0,0,1-.34,2.5352,3.3133,3.3133,0,0,1-1.7134,1.67,2.6488,2.6488,0,0,1-1.0337.2129A2.8062,2.8062,0,0,1,43.5158,115.5984Z"/><path class="cls-2" d="M52.9748,116.8016a4.2134,4.2134,0,0,1-1.7276-2.4922,14.8241,14.8241,0,0,1-.6088-4.5733,7.8665,7.8665,0,0,1,.9629-4.0635A2.7536,2.7536,0,0,1,53.98,104.03a1.5674,1.5674,0,0,1,.354.042,2.0285,2.0285,0,0,1,.4672.1416,2.6831,2.6831,0,0,1,1.0621.8632q1.3308,1.7139,1.331,5.82a11.1481,11.1481,0,0,1-.5664,3.7666,3.8557,3.8557,0,0,1-1.5718,2.1377,1.9724,1.9724,0,0,1-1.0337.2978A2.0454,2.0454,0,0,1,52.9748,116.8016Zm-.2266-10.2227a6.9506,6.9506,0,0,0-.6655,3.1572,13.1433,13.1433,0,0,0,.5381,4.0928,3.0065,3.0065,0,0,0,1.09,1.7266.6141.6141,0,0,0,.6231,0,2.6031,2.6031,0,0,0,.9629-1.4864,9.4948,9.4948,0,0,0,.4389-3.1718,11.5051,11.5051,0,0,0-.6089-4.1914q-.4958-1.2174-1.1469-1.2178T52.7482,106.5789Z"/><path class="cls-2" d="M69.5847,105.4314a8.4442,8.4442,0,0,1,.9487,3.8516q.156,2.3087,0,7.4482l-1.4585-.0429q.1413-4.7431.0283-6.9375a7.8783,7.8783,0,0,0-.7222-3.5117,1.29,1.29,0,0,0-.6088-.5245.9818.9818,0,0,0-.2833-.042,1.2729,1.2729,0,0,0-.2407.0274,2.2413,2.2413,0,0,0-1.1186.751,2.5817,2.5817,0,0,0-.6514,1.2744v1.43q.0139,1.374.0142,2.5781.0138,3.7236-.0142,5.083l-1.4585-.042q.0425-1.4032.0283-5.3535-.0138-1.33-.0141-2.6055-.0139-1.1044-.0142-1.1328a2.462,2.462,0,0,0-.4106-1.3867,1.4935,1.4935,0,0,0-.9771-.7227q-1.2033-.2124-2.124,2.1954-.014.6078-.0142.665c.0093.1514.0142.2783.0142.3818v1.459q.0139,1.2891.0142,2.3652,0,3.0015-.0284,4.1768l-1.4585-.042q.0287-1.1044.0284-3.9375,0-1.02-.0142-2.2793v-1.8555h-.0142v-1.1464l.0284-.07q.0138-.4818.0141-.8076l.0142-.8916q.014-1.02,0-1.6855l1.4585-.0137v.9629a3.4641,3.4641,0,0,1,1.331-.8223,2.0947,2.0947,0,0,1,1.0054-.0839A2.8894,2.8894,0,0,1,64.8976,105.7a3.6884,3.6884,0,0,1,2.0391-1.416A2.3592,2.3592,0,0,1,69.5847,105.4314Z"/><path class="cls-2" d="M74.8664,116.8016a4.2129,4.2129,0,0,1-1.7275-2.4922,14.8209,14.8209,0,0,1-.6089-4.5733,7.8665,7.8665,0,0,1,.9629-4.0635,2.7536,2.7536,0,0,1,2.3789-1.6425,1.5674,1.5674,0,0,1,.354.042,2.0285,2.0285,0,0,1,.4672.1416,2.6831,2.6831,0,0,1,1.0621.8632q1.3308,1.7139,1.331,5.82a11.1456,11.1456,0,0,1-.5664,3.7666,3.8557,3.8557,0,0,1-1.5718,2.1377,1.9724,1.9724,0,0,1-1.0337.2978A2.0454,2.0454,0,0,1,74.8664,116.8016ZM74.64,106.5789a6.9506,6.9506,0,0,0-.6655,3.1572,13.1433,13.1433,0,0,0,.5381,4.0928,3.0065,3.0065,0,0,0,1.09,1.7266.6141.6141,0,0,0,.6231,0,2.6031,2.6031,0,0,0,.9629-1.4864,9.4948,9.4948,0,0,0,.4389-3.1718,11.5051,11.5051,0,0,0-.6089-4.1914q-.4958-1.2174-1.1469-1.2178T74.64,106.5789Z"/><path class="cls-2" d="M80.29,115.5984l1.19-.8359a1.2914,1.2914,0,0,0,1.6426.6377,1.9115,1.9115,0,0,0,.9629-.9629,2.4239,2.4239,0,0,0,.2265-1.6279,3.3718,3.3718,0,0,0-.6514-1.3741q-.34-.4672-1.1469-1.374A14.0753,14.0753,0,0,1,81.21,108.448a3.1882,3.1882,0,0,1-.5805-1.6992,3.0628,3.0628,0,0,1,.6089-1.8984,2.4466,2.4466,0,0,1,1.26-.8633,2.61,2.61,0,0,1,1.6709.07,2.71,2.71,0,0,1,1.3169,1.0625l-1.2178.793a1.233,1.233,0,0,0-.5947-.4961,1.181,1.181,0,0,0-.7646-.0274q-.8211.24-.8213,1.3594a2.1151,2.1151,0,0,0,.4814,1.1035,6.5938,6.5938,0,0,0,.4815.6094l.269.3262.2832.3105.34.3828.34.3965q.3684.4527.6372.836a4.7491,4.7491,0,0,1,.8213,1.8261,3.9157,3.9157,0,0,1-.34,2.5352,3.3128,3.3128,0,0,1-1.7133,1.67,2.65,2.65,0,0,1-1.0337.2129A2.8063,2.8063,0,0,1,80.29,115.5984Z"/><path class="cls-3" d="M73.9332,79.51c0,4.5481-13.8877,8.2358-31.02,8.2358S11.8945,84.0585,11.8945,79.51c0-4.55,13.8877-8.2378,31.0188-8.2378S73.9332,74.96,73.9332,79.51Z"/><polygon class="cls-4" points="76.387 33.474 76.387 33.474 65.057 33.474 65.057 37.647 76.387 33.474"/><polygon class="cls-5" points="65.057 29.302 65.057 33.474 76.387 33.474 65.057 29.302"/><polygon class="cls-4" points="71.903 16.737 71.903 16.737 62.09 22.402 64.177 26.017 71.903 16.737"/><polygon class="cls-5" points="60.003 18.789 62.09 22.402 71.903 16.737 60.003 18.789"/><polygon class="cls-4" points="59.65 4.486 59.65 4.486 53.985 14.297 57.599 16.385 59.65 4.486"/><polygon class="cls-5" points="50.372 12.211 53.985 14.297 59.65 4.486 50.372 12.211"/><polygon class="cls-4" points="42.914 0 42.914 0 42.914 11.331 47.087 11.331 42.914 0"/><polygon class="cls-5" points="38.741 11.331 42.914 11.331 42.914 0 38.741 11.331"/><polygon class="cls-4" points="26.177 4.486 26.177 4.486 31.843 14.299 35.457 12.211 26.177 4.486"/><polygon class="cls-5" points="28.228 16.385 31.843 14.299 26.177 4.486 28.228 16.385"/><polygon class="cls-4" points="13.925 16.737 13.925 16.737 23.737 22.403 25.825 18.789 13.925 16.737"/><polygon class="cls-5" points="21.65 26.018 23.737 22.403 13.925 16.737 21.65 26.018"/><polygon class="cls-4" points="9.441 33.474 9.441 33.474 20.772 33.475 20.772 29.3 9.441 33.474"/><polygon class="cls-5" points="20.772 37.649 20.772 33.475 9.441 33.474 20.772 37.649"/><polygon class="cls-4" points="13.925 50.211 13.925 50.211 23.737 44.546 21.651 40.931 13.925 50.211"/><polygon class="cls-5" points="25.825 48.161 23.737 44.546 13.925 50.211 25.825 48.161"/><polygon class="cls-4" points="26.177 62.462 26.177 62.462 31.844 52.652 28.229 50.564 26.177 62.462"/><polygon class="cls-5" points="35.458 54.739 31.844 52.652 26.177 62.462 35.458 54.739"/><polygon class="cls-4" points="42.914 66.948 42.914 66.948 42.915 55.616 38.741 55.616 42.914 66.948"/><polygon class="cls-5" points="47.089 55.618 42.915 55.616 42.914 66.948 47.089 55.618"/><polygon class="cls-4" points="59.65 62.462 59.65 62.462 53.986 52.649 50.37 54.737 59.65 62.462"/><polygon class="cls-5" points="57.602 50.564 53.986 52.649 59.65 62.462 57.602 50.564"/><polygon class="cls-4" points="71.903 50.211 71.903 50.211 62.09 44.544 60.001 48.16 71.903 50.211"/><polygon class="cls-5" points="64.179 40.93 62.09 44.544 71.903 50.211 64.179 40.93"/><polygon class="cls-6" points="42.915 36.304 36.554 53.494 42.915 53.494 42.915 36.304"/><polygon class="cls-7" points="42.915 13.452 36.552 13.452 42.915 30.646 42.915 13.452"/><polygon class="cls-8" points="42.915 30.646 36.552 13.452 36.41 13.452 26.011 21.007 42.915 32.747 42.915 30.646"/><polygon class="cls-9" points="42.915 32.747 26.011 21.007 25.883 21.101 21.863 33.474 42.915 33.474 42.915 32.747"/><polygon class="cls-10" points="42.915 34.189 25.873 45.819 25.883 45.848 36.41 53.494 36.554 53.494 42.915 36.304 42.915 34.189"/><polygon class="cls-11" points="42.915 33.474 21.863 33.474 25.873 45.819 42.915 34.189 42.915 33.474"/><polygon class="cls-12" points="42.915 36.304 49.275 53.494 42.915 53.494 42.915 36.304"/><polygon class="cls-5" points="42.915 13.452 49.277 13.452 42.915 30.646 42.915 13.452"/><polygon class="cls-4" points="42.915 30.646 49.277 13.452 49.419 13.452 59.819 21.007 42.915 32.747 42.915 30.646"/><polygon class="cls-13" points="42.915 32.747 59.819 21.007 59.945 21.101 63.966 33.474 42.915 33.474 42.915 32.747"/><polygon class="cls-14" points="42.915 34.189 59.955 45.819 59.945 45.848 49.419 53.494 49.275 53.494 42.915 36.304 42.915 34.189"/><polygon class="cls-15" points="42.915 33.474 63.966 33.474 59.955 45.819 42.915 34.189 42.915 33.474"/></g></g></g></svg>