<svg xmlns="http://www.w3.org/2000/svg" viewBox="0 0 54.21 54.21"><defs><style>.cls-1,.cls-2{fill:#204966;}.cls-2{fill-rule:evenodd;}</style></defs><g id="Camada_2" data-name="Camada 2"><g id="Camada_1-2" data-name="Camada 1"><path class="cls-1" d="M27.11,0A27.11,27.11,0,1,1,7.94,7.94,27,27,0,0,1,27.11,0ZM44.79,9.44A25,25,0,1,0,52.1,27.11,25,25,0,0,0,44.79,9.44Z"/><path class="cls-2" d="M29.18,21.57V19.35A1.16,1.16,0,0,1,30.39,18H33.5V13.28H29.22c-4.76,0-5.82,3.51-5.82,5.8v2.49H20.64v5.54h2.79V40.94H29V27.11h4.09l.18-2.18.33-3.36Z"/></g></g></svg>