<svg xmlns="http://www.w3.org/2000/svg" xmlns:xlink="http://www.w3.org/1999/xlink" viewBox="0 0 482.01 538.23"><defs><style>.cls-1{isolation:isolate;}.cls-2,.cls-3,.cls-9{fill:#565865;}.cls-16,.cls-24,.cls-3,.cls-32,.cls-33,.cls-39,.cls-45,.cls-46,.cls-9{opacity:0.4;}.cls-3,.cls-33,.cls-36,.cls-46{mix-blend-mode:screen;}.cls-4{fill:#52a397;}.cls-5{fill:url(#linear-gradient);}.cls-6{fill:#70c1b8;}.cls-16,.cls-20,.cls-7{fill:#ec7f57;}.cls-7{opacity:0.3;}.cls-15,.cls-16,.cls-20,.cls-24,.cls-28,.cls-31,.cls-32,.cls-39,.cls-45,.cls-7,.cls-9{mix-blend-mode:multiply;}.cls-36,.cls-8{fill:#dd8c3a;}.cls-10,.cls-34{fill:#fff;}.cls-10,.cls-15,.cls-28,.cls-31{opacity:0.5;}.cls-11{fill:#ffa910;}.cls-12{fill:#f49263;}.cls-13{fill:url(#linear-gradient-2);}.cls-14{fill:#ea0001;}.cls-15{fill:#e06944;}.cls-17{fill:url(#linear-gradient-3);}.cls-18,.cls-45{fill:#863601;}.cls-19{fill:#de7a43;opacity:0.7;}.cls-20{opacity:0.2;}.cls-21{fill:url(#linear-gradient-4);}.cls-22{fill:#ea8865;}.cls-23,.cls-24{fill:#3f424c;}.cls-25{fill:#33bacc;}.cls-26{fill:#474a56;}.cls-27,.cls-32,.cls-33{fill:#3e4049;}.cls-28{fill:#d60510;}.cls-29{fill:#fe4b2d;}.cls-30,.cls-31{fill:#cc0912;}.cls-35{fill:#ffc20f;}.cls-37{fill:#4a562e;}.cls-38{fill:#93b2b2;}.cls-39,.cls-40{fill:#72a2a3;}.cls-41{fill:#774e45;}.cls-42{fill:#510302;}.cls-43{fill:#a11403;}.cls-44{fill:#d1664e;}.cls-46{fill:#af4409;}</style><linearGradient id="linear-gradient" x1="250.79" y1="402.76" x2="482.01" y2="402.76" gradientUnits="userSpaceOnUse"><stop offset="0" stop-color="#f7c79b"/><stop offset="1" stop-color="#f7a37b"/></linearGradient><linearGradient id="linear-gradient-2" x1="178.46" y1="501.6" x2="243.97" y2="473.87" xlink:href="#linear-gradient"/><linearGradient id="linear-gradient-3" x1="388.04" y1="294.22" x2="369.35" y2="319.21" xlink:href="#linear-gradient"/><linearGradient id="linear-gradient-4" x1="243.99" y1="345.95" x2="257.74" y2="345.95" xlink:href="#linear-gradient"/></defs><g class="cls-1"><g id="Camada_2" data-name="Camada 2"><g id="Layer_29" data-name="Layer 29"><path class="cls-2" d="M237.39,472a7.23,7.23,0,0,1-.36,1.64,15.33,15.33,0,0,1-3.26,5.14c-7.79,8.78-27.28,19.54-50.68,29.47-33.15,14.08-74.12,26.48-100.6,29.2-31.79,3.26-57.17-3.69-71-10.89C3.69,522.45-.43,518.32,0,515.9a1,1,0,0,1,.06-.25c1.39-4,20.54-5.25,43.63-6.64,22.47-1.35,48.65-2.88,65.79-7.39,5.49-1.44,10.66-2.81,15.55-4.12,43.81-11.67,65.24-18.17,91.75-28.76,15.94-6.37,20-3.43,20.75-.39A7,7,0,0,1,237.39,472Z"/><path class="cls-2" d="M244.86,388.69a1.4,1.4,0,0,1-.78-.24,219,219,0,0,1-71-74.95c-12.48-21.69-17.56-39.2-18.82-44.05l-.06-.21a1.44,1.44,0,0,1,2.74-.91s.05.16.11.39c1.24,4.77,6.24,22,18.53,43.33a216.23,216.23,0,0,0,70.09,74,1.45,1.45,0,0,1-.79,2.66Z"/><path class="cls-3" d="M146.88,434.62c-13.76,3.06-27.07,8.13-29.11,15.8-7-3.66-10.76-7.39-10.35-9.58a1,1,0,0,1,.06-.23C108.73,437,126,435.88,146.88,434.62Z"/><path class="cls-4" d="M237.39,472a7.23,7.23,0,0,1-.36,1.64C133.52,543,39.6,519.09,39.6,519.09a861.15,861.15,0,0,0,91-14.12c37.91-8,85.51-28.79,106.94-36.62A7,7,0,0,1,237.39,472Z"/><path class="cls-5" d="M481.91,473.75c-1.06,1.4-6.33-4.71-6.64-5,.31.54,5.75,10.13,4.42,11.5s-7.48-10-7.48-10,2.88,11.36.94,11.67-3.93-11.24-3.93-11.24-.35,9.61-1.35,9.37h0c-1.69-.42-.86-12.17-.86-12.17s-6.29-4.92-12.45-9.76-21.36-16.84-24.5-20.34c-4.65-5.2-8.78-16-12.28-22.08-2.36-4.09-7.63-11.59-10.81-16-1.52-2.13-2.56-3.56-2.56-3.56-.6,5.17-8,16.8-17.61,28.84-1.16,1.45-2.35,2.78-3.54,4a53.42,53.42,0,0,1-17.66,12.33s-1.92-1.48-5.8-4.68q-1.49-1.22-3.34-2.77c-3.83-3.2-14.11-8.19-21.28-11.59-4.28-2-7.46-3.5-7.46-3.67s.56-11.34,1.08-22.49c.38-7.95.76-15.91.95-19.93.08-1.69.12-2.68.12-2.68l-.06.05a18.29,18.29,0,0,1-2.71,2.25c-9.57,6.66-24.95,6.35-26.4,6.31h-.11s-.88,2.07-2.76,1.94-1.55-2.42-1.55-2.42c-7.78-.68-27.2-10.8-36.87-19.64a28.12,28.12,0,0,1-6.57-8.69c-2.58-5.52-2.1-10.05-1.79-11.22.26-.92,3.86.56,3.86.56l1.85.48c6.71,1.74,29.78,7.85,35.92,11a25.67,25.67,0,0,1,9.39,8,11.2,11.2,0,0,1,.69,1.07c3.81-6.16,19.57-20.22,19.57-20.22,1.72-5,6.45-13.6,12.06-16.64h0l.46-.23c4.35-2.11,15.53-2.27,20.89-2.22l1.54,0,1.4,0s2.31.37,2.66.38c12.36.27,25.2,5.23,35.55,11.28A88.34,88.34,0,0,1,409,343.9a48.65,48.65,0,0,1,6,5.91,47.35,47.35,0,0,1,10.69,22.28l.4,2a49.56,49.56,0,0,0,1.47,5h0c3,8.89,9.08,23.94,9.08,23.94s11.6,10.59,17.11,19,19.32,40,19.32,40,7.45-.43,7.38,1.43c-.08,2-5.19,1.59-5.19,1.59S483,472.3,481.91,473.75Z"/><path class="cls-6" d="M319.32,21.31c-.77,2.7-1.55,5.49-2.35,8.35-13.09,47.13-29.54,114.52-38.25,165.27-1.52,8.87-3,18-4.39,27.23-5,32.67-9.21,66.59-12.59,94.68-4.14,34.24-7,59.82-8.48,63.9-3,8.37-114.76,94.2-133.52,115.67-8.06,9.22-9,2.36-9,2.36-3.31-9.41-3.86-26.51-2.09-48.44C110.33,429,114.25,403,120,375c1,6.38,1.7,9.93,1.7,9.93s99.56-5.69,122.32-83.77c17.65-60.54,8.41-173.41,16-244.83C285,21,304.61-2.15,305.91.16,308,3.84,319.32,21.31,319.32,21.31Z"/><path class="cls-7" d="M409,343.9c-31.38,5.86-45.68-9-51.74-20.18l1.4,0s2.31.37,2.66.38c12.36.27,25.2,5.23,35.55,11.28A88.34,88.34,0,0,1,409,343.9Z"/><path class="cls-8" d="M233.77,478.73C215,500,127.66,532.76,82.49,537.4c-48.56,5-82.15-13.87-82.48-21a1.56,1.56,0,0,1,0-.49c8,5.7,19.27,11.52,39.17,14.76,21.26,3.47,54.32.35,88.28-7.46C167.69,513.94,209.16,498.08,233.77,478.73Z"/><path class="cls-9" d="M237.39,472a7.23,7.23,0,0,1-.36,1.64,15.33,15.33,0,0,1-3.26,5.14c-7.79,8.78-27.28,19.54-50.68,29.47-15.36-7.85-41.09-10.24-58-10.7,43.81-11.67,65.24-18.17,91.75-28.76,15.94-6.37,20-3.43,20.75-.39A7,7,0,0,1,237.39,472Z"/><path class="cls-10" d="M244,301.17c17.65-60.54,8.41-173.41,16-244.83-31.75,44.8-72.21,109.19-95.07,166C145.83,269.74,130.09,325.49,120,375c1,6.38,1.7,9.93,1.7,9.93S221.23,379.25,244,301.17Z"/><path class="cls-11" d="M261.74,316.84c-4.14,34.24-7,59.82-8.48,63.9-3,8.37-114.76,94.2-133.52,115.67-8.06,9.22-9,2.36-9,2.36-3.31-9.41-3.86-26.51-2.09-48.44C199.82,416,243.64,352.11,261.74,316.84Z"/><path class="cls-12" d="M258,448a34,34,0,0,1-1.45-5.27c-3.34,3.22-15.07,14.38-23.77,20.93-3.07,2.32-9.06,6.11-15.92,10.28,4.4-2,8-3.57,10.06-4.56C236.18,465,255,450.85,258,448Z"/><path class="cls-12" d="M205.09,503.3s6-2.3,12.12-5.47h0c-10.09,1.47-24,3.45-32.75,4.69A118,118,0,0,0,205.09,503.3Z"/><path class="cls-13" d="M275.21,472l-1.58.3s-4.13,6.05-7.76,10.85a53.8,53.8,0,0,1-4.19,5.09c-3.23,3.18-23.57,6.51-36.41,8.45l-8.06,1.19c-10.09,1.47-24,3.45-32.74,4.69l-8.26,1.17-.82,1.63c-.82,1.64-4.29,1.42-5.91.46s-7.8-.55-16.16-1.32-11.47-7.79-11.07-9.29c0,0,0,0,0-.05.49-1.39,3.19-.85,8.4-.53s16.33-.85,20.23-1.6c2.4-.46,19.42-7.53,34.38-14,4.12-1.77,8.08-3.5,11.54-5,4.41-2,8-3.57,10.06-4.56,8.55-4.11,25.16-16.37,30.08-20.49.42-.36.76-.66,1-.89a43,43,0,0,0,2,4.69C262.67,458.14,267.3,464.84,275.21,472Z"/><path class="cls-14" d="M367,440.58c0,.88-.11,2-.21,3.23-.35,4.32-1.13,10.39-2.91,14.86a13.32,13.32,0,0,1-2.54,4.29c-3.21,3.35-10.51,7.51-31.67,7.39-9.82-.06-49.93,5.43-49.93,5.43a5.6,5.6,0,0,1-1-.83,82.79,82.79,0,0,1-10.91-10.55,62.39,62.39,0,0,1-4.05-5.28,53.08,53.08,0,0,1-3.64-6.11,37.8,37.8,0,0,1-3.6-10.24,15.57,15.57,0,0,1-.32-2.73s24.6-9.87,37.74-14.58c10.5-3.77,25-6.3,31-6.91a9.88,9.88,0,0,1,2.76-.07,196.16,196.16,0,0,1,29.22,15.31h0l.69.44h0C363.45,437.94,367,440.58,367,440.58Z"/><path class="cls-2" d="M305.91.16C304.72,1.63,276,39.8,245.67,86.27h0c-25.74,39.46-52.59,84.9-64.66,119-26.26,74.14-47.39,134.5-55.52,212.4-3.34,32-1.25,53.2-2.62,67.17C120,504,113.15,502.38,110.56,501a5.74,5.74,0,0,1-1-.66C97.31,465.46,124,324,164.89,222.35S303-5.08,305.91.16Z"/><path class="cls-2" d="M254.63,354.53c-.06,2.79-.15,5.4-.24,7.81s-.19,4.63-.3,6.63c-.21,4-.44,7.13-.61,9.28-.1,1.09-.16,1.94-.22,2.49s-.1.83-.1.83a.87.87,0,0,1-1.73-.16v-.06l.06-.84c0-.54.06-1.34.1-2.38.08-2.12.17-5.26.21-9.24s.12-8.82.05-14.38-.22-11.81-.5-18.62c-.2-3.41-.34-7-.62-10.62-.14-1.83-.27-3.7-.41-5.59s-.36-3.8-.53-5.74-.44-3.89-.68-5.88-.45-4-.8-6-.63-4.06-1-6.1-.82-4.08-1.24-6.15c-.12-.52-.24-1-.38-1.55-.22-.87-.44-1.74-.67-2.61-.18-.66-.35-1.32-.52-2l-.19-.77c-.06-.22-.16-.51-.23-.76l-.48-1.57c-.32-1.06-.66-2.07-1-3.1-1.35-4.12-2.85-8.27-4.52-12.37A140.73,140.73,0,0,0,226,241.32a82,82,0,0,0-17.37-19.69,53.35,53.35,0,0,0-10.76-6.71,46.67,46.67,0,0,0-11.71-3.68c-1-.23-2-.29-3-.42-.5,0-1-.15-1.49-.16l-1.49-.08-1.49-.07c-.5,0-1,0-1.49,0l-1.47,0H175l-.77.06A22.62,22.62,0,0,0,164,213.55a17.3,17.3,0,0,0-3.88,3.17,20,20,0,0,0-2.9,4A31.19,31.19,0,0,0,154,230a70.36,70.36,0,0,0-.71,18c.19,2.72.5,5.27.81,7.62s.67,4.52,1,6.46c.5,2.8,1,5.15,1.42,7-.48,1.05-.94,2.13-1.34,3.23-.08-.21-.15-.43-.24-.66-.73-2-1.72-5-2.78-8.94a112.73,112.73,0,0,1-2.92-14.32,80.63,80.63,0,0,1-.74-9.06,60.41,60.41,0,0,1,.59-10.21,35.41,35.41,0,0,1,3.44-10.92,25,25,0,0,1,3.53-5.18,22.81,22.81,0,0,1,5.05-4.19,25.41,25.41,0,0,1,6.11-2.67l1.62-.42c.54-.12,1.09-.21,1.64-.32,1.1-.18,2.34-.35,3.3-.41l.77-.06h.89l1.64,0c.54,0,1.09,0,1.64,0l1.65.09c.56,0,1.11.06,1.67.09s1.11.12,1.66.18c1.11.15,2.23.24,3.34.48a52.47,52.47,0,0,1,13.07,4.16A59,59,0,0,1,212,217.36a85.28,85.28,0,0,1,18.38,21.12,145.13,145.13,0,0,1,12.35,24.8q2.46,6.38,4.43,12.78c.31,1,.64,2.07.92,3.08l0,.12.46,1.57.12.43c0,.11.07.24.1.38l.2.81c.51,2.15,1.07,4.29,1.53,6.42.25,1.39.5,2.76.75,4.13.14.74.27,1.49.41,2.23a.13.13,0,0,1,0,.06c.34,2.08.58,4.15.86,6.19s.48,4.1.69,6.12.42,4,.53,6,.28,3.91.41,5.82.19,3.8.28,5.65q.06,1.4.12,2.76c0,.91,0,1.81.07,2.71,0,1.78.07,3.54.11,5.25C254.8,342.66,254.78,349,254.63,354.53Z"/><path class="cls-15" d="M336.57,369.39c1.81.13,1.2-5.23-.74-4.93S334.55,369.24,336.57,369.39Z"/><path class="cls-15" d="M372.9,384.73c.32,1.52,6.49,2.54,6-.3S372.29,381.86,372.9,384.73Z"/><path class="cls-16" d="M377,344.72c-.37-1.3,13.48-4.76,12.33-5.51C387.77,338.18,376.33,342.18,377,344.72Z"/><path class="cls-16" d="M365.75,341.35c-.47.39-6.1-9.9-7.13-9.21C357,333.22,364.25,342.59,365.75,341.35Z"/><path class="cls-17" d="M404.84,309.05c-.18,5.23-6.82,8.75-6.82,8.75s-6.59,20.65-22.87,18.78-17.25-23.33-17.25-23.33c-3.25-2.42-7.95-9-4.64-12.35,1.42-1.44,3.58-.38,4.63,1.41.36,5,1.3,8.18,1.77,8.18,0,0,1.4-11.67,3.07-15.81s2.95-7.56,5.45-10.12,12.15,3.52,15.25,4.33,6.21-2.58,9.89-1.07c2.85,1.17,4.34,6.07,4.86,11.08a38.8,38.8,0,0,1,.21,4.26c0,6.12-3.61,12.8-1.87,12.28a1,1,0,0,0,.4-.28c1.09-1.12,2.54-5.23,3.62-9.36C402.34,304.8,405,305.09,404.84,309.05Z"/><path class="cls-18" d="M393.83,268.57l-.52.46A1.35,1.35,0,0,0,393.83,268.57Z"/><path class="cls-18" d="M402,295.9a21,21,0,0,1-.08,2.81,54.24,54.24,0,0,1-1.42,7.09c-1.22,4.66-2.91,9.3-4,9.64-1.74.52,1.86-6.16,1.87-12.28s-1.4-13.83-5.07-15.34-6.8,1.87-9.89,1.07-12.73-6.88-15.25-4.33a20.69,20.69,0,0,0-4,6.52c-.21.49-.42,1-.63,1.52h0q-.42,1-.84,2.07a57.38,57.38,0,0,0-2.28,10.2c-.07.43-.13.84-.19,1.24-.37,2.5-.6,4.37-.6,4.37-.47,0-1.41-3.2-1.77-8.18a58.84,58.84,0,0,1,0-7.56,38.35,38.35,0,0,1,3.34-13.85c.14-.3.29-.6.44-.89.29-.56.6-1.09.93-1.61h0a13.91,13.91,0,0,1,5-5A24.25,24.25,0,0,1,377.69,271l.86,0c2.83-.1,5.46,0,7.36,0a49.53,49.53,0,0,1,4.67-2.83l.57-.28c1.11-.52,2.06-.79,2.4-.45s.45.88.28,1.16-.47.42-.51.46a1.36,1.36,0,0,0,.51-.46c1.2-1,4.16-3.31,5.62-2.25a3.9,3.9,0,0,1,1,1.24,6.54,6.54,0,0,1,.34.65,11.74,11.74,0,0,1,.59,1.41c1.26,3.42,2,8.71-.14,12.51a9.3,9.3,0,0,1-.8,1.17l.06.31c.11.55.35,1.79.61,3.36.05.32.11.64.16,1A66.94,66.94,0,0,1,402,295C402,295.33,402,295.61,402,295.9Z"/><path class="cls-18" d="M364.33,297.78c-.22-.07,1.12-3.71,3.89-4.69s7.2-.35,7.88-1,1.19-.19,1.18.9-.9,4.18-2.79,4.12-6-.65-7.35-.11A6.11,6.11,0,0,1,364.33,297.78Z"/><path class="cls-18" d="M386.61,293.8c-.31.81-.77,4.14.65,4.42s5.24,1,7.18,2.25c1.5,1,1.78,1.06,1.78.11s-1.16-3-3.33-4.66C390.91,294.44,387.1,292.47,386.61,293.8Z"/><path class="cls-19" d="M354.65,302.07c1.13,1.26,2.92,4.53,2.2,6.46,0,0-.48.72-1.38-1.08s.36-2.51.36-2.51Z"/><path class="cls-19" d="M402.84,307.59a10.45,10.45,0,0,0-3.49,5.9,1.64,1.64,0,0,0,2.28-.58,2.56,2.56,0,0,0,.22-2.53Z"/><path class="cls-20" d="M400.54,305.8c-1.08,4.13-2.53,8.24-3.62,9.36-1.15,3.14-2.7,6.63-4.53,10.61-3.25,7.1-15.51,9.77-20.84,7.94s-11.86-14.25-11.1-24.46,6.72-21.85,9-23.09,11.34,3.32,13.17,4.2c.3.14.44.19.58.14,2.38,1.48,9.31.42,11.39,1.32,1.52.67,2.78,3.66,3.55,7.08-.52-5-2-9.91-4.86-11.08-3.68-1.51-6.8,1.87-9.89,1.07s-12.73-6.88-15.25-4.33-3.78,6-5.45,10.12-3.07,15.81-3.07,15.81c-.47,0-1.41-3.2-1.77-8.18-1.05-1.79-3.21-2.85-4.63-1.41-3.31,3.33,1.39,9.93,4.64,12.35,0,0,1,21.46,17.25,23.33S398,317.8,398,317.8s6.64-3.52,6.82-8.75C405,305.09,402.34,304.8,400.54,305.8Z"/><path class="cls-7" d="M427.72,410.36s1.88-5.63,2.89-5.63-.19,8.26-.91,9.13S427.72,410.36,427.72,410.36Z"/><path class="cls-20" d="M427.6,379.07a66,66,0,0,0-8.69-8.18s1.58-2.58,6.82,1.2l.4,2A49.56,49.56,0,0,0,427.6,379.07Z"/><path class="cls-20" d="M331.18,356.26a50,50,0,0,1-1.38,17.17,18.29,18.29,0,0,1-2.71,2.25c-9.57,6.66-24.95,6.35-26.4,6.31h-.11s-.88,2.07-2.76,1.94-1.55-2.42-1.55-2.42c-7.78-.68-27.2-10.8-36.87-19.64a28.12,28.12,0,0,1-6.57-8.69c-2.58-5.52-2.1-10.05-1.79-11.22.26-.92,3.86.56,3.86.56l1.85.48c6.82,8.27,15.05,22.49,40.92,27.83,0,0,.82-3.61,5.08-7.8h0c3.81-6.16,19.57-20.22,19.57-20.22,1.72-5,6.45-13.6,12.06-16.64C332.35,332.6,330.61,343.21,331.18,356.26Z"/><path class="cls-20" d="M329.86,373.38h0c-9.4,9.44-29.28,8.6-29.28,8.6s-.88,2.07-2.76,1.94-1.55-2.42-1.55-2.42c-7.78-.68-27.2-10.8-36.87-19.64a28.12,28.12,0,0,1-6.57-8.69c15.95,17.19,52.66,23.14,63.34,19.62,11.84-3.9,14-22.53,14.08-23.3a64.46,64.46,0,0,1,.36,8.13C330.67,364.1,331,368.41,329.86,373.38Z"/><path class="cls-21" d="M257.53,348.54a.54.54,0,0,1-.25.19c-.94.38-2.81-2.41-3.92-4.23l-.28-.46,0,0h0v0c1.13,2.09,3.55,6.79,2.91,7.59a.24.24,0,0,1-.09.08c-1,.58-5.38-4-5.85-4.45.17.21.38.44.6.69,1.24,1.44,3.79,4.57,3.45,5.55a.32.32,0,0,1-.12.18c-.55.47-2-.3-3.35-1.17l-.08-.05h0c-.73-.49-1.4-1-1.81-1.31,1.06.91,3.7,3.32,3.33,4.29a.21.21,0,0,1,0,.1c-.51.78-2.12.58-6.09-3.27A6.62,6.62,0,0,1,244,347a18.79,18.79,0,0,1,2.64-7.82c4.2-7.46,8,.82,8,.82S258.71,346.94,257.53,348.54Z"/><path class="cls-20" d="M252.05,355.41a.21.21,0,0,1,0,.1c-.51.78-2.12.58-6.09-3.27A6.62,6.62,0,0,1,244,347c.89,2,2.58,5,4.92,6.37A23.13,23.13,0,0,1,252.05,355.41Z"/><path class="cls-20" d="M254.08,353.47a.32.32,0,0,1-.12.18c-.55.47-2-.3-3.35-1.17l-.08-.05h0c-3.24-2.46-3.29-4.63-3.29-4.63C248.79,350.43,252.59,352.76,254.08,353.47Z"/><path class="cls-20" d="M255.88,351.68c-1,.58-5.38-4-5.85-4.45a.07.07,0,0,1,0-.05c-1.46-1.7-2.56-4.82-1.18-3.61S254.58,350.14,255.88,351.68Z"/><path class="cls-20" d="M257.28,348.73c-.94.38-2.81-2.41-3.92-4.23l-.28-.46s0,0,0,0h0c-.12-.19-.21-.36-.29-.51-.93-1.73-2.64-5.42-.62-2.88A77.73,77.73,0,0,1,257.28,348.73Z"/><path class="cls-22" d="M407.58,384.2s-1.54-5.13-5.76-3.6c-6.32,2.28-23,9.07-27.24,8.75s-17-5.89-26.36-10.64-14.75-6.87-15.94-9.67c-1.95-4.59.22-15.86-2-19.55,0,0-1.23,17.05,0,21.32s11.06,6.45,22.38,12.31c7.81,4.05,16.59,11.73,28.36,8s19.33-8.44,21.87-8.8S407.58,384.2,407.58,384.2Z"/><path class="cls-16" d="M253.89,454.43s-.15,3.9,1.44,5.06c0,0-2.23,1.3-3.47-.43S253.89,454.43,253.89,454.43Z"/><path class="cls-7" d="M444.05,443.6c-14.16-13.44-20.81-24.28-20.81-24.28s-3-3.18-7.51-13.58c-2.72-6.31-4.49-11.56-6.2-15.91,0-.06-3.39-17.24-6-19s-15.86,16.82-23.34,19c-7.3,2.15-8.09,12.25-7.36,23.6-6.58-2.12-13.72-5.38-13.72-5.38L328.79,396c-.52,11.15-1.05,22.27-1.08,22.49s3.18,1.63,7.46,3.67c5-1.77,11.79-3.47,16.25-1.82,7.81,2.89,15,13.44,15,13.44-1.19,1.06-3.83,2-6.61,2.74,3.88,3.2,5.8,4.68,5.8,4.68a53.42,53.42,0,0,0,17.66-12.33h0c.16-.15.31-.32.46-.48l.39-.41.42-.46L385,427l.32-.36c.19-.23.39-.45.58-.69s.59-.7.88-1.06c9.63-12,17-23.67,17.61-28.84l.21.28,2.35,3.28h0c3.17,4.44,8.44,12,10.81,16.05,3.5,6.06,7.63,16.88,12.28,22.08,3.14,3.5,18.34,15.5,24.5,20.34S467,467.79,467,467.79s-.83,11.75.86,12.17c.6-4.66,1-13.53,1-13.53S458.21,457,444.05,443.6Z"/><path class="cls-2" d="M403.49,399.28l-.12.29A2.24,2.24,0,0,0,403.49,399.28Z"/><path class="cls-2" d="M403.35,399.59c-.18.44-.56,1.31-1.09,2.47-.25.54-.53,1.15-.85,1.82a98.53,98.53,0,0,1-9.76,16.71c-.25.32-.5.64-.77,1a79.8,79.8,0,0,1-8.09,8.46,62.1,62.1,0,0,1-9.06,7.1,3.11,3.11,0,0,1-1.35.54c-.28,0-.69-.38-1.22-1-1.81-2.12-5.09-7.2-10-11.71a35.52,35.52,0,0,0-6.57-4.89c-10.39-5.89-22.78-4.9-26.72-5.67-2.07-.4.5-27.41.76-28.54s12.63-1.91,20.55,3.06c1.16.73,2.85,1.84,4.92,3.14l1.58,1,.06,0a118.39,118.39,0,0,0,16.95,9,38.21,38.21,0,0,0,11.95,3.09C396.39,405.71,402.22,401.72,403.35,399.59Z"/><path class="cls-23" d="M355.73,401.11c-10.56-3.7-22.11.35-28.51,3.39l.08-1.32.65-10c10-2.85,21.45.16,21.45.16l5.34,6.6Z"/><path class="cls-24" d="M355.73,401.11c-10.56-3.7-22.11.35-28.51,3.39l.08-1.32c4.11-1.85,16.12-6.52,25.86-3.9l1.58.63Z"/><path class="cls-25" d="M401.41,403.88a98.53,98.53,0,0,1-9.76,16.71c-5.49,7.12-14.37,14.49-17.92,16.52a89.39,89.39,0,0,0-5.09-8.54c-5.62-8.23-16.51-13-16.51-13l19.23-10.83c13.88,7.08,26.95,0,26.95,0C399.55,404.34,400.57,404.07,401.41,403.88Z"/><path class="cls-26" d="M390.88,421.55a78,78,0,0,1-7.46,7.87l-.63.59c-11.89-18.87-37.38-32.5-43.51-34.1l.22-.15,7.59-5.63C371.59,399.75,385.75,414.46,390.88,421.55Z"/><path class="cls-24" d="M383.42,429.42l-.63.59c-11.89-18.87-37.38-32.5-43.51-34.1l.22-.15c2,.39,12.37,4.25,21.6,10.94C369.89,413.07,379.59,421.38,383.42,429.42Z"/><path class="cls-24" d="M403.35,399.59c-.27.65-1,2.21-1.94,4.29a98.53,98.53,0,0,1-9.76,16.71c-.25.32-.5.64-.77,1a79.8,79.8,0,0,1-8.09,8.46,62.1,62.1,0,0,1-9.06,7.1,3.11,3.11,0,0,1-1.35.54c-1.22-.06-4.87-6.88-11.17-12.72,8.68-6,11-17.83,11.53-22.89a38.21,38.21,0,0,0,11.95,3.09C396.39,405.71,402.22,401.72,403.35,399.59Z"/><path class="cls-24" d="M371.16,436.64c-1.81-2.12-5.09-7.2-10-11.71a35.52,35.52,0,0,0-6.57-4.89c-10.39-5.89-22.78-4.9-26.72-5.67-2.07-.4.5-27.41.76-28.54s12.63-1.91,20.55,3.06c1.16.73,2.85,1.84,4.92,3.14-5.8-3.15-18.58-6.26-22.09-4-3.88,2.48-1.73,22.38,0,24.87s11.93-.4,20.07,4.61C359.35,421.93,367.35,428.78,371.16,436.64Z"/><path class="cls-24" d="M403.35,399.59c-.18.44-.56,1.31-1.09,2.47-3.66,1.95-9.31,4.33-14.81,4.16-9.21-.29-25.29-8.43-31.66-13.16a118.39,118.39,0,0,0,16.95,9,38.21,38.21,0,0,0,11.95,3.09C396.39,405.71,402.22,401.72,403.35,399.59Z"/><path class="cls-20" d="M176.19,503.74l-.8,1.58c-.82,1.64-4.29,1.42-5.91.46s-7.8-.55-16.16-1.32-11.47-7.79-11.07-9.29c0,0,0,0,0-.05a1,1,0,0,1,.45-.56,12,12,0,0,0,6.65,7.06c4.5,1.72,6.35-4.38,6.59-7.07l1.29-.07c.26,1.94.65,6.78-.58,8.82,0,0,7.92-.51,12,.41A24.5,24.5,0,0,0,176.19,503.74Z"/><path class="cls-20" d="M275.21,472l-1.58.3s-4.13,6.05-7.76,10.85a53.8,53.8,0,0,1-4.19,5.09c-3.23,3.18-23.57,6.51-36.41,8.45l-8.06,1.19c-10.09,1.47-24,3.45-32.74,4.69L181,503l-.18,0-.12,0-.33.05-4.2.59,0,.05-.8,1.58c-.82,1.64-4.29,1.42-5.91.46s-7.8-.55-16.16-1.32-11.47-7.79-11.07-9.29c0,0,0,0,0-.05a1,1,0,0,1,.45-.56c1.05-.65,3.64-.23,7.95,0a52.82,52.82,0,0,0,5.29,0l1.29-.07A130.4,130.4,0,0,0,170.9,493c2.4-.46,19.42-7.53,34.38-14,7.73-2,14.42-3.86,18.89-5,14.74-3.87,29.76-16,35.81-21.25C262.67,458.14,267.3,464.84,275.21,472Z"/><path class="cls-27" d="M155.78,503.1a7.55,7.55,0,0,1-.74,1.83s-5.33.45-7-1.61a4.3,4.3,0,0,1-.67-1.7,22.39,22.39,0,0,1,0-8.12s0,0,0-.06c.54-1.3,9-1.61,9.24-.52a7.92,7.92,0,0,1,.09,1.27A36,36,0,0,1,155.78,503.1Z"/><path class="cls-28" d="M367,440.58c0,.88-.11,2-.21,3.23-.35,4.32-1.13,10.39-2.91,14.86a13.32,13.32,0,0,1-2.54,4.29c-3.21,3.35-10.51,7.51-31.67,7.39-9.82-.06-49.93,5.43-49.93,5.43a5.6,5.6,0,0,1-1-.83,82.79,82.79,0,0,1-10.91-10.55,62.39,62.39,0,0,1-4.05-5.28,53.08,53.08,0,0,1-3.64-6.11c12.07-7.14,38.47-9.56,62.12-7.39,20.45,1.88,31.05-6.83,34.69-11.83h0l.69.44h0C363.45,437.94,367,440.58,367,440.58Z"/><path class="cls-29" d="M367,440.58c-.19,3.92-.83,12.33-3.12,18.09-22.17,8.17-55,.43-69.69-1.47-13.67-1.77-22.31,3.63-26.39,7.2a62.39,62.39,0,0,1-4.05-5.28c22.42-17.21,52.12-8.88,70.62-9.17,17-.26,20.75-10,23.25-15.71C363.45,437.94,367,440.58,367,440.58Z"/><path class="cls-30" d="M367,440.58c0,.88-.11,2-.21,3.23a91.91,91.91,0,0,1-13.53-5.61c-12.73-6.42-23.62-15-28.32-19.65a9.88,9.88,0,0,1,2.76-.07,196.64,196.64,0,0,1,29.92,15.75h0l.26.17C363.56,438,367,440.58,367,440.58Z"/><path class="cls-30" d="M257.52,448c-.32.3,21.36-12.36,56-16.93C313.56,431.11,276.91,429.66,257.52,448Z"/><path class="cls-31" d="M367,440.58c0,.88-.11,2-.21,3.23a91.91,91.91,0,0,1-13.53-5.61,15.09,15.09,0,0,1,4.62-3.79C363.56,438,367,440.58,367,440.58Z"/><path class="cls-32" d="M155.78,503.1a7.55,7.55,0,0,1-.74,1.83s-5.33.45-7-1.61a4.3,4.3,0,0,1-.67-1.7A15.43,15.43,0,0,0,155.78,503.1Z"/><path class="cls-33" d="M156.67,494.19c-2.25-.68-7.34-.82-9.33-.75.54-1.3,9-1.61,9.24-.52A7.92,7.92,0,0,1,156.67,494.19Z"/><path class="cls-20" d="M181,503l-.3,0,.23,0Z"/><path class="cls-9" d="M245.67,86.28c-25.74,39.46-52.59,84.9-64.66,119-26.26,74.14-47.39,134.5-55.52,212.4-3.34,32-1.25,53.2-2.62,67.17C120,504,113.15,502.38,110.56,501c1.93-4.11,5.91-14.35,6.33-42.59C117.44,421,129,349.85,139.4,315.85s32-101,42.38-123.78C190.36,173.33,231.3,96.94,245.67,86.28Z"/><path class="cls-34" d="M374.06,306.27a7.8,7.8,0,0,1-2.52.39h0a11.55,11.55,0,0,1-1.16,0,19.61,19.61,0,0,1-5.11-1.05s1.84-3.29,5.16-3.26a4.15,4.15,0,0,1,.69.05,4.93,4.93,0,0,1,1.25.33,0,0,0,0,1,0,0A3.1,3.1,0,0,1,374.06,306.27Z"/><path class="cls-35" d="M317,29.66c-13.09,47.13-29.54,114.52-38.25,165.27-1.52,8.87-3,18-4.39,27.23-5.19-53.18-9.61-112.27-6.43-135.88C273.43,45.21,298.18,27.8,317,29.66Z"/><path class="cls-36" d="M127.49,523.2c-.48.77-7.79,2.94-13.77,4.35-24.12,5.7-48,8.81-79,3.76C15,528.1,3.78,519.69,0,516.39a1.56,1.56,0,0,1,0-.49c8,5.7,19.27,11.52,39.17,14.76C60.47,534.13,93.53,531,127.49,523.2Z"/><path class="cls-34" d="M394.44,307.88a8.54,8.54,0,0,1-2.27.35h0a15.22,15.22,0,0,1-1.8-.07,0,0,0,0,1,0,0,18.8,18.8,0,0,1-4-.9s1.36-4.06,4.89-3.41l.41.1a4,4,0,0,1,1.11.46A3.86,3.86,0,0,1,394.44,307.88Z"/><path class="cls-37" d="M373.24,304.66a2.25,2.25,0,0,1-1.7,2h0a11.55,11.55,0,0,1-1.16,0,2.25,2.25,0,0,1-1.61-2.33,2.22,2.22,0,0,1,1.66-2,2.09,2.09,0,0,1,.75-.08,2.23,2.23,0,0,1,1.19.46,0,0,0,0,1,0,0A2.24,2.24,0,0,1,373.24,304.66Z"/><path class="cls-37" d="M393.58,306.33a2.24,2.24,0,0,1-1.41,1.9h0a15.22,15.22,0,0,1-1.8-.07,0,0,0,0,1,0,0,2.23,2.23,0,0,1,1.16-4.22h.11a2.16,2.16,0,0,1,1.11.46A2.21,2.21,0,0,1,393.58,306.33Z"/><path class="cls-38" d="M345.89,391l-3.67,2.72-.75.55s-4.85-4.55-13.41-2.37l.07-.78.32-3.4S335.52,384.83,345.89,391Z"/><path class="cls-39" d="M342.22,393.74l-.75.55s-4.85-4.55-13.41-2.37l.07-.78C334.92,388.53,340.43,392.26,342.22,393.74Z"/><path class="cls-40" d="M302.69,340.39c-10.18-13-35.07-43.86-54.63-61.25l-.2-.17a15,15,0,0,1,.6,1.83l.15.4.06.06c19.26,17.52,43.18,47.21,53.09,59.85,20.64,26.31,31.67,43.3,32.51,46.71-5.74-4.53-50-55.94-83-94.82L245,285.66c.23.87.45,1.74.67,2.61,1.39,1.63,3.43,4,6,7,8.42,9.9,22.34,26.25,36.28,42.42,42,48.77,45.77,51.56,46.69,51.56l.16,0a.89.89,0,0,0,.66-.7C336.2,385.31,319.53,361.86,302.69,340.39Z"/><path class="cls-41" d="M365.27,305.59c-.21,0,1.7-4,5.73-3.79,4.71.29,3.35,5.18,3.05,4.47s-.33-3.48-3.46-3.36S365.76,305.71,365.27,305.59Z"/><path class="cls-41" d="M386.33,307.25c-.41-.09.75-4.15,4.69-3.86,4.4.32,3.76,4.77,3.42,4.49s-.22-3.38-3.76-3.38C388,304.5,386.33,307.25,386.33,307.25Z"/><path class="cls-34" d="M373.59,305a.72.72,0,1,1-.71-.72A.71.71,0,0,1,373.59,305Z"/><path class="cls-34" d="M394,306.85a.74.74,0,1,1-.73-.73A.73.73,0,0,1,394,306.85Z"/><path class="cls-42" d="M369.45,320.89a13.22,13.22,0,0,0,1.69,4.6,6.37,6.37,0,0,0,4,3,6.85,6.85,0,0,0,4.33-.58,19,19,0,0,0,6-4.81c.76-.88,1.21-1.5,1.21-1.5a148.13,148.13,0,0,0-17.56-2.92A16.07,16.07,0,0,0,369.45,320.89Z"/><path class="cls-34" d="M369.45,320.89c5.25,2.23,13.2,2.28,16.08,2.22.76-.88,1.21-1.5,1.21-1.5a148.13,148.13,0,0,0-17.56-2.92A16.07,16.07,0,0,0,369.45,320.89Z"/><path class="cls-43" d="M371.14,325.49a6.37,6.37,0,0,0,4,3,6.85,6.85,0,0,0,4.33-.58c-.07-1-.46-2.73-2.49-2.36-2.47.46-2.14,1.35-2,1.55C374.78,326.76,373.3,324.48,371.14,325.49Z"/><path class="cls-44" d="M377.67,315.67s-.83-1.46-1.25-1.2S377.18,315.9,377.67,315.67Z"/><path class="cls-44" d="M381.14,302.07c-.09.23-.59,5.09-1.22,7.64s-1,4-1,4,3.2-.6,3.52.94-1,3.25-4.51,1.39c0,0,.58,1.19,2.75,1.31a2.15,2.15,0,0,0,2.21-3c-.5-1.18-2.67-1.27-3.44-1a22.76,22.76,0,0,0,1.45-6,36,36,0,0,0,.26-5.17Z"/><path class="cls-45" d="M400.4,283.3s2.13,10.14,1.56,15.41a54.24,54.24,0,0,1-1.42,7.09c-1.22,4.66-2.91,9.3-4,9.64-1.74.52,1.86-6.16,1.87-12.28s-1.4-13.83-5.07-15.34-6.8,1.87-9.89,1.07-12.73-6.88-15.25-4.33-3.78,6-5.45,10.12-3.07,15.81-3.07,15.81c-.47,0-1.41-3.2-1.77-8.18a58.84,58.84,0,0,1,0-7.56,38.35,38.35,0,0,1,3.34-13.85c2.68-1.48,7.17-2.88,11.58.28,5.63,4.05,13.43,5.59,19.21,3.95,4.4-1.24,10-9.68,9.36-15.51C402.74,273.41,403.52,279.48,400.4,283.3Z"/><path class="cls-46" d="M401.07,287a1.55,1.55,0,0,0-2.15.41c-1.42,2.22-.26,6.55,1.52,8.44a2.29,2.29,0,0,1-1.82-.89,7.09,7.09,0,0,1-1.25-2.93,10.33,10.33,0,0,1,.28-6.2.24.24,0,0,0-.11-.32c.33-.15.65-.32,1-.5a12.65,12.65,0,0,0,1.94-1.37c3.94-3.39,6.25-9.3,2.85-13.86a6.1,6.1,0,0,0-2.9-2.19,4.13,4.13,0,0,0-3.17.15c-1.63.75-2.61,2.58-3.34,4.28a4.21,4.21,0,0,0-2.75-4.13c-2.53-1.08-6.27-.7-8.78.2a12.48,12.48,0,0,0-4.68,3,11,11,0,0,0-1.89,2.49,7.58,7.58,0,0,0-.9,2.48c-1-.95-2.76-.74-4.06-.55a22.33,22.33,0,0,0-6,1.59,11.63,11.63,0,0,0-2.31,1.37h0c-.33.52-.64,1.05-.93,1.61a12.85,12.85,0,0,1,2.48-1.93,16.55,16.55,0,0,1,5.21-1.76c1.57-.35,4.37-1.15,5.49.43l0,0a3.37,3.37,0,0,0,.61,2,3.53,3.53,0,0,0,.25.28c-3.42-.88-6.87-.91-10,1.44-3.81,2.87-5.89,7.78-6.68,12.34a26.27,26.27,0,0,0,1.26,13.29c.06-.4.12-.81.19-1.24a26,26,0,0,1-.66-13.16c1-5,4.19-10.79,9.35-12.39a12,12,0,0,1,7.32.44,6.49,6.49,0,0,0,2.89,1.06c1.22.51,2.41,1,3.55,1.46,1.84.71,6.32,2.61,8,.67l.12.23c.95,1.4,3,.89,4.29.41,2.38-.89,4.11-3.31,5.15-5.51.64-1.37,1.65-4.26.18-5.46-2-1.66-4.49-.41-5.95,1.36a18.11,18.11,0,0,0-2.68,4.8,6.62,6.62,0,0,0-.57,4c0-.07-.09-.13-.13-.21-1.13-2.13,1-5.06,1.78-7,.94-2.46,1.8-5.68,4.14-7.18a3.2,3.2,0,0,1,3.48-.14,8.39,8.39,0,0,1,3.52,5.48c.54,3.12-.92,6.18-3.07,8.44A13.77,13.77,0,0,1,399,284c-3.57,2.47-7.75,2.78-12,2.51-3.61-.23-7.28,0-10.49-2-1.88-1.16-3.66-2.84-6-2.64-5.64.47-6.86,5.95-7,10.67a.15.15,0,0,0,0,.07c.21-.52.42-1,.63-1.52.16-2.75.72-5.6,3-7.4a5.84,5.84,0,0,1,5.49-.91c1.56.55,2.88,1.79,4.3,2.62,3.24,1.89,7.46,1.53,11.07,1.73a19.57,19.57,0,0,0,9.05-1.41,11.08,11.08,0,0,0,.73,9,3,3,0,0,0,3.17,1.7,2.12,2.12,0,0,0,1.07-.55,5.43,5.43,0,0,0,1.43-3.35,6.91,6.91,0,0,0-2-5.26A1.57,1.57,0,0,0,401.07,287Zm-6.6-11.64a5.67,5.67,0,0,1,4.16-2.95c3.23-.2,2,3.88,1.32,5.52a10.82,10.82,0,0,1-3.81,4.63,5,5,0,0,1-3.7.91.24.24,0,0,0-.05-.14C390.75,281.23,393.34,277.11,394.47,275.33Zm-14.16,4.79a2.8,2.8,0,0,1-.59-.49c-1.92-2.13,1.48-5.82,3.18-6.85,2.11-1.27,6.79-.9,7.64,1.84s-2.74,4.41-4.68,5c-.29.09-.63.18-1,.27a1,1,0,0,0-.08-.4C384.29,278.41,381.08,279,380.31,280.12Zm2.17-.45c.11,0,1.94-.07,1.68.36a18.34,18.34,0,0,1-3.31.27A4.28,4.28,0,0,1,382.48,279.67Zm8.64-1.06a5.58,5.58,0,0,0-.43,3.75h0c-1,1.6-4.17.49-5.57.08-1.15-.36-2.28-.79-3.41-1.25a6.11,6.11,0,0,0,1.28-.07,3.62,3.62,0,0,0,1.47-.56c.64-.13,1.24-.3,1.77-.46a7.41,7.41,0,0,0,4.45-3.22c1.12-1.85.19-3.68-1.58-4.61a7,7,0,0,0-8,1.22c-1.62,1.57-3.45,4.72-1.57,6.71l-.48-.07c-.68-.26-1.36-.51-2.05-.72a3.08,3.08,0,0,1-1.5-3.24,8.19,8.19,0,0,1,3.09-5.21,14.21,14.21,0,0,1,3.65-2.24c2.29-1,5.78-1.55,8.38-.59a5.51,5.51,0,0,1,1.71,1c1.14,1,1.16,2.57.94,3.94a.24.24,0,0,0,.12.26C392.63,275.11,391.91,276.86,391.12,278.61Zm11.56,15.13A3.06,3.06,0,0,1,402,295a2.29,2.29,0,0,1-.91.65.1.1,0,0,1,0-.05c-1.34-1.26-1.89-3.54-2.13-5.31a4.58,4.58,0,0,1,.19-2.11c.43-1.32,1.39-.91,2.11-.26a4.54,4.54,0,0,1,.67.77A6.34,6.34,0,0,1,402.68,293.74Z"/><path class="cls-18" d="M398,317.81a24.2,24.2,0,0,1-3.69,9.51.43.43,0,0,0,0,.07,24.14,24.14,0,0,1-10,9.2c-8.08,3.61-15.59,1.32-21-5.37s-5.13-15.63-5.45-17.94c.07.25.45,1.82,1.09,4,1.16,3.84,3.14,9.49,5.52,12.48a15.88,15.88,0,0,0,9.18,5.56h0s-2-3.95-1.88-4.44c0-.09.33-.13.81-.12,2,0,7.13.83,7.24,1.31s-3.38,3.87-3.38,3.87c3.29,1,11.22-3,15.41-7.32S397.9,318.2,398,317.81Z"/><path class="cls-45" d="M394.29,327.39a24.14,24.14,0,0,1-10,9.2c-8.08,3.61-15.59,1.32-21-5.37s-5.13-15.63-5.45-17.94v0h.48c.16,1.05.34,2.43.61,4,.72,4.21,2.06,9.72,5.31,13.55,4.45,5.24,9,6.54,14.19,6.32S391.35,332.05,394.29,327.39Z"/><path class="cls-45" d="M373.71,335.28s-2-3.95-1.88-4.44c0-.09.33-.13.81-.12C374.13,332.74,375.92,335.91,373.71,335.28Z"/></g></g></g></svg>