<svg xmlns="http://www.w3.org/2000/svg" viewBox="0 0 54.23 54.21"><defs><style>.cls-1{fill:#204966;}</style></defs><g id="Camada_2" data-name="Camada 2"><g id="Camada_1-2" data-name="Camada 1"><path class="cls-1" d="M27.12,0A27.11,27.11,0,1,1,7.94,7.94,27,27,0,0,1,27.12,0ZM44.79,9.44a25,25,0,1,0,7.32,17.67A24.89,24.89,0,0,0,44.79,9.44Z"/><path class="cls-1" d="M13,13.42a2.8,2.8,0,0,1,2.81-2.81h7.36a24.7,24.7,0,0,1,4.5.3,6,6,0,0,1,2.65,1.28,7.48,7.48,0,0,1,2,2.59,8.26,8.26,0,0,1,.78,3.63,8.47,8.47,0,0,1-1,4,6.5,6.5,0,0,1-2.62,2.72A6.74,6.74,0,0,1,33.08,28a8.6,8.6,0,0,1,1.25,4.67,10.83,10.83,0,0,1-.81,4.11,8.08,8.08,0,0,1-2.2,3.19,6.44,6.44,0,0,1-3.45,1.47c-.85.12-2.92.19-6.19.22h-8.5a.17.17,0,0,1-.16-.17ZM18.83,18v5h2.88a27.85,27.85,0,0,0,3.19-.1,2.63,2.63,0,0,0,1.78-1.11,4.15,4.15,0,0,0,.65-2.42A4.4,4.4,0,0,0,26.77,17a2.32,2.32,0,0,0-1.66-1.09,37.12,37.12,0,0,0-3.76-.1H21A2.19,2.19,0,0,0,18.83,18Zm0,11.92v6.51H22.9a13.77,13.77,0,0,0,3-.19A2.64,2.64,0,0,0,27.51,35a5,5,0,0,0,.62-2.64A5.33,5.33,0,0,0,27.65,30a2.93,2.93,0,0,0-1.37-1.41,10.55,10.55,0,0,0-3.9-.45H20.61A1.78,1.78,0,0,0,18.83,29.87Z"/><circle class="cls-1" cx="39.95" cy="37.92" r="3.68"/></g></g></svg>