<svg xmlns="http://www.w3.org/2000/svg" viewBox="0 0 537.13 90.6"><defs><style>.cls-1{font-size:60px;font-family:Impact;}.cls-1,.cls-2{fill:#fff;}</style></defs><g id="Camada_2" data-name="Camada 2"><g id="Camada_1-2" data-name="Camada 1"><text class="cls-1" transform="translate(0 53.73)">Nossas Acomodações</text><path class="cls-2" d="M463.72,81.51a27.57,27.57,0,0,0-12.05-3.12c-6.55,0-11.72,2.83-17.19,5.82-5.74,3.14-11.68,6.39-19.43,6.39s-13.69-3.25-19.44-6.39c-5.47-3-10.63-5.82-17.18-5.82s-11.72,2.83-17.19,5.82c-5.74,3.14-11.68,6.39-19.43,6.39s-13.7-3.25-19.44-6.39c-5.47-3-10.63-5.82-17.18-5.82S293.47,81.22,288,84.21c-5.74,3.14-11.69,6.39-19.44,6.39s-13.69-3.25-19.43-6.39c-5.47-3-10.63-5.82-17.19-5.82s-11.71,2.83-17.18,5.82c-5.75,3.14-11.69,6.39-19.44,6.39s-13.69-3.25-19.43-6.39c-5.47-3-10.64-5.82-17.19-5.82S147,81.22,141.52,84.21c-5.75,3.14-11.69,6.39-19.44,6.39s-13.69-3.25-19.43-6.39c-5.47-3-10.64-5.82-17.19-5.82a27.57,27.57,0,0,0-12,3.12l-2-4.22A32,32,0,0,1,85.46,73.7c7.75,0,13.69,3.25,19.44,6.39,5.47,3,10.63,5.82,17.18,5.82s11.72-2.83,17.19-5.82C145,77,151,73.7,158.7,73.7s13.69,3.25,19.44,6.39c5.47,3,10.63,5.82,17.18,5.82s11.72-2.83,17.19-5.82c5.74-3.14,11.68-6.39,19.43-6.39s13.69,3.25,19.44,6.39c5.47,3,10.63,5.82,17.18,5.82s11.72-2.83,17.19-5.82c5.74-3.14,11.68-6.39,19.43-6.39s13.7,3.25,19.44,6.39c5.47,3,10.63,5.82,17.19,5.82s11.71-2.83,17.18-5.82c5.75-3.14,11.69-6.39,19.44-6.39s13.69,3.25,19.43,6.39c5.47,3,10.64,5.82,17.19,5.82s11.71-2.83,17.18-5.82C438,77,443.92,73.7,451.67,73.7a31.87,31.87,0,0,1,14.08,3.59Z"/></g></g></svg>