<svg xmlns="http://www.w3.org/2000/svg" viewBox="0 0 168.4547 40.4325"><defs><style>.cls-1{fill:#204966;}</style></defs><g id="Camada_2" data-name="Camada 2"><g id="Camada_1-2" data-name="Camada 1"><path class="cls-1" d="M6.2024,24.8506a.4525.4525,0,0,0-.0429-.1l-.0284-.084-.042-.1c-.0849-.2168-.1748-.4395-.2695-.666q-.4248-1.0606-.835-2.1377-1.3169-3.4263-2.124-5.9893.0279,1.5147.0567,2.5342.1274,4.998.1269,6.7256H1.6q0-1.91-.1416-6.6836L1.43,17.2041,1.4016,16.043q-.0277-1.3594-.042-2.3369-.057-2.6617-.0712-4.375a29.5867,29.5867,0,0,1,.17-4.3184q.17-.8364.751-.9209a2.8675,2.8675,0,0,1,1.288.1553,5.3466,5.3466,0,0,1,1.544.7929,4.4831,4.4831,0,0,1,1.77,3.0879,5.2033,5.2033,0,0,1-.75,3.6953,5.7152,5.7152,0,0,1-2.2939,1.9122q.75,2.6893,2.3222,6.8671.4951,1.317,1.02,2.6192.17.4248.3115.7793a1.3479,1.3479,0,0,1,.085.2129.3045.3045,0,0,1,.0419.084ZM2.8323,5.5791q-.1568,1.4151-.043,7.0371A5.6319,5.6319,0,0,0,3.71,12.12a3.6917,3.6917,0,0,0,.92-.82,3.7608,3.7608,0,0,0,.7363-2.9883A3.0418,3.0418,0,0,0,4.305,6.3291a3.6013,3.6013,0,0,0-.7647-.51A2.9916,2.9916,0,0,0,2.8323,5.5791Z" transform="translate(0 -4.0696)"/><path class="cls-1" d="M11.2005,24.95a2.6039,2.6039,0,0,1-.7784-.2979,2.9372,2.9372,0,0,1-.85-.7646,7.0752,7.0752,0,0,1-1.1894-3.752,5.1025,5.1025,0,0,1-.0283-.5957v-.623l.0136-.2969v-.2549q-.0849-3.7661,1.2461-5.4658a2.9134,2.9134,0,0,1,1.0908-.8779,2.1562,2.1562,0,0,1,.4668-.17,3.0009,3.0009,0,0,1,.3682-.0567,2.5046,2.5046,0,0,1,1.9541.708,3.2594,3.2594,0,0,1,1.0342,2.0254,3.9,3.9,0,0,1-.9775,3.5684,3.8869,3.8869,0,0,1-1.9112.9765,7.0646,7.0646,0,0,1-1.8271.17v.41c0,.1426.0049.2647.0146.3692a7.118,7.118,0,0,0,.5664,2.4355,1.6579,1.6579,0,0,0,1.09,1.0615,1.1207,1.1207,0,0,0,.85-.1982,1.8475,1.8475,0,0,0,.6943-.793l1.3027.666a3.5549,3.5549,0,0,1-1.1474,1.3164,2.6866,2.6866,0,0,1-1.5147.4815A2.9782,2.9782,0,0,1,11.2005,24.95Zm.0283-7.2647a2.6539,2.6539,0,0,0,1.3174-.6376,2.5662,2.5662,0,0,0,.5381-2.3223,1.8719,1.8719,0,0,0-.51-1.09,1.1017,1.1017,0,0,0-.9209-.3964q-.7353.057-1.2461,1.1611a8.6244,8.6244,0,0,0-.5947,3.3838A5.22,5.22,0,0,0,11.2288,17.6855Z" transform="translate(0 -4.0696)"/><path class="cls-1" d="M19.4563,25.0771a2.2022,2.2022,0,0,1-.7226-.2832,3.128,3.128,0,0,1-.8633-.7646,7.0337,7.0337,0,0,1-1.1758-3.9648,13.5581,13.5581,0,0,1,.7647-6.2725,3.6488,3.6488,0,0,1,.9209-1.2608,2.3487,2.3487,0,0,1,.9345-.4951,2.2425,2.2425,0,0,1,1.628.1973,2.8139,2.8139,0,0,1,1.2324,1.2891l-1.3174.6367a1.3881,1.3881,0,0,0-.4815-.58.8618.8618,0,0,0-.6933-.1416q-.7515.1977-1.1758,1.6846a15.2564,15.2564,0,0,0-.3682,4.8711,6.8668,6.8668,0,0,0,.6094,2.705,1.6135,1.6135,0,0,0,1.02.9629,1.1133,1.1133,0,0,0,.8213-.17,1.8714,1.8714,0,0,0,.6651-.7363l1.289.666a3.2938,3.2938,0,0,1-1.1191,1.26,2.6485,2.6485,0,0,1-1.4727.4531A2.1321,2.1321,0,0,1,19.4563,25.0771Z" transform="translate(0 -4.0696)"/><path class="cls-1" d="M26.4514,24.95a2.6091,2.6091,0,0,1-.7793-.2979,2.96,2.96,0,0,1-.85-.7646,7.0752,7.0752,0,0,1-1.1894-3.752,5.3092,5.3092,0,0,1-.0283-.5957v-.623l.0146-.2969v-.2549q-.0849-3.7661,1.2461-5.4658a2.9174,2.9174,0,0,1,1.09-.8779,2.1642,2.1642,0,0,1,.4678-.17,2.9721,2.9721,0,0,1,.3682-.0567,2.5072,2.5072,0,0,1,1.9541.708,3.2632,3.2632,0,0,1,1.0332,2.0254A3.6439,3.6439,0,0,1,26.89,19.0732a7.0571,7.0571,0,0,1-1.8262.17v.41c0,.1426.0049.2647.0137.3692a7.139,7.139,0,0,0,.5664,2.4355A1.6591,1.6591,0,0,0,26.7346,23.52a1.1226,1.1226,0,0,0,.85-.1982,1.852,1.852,0,0,0,.6933-.793l1.3027.666a3.5525,3.5525,0,0,1-1.1464,1.3164,2.6875,2.6875,0,0,1-1.5157.4815A2.9685,2.9685,0,0,1,26.4514,24.95Zm.0284-7.2647a2.65,2.65,0,0,0,1.3164-.6376,2.5633,2.5633,0,0,0,.5381-2.3223,1.8719,1.8719,0,0,0-.51-1.09,1.0988,1.0988,0,0,0-.92-.3964q-.7368.057-1.2461,1.1611a8.59,8.59,0,0,0-.5948,3.3838A5.2236,5.2236,0,0,0,26.48,17.6855Z" transform="translate(0 -4.0696)"/><path class="cls-1" d="M35.4007,12.4746a4.8326,4.8326,0,0,1,1.9111,2.8467,13.3078,13.3078,0,0,1,.4248,4.8281,7.0619,7.0619,0,0,1-1.2178,3.8652,2.5032,2.5032,0,0,1-2.0107,1.1192,2.323,2.323,0,0,1-1.4727-.5664v.27l-1.458-.043q.0424-1.4165.042-3.9082,0-2.3509-.0283-4.163h-.0137V15.6748q.0132-1.1044.0283-2.3926,0-1.6142.0137-2.9746.0147-3.6533.0147-4.5449h1.458q0,.6093-.0137,2.6338,0,1.544-.0147,3.9365A2.1936,2.1936,0,0,1,35.4007,12.4746Zm-.8926,11.2q.5521,0,1.0342-.82a6.3528,6.3528,0,0,0,.7363-2.8184,11.5482,11.5482,0,0,0-.3682-4.3476,3.5473,3.5473,0,0,0-1.289-1.9824,1.41,1.41,0,0,0-.41-.17.7768.7768,0,0,0-.4814.0713,1.2033,1.2033,0,0,0-.4815.6514,3.4355,3.4355,0,0,0-.2129,1.3594v.34q.0424,1.8838.043,5.1406h.0137a4.019,4.019,0,0,0,.5244,1.9112Q34.0121,23.6748,34.5081,23.6748Z" transform="translate(0 -4.0696)"/><path class="cls-1" d="M46.6721,24.7656a1.7987,1.7987,0,0,1-.8212.2266,1.24,1.24,0,0,1-.68-.1983,1.5224,1.5224,0,0,1-.6094-.7646,2.4874,2.4874,0,0,1-4.05-.1982,6.4423,6.4423,0,0,1-1.0762-3.8233,17.1687,17.1687,0,0,1,.5381-5.3242,3.8593,3.8593,0,0,1,1.8975-2.6055,1.9561,1.9561,0,0,1,.9775-.1552,2.8666,2.8666,0,0,1,1.416.5517v-.1982l1.458.0136q0,1.0343.0147,2.6621v.5665c.0088.1513.0136.3027.0136.4531v.4111h-.0136q.0425,1.2466-.0147,2.917l-.0136.2695v.2832l-.0147.6231q-.0132.7207-.0137,1.2461a4.6488,4.6488,0,0,0,.24,1.7978l.0849-.042Zm-2.4072-5.5088.0137-.3672.0146-.3828q.0132-.4393.0137-.8066.0147-.9215-.0137-1.6006a3.7856,3.7856,0,0,0-.4961-2.1943,2.7964,2.7964,0,0,0-.4951-.3828,1.1474,1.1474,0,0,0-.5664-.17.7476.7476,0,0,0-.2832.0567q-.68.2973-1.1191,1.7988a16.2412,16.2412,0,0,0-.4531,4.7578,5.8818,5.8818,0,0,0,.581,2.6758q.48.8643,1.1182.8779a1.2574,1.2574,0,0,0,1.0478-.665,3.857,3.857,0,0,0,.6094-1.9688q0-.3252.0137-.7793v-.4238Z" transform="translate(0 -4.0696)"/><path class="cls-1" d="M57.4055,19.81a.9758.9758,0,0,0,0-.2266v-.3262a11.6957,11.6957,0,0,0-.2978-2.3789,5.6825,5.6825,0,0,0-.6514-1.67,2.7855,2.7855,0,0,0-.3252-.4394,2.8137,2.8137,0,0,0-.27-.24,1.3108,1.3108,0,0,0-.793-.2832,1.2281,1.2281,0,0,0-.3252.042,1.9806,1.9806,0,0,0-.2412.0986,1.4555,1.4555,0,0,0-.8349,1.3028q0,.5816-.0147.8642v.3682c0,.1514.0049.2969.0147.4395v3.3554q.0132,3.0015-.0147,4.1778l-1.458-.043q.0279-1.1191.0283-3.9365,0-1.0767-.0146-2.28,0-1.0049-.0137-1.8545V15.76l.0137-.042.0146-.0293q0-.4527.0137-.7637v-.8359q.0147-.9771.0146-1.6426l1.4581-.0137v.3819l-.0137.4111.0566-.043.0283-.0283a.1911.1911,0,0,1,.085-.0713,2.8432,2.8432,0,0,1,.7363-.2539,3.3779,3.3779,0,0,1,.4385-.0566c.1231,0,.2412.0039.3545.0136a2.8238,2.8238,0,0,1,1.3311.5664,4.0373,4.0373,0,0,1,.9482,1.0625,6.943,6.943,0,0,1,.8213,2.0664,12.473,12.473,0,0,1,.3115,2.0254c.02.3018.0332.6182.043.9493v.7216a31.4582,31.4582,0,0,1-.4531,4.8145l-1.4444-.2412a33.1048,33.1048,0,0,0,.4385-4.0352c.01-.16.0146-.3164.0146-.4668Z" transform="translate(0 -4.0696)"/><path class="cls-1" d="M62.7014,24.9775a4.2085,4.2085,0,0,1-1.7275-2.4921,14.8075,14.8075,0,0,1-.6094-4.5733,7.8714,7.8714,0,0,1,.9629-4.0635,2.7548,2.7548,0,0,1,2.3789-1.6425,1.5791,1.5791,0,0,1,.3545.0419,2.03,2.03,0,0,1,.4668.1416,2.6846,2.6846,0,0,1,1.0625.8633q1.33,1.7139,1.3311,5.82a11.16,11.16,0,0,1-.5664,3.7666,3.856,3.856,0,0,1-1.5723,2.1377,1.97,1.97,0,0,1-1.0332.2979A2.0436,2.0436,0,0,1,62.7014,24.9775Zm-.2265-10.2226a6.9491,6.9491,0,0,0-.666,3.1572,13.1582,13.1582,0,0,0,.5381,4.0928,3.0059,3.0059,0,0,0,1.0908,1.7265.6134.6134,0,0,0,.623,0,2.6049,2.6049,0,0,0,.9629-1.4863,9.4936,9.4936,0,0,0,.4385-3.1719,11.5181,11.5181,0,0,0-.6084-4.1914q-.4967-1.2173-1.1475-1.2177T62.4749,14.7549Z" transform="translate(0 -4.0696)"/><path class="cls-1" d="M68.1243,23.7744l1.1894-.8359a1.2916,1.2916,0,0,0,1.6426.6377,1.9075,1.9075,0,0,0,.9629-.9629,2.42,2.42,0,0,0,.2266-1.6279,3.3666,3.3666,0,0,0-.6514-1.3741q-.34-.4672-1.1465-1.374a14.0155,14.0155,0,0,1-1.3027-1.6133,3.1852,3.1852,0,0,1-.5811-1.6992,3.0659,3.0659,0,0,1,.6094-1.8984,2.4434,2.4434,0,0,1,1.26-.8633,2.61,2.61,0,0,1,1.6709.07,2.7114,2.7114,0,0,1,1.3174,1.0625l-1.2178.793a1.2335,1.2335,0,0,0-.5947-.4961,1.1813,1.1813,0,0,0-.7647-.0274q-.8217.24-.8213,1.3594a2.1112,2.1112,0,0,0,.4815,1.1035,6.5066,6.5066,0,0,0,.4814.6094l.2686.3262.2832.3105.34.3828.34.3965q.3691.4527.6377.8359a4.7621,4.7621,0,0,1,.8212,1.8262,3.9151,3.9151,0,0,1-.34,2.5352,3.3128,3.3128,0,0,1-1.7139,1.67,2.6482,2.6482,0,0,1-1.0332.2129A2.807,2.807,0,0,1,68.1243,23.7744Z" transform="translate(0 -4.0696)"/><path class="cls-1" d="M74.5393,23.7744l1.19-.8359a1.2912,1.2912,0,0,0,1.6426.6377,1.9156,1.9156,0,0,0,.9629-.9629,2.4269,2.4269,0,0,0,.2265-1.6279,3.3793,3.3793,0,0,0-.6513-1.3741q-.34-.4672-1.1475-1.374a14.1167,14.1167,0,0,1-1.3027-1.6133,3.1908,3.1908,0,0,1-.58-1.6992,3.0592,3.0592,0,0,1,.6084-1.8984,2.45,2.45,0,0,1,1.2607-.8633,2.61,2.61,0,0,1,1.6709.07,2.7085,2.7085,0,0,1,1.3164,1.0625l-1.2178.793a1.233,1.233,0,0,0-.5947-.4961,1.181,1.181,0,0,0-.7646-.0274q-.82.24-.8213,1.3594a2.1193,2.1193,0,0,0,.4814,1.1035,6.68,6.68,0,0,0,.4815.6094l.2695.3262.2832.3105.34.3828.34.3965q.3677.4527.6367.8359a4.7323,4.7323,0,0,1,.8213,1.8262,3.9164,3.9164,0,0,1-.34,2.5352,3.3146,3.3146,0,0,1-1.7129,1.67,2.65,2.65,0,0,1-1.0342.2129A2.8055,2.8055,0,0,1,74.5393,23.7744Z" transform="translate(0 -4.0696)"/><path class="cls-1" d="M88.9827,24.7656a1.7991,1.7991,0,0,1-.8213.2266,1.24,1.24,0,0,1-.68-.1983,1.5229,1.5229,0,0,1-.6094-.7646,2.4874,2.4874,0,0,1-4.05-.1982,6.4423,6.4423,0,0,1-1.0761-3.8233,17.1626,17.1626,0,0,1,.5381-5.3242,3.86,3.86,0,0,1,1.8974-2.6055,1.9567,1.9567,0,0,1,.9776-.1552,2.8673,2.8673,0,0,1,1.416.5517v-.1982l1.458.0136q0,1.0343.0146,2.6621v.5665c.0088.1513.0137.3027.0137.4531v.4111h-.0137q.0425,1.2466-.0146,2.917l-.0137.2695v.2832l-.0146.6231q-.0132.7207-.0137,1.2461a4.6475,4.6475,0,0,0,.24,1.7978l.085-.042Zm-2.4072-5.5088.0136-.3672.0147-.3828q.0132-.4393.0137-.8066.0145-.9215-.0137-1.6006a3.7872,3.7872,0,0,0-.4961-2.1943,2.8,2.8,0,0,0-.4951-.3828,1.1477,1.1477,0,0,0-.5664-.17.7469.7469,0,0,0-.2832.0567q-.68.2973-1.1192,1.7988a16.2446,16.2446,0,0,0-.4531,4.7578,5.8817,5.8817,0,0,0,.5811,2.6758q.48.8643,1.1181.8779a1.2577,1.2577,0,0,0,1.0479-.665,3.8569,3.8569,0,0,0,.6093-1.9688q0-.3252.0137-.7793v-.4238Z" transform="translate(0 -4.0696)"/><path class="cls-1" d="M89.8323,23.7744l1.1895-.8359a1.2912,1.2912,0,0,0,1.6425.6377,1.9149,1.9149,0,0,0,.9629-.9629,2.4264,2.4264,0,0,0,.2266-1.6279,3.3784,3.3784,0,0,0-.6514-1.3741q-.34-.4672-1.1474-1.374a14.1319,14.1319,0,0,1-1.3028-1.6133,3.1917,3.1917,0,0,1-.58-1.6992,3.06,3.06,0,0,1,.6084-1.8984,2.45,2.45,0,0,1,1.2608-.8633,2.61,2.61,0,0,1,1.6709.07,2.709,2.709,0,0,1,1.3164,1.0625l-1.2178.793a1.233,1.233,0,0,0-.5947-.4961,1.1813,1.1813,0,0,0-.7647-.0274q-.82.24-.8212,1.3594a2.1193,2.1193,0,0,0,.4814,1.1035,6.6775,6.6775,0,0,0,.4814.6094l.27.3262.2832.3105.34.3828.34.3965q.3676.4527.6367.8359a4.7338,4.7338,0,0,1,.8213,1.8262,3.9158,3.9158,0,0,1-.34,2.5352,3.3143,3.3143,0,0,1-1.7129,1.67,2.6492,2.6492,0,0,1-1.0341.2129A2.8054,2.8054,0,0,1,89.8323,23.7744Z" transform="translate(0 -4.0696)"/><path class="cls-1" d="M106.8382,19.81a.8859.8859,0,0,0,0-.2266v-.3262a11.7061,11.7061,0,0,0-.2969-2.3789,5.7326,5.7326,0,0,0-.6514-1.67,2.8514,2.8514,0,0,0-.3262-.4394,2.6948,2.6948,0,0,0-.2685-.24,1.3127,1.3127,0,0,0-.793-.2832,1.2392,1.2392,0,0,0-.3261.042,1.8977,1.8977,0,0,0-.24.0986,1.4581,1.4581,0,0,0-.8359,1.3028q0,.5816-.0137.8642v.3682c0,.1514.0049.2969.0137.4395v3.3554q.0145,3.0015-.0137,4.1778l-1.459-.043q.0294-1.1191.0283-3.9365,0-1.0767-.0136-2.28,0-1.0049-.0147-1.8545V15.76l.0147-.042.0136-.0293q0-.4527.0147-.7637v-.8359q.0132-.9771.0137-1.6426l1.4589-.0137v.3819l-.0146.4111.0566-.043.0284-.0283a.19.19,0,0,1,.0849-.0713,2.8682,2.8682,0,0,1,.7364-.2539,3.4111,3.4111,0,0,1,.4394-.0566c.1221,0,.24.0039.3535.0136a2.82,2.82,0,0,1,1.3311.5664,4.0226,4.0226,0,0,1,.9492,1.0625,6.97,6.97,0,0,1,.8213,2.0664,12.5834,12.5834,0,0,1,.3115,2.0254c.0186.3018.0332.6182.042.9493v.7216a31.2075,31.2075,0,0,1-.4531,4.8145l-1.4444-.2412a33.1218,33.1218,0,0,0,.4395-4.0352c.0088-.16.0137-.3164.0137-.4668Z" transform="translate(0 -4.0696)"/><path class="cls-1" d="M112.1341,24.9775a4.2166,4.2166,0,0,1-1.7276-2.4921,14.8373,14.8373,0,0,1-.6084-4.5733,7.8616,7.8616,0,0,1,.9629-4.0635,2.7525,2.7525,0,0,1,2.3789-1.6425,1.5639,1.5639,0,0,1,.3535.0419,2.0382,2.0382,0,0,1,.4678.1416,2.6821,2.6821,0,0,1,1.0615.8633q1.3315,1.7139,1.3311,5.82a11.1348,11.1348,0,0,1-.5664,3.7666,3.8549,3.8549,0,0,1-1.5713,2.1377,1.9735,1.9735,0,0,1-1.0342.2979A2.0457,2.0457,0,0,1,112.1341,24.9775Zm-.2266-10.2226a6.95,6.95,0,0,0-.665,3.1572,13.1317,13.1317,0,0,0,.538,4.0928,3.006,3.006,0,0,0,1.09,1.7265.6134.6134,0,0,0,.623,0,2.6,2.6,0,0,0,.9629-1.4863,9.4918,9.4918,0,0,0,.4395-3.1719,11.4936,11.4936,0,0,0-.6094-4.1914q-.4952-1.2173-1.1465-1.2177T111.9075,14.7549Z" transform="translate(0 -4.0696)"/><path class="cls-1" d="M120.8147,25.1338a1.22,1.22,0,0,1-1.0342-.68,7.3708,7.3708,0,0,1-.665-1.7842,61.469,61.469,0,0,1-1.77-10.3506l1.4443-.1279a60.6657,60.6657,0,0,0,1.7276,10.0967,7.3258,7.3258,0,0,0,.2978.9482,20.3916,20.3916,0,0,0,.6231-2.3369q.24-1.1044.5234-2.8027.1143-.6519.2549-1.5156l.1133-.7364.1133-.7363.1279-.8066.1269-.7657q.1275-.8349.2266-1.4013l1.4307.2548q-.1422.8218-.4815,2.9454-.2841,1.8545-.4814,3.0156-.2843,1.6992-.5381,2.8613a16.1489,16.1489,0,0,1-.8643,2.959q-.4526.9492-1.1611.9629Z" transform="translate(0 -4.0696)"/><path class="cls-1" d="M126.096,11.7383a1.1295,1.1295,0,0,1,0-1.586,1.1038,1.1038,0,0,1,.8076-.34,1.1329,1.1329,0,0,1,0,2.2656A1.1038,1.1038,0,0,1,126.096,11.7383Zm.0146,13.0986V24.44c0-.1425.0049-.2832.0137-.4258v-.5664q.0147-.7353.0146-1.458.0132-.9068.0137-1.7705.0424-4.9687-.0137-7.0654l1.4581-.0283q.0425,2.1093.0146,7.0937-.0147.8643-.0146,1.7705-.0132.7368-.0137,1.4727c0,.1885-.0049.3779-.0147.5664v.8213Z" transform="translate(0 -4.0696)"/><path class="cls-1" d="M136.2063,16.7227q-.0277,1.812-.0283,4.163.0147,2.4918.043,3.9082l-1.4444.043-.0146-.27a2.2,2.2,0,0,1-1.458.5664h-.0147a2.4667,2.4667,0,0,1-1.9961-1.1192,7.0619,7.0619,0,0,1-1.2177-3.8652,13.16,13.16,0,0,1,.41-4.8281,4.9214,4.9214,0,0,1,1.9121-2.8467,2.1589,2.1589,0,0,1,2.3506-.1279l-.0146-1.02V10.3223q-.0132-1.3023-.0137-1.9258V5.7627l1.4443.0137q0,.8789.0137,4.5312.0147,1.374.0283,2.9746,0,1.2876.0147,2.3926v1.0479Zm-1.4726,4.3759q-.0132-3.2577.0283-5.1406v-.34a3.4348,3.4348,0,0,0-.2119-1.3594,1.2081,1.2081,0,0,0-.4815-.6514.702.702,0,0,0-.34-.0849,1.02,1.02,0,0,0-.5527.1836,3.4878,3.4878,0,0,0-1.2745,1.9824,11.671,11.671,0,0,0-.3818,4.3476,6.34,6.34,0,0,0,.7363,2.8184q.48.82,1.0332.82h.0147q.48,0,.8916-.665a4.2429,4.2429,0,0,0,.5244-1.9112Z" transform="translate(0 -4.0696)"/><path class="cls-1" d="M145.8216,24.7656a1.7991,1.7991,0,0,1-.8213.2266,1.24,1.24,0,0,1-.68-.1983,1.5224,1.5224,0,0,1-.6094-.7646,2.4874,2.4874,0,0,1-4.05-.1982,6.4423,6.4423,0,0,1-1.0762-3.8233,17.1687,17.1687,0,0,1,.5381-5.3242,3.8593,3.8593,0,0,1,1.8975-2.6055,1.9561,1.9561,0,0,1,.9775-.1552,2.8666,2.8666,0,0,1,1.416.5517v-.1982l1.458.0136q0,1.0343.0147,2.6621v.5665c.0088.1513.0137.3027.0137.4531v.4111h-.0137q.0425,1.2466-.0147,2.917l-.0136.2695v.2832l-.0147.6231q-.0132.7207-.0137,1.2461a4.6488,4.6488,0,0,0,.24,1.7978l.0849-.042Zm-2.4073-5.5088.0137-.3672.0147-.3828q.0131-.4393.0136-.8066.0147-.9215-.0136-1.6006a3.7872,3.7872,0,0,0-.4961-2.1943,2.8,2.8,0,0,0-.4952-.3828,1.1474,1.1474,0,0,0-.5664-.17.7476.7476,0,0,0-.2832.0567q-.68.2973-1.1191,1.7988a16.2446,16.2446,0,0,0-.4531,4.7578,5.8818,5.8818,0,0,0,.581,2.6758q.48.8643,1.1182.8779a1.2574,1.2574,0,0,0,1.0478-.665,3.857,3.857,0,0,0,.6094-1.9688q0-.3252.0137-.7793v-.4238Z" transform="translate(0 -4.0696)"/><path class="cls-1" d="M153.3548,16.7227q-.0294,1.812-.0284,4.163.0132,2.4918.042,3.9082l-1.4443.043-.0137-.27a2.2019,2.2019,0,0,1-1.459.5664h-.0136a2.4682,2.4682,0,0,1-1.9971-1.1192,7.0783,7.0783,0,0,1-1.2178-3.8652,13.1348,13.1348,0,0,1,.4112-4.8281,4.92,4.92,0,0,1,1.9111-2.8467,2.159,2.159,0,0,1,2.3506-.1279l-.0137-1.02V10.3223q-.0147-1.3023-.0146-1.9258V5.7627l1.4443.0137q0,.8789.0146,4.5312.0132,1.374.0284,2.9746,0,1.2876.0136,2.3926v1.0479Zm-1.4727,4.3759q-.0147-3.2577.0283-5.1406v-.34a3.4337,3.4337,0,0,0-.2129-1.3594,1.2032,1.2032,0,0,0-.4814-.6514.6968.6968,0,0,0-.34-.0849,1.0169,1.0169,0,0,0-.5517.1836,3.4872,3.4872,0,0,0-1.2744,1.9824,11.665,11.665,0,0,0-.3828,4.3476,6.35,6.35,0,0,0,.7363,2.8184q.4819.82,1.0342.82h.0136q.4819,0,.8926-.665a4.2573,4.2573,0,0,0,.5235-1.9112Z" transform="translate(0 -4.0696)"/><path class="cls-1" d="M158.5657,24.95a2.6091,2.6091,0,0,1-.7793-.2979,2.96,2.96,0,0,1-.85-.7646,7.0743,7.0743,0,0,1-1.19-3.752,5.3332,5.3332,0,0,1-.0283-.5957v-.623l.0147-.2969v-.2549q-.0851-3.7661,1.2461-5.4658a2.9174,2.9174,0,0,1,1.09-.8779,2.1623,2.1623,0,0,1,.4678-.17,2.9707,2.9707,0,0,1,.3681-.0567,2.5069,2.5069,0,0,1,1.9541.708,3.2627,3.2627,0,0,1,1.0332,2.0254,3.6438,3.6438,0,0,1-2.8886,4.5449,7.0575,7.0575,0,0,1-1.8262.17v.41c0,.1426.0049.2647.0137.3692a7.1367,7.1367,0,0,0,.5664,2.4355,1.6589,1.6589,0,0,0,1.0908,1.0615,1.1225,1.1225,0,0,0,.85-.1982,1.8516,1.8516,0,0,0,.6934-.793l1.3027.666a3.5527,3.5527,0,0,1-1.1465,1.3164,2.687,2.687,0,0,1-1.5156.4815A2.9675,2.9675,0,0,1,158.5657,24.95Zm.0283-7.2647a2.65,2.65,0,0,0,1.3164-.6376,2.5628,2.5628,0,0,0,.5381-2.3223,1.8707,1.8707,0,0,0-.51-1.09,1.0986,1.0986,0,0,0-.92-.3964q-.7368.057-1.2461,1.1611a8.5917,8.5917,0,0,0-.5947,3.3838A5.2226,5.2226,0,0,0,158.594,17.6855Z" transform="translate(0 -4.0696)"/><path class="cls-1" d="M162.927,23.7744l1.19-.8359a1.2912,1.2912,0,0,0,1.6426.6377,1.9156,1.9156,0,0,0,.9629-.9629,2.4269,2.4269,0,0,0,.2265-1.6279,3.3784,3.3784,0,0,0-.6514-1.3741q-.34-.4672-1.1474-1.374a14.1167,14.1167,0,0,1-1.3027-1.6133,3.1908,3.1908,0,0,1-.58-1.6992,3.0592,3.0592,0,0,1,.6084-1.8984,2.4493,2.4493,0,0,1,1.2607-.8633,2.61,2.61,0,0,1,1.6709.07,2.7085,2.7085,0,0,1,1.3164,1.0625l-1.2178.793a1.233,1.233,0,0,0-.5947-.4961,1.181,1.181,0,0,0-.7646-.0274q-.82.24-.8213,1.3594a2.1193,2.1193,0,0,0,.4814,1.1035,6.68,6.68,0,0,0,.4815.6094l.2695.3262.2832.3105.34.3828.34.3965q.3676.4527.6367.8359a4.7338,4.7338,0,0,1,.8213,1.8262,3.9164,3.9164,0,0,1-.34,2.5352,3.3146,3.3146,0,0,1-1.7129,1.67,2.65,2.65,0,0,1-1.0342.2129A2.8055,2.8055,0,0,1,162.927,23.7744Z" transform="translate(0 -4.0696)"/><path class="cls-1" d="M60.5,44.5021H1.5a1.5,1.5,0,0,1,0-3h59a1.5,1.5,0,0,1,0,3Z" transform="translate(0 -4.0696)"/></g></g></svg>