<svg xmlns="http://www.w3.org/2000/svg" viewBox="0 0 62 40.4122"><defs><style>.cls-1{fill:#204966;}</style></defs><g id="Camada_2" data-name="Camada 2"><g id="Camada_1-2" data-name="Camada 1"><path class="cls-1" d="M.85,23.5479l1.2036-.8213a1.5041,1.5041,0,0,0,.708.5947,1.5858,1.5858,0,0,0,.708.07,2.1835,2.1835,0,0,0,1.09-.51,2.4733,2.4733,0,0,0,.708-1.0332,6.07,6.07,0,0,0,.0708-3.1435,14.2784,14.2784,0,0,0-1.4727-3.9365q-.5236-1.005-.9629-2.0108a18.63,18.63,0,0,1-.9345-2.5908q-.906-3.2856.269-4.8008A3.4084,3.4084,0,0,1,3.5117,4.3037a2.3889,2.3889,0,0,1,1.1045-.2119,2.669,2.669,0,0,1,2.209,1.3174l-1.2178.8066a1.6209,1.6209,0,0,0-.4248-.4531,1.203,1.203,0,0,0-.623-.2266,1.4762,1.4762,0,0,0-1.1753.7227q-.6372.82-.1558,2.9726a20.1532,20.1532,0,0,0,1.9258,4.8575,15.3925,15.3925,0,0,1,1.6426,4.5175A7.2314,7.2314,0,0,1,6.6411,22.33,3.7844,3.7844,0,0,1,5.4658,24.001a3.4084,3.4084,0,0,1-2.2231.85A2.766,2.766,0,0,1,.85,23.5479Z" transform="translate(-0.0001 -4.0889)"/><path class="cls-1" d="M9.2041,11.7383a1.1282,1.1282,0,0,1,0-1.586,1.1029,1.1029,0,0,1,.8071-.34,1.1329,1.1329,0,0,1,0,2.2656A1.1029,1.1029,0,0,1,9.2041,11.7383Zm.0142,13.0986V24.44c0-.1425.0048-.2832.0141-.4258v-.5664q.0139-.7353.0142-1.458.0139-.9068.0141-1.7705.0426-4.9687-.0141-7.0654l1.4585-.0283q.0425,2.1093.0141,7.0937-.0138.8643-.0141,1.7705-.0139.7368-.0142,1.4727c0,.1885-.0049.3779-.0141.5664v.8213Z" transform="translate(-0.0001 -4.0889)"/><path class="cls-1" d="M19.3286,20.8428v1.0625l-.0141.9345q.17,6.3442-2.0674,7.5049a2.3763,2.3763,0,0,1-1.0762.2549,4.6764,4.6764,0,0,1-2.7046-1.1328l.8779-1.1611a3.8221,3.8221,0,0,0,.4815.34,4.6136,4.6136,0,0,0,.5947.3115,1.3528,1.3528,0,0,0,1.1611.085,1.129,1.129,0,0,0,.3116-.27,2.3379,2.3379,0,0,0,.3681-.6231,9.1755,9.1755,0,0,0,.5664-2.9023,2.1735,2.1735,0,0,1-.9912.27,2.4716,2.4716,0,0,1-1.331-.4111,4.9284,4.9284,0,0,1-1.9116-2.86,12.993,12.993,0,0,1-.4107-4.8008,7.0925,7.0925,0,0,1,1.2178-3.8789,2.4673,2.4673,0,0,1,1.9966-1.1191h.0141a2.2007,2.2007,0,0,1,1.4585.5664v-.127l.0142-.1425,1.4443.0429q-.0285,1.4166-.0425,3.9082,0,2.3511.0284,4.1485ZM16.2842,23.874a1.4061,1.4061,0,0,0,.4106.17.7157.7157,0,0,0,.4815-.0859,1.2017,1.2017,0,0,0,.4814-.6367,3.4343,3.4343,0,0,0,.2124-1.3594v-.3262q-.0425-1.8822-.0283-5.1543h-.0142A4.1966,4.1966,0,0,0,17.29,14.57q-.3963-.6649-.878-.665h-.0141q-.5523,0-1.0337.8066a6.368,6.368,0,0,0-.7364,2.832,11.9324,11.9324,0,0,0,.3682,4.3477A3.5448,3.5448,0,0,0,16.2842,23.874Z" transform="translate(-0.0001 -4.0889)"/><path class="cls-1" d="M29.1133,24.7656a1.7975,1.7975,0,0,1-.8213.2266,1.2429,1.2429,0,0,1-.68-.1983,1.5243,1.5243,0,0,1-.6089-.7646,2.5823,2.5823,0,0,1-2.0107.9482,2.5551,2.5551,0,0,1-2.0391-1.1464,6.4388,6.4388,0,0,1-1.0762-3.8233,17.1534,17.1534,0,0,1,.5381-5.3242,3.8581,3.8581,0,0,1,1.8975-2.6055,1.9545,1.9545,0,0,1,.977-.1552,2.8637,2.8637,0,0,1,1.4161.5517v-.1982l1.4585.0136q0,1.0343.0141,2.6621v.5665c.0093.1513.0142.3027.0142.4531v.4111h-.0142q.0425,1.2466-.0141,2.917l-.0142.2695v.2832l-.0142.6231q-.0138.7207-.0141,1.2461a4.6541,4.6541,0,0,0,.2407,1.7978c.019-.01.0474-.0234.085-.042Zm-2.4072-5.5088L26.72,18.89l.0142-.3828q.014-.4393.0141-.8066.014-.9215-.0141-1.6006a3.7925,3.7925,0,0,0-.4956-2.1943,2.7878,2.7878,0,0,0-.4956-.3828,1.1462,1.1462,0,0,0-.5664-.17.7506.7506,0,0,0-.2832.0567q-.68.2973-1.1187,1.7988a16.21,16.21,0,0,0-.4531,4.7578,5.89,5.89,0,0,0,.5805,2.6758q.4812.8643,1.1187.8779a1.2581,1.2581,0,0,0,1.0478-.665,3.8607,3.8607,0,0,0,.6089-1.9688q0-.3252.0142-.7793v-.4238Z" transform="translate(-0.0001 -4.0889)"/><path class="cls-1" d="M29.68,16.7939l.0283-1.4589q1.8831.0424,4.9419.0283.5383,0,1.0762-.0147h1.1894a1.8971,1.8971,0,0,0,.2407-.0136h.2266l.0142,1.4589h-.3682c-.1416,0-.2832.004-.4248.0137h-.5522q-.6936,0-1.3736.0137H33.0356Q30.9541,16.8213,29.68,16.7939Z" transform="translate(-0.0001 -4.0889)"/><path class="cls-1" d="M44.1655,19.81a.9237.9237,0,0,0,0-.2266v-.3262a11.6976,11.6976,0,0,0-.2973-2.3789,5.71,5.71,0,0,0-.6514-1.67,2.8181,2.8181,0,0,0-.3257-.4394,2.7648,2.7648,0,0,0-.269-.24,1.3119,1.3119,0,0,0-.793-.2832,1.234,1.234,0,0,0-.3257.042,1.9408,1.9408,0,0,0-.2407.0986,1.4569,1.4569,0,0,0-.8355,1.3028q0,.5816-.0141.8642v.3682c0,.1514.0049.2969.0141.4395v3.3554q.014,3.0015-.0141,4.1778l-1.4585-.043q.0285-1.1191.0283-3.9365,0-1.0767-.0141-2.28,0-1.0049-.0142-1.8545V15.76l.0142-.042.0141-.0293q0-.4527.0142-.7637v-.8359q.0138-.9771.0141-1.6426l1.4585-.0137v.3819l-.0141.4111.0566-.043.0283-.0283a.1906.1906,0,0,1,.085-.0713,2.856,2.856,0,0,1,.7363-.2539,3.3963,3.3963,0,0,1,.439-.0566c.1225,0,.2407.0039.354.0136a2.821,2.821,0,0,1,1.331.5664,4.0285,4.0285,0,0,1,.9488,1.0625,6.9564,6.9564,0,0,1,.8213,2.0664,12.55,12.55,0,0,1,.3115,2.0254q.0285.4527.0425.9493v.7216a31.3209,31.3209,0,0,1-.4532,4.8145l-1.4443-.2412a33.1133,33.1133,0,0,0,.439-4.0352c.0092-.16.0141-.3164.0141-.4668Z" transform="translate(-0.0001 -4.0889)"/><path class="cls-1" d="M49.4614,24.9775a4.2123,4.2123,0,0,1-1.7275-2.4921,14.8209,14.8209,0,0,1-.6089-4.5733,7.8665,7.8665,0,0,1,.9629-4.0635,2.7537,2.7537,0,0,1,2.3789-1.6425,1.5721,1.5721,0,0,1,.354.0419,2.0357,2.0357,0,0,1,.4673.1416,2.6834,2.6834,0,0,1,1.062.8633q1.3308,1.7139,1.3311,5.82a11.1447,11.1447,0,0,1-.5665,3.7666,3.8549,3.8549,0,0,1-1.5717,2.1377,1.9718,1.9718,0,0,1-1.0337.2979A2.0449,2.0449,0,0,1,49.4614,24.9775Zm-.2265-10.2226a6.9506,6.9506,0,0,0-.6656,3.1572,13.1433,13.1433,0,0,0,.5381,4.0928,3.0062,3.0062,0,0,0,1.09,1.7265.6134.6134,0,0,0,.623,0,2.6024,2.6024,0,0,0,.9629-1.4863,9.4978,9.4978,0,0,0,.439-3.1719,11.508,11.508,0,0,0-.6089-4.1914q-.4959-1.2173-1.147-1.2177T49.2349,14.7549Z" transform="translate(-0.0001 -4.0889)"/><path class="cls-1" d="M54.8848,23.7744l1.1894-.8359a1.2914,1.2914,0,0,0,1.6426.6377,1.9115,1.9115,0,0,0,.9629-.9629,2.424,2.424,0,0,0,.2265-1.6279,3.3727,3.3727,0,0,0-.6513-1.3741q-.34-.4672-1.147-1.374a14.06,14.06,0,0,1-1.3027-1.6133,3.1884,3.1884,0,0,1-.5806-1.6992,3.0626,3.0626,0,0,1,.6089-1.8984,2.4466,2.4466,0,0,1,1.26-.8633,2.61,2.61,0,0,1,1.6708.07,2.71,2.71,0,0,1,1.3169,1.0625l-1.2177.793a1.2333,1.2333,0,0,0-.5948-.4961,1.181,1.181,0,0,0-.7646-.0274q-.8211.24-.8213,1.3594a2.1154,2.1154,0,0,0,.4815,1.1035,6.5909,6.5909,0,0,0,.4814.6094l.269.3262.2832.3105.34.3828.34.3965q.3684.4527.6372.8359a4.7473,4.7473,0,0,1,.8213,1.8262,3.9157,3.9157,0,0,1-.34,2.5352,3.3137,3.3137,0,0,1-1.7134,1.67,2.6492,2.6492,0,0,1-1.0337.2129A2.8062,2.8062,0,0,1,54.8848,23.7744Z" transform="translate(-0.0001 -4.0889)"/><path class="cls-1" d="M60.5,44.5011H1.5a1.5,1.5,0,0,1,0-3h59a1.5,1.5,0,0,1,0,3Z" transform="translate(-0.0001 -4.0889)"/></g></g></svg>