<svg xmlns="http://www.w3.org/2000/svg" viewBox="0 0 118.9876 40.7599"><defs><style>.cls-1{fill:#204966;}</style></defs><g id="Camada_2" data-name="Camada 2"><g id="Camada_1-2" data-name="Camada 1"><path class="cls-1" d="M6.7971,25.0635q-1.3169.07-2.2656.07A9.0177,9.0177,0,0,1,2.3509,24.95a1.337,1.337,0,0,1-.3965-.17.9008.9008,0,0,1-.1-.086l-.07-.0839a3.5117,3.5117,0,0,1-.27-1.5157q-.1128-1.982-.1836-8.539-.0292-3.0586-.0429-6.6973-.0132-1.1323-.0137-2.1953v-.85a.8475.8475,0,0,1,.2832-.6367A1.7642,1.7642,0,0,1,2.6624,3.78a20.6638,20.6638,0,0,1,2.4209-.0137q1.02.041,1.5156.042V5.2529q-.51,0-1.5576-.0283Q4.6869,5.21,4.4466,5.21c-.2364-.0088-.4483-.0137-.6377-.0137q-.7354,0-1.0762.0283V8.3682q.0147,2.1093.0283,4.163h.5664q.34-.0146.6231,0,.7368,0,1.2041.0284l-.1,1.4443q-.438-.0277-1.1329-.0283H3.3274l-.2832.0137H2.7893q.0719,7.9863.2129,9.6289a25.687,25.687,0,0,0,3.71,0Z" transform="translate(0 -3.7412)"/><path class="cls-1" d="M13.1546,19.81a.8859.8859,0,0,0,0-.2266v-.3262a11.7061,11.7061,0,0,0-.2969-2.3789,5.7326,5.7326,0,0,0-.6514-1.67,2.8576,2.8576,0,0,0-.3261-.4394,2.7063,2.7063,0,0,0-.2686-.24,1.3127,1.3127,0,0,0-.793-.2832,1.24,1.24,0,0,0-.3261.042,1.8977,1.8977,0,0,0-.24.0986,1.4581,1.4581,0,0,0-.8359,1.3028q0,.5816-.0137.8642v.3682c0,.1514.0049.2969.0137.4395v3.3554q.0147,3.0015-.0137,4.1778l-1.459-.043q.0294-1.1191.0284-3.9365,0-1.0767-.0137-2.28,0-1.0049-.0147-1.8545V15.76l.0147-.042.0137-.0293q0-.4527.0146-.7637v-.8359Q8,13.1118,8,12.4463l1.459-.0137v.3819l-.0147.4111.0566-.043.0284-.0283a.19.19,0,0,1,.0849-.0713,2.8682,2.8682,0,0,1,.7364-.2539,3.4111,3.4111,0,0,1,.4394-.0566c.1221,0,.24.0039.3535.0136a2.8192,2.8192,0,0,1,1.3311.5664,4.0226,4.0226,0,0,1,.9492,1.0625,6.97,6.97,0,0,1,.8213,2.0664,12.5834,12.5834,0,0,1,.3115,2.0254c.0186.3018.0332.6182.042.9493v.7216a31.2075,31.2075,0,0,1-.4531,4.8145l-1.4444-.2412a33.1218,33.1218,0,0,0,.44-4.0352c.0088-.16.0137-.3164.0137-.4668Z" transform="translate(0 -3.7412)"/><path class="cls-1" d="M21.5091,24.0859a4.127,4.127,0,0,1-2.251,1.0479,1.3744,1.3744,0,0,1-.6514-.1563,2.2841,2.2841,0,0,1-1.0478-1.6992A20.4634,20.4634,0,0,1,17.304,19.54V12.9424l-.5381.0137h-.7647l.0137-1.459c.3594.01.7881.01,1.2891,0V5.9893h1.458V9.3447q-.0132,1.0914-.0137,2.0957c.2266,0,.4531-.0039.68-.0136.1787-.01.3633-.0186.5518-.0284a1.3388,1.3388,0,0,0,.1982-.0146h.17L20.49,11.37l.0713,1.459h-.17c-.1045.0088-.2363.0186-.3965.0273-.3965.02-.8125.0332-1.2461.043v3.4834q.0132,1.9116.0137,3.1436a25.4893,25.4893,0,0,0,.17,3.2148c.0762.5371.18.85.3115.9336h.0713a.8429.8429,0,0,0,.2266-.07,5.2934,5.2934,0,0,0,1.1045-.68Z" transform="translate(0 -3.7412)"/><path class="cls-1" d="M25.2757,12.73a2.8759,2.8759,0,0,1,1.6709-.0137,2.207,2.207,0,0,1,1.2041.9063l-1.2178.7929a.7691.7691,0,0,0-.5664-.34,1.8325,1.8325,0,0,0-.708.0566,2.1964,2.1964,0,0,0-1.0625.6934,2.4869,2.4869,0,0,0-.5664,1.5293l-.0137.1416v.9482q0,.4542.0137.9209v2.3077q.0146,3.0585-.0284,4.3193l-1.4443-.042q.0293-1.204.0283-4.2061-.0132-1.0473-.0136-2.2656v-.9209c-.01-.2265-.0147-.457-.0147-.6933v-.4395l.0147-.042v-.3545c.0087-.1318.0136-.2539.0136-.3672q.0147-.4541.0147-.8359.0132-1.0767.0137-1.8408l1.4443-.0147v.4112A3.8536,3.8536,0,0,1,25.2757,12.73Z" transform="translate(0 -3.7412)"/><path class="cls-1" d="M31.45,24.95a2.6033,2.6033,0,0,1-.7783-.2979,2.9346,2.9346,0,0,1-.85-.7646,7.0743,7.0743,0,0,1-1.1895-3.752,5.1025,5.1025,0,0,1-.0283-.5957v-.623l.0137-.2969v-.2549q-.085-3.7661,1.2461-5.4658a2.9126,2.9126,0,0,1,1.0908-.8779,2.1543,2.1543,0,0,1,.4668-.17,3,3,0,0,1,.3681-.0567,2.5045,2.5045,0,0,1,1.9541.708,3.2594,3.2594,0,0,1,1.0342,2.0254,3.6453,3.6453,0,0,1-2.8887,4.5449,7.0646,7.0646,0,0,1-1.8271.17v.41c0,.1426.0049.2647.0146.3692a7.118,7.118,0,0,0,.5664,2.4355,1.6579,1.6579,0,0,0,1.09,1.0615,1.1207,1.1207,0,0,0,.85-.1982,1.8469,1.8469,0,0,0,.6943-.793l1.3028.666a3.5551,3.5551,0,0,1-1.1475,1.3164,2.6863,2.6863,0,0,1-1.5146.4815A2.9794,2.9794,0,0,1,31.45,24.95Zm.0283-7.2647a2.6535,2.6535,0,0,0,1.3174-.6376,2.5656,2.5656,0,0,0,.5381-2.3223,1.8719,1.8719,0,0,0-.51-1.09,1.1016,1.1016,0,0,0-.9209-.3964q-.7353.057-1.2461,1.1611a8.6262,8.6262,0,0,0-.5947,3.3838A5.22,5.22,0,0,0,31.4778,17.6855Z" transform="translate(0 -3.7412)"/><path class="cls-1" d="M43.6839,24.95a2.6039,2.6039,0,0,1-.7784-.2979,2.9372,2.9372,0,0,1-.85-.7646,7.0752,7.0752,0,0,1-1.1894-3.752,5.1025,5.1025,0,0,1-.0283-.5957v-.623l.0136-.2969v-.2549q-.0849-3.7661,1.2461-5.4658a2.9134,2.9134,0,0,1,1.0908-.8779,2.1562,2.1562,0,0,1,.4668-.17,3.0009,3.0009,0,0,1,.3682-.0567,2.5046,2.5046,0,0,1,1.9541.708,3.2594,3.2594,0,0,1,1.0342,2.0254,3.6453,3.6453,0,0,1-2.8887,4.5449,7.0646,7.0646,0,0,1-1.8271.17v.41c0,.1426.0049.2647.0146.3692a7.118,7.118,0,0,0,.5664,2.4355,1.6579,1.6579,0,0,0,1.09,1.0615,1.1207,1.1207,0,0,0,.85-.1982,1.8475,1.8475,0,0,0,.6943-.793l1.3027.666a3.5549,3.5549,0,0,1-1.1474,1.3164,2.6866,2.6866,0,0,1-1.5147.4815A2.9782,2.9782,0,0,1,43.6839,24.95Zm.0283-7.2647a2.6539,2.6539,0,0,0,1.3174-.6376,2.5662,2.5662,0,0,0,.5381-2.3223,1.8719,1.8719,0,0,0-.51-1.09,1.1017,1.1017,0,0,0-.9209-.3964q-.7353.057-1.2461,1.1611a8.6244,8.6244,0,0,0-.5947,3.3838A5.22,5.22,0,0,0,43.7122,17.6855Z" transform="translate(0 -3.7412)"/><path class="cls-1" d="M59.0335,13.6074a8.442,8.442,0,0,1,.9492,3.8516q.1552,2.3085,0,7.4482l-1.459-.0429q.1421-4.7433.0283-6.9375A7.8794,7.8794,0,0,0,57.83,14.415a1.2907,1.2907,0,0,0-.6093-.5244.9766.9766,0,0,0-.2832-.042,1.2683,1.2683,0,0,0-.24.0274,2.2424,2.2424,0,0,0-1.1191.751,2.59,2.59,0,0,0-.6514,1.2744v1.43q.0147,1.374.0147,2.5781.0132,3.7236-.0147,5.083l-1.458-.042q.0425-1.4034.0283-5.3535-.0146-1.33-.0146-2.6055-.0132-1.1044-.0137-1.1328a2.4586,2.4586,0,0,0-.4111-1.3867,1.4924,1.4924,0,0,0-.9766-.7227q-1.2041-.2124-2.124,2.1953-.0147.6079-.0146.6651c.01.1513.0146.2783.0146.3818V18.45q.0132,1.2891.0137,2.3652,0,3.0015-.0283,4.1768l-1.4581-.042q.0279-1.1044.0284-3.9375,0-1.02-.0147-2.2793V16.8779h-.0137V15.7314l.0284-.07q.0132-.4819.0136-.8076l.0147-.8916q.0132-1.02,0-1.6855l1.458-.0137v.9629a3.4714,3.4714,0,0,1,1.331-.8223,2.0964,2.0964,0,0,1,1.0059-.084A2.8912,2.8912,0,0,1,54.347,13.876a3.684,3.684,0,0,1,2.039-1.416A2.3586,2.3586,0,0,1,59.0335,13.6074Z" transform="translate(0 -3.7412)"/><path class="cls-1" d="M68.8606,24.5391a5.9862,5.9862,0,0,1-1.5713-3.6817,56.3019,56.3019,0,0,1-.3965-6.415,29.9556,29.9556,0,0,1,.4815-7.25q.6928-2.7744,2.6338-3.1992a2.9685,2.9685,0,0,1,2.4775.4951A3.522,3.522,0,0,1,73.845,7.1924l-1.4443.1133a2.17,2.17,0,0,0-.7784-1.6426,1.534,1.534,0,0,0-1.3027-.24q-1.1338.24-1.6006,2.3652A30.71,30.71,0,0,0,68.3509,14.4q.0849,3.88.3115,5.7207.3267,2.6339,1.1328,3.3135a1.4959,1.4959,0,0,0,.1416.1,1.5179,1.5179,0,0,0,.2129.0986,1.4706,1.4706,0,0,0,.6514.0283,2.3407,2.3407,0,0,0,1.3164-.5381,1.5558,1.5558,0,0,0,.3964-.9628l1.4444.17q-.268,2.3511-2.9453,2.7607a2.8335,2.8335,0,0,1-.51.043A2.445,2.445,0,0,1,68.8606,24.5391Z" transform="translate(0 -3.7412)"/><path class="cls-1" d="M77.343,24.9775a4.2089,4.2089,0,0,1-1.7275-2.4921,14.8075,14.8075,0,0,1-.6094-4.5733,7.8714,7.8714,0,0,1,.9629-4.0635,2.7548,2.7548,0,0,1,2.3789-1.6425,1.5791,1.5791,0,0,1,.3545.0419,2.03,2.03,0,0,1,.4668.1416,2.6846,2.6846,0,0,1,1.0625.8633q1.33,1.7139,1.3311,5.82a11.16,11.16,0,0,1-.5664,3.7666,3.856,3.856,0,0,1-1.5723,2.1377,1.97,1.97,0,0,1-1.0332.2979A2.0436,2.0436,0,0,1,77.343,24.9775Zm-.2265-10.2226a6.9491,6.9491,0,0,0-.666,3.1572,13.1582,13.1582,0,0,0,.5381,4.0928,3.0059,3.0059,0,0,0,1.0908,1.7265.6134.6134,0,0,0,.623,0,2.6049,2.6049,0,0,0,.9629-1.4863,9.4936,9.4936,0,0,0,.4385-3.1719,11.5181,11.5181,0,0,0-.6084-4.1914q-.4967-1.2173-1.1475-1.2177T77.1165,14.7549Z" transform="translate(0 -3.7412)"/><path class="cls-1" d="M88.6145,19.81a.9758.9758,0,0,0,0-.2266v-.3262a11.6957,11.6957,0,0,0-.2978-2.3789,5.6825,5.6825,0,0,0-.6514-1.67,2.7855,2.7855,0,0,0-.3252-.4394,2.8258,2.8258,0,0,0-.27-.24,1.3108,1.3108,0,0,0-.793-.2832,1.2275,1.2275,0,0,0-.3252.042,1.9806,1.9806,0,0,0-.2412.0986,1.4556,1.4556,0,0,0-.835,1.3028q0,.5816-.0146.8642v.3682c0,.1514.0049.2969.0146.4395v3.3554q.0132,3.0015-.0146,4.1778l-1.458-.043q.0278-1.1191.0283-3.9365,0-1.0767-.0146-2.28,0-1.0049-.0137-1.8545V15.76l.0137-.042.0146-.0293q0-.4527.0137-.7637v-.8359q.0145-.9771.0146-1.6426l1.458-.0137v.3819l-.0136.4111.0566-.043.0283-.0283a.1906.1906,0,0,1,.085-.0713,2.8432,2.8432,0,0,1,.7363-.2539,3.3779,3.3779,0,0,1,.4385-.0566c.123,0,.2412.0039.3545.0136a2.823,2.823,0,0,1,1.331.5664,4.0359,4.0359,0,0,1,.9483,1.0625,6.943,6.943,0,0,1,.8213,2.0664,12.484,12.484,0,0,1,.3115,2.0254c.0195.3018.0332.6182.043.9493v.7216a31.4467,31.4467,0,0,1-.4532,4.8145l-1.4443-.2412A33.1048,33.1048,0,0,0,88.6,20.7158c.01-.16.0146-.3164.0146-.4668Z" transform="translate(0 -3.7412)"/><path class="cls-1" d="M96.969,24.0859a4.1288,4.1288,0,0,1-2.2519,1.0479,1.3767,1.3767,0,0,1-.6514-.1563,2.2869,2.2869,0,0,1-1.0479-1.6992A20.6519,20.6519,0,0,1,92.763,19.54V12.9424l-.5381.0137H91.46l.0147-1.459q.5376.0145,1.2881,0V5.9893h1.459V9.3447q-.0147,1.0914-.0147,2.0957c.2266,0,.4531-.0039.68-.0136.18-.01.3633-.0186.5527-.0284a1.3594,1.3594,0,0,0,.1983-.0146h.17L95.95,11.37l.07,1.459h-.17c-.1035.0088-.2354.0186-.3965.0273-.3965.02-.8115.0332-1.2461.043v3.4834q.0147,1.9116.0147,3.1436a25.0913,25.0913,0,0,0,.17,3.2148c.0752.5371.1787.85.3115.9336h.07a.8334.8334,0,0,0,.2266-.07,5.296,5.296,0,0,0,1.1045-.68Z" transform="translate(0 -3.7412)"/><path class="cls-1" d="M105.2805,24.7656a1.7955,1.7955,0,0,1-.8212.2266,1.2451,1.2451,0,0,1-.68-.1983,1.5261,1.5261,0,0,1-.6084-.7646,2.5831,2.5831,0,0,1-2.0108.9482,2.5536,2.5536,0,0,1-2.039-1.1464,6.4352,6.4352,0,0,1-1.0762-3.8233,17.1382,17.1382,0,0,1,.5381-5.3242,3.8566,3.8566,0,0,1,1.8974-2.6055,1.9527,1.9527,0,0,1,.9766-.1552,2.86,2.86,0,0,1,1.416.5517v-.1982l1.459.0136q0,1.0343.0137,2.6621v.5665c.01.1513.0146.3027.0146.4531v.4111h-.0146q.0425,1.2466-.0137,2.917l-.0146.2695v.2832l-.0137.6231q-.0147.7207-.0147,1.2461a4.6629,4.6629,0,0,0,.2412,1.7978c.0186-.01.0469-.0234.085-.042Zm-2.4072-5.5088.0147-.3672.0136-.3828q.0147-.4393.0147-.8066c.0088-.6143.0049-1.1475-.0147-1.6006a3.7961,3.7961,0,0,0-.4951-2.1943,2.7651,2.7651,0,0,0-.4961-.3828,1.1445,1.1445,0,0,0-.5664-.17.7548.7548,0,0,0-.2832.0567q-.68.2973-1.1181,1.7988a16.1759,16.1759,0,0,0-.4532,4.7578,5.8957,5.8957,0,0,0,.58,2.6758q.482.8643,1.1191.8779a1.2587,1.2587,0,0,0,1.0479-.665,3.8663,3.8663,0,0,0,.6084-1.9688q0-.3252.0146-.7793v-.4238Z" transform="translate(0 -3.7412)"/><path class="cls-1" d="M111.4407,24.0859a4.1287,4.1287,0,0,1-2.252,1.0479,1.3766,1.3766,0,0,1-.6513-.1563,2.2869,2.2869,0,0,1-1.0479-1.6992,20.6589,20.6589,0,0,1-.2549-3.7383V12.9424l-.538.0137h-.7647l.0147-1.459q.5376.0145,1.288,0V5.9893h1.459V9.3447q-.0146,1.0914-.0146,2.0957c.2265,0,.4531-.0039.68-.0136.18-.01.3633-.0186.5527-.0284a1.359,1.359,0,0,0,.1982-.0146h.17l.1416-.0137.07,1.459h-.17c-.1036.0088-.2354.0186-.3965.0273-.3965.02-.8115.0332-1.2461.043v3.4834q.0145,1.9116.0146,3.1436a25.1059,25.1059,0,0,0,.17,3.2148c.0751.5371.1787.85.3115.9336h.07a.8334.8334,0,0,0,.2266-.07,5.2932,5.2932,0,0,0,1.1044-.68Z" transform="translate(0 -3.7412)"/><path class="cls-1" d="M114.7678,24.9775a4.217,4.217,0,0,1-1.7275-2.4921,14.8373,14.8373,0,0,1-.6084-4.5733,7.8616,7.8616,0,0,1,.9629-4.0635,2.7525,2.7525,0,0,1,2.3789-1.6425,1.5639,1.5639,0,0,1,.3535.0419,2.0382,2.0382,0,0,1,.4678.1416,2.6821,2.6821,0,0,1,1.0615.8633q1.3316,1.7139,1.3311,5.82a11.1348,11.1348,0,0,1-.5664,3.7666,3.8549,3.8549,0,0,1-1.5713,2.1377,1.9735,1.9735,0,0,1-1.0342.2979A2.0463,2.0463,0,0,1,114.7678,24.9775Zm-.2265-10.2226a6.9508,6.9508,0,0,0-.6651,3.1572,13.1314,13.1314,0,0,0,.5381,4.0928,3.006,3.006,0,0,0,1.09,1.7265.6134.6134,0,0,0,.623,0,2.6,2.6,0,0,0,.9629-1.4863,9.4943,9.4943,0,0,0,.4395-3.1719,11.4957,11.4957,0,0,0-.6094-4.1914q-.4951-1.2173-1.1465-1.2177T114.5413,14.7549Z" transform="translate(0 -3.7412)"/><path class="cls-1" d="M60.5,44.5011H1.5a1.5,1.5,0,0,1,0-3h59a1.5,1.5,0,0,1,0,3Z" transform="translate(0 -3.7412)"/></g></g></svg>