<svg xmlns="http://www.w3.org/2000/svg" viewBox="0 0 394.38 90.6"><defs><style>.cls-1{font-size:60px;font-family:Impact;}.cls-1,.cls-2{fill:#fff;}</style></defs><g id="Camada_2" data-name="Camada 2"><g id="Camada_1-2" data-name="Camada 1"><text class="cls-1" transform="translate(100.82 53.73)">Contato</text><path class="cls-2" d="M392.35,81.51a27.58,27.58,0,0,0-12.06-3.12c-6.55,0-11.71,2.83-17.18,5.82-5.75,3.14-11.69,6.39-19.44,6.39S330,87.35,324.24,84.21c-5.47-3-10.64-5.82-17.19-5.82s-11.71,2.83-17.18,5.82c-5.75,3.14-11.69,6.39-19.44,6.39S256.74,87.35,251,84.21c-5.47-3-10.64-5.82-17.19-5.82s-11.72,2.83-17.18,5.82c-5.75,3.14-11.69,6.39-19.44,6.39s-13.69-3.25-19.44-6.39c-5.46-3-10.63-5.82-17.18-5.82s-11.72,2.83-17.18,5.82C137.64,87.35,131.7,90.6,124,90.6s-13.69-3.25-19.44-6.39c-5.46-3-10.63-5.82-17.18-5.82s-11.72,2.83-17.19,5.82C64.4,87.35,58.46,90.6,50.71,90.6S37,87.35,31.27,84.21c-5.47-3-10.63-5.82-17.18-5.82A27.58,27.58,0,0,0,2,81.51L0,77.29A32,32,0,0,1,14.09,73.7c7.75,0,13.69,3.25,19.43,6.39,5.47,3,10.64,5.82,17.19,5.82s11.71-2.83,17.18-5.82C73.64,77,79.58,73.7,87.33,73.7S101,77,106.76,80.09c5.47,3,10.64,5.82,17.19,5.82s11.72-2.83,17.18-5.82c5.75-3.14,11.69-6.39,19.44-6.39S174.26,77,180,80.09c5.46,3,10.63,5.82,17.18,5.82s11.72-2.83,17.18-5.82c5.75-3.14,11.69-6.39,19.44-6.39S247.5,77,253.25,80.09c5.46,3,10.63,5.82,17.18,5.82s11.72-2.83,17.19-5.82c5.74-3.14,11.68-6.39,19.43-6.39s13.69,3.25,19.44,6.39c5.47,3,10.63,5.82,17.18,5.82s11.72-2.83,17.19-5.82c5.74-3.14,11.68-6.39,19.43-6.39a31.91,31.91,0,0,1,14.09,3.59Z"/></g></g></svg>