<svg xmlns="http://www.w3.org/2000/svg" viewBox="0 0 772.65 90.6"><defs><style>.cls-1{font-size:60px;font-family:Impact;}.cls-1,.cls-2{fill:#fff;}</style></defs><g id="Camada_2" data-name="Camada 2"><g id="Camada_1-2" data-name="Camada 1"><text class="cls-1" transform="translate(0 53.73)">Sinta-se em casa longe de casa</text><path class="cls-2" d="M579.81,81.51a27.57,27.57,0,0,0-12-3.12c-6.55,0-11.72,2.83-17.19,5.82-5.74,3.14-11.68,6.39-19.43,6.39s-13.69-3.25-19.44-6.39c-5.47-3-10.63-5.82-17.18-5.82s-11.72,2.83-17.19,5.82c-5.74,3.14-11.68,6.39-19.43,6.39s-13.69-3.25-19.44-6.39c-5.47-3-10.63-5.82-17.18-5.82s-11.72,2.83-17.19,5.82c-5.74,3.14-11.68,6.39-19.43,6.39s-13.7-3.25-19.44-6.39c-5.47-3-10.63-5.82-17.18-5.82s-11.72,2.83-17.19,5.82c-5.74,3.14-11.69,6.39-19.44,6.39S297.72,87.35,292,84.21c-5.47-3-10.63-5.82-17.19-5.82s-11.71,2.83-17.18,5.82c-5.75,3.14-11.69,6.39-19.44,6.39s-13.69-3.25-19.43-6.39c-5.47-3-10.64-5.82-17.19-5.82a27.57,27.57,0,0,0-12.05,3.12l-2-4.22a31.87,31.87,0,0,1,14.08-3.59c7.75,0,13.69,3.25,19.44,6.39,5.47,3,10.63,5.82,17.18,5.82s11.72-2.83,17.19-5.82C261.1,77,267,73.7,274.79,73.7s13.7,3.25,19.44,6.39c5.47,3,10.63,5.82,17.18,5.82s11.72-2.83,17.19-5.82C334.34,77,340.29,73.7,348,73.7s13.69,3.25,19.43,6.39c5.47,3,10.63,5.82,17.19,5.82s11.71-2.83,17.18-5.82c5.75-3.14,11.69-6.39,19.44-6.39S435,77,440.71,80.09c5.47,3,10.64,5.82,17.19,5.82s11.71-2.83,17.18-5.82c5.75-3.14,11.69-6.39,19.44-6.39S508.21,77,514,80.09c5.47,3,10.64,5.82,17.19,5.82s11.71-2.83,17.18-5.82C554.07,77,560,73.7,567.76,73.7a32,32,0,0,1,14.09,3.59Z"/></g></g></svg>